<svg width="139" height="37" viewBox="0 0 139 37" fill="none" xmlns="http://www.w3.org/2000/svg">
<g clip-path="url(#clip0_29879_12509)">
<path d="M16.2675 2.09961H0V7.90446H16.2675V2.09961Z" fill="white"/>
<path d="M5.25293 7.20267C5.2549 7.20267 5.25687 7.19982 5.25687 7.19982C5.27255 7.1884 5.28827 7.17418 5.30203 7.1571C5.30006 7.1571 5.29808 7.1571 5.29611 7.1543C5.28236 7.16852 5.26668 7.18559 5.25293 7.20267Z" fill="#000091"/>
<path d="M7.4284 6.4834L7.39404 6.51242C7.41371 6.50759 7.4284 6.50275 7.4284 6.4834Z" fill="#000091"/>
<path fill-rule="evenodd" clip-rule="evenodd" d="M6.72519 7.21837C6.78819 7.15621 6.85124 7.09023 6.91424 7.02236H6.91231C7.03072 6.89045 7.14529 6.76419 7.28277 6.64921C7.32477 6.61152 7.36485 6.5795 7.40305 6.55309C7.40867 6.54757 7.41153 6.5393 7.41434 6.53122C7.41725 6.5228 7.42011 6.51458 7.42597 6.50974C7.39876 6.51995 7.37707 6.53606 7.35523 6.55226C7.33266 6.56905 7.30998 6.58588 7.28085 6.59643C7.26941 6.59643 7.25792 6.58516 7.26941 6.57384C7.30949 6.54554 7.34957 6.5154 7.38777 6.48527H7.38013C7.36869 6.48527 7.36869 6.47395 7.36869 6.46263C7.22652 6.44047 7.11733 6.53587 7.01963 6.62125L7.01352 6.62662C6.99829 6.63411 6.98394 6.62666 6.97265 6.62081C6.96693 6.61786 6.962 6.6153 6.95816 6.6153C6.87169 6.64374 6.79711 6.69618 6.72203 6.749C6.65287 6.79762 6.58332 6.84652 6.5037 6.87724V6.85465C6.47664 6.86379 6.44992 6.87574 6.42311 6.88769C6.38367 6.9053 6.34413 6.92295 6.30317 6.9319C6.22844 6.94893 6.15913 6.94675 6.09194 6.94462C6.0699 6.9439 6.04802 6.94322 6.02633 6.94322C5.90402 6.95512 5.7833 6.98081 5.66267 7.00649L5.62343 7.01486C5.62151 7.01578 5.61959 7.01627 5.61767 7.01675C5.61579 7.01718 5.61387 7.01767 5.61195 7.01864C5.53939 7.03745 5.47259 7.06387 5.40574 7.10155L5.3981 7.10532C5.39549 7.10876 5.39283 7.1118 5.39041 7.11466C5.38751 7.11804 5.38489 7.12109 5.38282 7.12414C5.3599 7.15055 5.3389 7.17314 5.30646 7.19012C5.2585 7.21378 5.21704 7.25025 5.17627 7.28619C5.15863 7.30172 5.14103 7.31725 5.12313 7.33147C5.11934 7.33524 5.1117 7.33713 5.10593 7.33713C5.04678 7.39368 4.98757 7.45023 4.92644 7.50484C4.92265 7.50861 4.90544 7.5105 4.89209 7.50861C4.89209 7.50861 4.89401 7.50861 4.89401 7.50673L4.89973 7.49545L4.92837 7.45023C4.93409 7.44171 4.93936 7.43325 4.94459 7.42478C4.94986 7.41627 4.95509 7.4078 4.9608 7.39934C4.97609 7.3767 4.99142 7.35406 5.00857 7.33336C5.01237 7.3277 5.01237 7.32204 5.00857 7.31826C5.00473 7.31449 4.99901 7.3126 4.99329 7.3126C5.04865 7.25988 5.11357 7.2146 5.18042 7.17503V7.17314C5.17277 7.17503 5.16134 7.16937 5.16706 7.16187C5.17268 7.15495 5.17721 7.14702 5.18155 7.13957L5.18613 7.13169C5.18712 7.1298 5.18756 7.1284 5.18806 7.12699C5.18855 7.12559 5.18899 7.12414 5.18998 7.12225C5.18899 7.12037 5.18756 7.11896 5.18613 7.11756C5.1847 7.11616 5.18327 7.11475 5.18234 7.11287L5.17075 7.12037C5.1569 7.12922 5.1427 7.13836 5.13077 7.14866C5.12234 7.15577 5.11446 7.16555 5.10642 7.17556C5.08887 7.19733 5.07039 7.22026 5.04293 7.22026C5.04101 7.22026 5.03149 7.22026 5.02578 7.21837C5.02001 7.21837 5.01621 7.21648 5.01429 7.2146L5.01454 7.21295C5.01454 7.21295 5.01523 7.21271 5.01621 7.21271C5.01621 7.21271 5.01814 7.21087 5.01814 7.20899C5.01814 7.20899 5.01813 7.2071 5.02001 7.2071C5.02099 7.20521 5.02193 7.20376 5.02287 7.20236C5.02385 7.20096 5.02479 7.19955 5.02578 7.19767C5.02671 7.19578 5.02765 7.19438 5.02863 7.19293C5.02957 7.19152 5.03051 7.19012 5.03149 7.18823C5.03243 7.18731 5.03292 7.18586 5.03337 7.18446C5.03386 7.18306 5.03435 7.18165 5.03529 7.18069L5.03746 7.17682C5.03933 7.17348 5.0416 7.16956 5.04293 7.1656C5.04387 7.16376 5.04485 7.16231 5.04579 7.1609C5.04678 7.1595 5.04771 7.1581 5.04865 7.15621C5.05151 7.15244 5.05392 7.14818 5.05629 7.14392C5.0587 7.13971 5.06107 7.13546 5.06393 7.13169C5.06585 7.12791 5.06777 7.12414 5.07157 7.12037C5.07349 7.11659 5.07542 7.1133 5.07729 7.11001C5.07921 7.10672 5.08113 7.10343 5.08306 7.09966C5.08877 7.09023 5.08306 7.08268 5.07542 7.0808C5.09642 7.05443 5.12121 7.03179 5.15177 7.01486H5.14798C5.1743 7.00185 5.20141 6.98661 5.22838 6.97147C5.24425 6.96252 5.26032 6.95348 5.2759 6.94511C5.28162 6.93945 5.28734 6.93379 5.29498 6.93001C5.23198 6.95077 5.1747 6.97902 5.11934 7.01675C5.11934 7.01675 5.10406 7.02236 5.10021 7.02613C5.10021 7.02613 5.08877 7.02991 5.07349 7.01675C5.07157 7.01486 5.07157 7.01298 5.07157 7.0092C5.07823 6.99609 5.09188 6.98743 5.10672 6.97805C5.11746 6.97123 5.12875 6.96407 5.13842 6.95454C5.14985 6.95454 5.15942 6.95454 5.15942 6.96586C5.37932 6.79665 5.6505 6.75747 5.92256 6.71819C6.08992 6.69405 6.25762 6.66986 6.41394 6.6153C6.43016 6.60398 6.44687 6.59314 6.46358 6.5823C6.48029 6.57147 6.497 6.56063 6.51322 6.54931C6.54107 6.53795 6.56606 6.51845 6.59249 6.49784C6.61856 6.47748 6.64612 6.45595 6.67934 6.44004C6.76719 6.37406 6.83403 6.29869 6.86839 6.18748C6.86839 6.17616 6.85696 6.16484 6.85696 6.16484C6.71183 6.31751 6.5457 6.43815 6.36809 6.52672C6.19876 6.61438 6.01735 6.62739 5.83772 6.64026C5.77024 6.64509 5.703 6.64988 5.63679 6.65864C5.64823 6.636 5.67115 6.63605 5.69215 6.63605C5.69215 6.60925 5.70522 6.59774 5.72198 6.58298C5.72646 6.57902 5.73124 6.57486 5.73607 6.57007H5.76856C5.77428 6.57007 5.77714 6.56441 5.78 6.55875C5.78286 6.55309 5.78571 6.54743 5.79143 6.54743C5.81436 6.54743 5.84684 6.53616 5.83536 6.53616C5.81786 6.51405 5.79242 6.52281 5.76432 6.53243C5.73731 6.54172 5.70788 6.55183 5.68072 6.53616C5.69082 6.52527 5.69383 6.51221 5.69659 6.50036C5.6996 6.48749 5.70226 6.47603 5.71315 6.47017H5.75707C5.75707 6.44754 5.78 6.42683 5.78 6.42683C5.87957 6.36806 5.97575 6.31678 6.0701 6.26642C6.13315 6.2328 6.19546 6.19957 6.25737 6.16484C6.24485 6.16484 6.23371 6.16992 6.22297 6.1748C6.20581 6.18264 6.18945 6.19004 6.16953 6.17616C6.18097 6.17616 6.18097 6.16818 6.18097 6.16015C6.18097 6.15212 6.18097 6.14414 6.19245 6.14414C6.26408 6.12537 6.32782 6.09489 6.39294 6.06384C6.43893 6.04187 6.48556 6.01962 6.53614 6.0009C6.52115 6.0009 6.50725 6.00487 6.4937 6.00874C6.46762 6.01614 6.44287 6.0232 6.41394 6.0009C6.42153 5.99713 6.42764 5.99239 6.4337 5.98765C6.44588 5.97812 6.45781 5.96883 6.48078 5.96883V5.93681C6.48078 5.92549 6.49222 5.92549 6.5037 5.92549C6.49222 5.92549 6.48078 5.91422 6.48078 5.91422C6.48684 5.90222 6.49877 5.89975 6.51208 5.89699C6.52392 5.89458 6.53683 5.89192 6.54763 5.88214C6.53614 5.88214 6.51514 5.88214 6.51514 5.87082C6.54763 5.82748 6.60299 5.81621 6.65834 5.80489C6.65263 5.79357 6.64163 5.79357 6.63212 5.79357C6.62256 5.79357 6.61442 5.79357 6.61442 5.78225C6.61442 5.77098 6.62591 5.77098 6.63734 5.77098H6.61442C6.59648 5.76208 6.59963 5.74626 6.60185 5.73528C6.60244 5.73228 6.60298 5.72962 6.60298 5.72759C6.64784 5.67573 6.66258 5.61454 6.67727 5.55369C6.68442 5.52389 6.69162 5.49414 6.70227 5.46565C6.69083 5.46565 6.67934 5.46565 6.67934 5.45433C6.57198 5.57125 6.40181 5.61556 6.24017 5.65769L6.22489 5.66166H6.16953C6.11417 5.68425 6.03589 5.68425 5.98048 5.65034C5.95416 5.63679 5.93538 5.61981 5.91512 5.60153C5.90156 5.58929 5.88731 5.57647 5.86976 5.56365C5.78 5.50899 5.69215 5.46565 5.59287 5.43174C5.31598 5.345 5.02765 5.29977 4.73932 5.31109C4.81987 5.26765 4.90535 5.25033 4.99196 5.23282C5.03682 5.22378 5.08202 5.21464 5.12693 5.20177C5.15532 5.19359 5.18342 5.18513 5.21132 5.17671C5.36971 5.12906 5.52336 5.08286 5.69215 5.09249C5.67007 5.0848 5.64177 5.08756 5.61574 5.09012C5.60352 5.09133 5.59179 5.09249 5.58143 5.09249C5.45376 5.08316 5.32485 5.11102 5.19032 5.14014C5.16183 5.14628 5.13309 5.15252 5.10406 5.15842C5.05136 5.16921 5.00128 5.18464 4.95109 5.20012C4.89578 5.2172 4.84038 5.23427 4.78132 5.24511C4.75574 5.25382 4.73513 5.26857 4.71512 5.28294C4.68288 5.30606 4.65202 5.32822 4.60376 5.32241V5.2885C4.71452 5.15654 4.84816 5.02651 5.02578 5.01519C5.19742 4.98776 5.35926 5.0073 5.5281 5.02767C5.55649 5.0311 5.58503 5.03459 5.61387 5.03783C5.75229 5.04876 5.88179 5.07904 6.02135 5.1117L6.03589 5.11508C6.0664 5.11508 6.08361 5.14149 6.10022 5.16704C6.11378 5.18779 6.12694 5.20801 6.14661 5.21309C6.17382 5.22228 6.20098 5.22402 6.22819 5.22571C6.26782 5.22823 6.30746 5.23074 6.34709 5.25643C6.34709 5.24883 6.34581 5.24143 6.34453 5.23413C6.34201 5.21967 6.3395 5.20549 6.34709 5.1905C6.37174 5.16616 6.39999 5.17269 6.42779 5.17913C6.44953 5.18411 6.47102 5.18909 6.49035 5.17918C6.55088 5.14232 6.49409 5.08567 6.43725 5.02902C6.40985 5.00169 6.38239 4.97436 6.36809 4.94926C6.36809 4.93794 6.37958 4.92662 6.37958 4.92662C6.40467 4.94868 6.42804 4.97151 6.45116 4.99415C6.50913 5.05079 6.56587 5.10618 6.64499 5.14527C6.70034 5.16786 6.83403 5.19988 6.81111 5.13395C6.77187 5.04852 6.70488 4.97441 6.63725 4.89962C6.60939 4.86881 6.58144 4.8379 6.55527 4.80602V4.76268C6.53782 4.76268 6.53368 4.75615 6.52845 4.74802C6.52682 4.74546 6.5251 4.74275 6.52278 4.74004V4.6967C6.49478 4.68228 6.48852 4.65945 6.48221 4.63647C6.47861 4.62341 6.47501 4.6103 6.46742 4.59869C6.44825 4.56827 6.44692 4.53082 6.44549 4.49217C6.44435 4.46146 6.44317 4.43001 6.43301 4.40079C6.41014 4.33481 6.40058 4.2802 6.38914 4.21422C6.37667 4.14674 6.36301 4.08221 6.34961 4.01903C6.32599 3.90753 6.30322 3.80028 6.28981 3.6884C6.27216 3.52847 6.35444 3.39327 6.43858 3.25502C6.46353 3.21399 6.48862 3.17278 6.51134 3.13055C6.58963 2.99859 6.67747 2.86856 6.82255 2.77999C6.85424 2.65131 6.94036 2.54416 7.02609 2.4375L7.0326 2.42942C7.11724 2.32595 7.25852 2.26268 7.36263 2.21609L7.37441 2.21082C7.5291 2.14295 7.66846 2.09961 7.67038 2.09961H0V7.90252H5.44203C5.58755 7.799 5.73223 7.73365 5.90437 7.65591C5.98295 7.62045 6.06724 7.58238 6.15997 7.53691C6.17964 7.52719 6.20295 7.51592 6.22883 7.50344C6.38426 7.42841 6.63192 7.30883 6.72519 7.21837ZM4.99837 6.43549C4.97678 6.43762 4.9539 6.43984 4.96253 6.42287C4.97056 6.3847 5.01035 6.37328 5.04924 6.36211C5.06585 6.35732 5.08237 6.35258 5.09607 6.34581L5.10233 6.34266L5.10692 6.34024C5.12846 6.32902 5.15483 6.31528 5.1743 6.32326C5.18742 6.3416 5.20368 6.34634 5.21946 6.35089C5.23124 6.35432 5.24272 6.35766 5.25249 6.36651C5.21123 6.40714 5.16306 6.41116 5.11426 6.41522C5.08182 6.41788 5.04909 6.42064 5.01784 6.43414C5.01227 6.43414 5.00537 6.43481 4.99837 6.43549ZM3.30901 6.17045C3.30901 6.18177 3.3205 6.19309 3.3205 6.19309C3.58783 5.89719 3.83031 5.64463 4.174 5.43541C4.18322 5.43164 4.17982 5.43638 4.17523 5.44267C4.16848 5.452 4.15921 5.46482 4.18548 5.45805C4.29926 5.43261 4.35038 5.33692 4.40007 5.2439C4.41293 5.21981 4.4257 5.19591 4.43945 5.17347C4.49156 5.09022 4.56565 5.03691 4.64028 4.98321C4.69407 4.94447 4.74819 4.90548 4.79458 4.85498C4.79458 4.86625 4.79458 4.87757 4.78314 4.88889C4.79458 4.90021 4.80607 4.90021 4.8175 4.90021C4.83766 4.88526 4.85965 4.87911 4.88075 4.87316C4.90761 4.86562 4.933 4.85851 4.95119 4.83422C4.86335 4.80031 4.75071 4.78899 4.66286 4.8229C4.42989 4.93223 4.23133 5.10749 4.04228 5.30538C3.92772 5.42414 3.80931 5.5353 3.66418 5.6126C3.5649 5.80862 3.45414 5.98387 3.30901 6.17045ZM4.24124 5.46952C4.23527 5.48132 4.22926 5.48746 4.22354 5.49332C4.21836 5.49864 4.21334 5.50376 4.2088 5.51271C4.19736 5.53526 4.18593 5.54464 4.16493 5.55591C4.15349 5.55591 4.14205 5.55591 4.14205 5.54464C4.15349 5.50144 4.18593 5.45824 4.2298 5.44697C4.24124 5.44886 4.24124 5.46013 4.24124 5.46952ZM4.72951 7.14325C4.73907 7.13381 4.75051 7.12249 4.75623 7.11117C4.76574 7.08858 4.70664 7.09424 4.69707 7.0999C4.68845 7.10672 4.68293 7.11354 4.67627 7.12182L4.6742 7.12438C4.66626 7.13338 4.65695 7.1417 4.64748 7.15012C4.64107 7.15587 4.63457 7.16163 4.6284 7.16772C4.60169 7.19414 4.57502 7.2205 4.54638 7.24502C4.5273 7.26196 4.58833 7.2695 4.60169 7.25818C4.61697 7.24691 4.63033 7.2337 4.64369 7.2205C4.64876 7.2205 4.65384 7.21968 4.65724 7.2191L4.65956 7.21876L4.66084 7.21861C4.69249 7.20821 4.716 7.18659 4.73888 7.1656L4.74479 7.16018C4.75243 7.15268 4.74287 7.14513 4.72951 7.14325ZM4.55688 7.02067L4.55638 7.02086L4.55619 7.02251C4.54445 7.03039 4.53287 7.03842 4.52133 7.04645C4.49151 7.06715 4.46183 7.08776 4.43014 7.10547C4.39987 7.1222 4.36881 7.13667 4.33746 7.15123C4.31942 7.15964 4.30128 7.16811 4.28309 7.17706C4.28309 7.17706 4.28309 7.17517 4.28122 7.17517C4.27737 7.16951 4.26973 7.16763 4.26209 7.1714C4.22009 7.19404 4.18381 7.22418 4.15137 7.2562C4.1456 7.25997 4.13989 7.26563 4.13609 7.27129L4.11889 7.28827V7.29016C4.11124 7.2977 4.1036 7.3052 4.09409 7.31652C4.09207 7.3185 4.09054 7.32044 4.08911 7.32233C4.08635 7.32586 4.08379 7.32915 4.07881 7.33161C4.07117 7.33539 4.05204 7.33539 4.05396 7.32407V7.32218C4.04825 7.32595 4.04061 7.32973 4.03489 7.33161C4.03203 7.3335 4.02917 7.3349 4.02631 7.33631C4.0234 7.33771 4.02054 7.33916 4.01768 7.34105C4.01576 7.33916 4.01196 7.33916 4.01004 7.33916C4.00817 7.33916 4.00432 7.33916 4.0024 7.34105C3.99796 7.34482 3.99353 7.34835 3.98904 7.35193C3.98012 7.35904 3.97125 7.36615 3.96232 7.37496C3.9394 7.39571 3.9184 7.4183 3.8974 7.44282C3.8974 7.44282 3.8974 7.44466 3.89548 7.44466C3.89548 7.44563 3.89454 7.44655 3.89454 7.44655L3.89356 7.44844L3.88976 7.45221C3.88902 7.45293 3.88818 7.45429 3.88818 7.45429C3.88759 7.45526 3.8871 7.45598 3.88592 7.45598L3.88404 7.45787C3.88212 7.46164 3.8802 7.46542 3.8764 7.46919C3.87448 7.47108 3.87068 7.47296 3.86684 7.47296C3.86492 7.47107 3.86304 7.46919 3.86304 7.4673C3.86206 7.46638 3.86161 7.46542 3.86112 7.4645C3.86063 7.46353 3.86018 7.46261 3.8592 7.46164C3.85727 7.45884 3.85585 7.45598 3.85442 7.45318C3.85299 7.45032 3.85156 7.44752 3.84968 7.44466V7.44282C3.84968 7.44186 3.84919 7.44094 3.8487 7.43997C3.8482 7.43905 3.84776 7.43717 3.84776 7.43717L3.88212 7.39755L3.88404 7.39571C3.88592 7.39382 3.88784 7.39145 3.88976 7.38908C3.89168 7.38676 3.89356 7.38439 3.89548 7.3825C3.89834 7.37873 3.90169 7.37496 3.90504 7.37118C3.90839 7.36741 3.9117 7.36364 3.91461 7.35986C3.91554 7.35798 3.91648 7.35657 3.91746 7.35517C3.9184 7.35377 3.91934 7.35232 3.92032 7.35043C3.93176 7.33539 3.94325 7.32029 3.95468 7.30331V7.30143C3.95661 7.29959 3.95848 7.2977 3.95848 7.29393C3.96425 7.28638 3.96996 7.27884 3.97376 7.27129L3.98525 7.2487V7.24681L3.98712 7.24493C3.98712 7.24396 3.98811 7.24304 3.98811 7.24304L3.98904 7.24115C3.99096 7.23641 3.99289 7.23221 3.99476 7.22795C3.99668 7.22374 3.99861 7.21948 4.00053 7.21474V7.21286L4.0024 7.20531C4.00339 7.20347 4.00383 7.20159 4.00432 7.1997C4.00482 7.19781 4.00526 7.19593 4.00625 7.19404V7.19215C4.00718 7.1893 4.00768 7.18649 4.00817 7.18364C4.00861 7.18083 4.00911 7.17803 4.01004 7.17517C4.01004 7.17329 4.01004 7.16951 4.00817 7.16763C4.0196 7.14692 4.03489 7.12806 4.05204 7.10919C4.05204 7.10919 4.05017 7.10967 4.04918 7.11016L4.04756 7.11088L4.04632 7.11108C4.03784 7.11635 4.0305 7.12332 4.02306 7.13048C4.01714 7.13614 4.01113 7.14189 4.00432 7.14692C3.99289 7.15636 3.96996 7.14126 3.98525 7.12994C3.99476 7.1224 4.0024 7.11485 4.01004 7.10735C4.01004 7.10735 4.01004 7.10547 4.01196 7.10547C4.01956 7.09869 4.0269 7.091 4.03425 7.08331C4.04539 7.07165 4.05663 7.05985 4.06925 7.0508C4.0826 7.04137 4.09217 7.03383 4.1036 7.02439C4.10553 7.02251 4.10745 7.02062 4.10937 7.02062C4.11696 7.01123 4.1246 7.0018 4.13417 6.99237C4.13417 6.99237 4.13609 6.99237 4.13609 6.99048C4.20165 6.92808 4.29379 6.90607 4.38784 6.88358C4.44714 6.8694 4.50724 6.85508 4.5619 6.83027C4.59276 6.81769 4.62717 6.82263 4.66119 6.82756C4.6882 6.83143 4.71497 6.8353 4.73947 6.83027C4.77195 6.83027 4.80631 6.83027 4.83875 6.85291C4.76328 6.89233 4.69121 6.93746 4.61993 6.98211C4.59927 6.99503 4.57867 7.00794 4.55806 7.02062L4.55688 7.02067ZM4.79552 6.25254C4.78654 6.25356 4.78078 6.25419 4.78571 6.25907C4.81819 6.29114 4.88504 6.27982 4.93083 6.25535C4.96332 6.23271 4.99768 6.23271 5.0416 6.23271C5.05304 6.23271 5.05304 6.21196 5.05304 6.20068C5.08552 6.21196 5.10844 6.21196 5.14088 6.21196C5.40629 6.15734 5.66218 6.10268 5.90659 5.98204C5.65927 5.79454 5.35438 5.711 5.05575 5.6292C5.00621 5.6156 4.95686 5.60211 4.90791 5.58813C4.91871 5.58813 4.92945 5.59166 4.94025 5.59519C4.96209 5.60235 4.98422 5.60956 5.00724 5.58813C4.97692 5.56442 4.94321 5.55988 4.90978 5.55543C4.88213 5.5517 4.85472 5.54798 4.82963 5.53351C4.83224 5.53351 4.8354 5.53409 4.83875 5.53472C4.85018 5.5369 4.86473 5.53966 4.87355 5.52219C4.81558 5.49356 4.75756 5.48383 4.699 5.47401C4.66888 5.46898 4.63861 5.4639 4.60814 5.45621C4.6635 5.44489 4.69791 5.40155 4.69791 5.34689C4.69791 5.33562 4.67499 5.33562 4.6635 5.33562C4.53179 5.40155 4.44202 5.52219 4.38666 5.66354C4.43655 5.69237 4.49038 5.68904 4.54312 5.68575C4.5731 5.68391 4.60267 5.68207 4.63107 5.68613C4.60602 5.7095 4.56984 5.71583 4.53504 5.72193C4.52207 5.7242 4.50931 5.72643 4.49738 5.72948C4.46302 5.73702 4.43058 5.76155 4.44202 5.78414C4.44966 5.79357 4.4573 5.79734 4.46686 5.79923C4.44202 5.80678 4.4191 5.8181 4.3981 5.8388C4.42955 5.86308 4.46193 5.85839 4.49393 5.8538C4.50664 5.85196 4.51926 5.85012 4.53179 5.85012C4.53179 5.86381 4.5409 5.86845 4.55042 5.87329C4.55535 5.87576 4.56033 5.87832 4.56422 5.88214C4.50886 5.9029 4.46494 5.94813 4.45345 5.98015C4.4398 6.0128 4.41451 6.03404 4.38947 6.05503C4.37256 6.06925 4.3558 6.08333 4.34274 6.10079V6.1347C4.30581 6.16677 4.26791 6.19546 4.23054 6.22371C4.15374 6.28176 4.0791 6.33816 4.02005 6.41929C4.03149 6.41929 4.03148 6.43061 4.03148 6.44192C4.02094 6.45755 4.0059 6.46838 3.99165 6.47864C3.97499 6.49068 3.95937 6.50191 3.9532 6.51918C3.9532 6.5305 3.9532 6.54182 3.96464 6.54182C4.03474 6.51908 4.09532 6.48082 4.15477 6.44328C4.2087 6.40927 4.26169 6.37585 4.31981 6.35519C4.36734 6.34402 4.40869 6.32288 4.44907 6.30222C4.48333 6.28471 4.51685 6.26759 4.55279 6.25718C4.58044 6.25157 4.611 6.24354 4.64157 6.23551C4.67213 6.22753 4.70264 6.2195 4.73035 6.21384C4.73035 6.22516 4.73035 6.23648 4.74183 6.23648H4.82963C4.82426 6.2493 4.8072 6.25124 4.79552 6.25254Z" fill="#000091"/>
<path d="M16.2678 2.09961H9.90702C9.90702 2.09961 9.91856 2.1015 9.96662 2.12602C10.0185 2.15243 10.0859 2.18833 10.1262 2.20908C10.2089 2.25058 10.2877 2.30341 10.3397 2.38458C10.3628 2.41665 10.3954 2.48268 10.3743 2.52612C10.3512 2.58083 10.3397 2.66955 10.2839 2.6903C10.2166 2.72426 10.1282 2.72426 10.0493 2.71294C10.0051 2.71294 9.96085 2.70162 9.91471 2.6903C10.082 2.75633 10.2397 2.83373 10.3512 2.98659C10.3628 3.00923 10.407 3.01866 10.4512 3.01866C10.4627 3.01866 10.4627 3.0413 10.4627 3.05073C10.4397 3.07337 10.4185 3.08469 10.43 3.11676H10.4627C10.5185 3.09412 10.5069 2.98466 10.5858 3.01866C10.6416 3.05073 10.6646 3.12808 10.63 3.18284C10.5858 3.22623 10.5416 3.26019 10.4954 3.29226C10.4839 3.31495 10.4839 3.34702 10.4954 3.36966C10.5281 3.41305 10.5396 3.45644 10.5512 3.50177C10.5858 3.57912 10.5954 3.66595 10.63 3.7433C10.6743 3.90748 10.7185 4.07166 10.7089 4.23773C10.7089 4.32456 10.6646 4.40191 10.6973 4.49063C10.7204 4.57741 10.7762 4.64349 10.8204 4.72084C10.8646 4.78692 10.9088 4.83031 10.9435 4.89634C11.0107 5.00581 11.1338 5.11528 11.078 5.24739C11.0454 5.32473 10.9223 5.31342 10.8434 5.35681C10.7762 5.41157 10.8319 5.50023 10.8665 5.55495C10.9223 5.6531 10.7992 5.71913 10.7204 5.75313C10.7435 5.78709 10.7877 5.77577 10.7992 5.79652C10.8108 5.85123 10.8665 5.88331 10.8319 5.93995C10.7877 6.00598 10.6531 6.03805 10.7204 6.13809C10.7646 6.21549 10.7358 6.30038 10.7089 6.37967C10.6762 6.47777 10.5858 6.52116 10.5069 6.54385C10.4397 6.56649 10.3608 6.56649 10.2954 6.55517C10.2724 6.54385 10.2512 6.53248 10.2281 6.53248C10.0378 6.50984 9.84742 6.45702 9.65897 6.45702C9.60321 6.46834 9.54746 6.47777 9.50324 6.50041C9.45321 6.5363 9.40707 6.57592 9.36862 6.61743C9.36862 6.61743 9.36862 6.61743 9.36669 6.61931C9.359 6.62875 9.34939 6.63629 9.3417 6.64572C9.33786 6.65138 9.33209 6.65704 9.32824 6.6627C9.3244 6.66648 9.32248 6.67025 9.31863 6.67402C9.28595 6.71369 9.25711 6.75708 9.23019 6.80047C9.22827 6.80425 9.22635 6.80613 9.22443 6.80802C9.2225 6.81368 9.21866 6.81745 9.21482 6.82311C9.17829 6.88919 9.15132 6.95711 9.13017 7.02507C9.05327 7.27603 9.08788 7.49115 9.14171 7.54402C9.15709 7.55912 9.51093 7.6667 9.75707 7.77424C9.87242 7.82522 9.95316 7.86295 10.0205 7.90446H16.2659V2.09961H16.2678Z" fill="#E1000F"/>
<path d="M10.2844 4.21519C10.3286 4.22651 10.3957 4.22651 10.3957 4.2491C10.3727 4.33578 10.2403 4.35842 10.1732 4.447H10.1387C10.1061 4.46963 10.1157 4.5243 10.0831 4.5243C10.0505 4.51298 10.016 4.5243 9.98335 4.53557C10.0275 4.57891 10.0831 4.61287 10.1502 4.60155C10.1617 4.60155 10.1828 4.62414 10.1828 4.64489C10.1828 4.64489 10.1943 4.64489 10.2058 4.63357C10.2174 4.63357 10.2288 4.63357 10.2288 4.64489V4.68823C10.1963 4.73158 10.1387 4.71087 10.0946 4.72026C10.1847 4.7429 10.273 4.7429 10.3516 4.72026C10.4187 4.69767 10.3516 4.58834 10.3957 4.53368C10.3727 4.53368 10.3957 4.49977 10.3727 4.49977C10.3957 4.47718 10.4168 4.44511 10.4398 4.43379C10.4628 4.43379 10.4954 4.42252 10.5069 4.39988C10.5069 4.37729 10.4628 4.36786 10.4724 4.34522C10.5396 4.30187 10.5952 4.23594 10.5721 4.16996C10.5606 4.13605 10.4724 4.13605 10.4168 4.1153C10.3612 4.09454 10.2941 4.1153 10.2269 4.12662C10.1713 4.12662 10.1157 4.16053 10.0601 4.16996C9.98143 4.19255 9.91434 4.23594 9.84912 4.27928C9.92775 4.24721 10.0045 4.23594 10.0946 4.2133C10.1617 4.21519 10.2174 4.2001 10.2844 4.21519Z" fill="#808080"/>
<path d="M0.609375 15.1602V11.0968H1.87528C2.78626 11.0968 3.34823 11.5554 3.34823 12.31C3.34823 12.8034 3.1057 13.1691 2.67979 13.3607L3.97527 15.1602H2.98739L1.8812 13.5174H1.44937V15.1602H0.609375ZM1.92261 11.7818H1.44937V12.8324H1.92261C2.27753 12.8324 2.48458 12.6293 2.48458 12.2984C2.48458 11.9907 2.27753 11.7818 1.92261 11.7818ZM6.17548 10.7485H5.41238L6.08083 9.96484H6.94449L6.17548 10.7485ZM4.59605 15.1602V11.0968H7.00956V11.7818H5.43604V12.7454H6.77294V13.4303H5.43604V14.4752H7.00956V15.1602H4.59605ZM8.07439 15.1602V11.0968H9.44086C10.3518 11.0968 10.9079 11.5554 10.9079 12.31C10.9079 13.0588 10.3518 13.5174 9.44086 13.5174H8.91438V15.1602H8.07439ZM9.47635 11.7818H8.91438V12.8324H9.47635C9.83128 12.8324 10.0442 12.6293 10.0442 12.2984C10.0442 11.9907 9.83128 11.7818 9.47635 11.7818ZM14.1333 13.6393V11.0968H14.9733V13.5697C14.9733 14.6377 14.3345 15.2763 13.2933 15.2763C12.2581 15.2763 11.6193 14.6377 11.6193 13.5697V11.0968H12.4593V13.6393C12.4593 14.185 12.7728 14.5042 13.2993 14.5042C13.8139 14.5042 14.1333 14.185 14.1333 13.6393ZM16.1056 15.1602V11.0968H17.3241C18.1878 11.0968 18.7143 11.5147 18.7143 12.1997C18.7143 12.5306 18.5605 12.815 18.2706 13.0008C18.7084 13.1923 18.9509 13.5406 18.9509 13.9644C18.9509 14.7074 18.3653 15.1602 17.4129 15.1602H16.1056ZM17.3419 11.7818H16.9456V12.6989H17.3419C17.6613 12.6989 17.8506 12.5306 17.8506 12.2345C17.8506 11.9501 17.6613 11.7818 17.3419 11.7818ZM17.4602 13.3839H16.9456V14.4752H17.4602C17.8506 14.4752 18.0872 14.272 18.0872 13.9296C18.0872 13.5813 17.8506 13.3839 17.4602 13.3839ZM19.9016 15.1602V11.0968H20.7416V14.4114H22.3151V15.1602H19.9016ZM23.1431 15.1602V11.0968H23.9831V15.1602H23.1431ZM28.7016 15.0557C29.021 15.3401 29.305 15.4446 29.5712 15.4446C29.6599 15.4446 29.7782 15.433 29.8669 15.3982V16.0948C29.7309 16.147 29.6126 16.1702 29.4292 16.1702C28.9678 16.1702 28.5419 15.9845 28.1337 15.6362L27.6427 15.2066C27.4653 15.2531 27.276 15.2763 27.0748 15.2763C25.7675 15.2763 24.8743 14.2895 24.8743 13.1285C24.8743 11.9675 25.7675 10.9807 27.0748 10.9807C28.3762 10.9807 29.2695 11.9675 29.2695 13.1285C29.2695 13.8077 28.9619 14.4288 28.4531 14.8235L28.7016 15.0557ZM27.0748 14.5042C27.8498 14.5042 28.4058 13.9063 28.4058 13.1285C28.4058 12.3506 27.8498 11.7527 27.0748 11.7527C26.294 11.7527 25.7379 12.3506 25.7379 13.1285C25.7379 13.9063 26.294 14.5042 27.0748 14.5042ZM32.6053 13.6393V11.0968H33.4453V13.5697C33.4453 14.6377 32.8064 15.2763 31.7653 15.2763C30.7301 15.2763 30.0912 14.6377 30.0912 13.5697V11.0968H30.9312V13.6393C30.9312 14.185 31.2447 14.5042 31.7712 14.5042C32.2859 14.5042 32.6053 14.185 32.6053 13.6393ZM34.5775 15.1602V11.0968H36.991V11.7818H35.4175V12.7454H36.7544V13.4303H35.4175V14.4752H36.991V15.1602H34.5775ZM0.609375 20.965V16.9016H3.02288V17.5866H1.44937V18.5502H2.78626V19.2352H1.44937V20.965H0.609375ZM3.85085 20.965V16.9016H5.11676C6.02774 16.9016 6.58971 17.3602 6.58971 18.1148C6.58971 18.6083 6.34717 18.974 5.92126 19.1655L7.21674 20.965H6.22886L5.12267 19.3223H4.69084V20.965H3.85085ZM5.16408 17.5866H4.69084V18.6373H5.16408C5.51901 18.6373 5.72605 18.4341 5.72605 18.1032C5.72605 17.7956 5.51901 17.5866 5.16408 17.5866ZM7.49605 20.965L9.06365 16.9016H10.164L11.7315 20.965H10.8383L10.442 19.9085H8.78567L8.38929 20.965H7.49605ZM9.04595 19.2062H10.1817L9.61384 17.6795L9.04595 19.2062ZM12.4597 20.965V16.9016H13.5363L15.3879 19.8389V16.9016H16.2279V20.965H15.1512L13.2997 18.0278V20.965H12.4597ZM19.3203 20.3091C19.7936 20.3091 20.1662 20.0827 20.4028 19.7518L21.0654 20.251C20.7459 20.6806 20.249 20.9824 19.6457 21.0579L19.131 21.8996H18.3857L18.9062 21.0463C17.8296 20.8605 17.1198 19.9666 17.1198 18.9333C17.1198 17.7724 18.013 16.7855 19.3203 16.7855C20.0716 16.7855 20.6868 17.1164 21.0654 17.6098L20.4028 18.1148C20.1662 17.784 19.7936 17.5576 19.3203 17.5576C18.5395 17.5576 17.9834 18.1555 17.9834 18.9333C17.9834 19.7112 18.5395 20.3091 19.3203 20.3091ZM21.3336 20.965L22.9012 16.9016H24.0015L25.5691 20.965H24.6759L24.2795 19.9085H22.6232L22.2269 20.965H21.3336ZM22.8835 19.2062H24.0193L23.4514 17.6795L22.8835 19.2062ZM26.2973 20.965V16.9016H27.1372V20.965H26.2973ZM28.0107 20.402L28.62 19.8505C28.8685 20.164 29.1997 20.3497 29.5369 20.3497C29.8682 20.3497 30.0693 20.1756 30.0693 19.8853C30.0693 19.1365 28.1882 19.3397 28.1882 17.9639C28.1882 17.3196 28.7324 16.7855 29.5251 16.7855C30.1462 16.7855 30.6194 17.0584 30.9744 17.4705L30.3592 18.0162C30.1166 17.7085 29.8445 17.5053 29.531 17.5053C29.2352 17.5053 29.04 17.6911 29.04 17.9349C29.04 18.6721 30.9211 18.4631 30.9211 19.8563C30.9093 20.6225 30.3059 21.0811 29.5428 21.0811C28.8448 21.0811 28.3775 20.8315 28.0107 20.402ZM31.8906 20.965V16.9016H34.3041V17.5866H32.7306V18.5502H34.0675V19.2352H32.7306V20.2801H34.3041V20.965H31.8906Z" fill="black"/>
<path fill-rule="evenodd" clip-rule="evenodd" d="M15.3703 31.4202L14.8201 31.9136H14.6781L15.0035 31.3506H15.3703V31.4202ZM14.9739 33.3297H14.8556C14.7077 33.5038 14.5421 33.6432 14.3823 33.6432C14.2167 33.6432 14.1339 33.5445 14.1339 33.3297C14.1339 33.2427 14.1457 33.1498 14.1634 33.0685L15.1278 32.7551C15.3171 32.3139 15.0923 32.1224 14.8261 32.1224C14.3705 32.1224 13.8499 32.906 13.8499 33.5329C13.8499 33.8289 13.9918 33.9915 14.2167 33.9915C14.477 33.9856 14.7491 33.736 14.9739 33.3297ZM14.643 32.3779C14.7732 32.3779 14.8856 32.4766 14.8264 32.703L14.2288 32.8597C14.3235 32.5811 14.501 32.3779 14.643 32.3779ZM12.7619 32.3894H13.0814L12.5726 33.7593C12.5252 33.8754 12.5903 33.9915 12.7145 33.9915C13.0755 33.9915 13.5074 33.6896 13.673 33.2601H13.5843C13.4541 33.44 13.1701 33.6374 12.9571 33.6722L13.4245 32.3894H13.9037L13.9629 32.192H13.4955L13.673 31.6987H13.4896L13.1583 32.192L12.7619 32.2443V32.3894ZM12.3179 32.1285C12.3829 32.1285 12.4717 32.1982 12.4302 32.3259L11.8564 33.6899C12.0043 33.6667 12.1581 33.5274 12.2469 33.3997H12.3415C12.2054 33.7422 11.8978 33.9918 11.6316 33.9918C11.5665 33.9918 11.4718 33.9221 11.5191 33.7944L12.0516 32.4304C11.9037 32.4536 11.7499 32.5929 11.6611 32.7206H11.5724C11.7085 32.3723 12.0398 32.1285 12.3179 32.1285ZM12.4839 31.7801C12.6022 31.7801 12.7028 31.6872 12.7028 31.5653C12.7028 31.4493 12.6022 31.3506 12.4839 31.3506C12.3597 31.3506 12.265 31.4493 12.265 31.5653C12.265 31.6814 12.3656 31.7801 12.4839 31.7801ZM9.89838 32.9121C10.0285 32.6335 9.9812 32.5058 9.89838 32.5058C9.8274 32.5058 9.74453 32.5813 9.66172 32.7206H9.57298C9.70904 32.4246 9.88655 32.1285 10.0818 32.1285C10.2474 32.1285 10.3066 32.2911 10.3066 32.471V32.7264C10.3332 32.696 10.3591 32.6662 10.3845 32.637L10.3849 32.6365L10.3853 32.636C10.6353 32.3482 10.8261 32.1285 11.0461 32.1285C11.2177 32.1285 11.3065 32.233 11.3065 32.3898C11.3065 32.4826 11.2769 32.5987 11.2118 32.7206L10.7207 33.6899C10.8687 33.6667 11.0225 33.5274 11.1112 33.3997H11.2C11.0639 33.748 10.7326 33.9918 10.4545 33.9918C10.3303 33.9918 10.2593 33.8641 10.3125 33.7596L10.8805 32.6857C10.9456 32.5638 10.9574 32.4826 10.8568 32.4826C10.7207 32.4826 10.4012 32.7032 10.2297 32.9063L9.85698 33.8699C9.81557 33.9686 9.77416 33.9918 9.67946 33.9918C9.52566 33.9918 9.44876 33.8931 9.51975 33.7364L9.89838 32.9121ZM9.51339 32.5403C9.57846 32.3198 9.54296 32.1224 9.37137 32.1224C9.15742 32.1224 9.09043 32.261 8.88305 32.6901L8.8685 32.7202V32.4649C8.8685 32.2849 8.80935 32.1224 8.64367 32.1224C8.44846 32.1224 8.27094 32.4184 8.13489 32.7144H8.22362C8.31827 32.5809 8.40705 32.4997 8.47803 32.4997C8.56085 32.4997 8.60817 32.6274 8.47803 32.906L8.0994 33.7302C8.02841 33.887 8.10531 33.9856 8.25911 33.9856C8.35381 33.9856 8.39522 33.9624 8.43662 33.8637L8.80935 32.9002C8.91583 32.7725 9.01047 32.6622 9.12883 32.5403H9.51339ZM7.64395 32.703C7.70311 32.4766 7.59071 32.3779 7.46057 32.3779C7.31855 32.3779 7.14109 32.5811 7.04639 32.8597L7.64395 32.703ZM7.7915 33.3297H7.67319C7.52525 33.5038 7.35962 33.6432 7.19985 33.6432C7.03422 33.6432 6.9514 33.5445 6.9514 33.3297C6.9514 33.2427 6.96323 33.1498 6.98098 33.0685L7.94535 32.7551C8.13464 32.3139 7.90985 32.1224 7.64361 32.1224C7.18802 32.1224 6.66741 32.906 6.66741 33.5329C6.66741 33.8289 6.80938 33.9915 7.03422 33.9915C7.29455 33.9856 7.56671 33.736 7.7915 33.3297ZM5.89894 32.3894H5.57946V32.2443L5.97584 32.192L6.30716 31.6987H6.49054L6.31307 32.192H6.78044L6.72129 32.3894H6.24209L5.77467 33.6722C5.98767 33.6374 6.27167 33.44 6.40181 33.2601H6.49054C6.3249 33.6896 5.89303 33.9915 5.53214 33.9915C5.40786 33.9915 5.34279 33.8754 5.39011 33.7593L5.89894 32.3894ZM3.88769 33.4517C3.88769 33.028 4.36689 32.4592 4.63313 32.4592C4.69229 32.4592 4.75144 32.465 4.79877 32.4824L4.52074 33.2138C4.36097 33.4053 4.11248 33.6375 3.99417 33.6375C3.9291 33.6375 3.88769 33.5795 3.88769 33.4517ZM5.20718 32.0355L5.35507 32.0471L4.84037 33.208C4.7161 33.4866 4.76934 33.6143 4.84037 33.6143C4.91136 33.6143 5.00009 33.533 5.09474 33.3996H5.18352C5.04741 33.6956 4.86995 33.9916 4.67469 33.9916C4.50906 33.9916 4.40844 33.8175 4.43802 33.504L4.44985 33.3937L4.41766 33.4379C4.20574 33.7285 4.01398 33.9916 3.81685 33.9916C3.64525 33.9916 3.55652 33.8871 3.55652 33.7304C3.55652 33.0571 4.30788 32.198 5.01192 32.198H5.0415L5.20718 32.0355ZM3.85195 32.5403C3.91702 32.3198 3.88153 32.1224 3.70998 32.1224C3.49599 32.1224 3.42899 32.261 3.22166 32.6901L3.20707 32.7202V32.4649C3.20707 32.2849 3.14791 32.1224 2.98228 32.1224C2.78702 32.1224 2.60955 32.4184 2.47345 32.7144H2.56218C2.65688 32.5809 2.74561 32.4997 2.81068 32.4997C2.8935 32.4997 2.94087 32.6274 2.81068 32.906L2.43204 33.736C2.36106 33.8928 2.43796 33.9915 2.59176 33.9915C2.68646 33.9915 2.72786 33.9682 2.76927 33.8695L3.142 32.906C3.24847 32.7783 3.34317 32.668 3.46148 32.5461H3.85195V32.5403ZM1.41399 33.817L1.3785 33.9215H0L0.035493 33.8112C0.461455 33.7357 0.53249 33.7009 0.709954 33.2307L1.09451 32.2207C1.26611 31.7505 1.23061 31.7157 0.857889 31.6402L0.893382 31.5358H2.68601L2.57953 32.0988H2.44934C2.44934 31.7621 2.41385 31.6751 2.08845 31.6751H2.00564C1.68615 31.6751 1.64474 31.7215 1.55601 31.9653L1.3016 32.6444H1.67432C1.92282 32.6444 2.01747 32.4935 2.12986 32.2961H2.26005L1.9524 33.1204H1.82221C1.85178 32.8708 1.85178 32.7721 1.62108 32.7721H1.24836L1.07676 33.2365C0.891311 33.7198 0.944304 33.7297 1.38594 33.8117C1.39511 33.8134 1.40448 33.8152 1.41399 33.817Z" fill="black"/>
<path fill-rule="evenodd" clip-rule="evenodd" d="M2.58545 26.9798L2.03521 27.3689V27.3748H1.89319L2.21859 26.9102H2.58545V26.9798ZM6.43168 29.7036L7.31323 27.4038L7.28365 27.3689L6.67426 27.4386V27.5083L6.79257 27.5954C6.89363 27.6725 6.86686 27.7445 6.78306 27.9697L6.76891 28.0078L6.09445 29.7733C6.04121 29.8778 6.1122 30.0056 6.23642 30.0056C6.5145 30.0056 6.81032 29.7559 6.94642 29.4132H6.85769C6.763 29.541 6.5737 29.6804 6.43168 29.7036ZM10.4722 27.9322L11.0225 27.4386V27.3689H10.6557L10.3303 27.9322H10.4722ZM10.5073 29.3435H10.6257C10.4068 29.7559 10.1346 30.0056 9.87428 30.0056C9.64944 30.0056 9.50747 29.843 9.50747 29.5468C9.50747 28.9196 10.0281 28.1355 10.4837 28.1355C10.744 28.1355 10.9748 28.3272 10.7854 28.7686L9.81513 29.0822C9.79738 29.1635 9.78555 29.2564 9.78555 29.3435C9.78555 29.5584 9.86836 29.6572 10.034 29.6572C10.1938 29.6572 10.3594 29.5177 10.5073 29.3435ZM10.4775 28.7163C10.5367 28.4956 10.4242 28.3969 10.2941 28.3969C10.158 28.3969 9.98051 28.6001 9.8799 28.8731L10.4775 28.7163ZM8.73802 28.4083H8.41854V28.2632L8.81492 28.2109L9.14628 27.7172H9.32966L9.1522 28.2109H9.61957L9.56042 28.4083H9.08117L8.61379 29.6918C8.82675 29.657 9.11074 29.4595 9.24093 29.2795H9.32966C9.16403 29.7093 8.7321 30.0113 8.37121 30.0113C8.24694 30.0113 8.18187 29.8952 8.22919 29.779L8.73802 28.4083ZM8.08717 28.3386C8.12266 28.2109 8.03985 28.1412 7.96886 28.1412C7.69079 28.1412 7.35942 28.3909 7.22337 28.7336H7.3121C7.40088 28.6058 7.55468 28.4664 7.70262 28.4432L7.17013 29.808C7.1228 29.9358 7.21745 30.0054 7.28252 30.0054C7.54877 30.0054 7.85642 29.7557 7.99252 29.4131H7.90374C7.81501 29.5409 7.66116 29.6802 7.51327 29.7034L8.08717 28.3386ZM8.35977 27.5838C8.35977 27.7 8.25916 27.7987 8.14085 27.7987C8.02254 27.7987 7.92193 27.7 7.92193 27.5838C7.92193 27.4677 8.01663 27.3689 8.14085 27.3689C8.25916 27.3689 8.35977 27.4677 8.35977 27.5838ZM5.37257 28.4782C5.10632 28.4782 4.62707 29.0474 4.62707 29.4713C4.62707 29.5991 4.66848 29.6572 4.73951 29.6572C4.85191 29.6572 5.10041 29.4248 5.26012 29.2332L5.5382 28.5014C5.48496 28.484 5.43172 28.4782 5.37257 28.4782ZM6.0945 28.0659L5.94661 28.0542L5.78093 28.2168H5.75135C5.04732 28.2168 4.2959 29.0764 4.2959 29.7501C4.2959 29.9069 4.38464 30.0114 4.55623 30.0114C4.75337 30.0114 4.94513 29.7482 5.1571 29.4574L5.18929 29.4133L5.17746 29.5236C5.14788 29.8372 5.24844 30.0114 5.41412 30.0114C5.60938 30.0114 5.78685 29.7153 5.92295 29.4191H5.83417C5.73952 29.5526 5.65079 29.6339 5.5798 29.6339C5.50877 29.6339 5.45553 29.5061 5.5798 29.2274L6.0945 28.0659ZM3.11227 29.9476C2.85786 30.0463 2.68034 30.1625 2.68034 30.3425C2.68034 30.511 2.84011 30.5807 3.17143 30.5807C3.61518 30.5807 3.85777 30.4529 3.85777 30.2845C3.85777 30.209 3.75715 30.1741 3.49091 30.087C3.31936 30.0347 3.19509 29.9883 3.11227 29.9476ZM3.4077 29.2332C3.28939 29.2332 3.24798 29.1345 3.24798 29.0299C3.24798 28.6931 3.41361 28.275 3.67986 28.275C3.79822 28.275 3.83963 28.3737 3.83963 28.4782C3.83371 28.8209 3.66803 29.2332 3.4077 29.2332ZM3.63313 29.7791C3.95853 29.8778 4.1597 29.9533 4.1597 30.174C4.1597 30.4586 3.62721 30.7954 2.98233 30.7896C2.60956 30.7896 2.29007 30.6909 2.29007 30.4528C2.29007 30.2263 2.50308 30.0405 3.02374 29.8894C2.95275 29.843 2.92317 29.7849 2.92317 29.7036C2.92317 29.5642 3.05331 29.4539 3.27815 29.3494C3.05923 29.3203 2.91721 29.1577 2.91721 28.9196C2.91721 28.5537 3.22491 28.1355 3.71003 28.1355C3.81064 28.1355 3.89937 28.1587 3.97036 28.2052H4.50285L4.44369 28.4027H4.13012C4.14787 28.4549 4.1597 28.513 4.1597 28.5769C4.1597 28.9312 3.86979 29.3377 3.40829 29.361C3.28998 29.4248 3.23083 29.5119 3.23083 29.5816C3.23083 29.6636 3.32759 29.6914 3.54149 29.7526C3.56993 29.7608 3.60049 29.7696 3.63313 29.7791ZM1.75719 28.786C1.98794 28.786 1.99385 28.8848 1.95836 29.1345H2.0885L2.3962 28.3098H2.26601C2.15362 28.5073 2.05892 28.6582 1.81043 28.6582H1.30165L1.55015 27.9787C1.63888 27.7348 1.68029 27.6884 1.99977 27.6884H2.22461C2.55001 27.6884 2.5855 27.7755 2.5855 28.1123H2.71569L2.82217 27.549H0.893382L0.857889 27.6535C1.23061 27.729 1.26611 27.7639 1.09456 28.2343L0.710003 29.2506C0.53249 29.7211 0.461504 29.7559 0.029577 29.8314L0 29.9417H2.14179L2.52634 29.3435H2.37841C2.12996 29.5817 1.88146 29.8024 1.39629 29.8024C0.862671 29.8024 0.872185 29.7767 1.0323 29.345C1.0426 29.3172 1.05354 29.2877 1.06498 29.2564L1.24244 28.7918H1.75719V28.786Z" fill="black"/>
<path fill-rule="evenodd" clip-rule="evenodd" d="M3.52443 23.8132C3.64274 23.8132 3.7433 23.7145 3.7433 23.5985C3.7433 23.4824 3.64274 23.3838 3.52443 23.3838C3.40025 23.3838 3.30561 23.4824 3.30561 23.5985C3.30561 23.7203 3.40025 23.8132 3.52443 23.8132ZM5.2757 24.5441C5.2757 24.2656 5.20477 24.1612 5.00364 24.1612C4.75524 24.1612 4.52459 24.4222 4.29393 24.7355L4.79073 23.43L4.76116 23.3894L4.15201 23.4591V23.5287L4.27027 23.6157C4.3733 23.6943 4.34343 23.7729 4.25568 24.0038L4.24661 24.0277L3.70845 25.4086C3.66113 25.5247 3.60789 25.6639 3.60789 25.6988C3.60789 25.8612 3.83263 26.0179 4.03962 26.0179C4.50092 26.0237 5.2757 25.1881 5.2757 24.5441ZM10.4034 23.9523L10.9535 23.4591V23.3894H10.5867L10.2615 23.9523H10.4034ZM10.4391 25.3622H10.5573C10.3326 25.7742 10.0605 26.0237 9.80029 26.0179C9.57555 26.0179 9.43363 25.8612 9.43363 25.5653C9.43363 24.9387 9.95409 24.1554 10.4095 24.1554C10.6697 24.1554 10.9004 24.3468 10.7111 24.7878L9.74705 25.1011C9.72935 25.1824 9.71752 25.2752 9.71752 25.3622C9.71752 25.5769 9.80029 25.6755 9.96592 25.6755C10.1256 25.6755 10.2912 25.5363 10.4391 25.3622ZM10.4089 24.7356C10.468 24.5151 10.3557 24.4165 10.2256 24.4165C10.0836 24.4165 9.90617 24.6195 9.81158 24.8923L10.4089 24.7356ZM8.66353 24.4284H8.34415V24.2833L8.74039 24.2311L9.0716 23.7379H9.25493L9.07752 24.2311H9.54474L9.48558 24.4284H9.00653L8.53931 25.7107C8.75222 25.6759 9.03611 25.4786 9.16625 25.2988H9.25493C9.08935 25.7281 8.65762 26.0298 8.29682 26.0298C8.17265 26.0298 8.10758 25.9138 8.1549 25.7977L8.66353 24.4284ZM8.17965 24.5792C8.24472 24.3588 8.20923 24.1615 8.03773 24.1615C7.82383 24.1615 7.75684 24.3001 7.54955 24.729L7.53501 24.7591V24.5038C7.53501 24.3239 7.47586 24.1615 7.31027 24.1615C7.11511 24.1615 6.93765 24.4574 6.80164 24.7533H6.89033C6.98497 24.6199 7.07371 24.5386 7.13873 24.5386C7.22154 24.5386 7.26887 24.6663 7.13873 24.9448L6.76024 25.7687C6.68925 25.9254 6.76615 26.024 6.9199 26.024C7.01455 26.024 7.05596 26.0008 7.09737 25.9022L7.46994 24.939C7.57642 24.8113 7.67102 24.7011 7.78933 24.5792H8.17965ZM6.30499 24.7356C6.3641 24.5151 6.25175 24.4165 6.12161 24.4165C5.97969 24.4165 5.80814 24.6195 5.70763 24.8923L6.30499 24.7356ZM6.45243 25.3622H6.33417C6.18634 25.5363 6.0207 25.6755 5.86104 25.6755C5.6954 25.6755 5.61264 25.5769 5.61264 25.3622C5.61264 25.2752 5.62447 25.1824 5.64221 25.1011L6.60624 24.7878C6.79548 24.3468 6.57074 24.1554 6.3046 24.1554C5.84921 24.1554 5.32874 24.9387 5.32874 25.5653C5.32874 25.8612 5.47067 26.0179 5.6954 26.0179C5.95563 26.0237 6.2277 25.7742 6.45243 25.3622ZM3.96888 25.5829C3.96888 25.6583 4.10493 25.7454 4.19953 25.7454C4.58399 25.7454 4.94473 25.0665 4.93882 24.6893C4.93882 24.5617 4.8738 24.5095 4.78506 24.5095C4.64314 24.5095 4.38291 24.7184 4.21728 24.9156L4.06353 25.3218C4.01029 25.4552 3.96888 25.5597 3.96888 25.5829ZM3.348 24.1615C3.41899 24.1615 3.50175 24.2311 3.46626 24.3588L2.89853 25.7223C3.04636 25.6991 3.20011 25.5598 3.28885 25.4322H3.37758C3.24152 25.7745 2.93397 26.024 2.66782 26.024C2.59689 26.024 2.50224 25.9544 2.54956 25.8268L3.08186 24.4632C2.93397 24.4864 2.78022 24.6257 2.69148 24.7533H2.6028C2.73881 24.411 3.07002 24.1615 3.348 24.1615ZM0.893037 23.558H2.16461L2.12917 23.6683C1.69739 23.7437 1.62646 23.7785 1.44899 24.2485L1.0705 25.2697C0.887171 25.7571 0.934445 25.8151 1.25975 25.8151C1.66165 25.8151 1.92514 25.5285 2.15525 25.2783C2.17235 25.2597 2.18926 25.2413 2.20602 25.2233H2.35391L1.93396 25.9544H0L0.035493 25.8499C0.461307 25.7745 0.532292 25.7397 0.709707 25.2697L1.09416 24.2427C1.26566 23.7727 1.23017 23.7379 0.857594 23.6625L0.893037 23.558Z" fill="black"/>
<path d="M78.4623 35.0914H48.991V1H78.4623V35.0914Z" fill="#004899"/>
<path d="M77.8054 1.64355H49.6463V34.449H77.8054V1.64355Z" fill="white"/>
<path d="M57.9376 20.1565C58.8421 21.5009 60.2002 22.4898 61.7737 22.9496C63.3472 23.4096 65.0356 23.3113 66.5426 22.6716C68.0495 22.0321 69.2785 20.8923 70.0145 19.4522C70.7504 18.0122 70.9466 16.3637 70.5676 14.7961C70.1885 13.2285 69.2597 11.8419 67.9426 10.8794C66.6264 9.91704 65.006 9.44027 63.3675 9.53281C61.7284 9.6254 60.1746 10.2813 58.9792 11.3856C57.7837 12.4899 57.0226 13.972 56.8299 15.5719C56.7968 15.8379 56.7806 16.1056 56.7806 16.3736C56.7786 17.7173 57.1814 19.0316 57.9376 20.1516" fill="#80A4CC"/>
<path d="M61.5015 14.1494L61.8742 14.2071L61.7465 14.4477L61.4197 14.2745L61.5015 14.1494ZM63.0001 13.3476L62.6881 13.617V13.7998L63.1781 13.9201L64.1669 13.261L64.1408 12.9932L63.7484 12.8602L63.0001 13.3476ZM63.1539 12.6244H63.0637L62.8986 12.9307L62.6309 12.9516L62.3252 13.3845L62.4884 13.4871L62.9005 13.2306L63.216 12.9003L63.1539 12.6244ZM63.7095 11.7746L63.077 12.2685L63.3023 12.4288L63.8076 11.9221L63.7095 11.7746ZM58.8479 14.531L59.0668 14.5583L59.1353 14.05V13.8897L59.0964 13.7293L58.9835 13.7197L58.8479 14.531ZM58.9638 14.8662L59.0343 14.9737L59.1664 14.9929L59.227 14.7299L59.0082 14.6786L58.9638 14.8662ZM59.0915 15.1292L59.1127 15.2687H59.2482L59.23 15.118L59.0915 15.1292ZM59.1679 15.4291L59.2058 15.5188L59.3202 15.4692C59.3202 15.4692 59.2891 15.3858 59.2857 15.3858L59.1679 15.4291ZM59.2369 15.6856L59.335 15.6504L59.297 15.5686C59.297 15.5686 59.2418 15.615 59.2433 15.6215V15.6856H59.2369ZM63.879 15.2895C63.879 15.2895 63.7011 15.7145 63.7011 15.7177C63.7011 15.7209 63.9806 15.7433 63.9806 15.7449L64.0476 15.3954L63.9983 15.3601L64.0314 15.2398L63.8909 15.1644L63.8465 15.2543L63.879 15.2895ZM63.4689 15.5846L63.6212 15.6263L63.6666 15.4868L63.5591 15.4627L63.4689 15.5846ZM66.7471 20.9773L66.5267 21.1024L66.2457 21.1601L65.628 21.7567L65.6655 21.8898L65.7552 21.8769L66.1082 21.7278C66.3034 21.638 66.4828 21.5178 66.6391 21.3718C66.7475 21.2662 66.8378 21.1436 66.9058 21.0094L66.7471 20.9773ZM66.5839 21.8096L66.5085 21.7278L66.3911 21.7968C66.3911 21.7968 66.4794 21.885 66.4774 21.885L66.5839 21.8096ZM64.2419 16.6477L64.1556 16.6365V16.7969L64.2438 16.8129L64.2961 16.6044L64.268 16.5932L64.2419 16.6477ZM59.0259 15.7498L59.057 15.8797L59.1827 15.8396L59.1417 15.7081L59.0259 15.7498ZM57.9375 20.1612L58.4279 19.7683L58.8248 19.8677L59.8856 19.0835L59.9359 18.6667L59.2398 17.6692C59.2004 17.2973 59.1363 16.9283 59.0486 16.5644C58.9771 16.3206 58.8149 15.6119 58.8085 15.6022L58.7173 15.421L58.0538 14.4445L58.4837 13.3893L58.8134 13.3653L58.8346 13.2049L58.5798 12.9965V12.9516V12.7543C58.5798 12.6197 58.812 12.4833 58.9672 12.4833C59.0106 12.4837 59.0545 12.4902 59.0964 12.5026C59.2073 12.5465 59.3098 12.6082 59.4 12.6854C59.4163 12.6966 59.7042 13.3573 59.7042 13.3573L59.4607 13.5513L59.3399 13.8399L59.5031 13.9698L59.7367 13.5737L60.7044 13.8944L61.296 14.2248L61.4754 14.0324L61.9659 14.0725L62.3287 13.5914L62.0019 13.4695L62.3464 13.0622L62.3055 12.9243L61.7795 12.8249L62.1813 12.4032L62.5717 12.6533V12.7639L62.8187 12.7928L63.0129 12.4032L62.8675 12.2765L63.4822 11.696L64.0427 11.441L64.4755 11.162L64.5608 11.0963L64.5771 10.798L64.5036 10.5863L64.3123 10.5126L64.5573 10.3233L64.4903 10.2881C64.1265 10.5373 63.6996 10.6822 63.2564 10.7066C62.7664 10.7387 61.7958 10.5286 61.7958 10.5286L60.8252 10.3859L60.485 10.3265C59.6633 10.757 58.9367 11.3435 58.3476 12.052L58.3234 12.9516L58.1731 13.3653L57.8329 14.5519L57.9458 14.8871L57.3952 14.964L56.8377 15.5718C56.8066 15.8379 56.7908 16.1056 56.7904 16.3736C56.7884 17.7172 57.1911 19.0316 57.9473 20.1515L57.9375 20.1612ZM67.4416 10.5398C68.2944 11.0583 69.024 11.7509 69.5801 12.5704C70.1356 13.39 70.5058 14.3173 70.6641 15.2895L70.1184 15.7482L69.7703 15.6664L69.6067 15.8075L69.6185 15.9021C69.6185 15.947 69.6446 16.0352 69.6787 16.1683C69.7462 16.4305 69.7812 16.6997 69.7832 16.97C69.7901 17.1616 69.7674 17.3528 69.7161 17.5377H69.4189L68.5823 16.8931L67.9449 17.0342L67.5333 16.9653L67.0118 17.1256L67.2474 17.3245L67.6575 17.2106L68.0105 17.488L67.9548 17.6099L67.8094 17.8424L67.4954 18.2818L67.0054 18.665L66.1116 17.7542L65.8794 17.7783L66.8338 18.8527L67.2213 18.7757L67.3174 18.9697L66.9285 19.5951L66.1703 20.3055L65.84 21.1441C65.8163 21.1784 65.7818 21.2042 65.7424 21.2179C65.6019 21.2907 65.4737 21.3837 65.3614 21.4937C65.1785 21.6621 65.0769 21.7551 65.0542 21.7727C64.8822 21.9191 64.7013 22.0546 64.5115 22.1784C64.3104 22.3117 64.1014 22.4332 63.8859 22.5424C63.5315 22.7213 63.1401 22.8184 62.7418 22.8262C62.4924 22.8256 62.2444 22.7849 62.0083 22.706C61.9757 22.6947 61.954 22.6787 61.954 22.6643L62.1177 22.2057C62.2454 22.0448 62.3824 21.8912 62.5278 21.7455C62.659 21.5981 62.7566 21.4247 62.8138 21.2371C62.8685 21.0458 62.939 20.8591 63.0247 20.6791C63.1766 20.4385 63.2486 20.2333 63.1978 20.1836L62.2074 19.207L61.7924 18.4485L61.8367 18.269C61.922 18.0238 62.0314 17.7876 62.1636 17.5634C62.2202 17.4228 62.3193 17.3025 62.448 17.2186L63.111 16.8979L64.3971 17.0888L64.7895 17.3453L64.9724 17.3229L65.7587 17.5233L65.9549 17.0214L64.9561 16.7455L64.6032 16.4008L64.5539 16.4137L64.7176 16.8226L64.5184 16.8626L64.4967 16.8145L64.5672 16.8017C64.5672 16.8017 64.5066 16.5499 64.3513 16.481C64.3069 16.4528 64.2557 16.4357 64.2029 16.4313C64.1053 16.4382 64.0126 16.4753 63.9382 16.5371C63.8189 16.6622 63.6823 16.7702 63.533 16.8578L63.1228 16.5548L63.2747 16.1795L63.3383 16.1939C63.3762 16.2031 63.4152 16.2074 63.4546 16.2068C63.5029 16.2112 63.5517 16.1992 63.5926 16.1726C63.6331 16.146 63.6636 16.1066 63.6784 16.0609C63.6848 16.0369 63.6843 16.0115 63.6764 15.9879C63.6685 15.9643 63.6538 15.9434 63.634 15.9277L63.5951 15.8844C63.6163 15.8644 63.635 15.8424 63.6523 15.8187C63.7326 15.8399 63.8145 15.8549 63.8973 15.8636C63.9855 15.8755 64.0752 15.853 64.1472 15.8011L64.2453 15.6407L64.4085 15.5942L64.438 15.3777H64.5411C64.579 15.4335 64.6066 15.4954 64.6229 15.5605L64.9118 15.4868L64.9971 15.1965L64.9512 15.1452L65.0769 14.8662L64.9675 14.7909L64.7811 15.304L64.6801 15.3168L64.6342 15.203L64.3745 15.2222L64.229 14.9929L64.5445 14.6722L64.8531 14.2665L65.2894 14.4012L65.3959 14.6128H65.528L65.4792 14.3049L65.8356 13.9843L65.5985 12.9307L65.7503 12.5988L65.914 12.6084L65.9381 12.3486L64.7945 11.1283L64.8319 10.798L65.7715 10.588L65.9071 10.628L66.4414 10.5767L66.5656 10.6312L67.4288 10.5479L67.4416 10.5398ZM67.4254 10.7435L66.3305 10.9776L67.0852 11.4042L67.3322 11.1203L67.6378 10.9183L67.4254 10.7435Z" fill="#004899"/>
<path d="M55.9066 7.39398L55.7252 6.82312H54.5243L54.3331 7.39398H53.3294L54.7496 3.56152H55.49L56.9083 7.39398H55.9066ZM55.1435 5.01433L54.794 6.03739H55.4738L55.1435 5.01433Z" fill="#E3211B"/>
<path d="M60.5001 7.01666C60.3586 7.14461 60.193 7.24383 60.0121 7.3085C59.8317 7.37318 59.6399 7.40206 59.4477 7.3935H57.9964V3.56104H59.4427C59.635 3.55248 59.8267 3.58136 60.0072 3.64603C60.1881 3.71071 60.3537 3.80988 60.4952 3.93787C60.9512 4.38523 60.9004 4.87434 60.9004 5.47727C60.9004 6.0802 60.9561 6.56926 60.5001 7.01666ZM59.8465 4.61133C59.7962 4.53824 59.7272 4.47971 59.6458 4.44188C59.565 4.4041 59.4748 4.38842 59.3855 4.39645H58.9606V6.55325H59.3821C59.4718 6.56132 59.5615 6.5456 59.6429 6.50782C59.7237 6.46999 59.7932 6.41151 59.843 6.33837C59.9199 6.23093 59.946 6.12828 59.946 5.47727C59.946 4.82621 59.9199 4.72361 59.843 4.61617L59.8465 4.61133Z" fill="#E3211B"/>
<path d="M62.2098 7.39398V3.56152H64.8599V4.40177H63.1686V5.04316H64.6149V5.88346H63.1686V6.55532H64.8599V7.39558L62.2098 7.39398Z" fill="#E3211B"/>
<path d="M68.8714 7.39398V5.55791L68.3178 6.5056H67.7031L67.1476 5.55791V7.39398H66.1902V3.56152H67.1313L68.0088 5.25165L68.8862 3.56152H69.8278V7.39398H68.8714Z" fill="#E3211B"/>
<path d="M71.2523 7.39398V3.56152H73.9044V4.40177H72.213V5.04316H73.6594V5.88346H72.213V6.55532H73.9063V7.39558L71.2523 7.39398Z" fill="#E3211B"/>
<path d="M54.1073 25.3916L53.4861 27.0689H53.8913L53.9766 26.8123H54.545L54.6268 27.0689H55.0321L54.4095 25.3916H54.1073ZM54.0846 26.5012L54.2704 25.9576L54.4454 26.5012H54.0846Z" fill="#E3211B"/>
<path d="M56.1401 27.0786C56.2308 27.084 56.3215 27.0701 56.4063 27.0377C56.4906 27.0053 56.567 26.9553 56.6301 26.891C56.7543 26.7675 56.7938 26.6152 56.7938 26.3345V26.1149H56.1594V26.4356H56.4177V26.4789C56.4196 26.5505 56.394 26.6205 56.3457 26.6745C56.3186 26.6997 56.286 26.7193 56.2505 26.7316C56.2151 26.7441 56.1776 26.7492 56.1401 26.7467C56.1046 26.7483 56.0696 26.7418 56.0371 26.7279C56.0051 26.7141 55.9765 26.6929 55.9538 26.6665C55.9129 26.6136 55.8848 26.5543 55.8848 26.2303C55.8848 25.9064 55.9129 25.8487 55.9538 25.7958C55.9765 25.7692 56.0051 25.748 56.0371 25.7338C56.0696 25.7196 56.1046 25.7128 56.1401 25.714C56.2008 25.7072 56.2619 25.7233 56.3117 25.7589C56.361 25.7946 56.3945 25.8472 56.4063 25.9064H56.7982C56.7741 25.7901 56.7184 25.6826 56.637 25.5947C56.5557 25.507 56.4517 25.4422 56.3358 25.4072C56.2205 25.3722 56.0972 25.3686 55.9799 25.3963C55.8621 25.4239 55.7546 25.4821 55.6679 25.5649C55.5042 25.7252 55.5042 25.9609 55.5042 26.2063V26.264C55.5042 26.5045 55.5042 26.7322 55.6679 26.9054C55.73 26.9649 55.8039 27.0109 55.8853 27.0408C55.9666 27.0706 56.0534 27.0834 56.1401 27.0786Z" fill="#E3211B"/>
<path d="M58.4994 26.0506H57.8507V25.7235H58.6108V25.3867H57.4617V27.064H58.6108V26.7273H57.8507V26.3857H58.4994V26.0506Z" fill="#E3211B"/>
<path d="M60.2108 25.3867V26.2991L59.6193 25.3867H59.2762V27.064H59.6651V26.1516L60.2567 27.064H60.6012V25.3867H60.2108Z" fill="#E3211B"/>
<path d="M62.1425 26.5587C62.1316 26.6125 62.1016 26.6604 62.0577 26.6941C62.0138 26.7276 61.9591 26.7446 61.9039 26.7415C61.8684 26.7433 61.8334 26.7369 61.8009 26.723C61.7688 26.709 61.7402 26.688 61.7176 26.6614C61.6766 26.6085 61.6471 26.5459 61.6471 26.2252C61.6471 25.9045 61.6766 25.8419 61.7176 25.789C61.7402 25.7626 61.7688 25.7415 61.8009 25.7276C61.8334 25.7136 61.8684 25.7072 61.9039 25.7088C61.9591 25.7059 62.0138 25.723 62.0577 25.7565C62.1016 25.7902 62.1316 25.8381 62.1425 25.8916H62.5393C62.5201 25.7417 62.4432 25.6045 62.3249 25.5079C62.2061 25.4114 62.0542 25.3628 61.9004 25.3723C61.8132 25.3692 61.7259 25.3844 61.6446 25.4167C61.5638 25.4491 61.4903 25.4978 61.4297 25.5597C61.2581 25.7201 61.2581 25.9558 61.2581 26.2011V26.2589C61.2581 26.4994 61.2581 26.7271 61.4297 26.9003C61.4903 26.9624 61.5638 27.0111 61.6446 27.0435C61.7259 27.0757 61.8132 27.0909 61.9004 27.0879C62.0542 27.0974 62.2061 27.0488 62.3249 26.9522C62.4432 26.8557 62.5201 26.7185 62.5393 26.5683L62.1425 26.5587Z" fill="#E3211B"/>
<path d="M64.1683 26.0506H63.5196V25.7235H64.2778V25.3867H63.1307V27.064H64.2778V26.7273H63.5196V26.3857H64.1683V26.0506Z" fill="#E3211B"/>
<path d="M67.3238 26.2997V26.1537C67.3238 25.9148 67.3238 25.7272 67.1473 25.5508C67.0857 25.4958 67.0137 25.4533 66.9348 25.4257C66.8565 25.3983 66.7732 25.3863 66.6899 25.3905H66.0623V27.0662H66.6899C66.7732 27.0707 66.8565 27.0588 66.9353 27.0314C67.0137 27.0038 67.0857 26.9611 67.1473 26.9058C67.3272 26.7262 67.3258 26.537 67.3238 26.2997ZM66.8846 26.6204C66.8599 26.656 66.8264 26.6845 66.787 26.7031C66.748 26.7217 66.7041 26.7297 66.6608 26.7262H66.4513V25.7208H66.6573C66.7007 25.7173 66.7446 25.7251 66.784 25.7437C66.8229 25.7623 66.857 25.791 66.8811 25.8266C66.9206 25.8812 66.9304 25.9405 66.9304 26.2227C66.9304 26.5049 66.922 26.5723 66.8846 26.6236V26.6204Z" fill="#E3211B"/>
<path d="M69.0189 26.051H68.3702V25.7238H69.1298V25.3887H67.9813V27.0644H69.1298V26.7292H68.3702V26.3877H69.0189V26.051Z" fill="#E3211B"/>
<path d="M70.9144 27.064H72.0368V26.7273H71.3033V25.3867H70.9144V27.064Z" fill="#E3211B"/>
<path d="M73.5551 27.0641H73.9603L73.3377 25.3916H73.0306L72.4095 27.0689H72.8152L72.9015 26.8123H73.4684L73.5551 27.0641ZM73.0129 26.4965L73.1943 25.9528L73.3688 26.4965H73.0129Z" fill="#E3211B"/>
<path d="M54.3704 28.4559H54.8017V28.1191H53.5501V28.4559H53.9814V29.7965H54.3704V28.4559Z" fill="#E3211B"/>
<path d="M56.7938 29.0805C56.8756 29.0407 56.9446 28.9791 56.9929 28.903C57.0407 28.8268 57.0664 28.7388 57.0664 28.6491C57.0664 28.5763 57.0516 28.5043 57.022 28.4375C56.9929 28.3708 56.9495 28.3105 56.8953 28.2608C56.8416 28.211 56.7775 28.1727 56.7075 28.1482C56.638 28.1236 56.5635 28.1135 56.4896 28.1184H55.8162V29.7957H56.2071V29.1542H56.3851L56.6957 29.7957H57.1482L56.774 29.0901L56.7938 29.0805ZM56.4669 28.8431H56.2071V28.4551H56.4699C56.5226 28.4551 56.5729 28.4755 56.6099 28.5119C56.6469 28.5483 56.6676 28.5976 56.6676 28.6491C56.6676 28.7006 56.6469 28.75 56.6099 28.7863C56.5729 28.8226 56.5226 28.8431 56.4699 28.8431H56.4669Z" fill="#E3211B"/>
<path d="M58.598 28.1182L57.9754 29.7955H58.3821L58.4689 29.5389H59.0372L59.1176 29.7955H59.5243L58.9017 28.1182H58.598ZM58.5748 29.2278L58.7612 28.6842L58.9362 29.2278H58.5748Z" fill="#E3211B"/>
<path d="M60.8644 29.7965V28.8841L61.4559 29.7965H61.8005V28.1191H61.412V29.0316L60.8185 28.1191H60.4739V29.7965H60.8644Z" fill="#E3211B"/>
<path d="M63.5965 28.7934L63.389 28.7598C63.3397 28.756 63.2929 28.7363 63.2564 28.7036C63.2313 28.6783 63.217 28.6444 63.216 28.609C63.216 28.5224 63.2894 28.4294 63.4477 28.4294H63.4625C63.5763 28.4201 63.6897 28.4533 63.7794 28.5224L64.023 28.2867C63.9466 28.2204 63.8578 28.1699 63.7612 28.1381C63.6646 28.106 63.5625 28.0933 63.461 28.1007C63.0898 28.1007 62.8413 28.3108 62.8413 28.6234C62.8339 28.744 62.8754 28.8627 62.9562 28.9538C63.0494 29.0384 63.1692 29.0898 63.2958 29.0997L63.5083 29.1286C63.5551 29.1324 63.5995 29.1504 63.636 29.1799C63.6636 29.2118 63.6779 29.2533 63.6749 29.2953C63.6749 29.3755 63.6291 29.4701 63.4038 29.4701C63.2643 29.4757 63.1273 29.4363 63.0134 29.3578L62.7664 29.6C62.8522 29.6754 62.9528 29.7326 63.0622 29.7682C63.1716 29.8038 63.2875 29.817 63.4023 29.8069C63.7287 29.8069 64.0555 29.6465 64.0555 29.2873C64.0614 29.2217 64.053 29.1558 64.0318 29.0934C64.0106 29.031 63.9766 28.9738 63.9318 28.9249C63.8376 28.8465 63.7198 28.8003 63.5965 28.7934Z" fill="#E3211B"/>
<path d="M65.4908 28.1191H65.1019V29.7949H65.4908V28.1191Z" fill="#E3211B"/>
<path d="M67.3269 28.4559H67.7568V28.1191H66.5067V28.4559H66.938V29.7965H67.3269V28.4559Z" fill="#E3211B"/>
<path d="M69.1627 28.1191H68.7737V29.7949H69.1627V28.1191Z" fill="#E3211B"/>
<path d="M71.5169 28.9298C71.5169 28.6892 71.5169 28.4616 71.3453 28.2884C71.2181 28.1679 71.0476 28.1006 70.8706 28.1006C70.6936 28.1006 70.5236 28.1679 70.3959 28.2884C70.2327 28.4487 70.2327 28.6845 70.2327 28.9298V28.9875C70.2327 29.228 70.2327 29.4558 70.3959 29.629C70.5236 29.7494 70.6936 29.8165 70.8706 29.8165C71.0476 29.8165 71.2181 29.7494 71.3453 29.629C71.5169 29.4686 71.5169 29.2329 71.5169 28.9875V28.9298ZM71.0594 29.39C71.0362 29.4166 71.0072 29.4381 70.9746 29.4529C70.9421 29.4676 70.9066 29.4752 70.8706 29.4752C70.8351 29.4752 70.7996 29.4676 70.7666 29.4529C70.7341 29.4381 70.7055 29.4166 70.6818 29.39C70.6394 29.3355 70.6133 29.2794 70.6133 28.9586C70.6133 28.6379 70.6409 28.577 70.6818 28.5241C70.706 28.4981 70.735 28.4776 70.7676 28.4635C70.8001 28.4494 70.8351 28.442 70.8706 28.442C70.9061 28.442 70.9416 28.4494 70.9741 28.4635C71.0067 28.4776 71.0358 28.4981 71.0594 28.5241C71.1003 28.577 71.1279 28.6363 71.1279 28.9586C71.1279 29.281 71.1018 29.3355 71.0594 29.39Z" fill="#E3211B"/>
<path d="M73.5155 28.1191V29.0316L72.924 28.1191H72.5794V29.7965H72.9683V28.8841L73.5614 29.7965H73.9064V28.1191H73.5155Z" fill="#E3211B"/>
<path d="M54.5942 31.5161H53.942V31.1873H54.7051V30.8506H53.5516V32.5327H54.7051V32.196H53.942V31.8528H54.5942V31.5161Z" fill="#E3211B"/>
<path d="M54.2039 30.6406L54.4686 30.2461H54.1073L53.9979 30.6406H54.2039Z" fill="#E3211B"/>
<path d="M56.5604 31.357H56.9587C56.9375 31.2082 56.8596 31.0727 56.7408 30.9776C56.622 30.8825 56.4712 30.8347 56.3184 30.8439C56.2301 30.841 56.1429 30.8561 56.061 30.8885C55.9797 30.9207 55.9058 30.9695 55.8446 31.0315C55.681 31.1918 55.681 31.4292 55.681 31.6729V31.729C55.681 31.9712 55.681 32.2005 55.8446 32.3705C55.9058 32.4325 55.9797 32.4814 56.061 32.5136C56.1429 32.5461 56.2301 32.5611 56.3184 32.5581C56.4727 32.567 56.6245 32.5183 56.7433 32.4214C56.8621 32.3247 56.9395 32.1873 56.9587 32.0369H56.5604C56.5496 32.091 56.5195 32.1394 56.4751 32.1734C56.4313 32.2072 56.376 32.2244 56.3198 32.2213C56.2848 32.2229 56.2493 32.2165 56.2173 32.2026C56.1848 32.1886 56.1562 32.1676 56.1335 32.1412C56.0926 32.0866 56.0635 32.0241 56.0635 31.7034C56.0635 31.3827 56.0926 31.3185 56.1335 31.264C56.1567 31.2379 56.1853 31.217 56.2173 31.2032C56.2498 31.1893 56.2848 31.1827 56.3198 31.1838C56.3746 31.1805 56.4283 31.196 56.4722 31.2276C56.516 31.2594 56.5471 31.3051 56.5604 31.357Z" fill="#E3211B"/>
<path d="M58.5 30.8435C58.4118 30.8396 58.3236 30.8544 58.2412 30.8868C58.1594 30.9191 58.0855 30.9684 58.0243 31.0311C57.8513 31.1914 57.8513 31.4288 57.8612 31.6725V31.7286C57.8612 31.9708 57.8612 32.2001 58.0243 32.3701C58.152 32.4907 58.3226 32.558 58.5 32.558C58.677 32.558 58.8476 32.4907 58.9752 32.3701C59.1488 32.2097 59.1468 31.974 59.1468 31.7286V31.6693C59.1468 31.4288 59.1468 31.1995 58.9752 31.0279C58.9141 30.9657 58.8402 30.9171 58.7578 30.8853C58.676 30.8534 58.5878 30.8393 58.5 30.8435ZM58.6893 32.1263C58.6662 32.1531 58.6371 32.1746 58.604 32.1893C58.5715 32.2041 58.536 32.2116 58.5 32.2116C58.464 32.2116 58.4286 32.2041 58.3955 32.1893C58.363 32.1746 58.3339 32.1531 58.3102 32.1263C58.2678 32.0718 58.2432 32.0157 58.2432 31.6934C58.2432 31.371 58.2678 31.3117 58.3102 31.2572C58.3339 31.2309 58.3635 31.2099 58.396 31.1955C58.4285 31.181 58.464 31.1735 58.5 31.1735C58.5355 31.1735 58.571 31.181 58.604 31.1955C58.6366 31.2099 58.6657 31.2309 58.6893 31.2572C58.7317 31.3117 58.7564 31.3679 58.7564 31.6934C58.7564 32.0189 58.7317 32.0702 58.6893 32.1263Z" fill="#E3211B"/>
<path d="M60.1653 32.5327H61.2927V32.196H60.5558V30.8506H60.1653V32.5327Z" fill="#E3211B"/>
<path d="M62.7891 30.8443C62.7008 30.8408 62.6126 30.8557 62.5308 30.8879C62.4489 30.9203 62.3745 30.9694 62.3134 31.0319C62.1502 31.1923 62.1502 31.4296 62.1502 31.6733V31.7295C62.1502 31.9716 62.1502 32.2009 62.3134 32.3709C62.442 32.4911 62.6126 32.5582 62.7901 32.5582C62.9675 32.5582 63.1381 32.4911 63.2663 32.3709C63.4294 32.2105 63.4294 31.9732 63.4294 31.7295V31.6733C63.4294 31.4312 63.4294 31.2019 63.2663 31.0319C63.2046 30.9693 63.1302 30.9202 63.0484 30.8878C62.966 30.8554 62.8778 30.8406 62.7891 30.8443ZM62.9784 32.1272C62.9552 32.1539 62.9261 32.1754 62.8936 32.19C62.861 32.2048 62.8256 32.2125 62.7901 32.2125C62.7541 32.2125 62.7186 32.2048 62.686 32.19C62.6535 32.1754 62.6244 32.1539 62.6013 32.1272C62.5589 32.0726 62.5327 32.0149 62.5327 31.6942C62.5327 31.3735 62.5589 31.311 62.6013 31.258C62.6239 31.2311 62.6525 31.2094 62.6851 31.195C62.7176 31.1806 62.7531 31.1735 62.7891 31.1746C62.8251 31.1735 62.8606 31.1806 62.8936 31.195C62.9266 31.2094 62.9557 31.2309 62.9784 31.258C63.0213 31.3126 63.0474 31.3687 63.0474 31.6942C63.0474 32.0197 63.0213 32.071 62.9784 32.1272Z" fill="#E3211B"/>
<path d="M65.3107 31.3672H65.7046C65.6809 31.2488 65.6247 31.1391 65.5424 31.0497C65.4601 30.9602 65.3546 30.8944 65.2373 30.8591C65.1199 30.8239 64.9947 30.8207 64.8759 30.8497C64.7566 30.8787 64.6477 30.9389 64.5604 31.024C64.3973 31.1844 64.3973 31.4217 64.3973 31.6654V31.7215C64.3973 31.9637 64.3973 32.193 64.5604 32.363C64.6921 32.4836 64.8656 32.5508 65.046 32.5508C65.2259 32.5508 65.3994 32.4836 65.5311 32.363C65.6553 32.2379 65.6947 32.0872 65.6947 31.8049V31.582H65.0411V31.9028H65.2994V31.9476C65.3023 31.9842 65.2974 32.0213 65.2846 32.0557C65.2718 32.0903 65.2511 32.1216 65.2245 32.1476C65.1978 32.1734 65.1658 32.1933 65.1303 32.2055C65.0948 32.2179 65.0573 32.2224 65.0199 32.2186C64.9883 32.2151 64.9573 32.205 64.9302 32.1893C64.9026 32.1736 64.8784 32.1524 64.8597 32.1273C64.8187 32.0743 64.7911 32.015 64.7911 31.6895C64.7911 31.364 64.8187 31.3062 64.8597 31.2533C64.8823 31.2262 64.9104 31.2047 64.943 31.1903C64.975 31.1758 65.0105 31.1688 65.046 31.1699C65.1071 31.1637 65.1687 31.1807 65.218 31.2172C65.2668 31.2538 65.3004 31.3074 65.3107 31.3672Z" fill="#E3211B"/>
<path d="M67.1178 30.8506H66.7274V32.5327H67.1178V30.8506Z" fill="#E3211B"/>
<path d="M69.3343 32.2693C69.4181 32.0985 69.4517 31.9079 69.4305 31.7193V31.6632C69.4305 31.421 69.4305 31.1917 69.2589 31.0217C69.1312 30.9013 68.9607 30.834 68.7837 30.834C68.6062 30.834 68.4357 30.9013 68.308 31.0217C68.1443 31.1821 68.1443 31.4194 68.1443 31.6632V31.7193C68.1443 31.9614 68.1443 32.1907 68.308 32.3607C68.3691 32.4233 68.4431 32.4723 68.5254 32.5047C68.6072 32.5369 68.6955 32.5518 68.7837 32.5483C68.8976 32.5511 69.01 32.5246 69.1105 32.4713H69.1234L69.256 32.6012L69.4467 32.4152L69.321 32.2918L69.3343 32.2693ZM69.0302 31.9486V31.9919L68.9306 31.8925L68.7393 32.0801L68.8636 32.2019H68.8261C68.8128 32.2035 68.8 32.2035 68.7867 32.2019C68.7512 32.2026 68.7157 32.1952 68.6827 32.1805C68.6501 32.1659 68.6215 32.1441 68.5989 32.117C68.5565 32.0624 68.5303 32.0047 68.5303 31.684C68.5303 31.3633 68.5565 31.3007 68.5989 31.2479C68.6215 31.2209 68.6506 31.1994 68.6831 31.185C68.7157 31.1706 68.7512 31.1635 68.7867 31.1645C68.8227 31.1635 68.8586 31.1704 68.8912 31.1848C68.9242 31.1993 68.9533 31.2209 68.9765 31.2479C69.0174 31.3007 69.0435 31.3601 69.0435 31.684C69.04 31.8155 69.0351 31.8973 69.0302 31.947V31.9486Z" fill="#E3211B"/>
<path d="M70.8092 31.939V30.8438H70.4158V31.9422C70.44 32.0929 70.5184 32.2301 70.6367 32.3291C70.755 32.4282 70.9058 32.4826 71.0611 32.4826C71.2169 32.4826 71.3667 32.4282 71.485 32.3291C71.6034 32.2301 71.6822 32.0929 71.7064 31.9422V30.8438H71.316V31.9325C71.3199 31.9677 71.3165 32.0031 71.3051 32.0366C71.2938 32.0701 71.2755 32.1007 71.2504 32.1266C71.2262 32.1524 71.1962 32.1726 71.1627 32.1859C71.1296 32.1992 71.0936 32.2051 71.0577 32.2035C71.0232 32.2042 70.9886 32.1976 70.9571 32.1843C70.9251 32.171 70.8965 32.1511 70.8733 32.1261C70.8496 32.1011 70.8319 32.0714 70.821 32.0392C70.8097 32.0069 70.8058 31.9728 70.8092 31.939Z" fill="#E3211B"/>
<path d="M73.7948 31.5161H73.1446V31.1873H73.9062V30.8506H72.7542V32.5327H73.9062V32.196H73.1446V31.8528H73.7948V31.5161Z" fill="#E3211B"/>
<path d="M95.765 9.64766C96.2056 10.0399 96.5971 10.184 96.9642 10.184C97.0866 10.184 97.2498 10.168 97.3721 10.12V11.0806C97.1845 11.1527 97.0213 11.1847 96.7685 11.1847C96.1321 11.1847 95.5448 10.9285 94.9819 10.4482L94.3047 9.85581C94.06 9.91985 93.7989 9.95187 93.5216 9.95187C91.7187 9.95187 90.4868 8.59095 90.4868 6.98986C90.4868 5.38877 91.7187 4.02784 93.5216 4.02784C95.3163 4.02784 96.5482 5.38877 96.5482 6.98986C96.5482 7.92649 96.124 8.78308 95.4224 9.32745L95.765 9.64766ZM93.5216 8.88715C94.5903 8.88715 95.3571 8.06259 95.3571 6.98986C95.3571 5.91713 94.5903 5.09256 93.5216 5.09256C92.4447 5.09256 91.6779 5.91713 91.6779 6.98986C91.6779 8.06259 92.4447 8.88715 93.5216 8.88715ZM100.228 8.04658V5.75702H101.272V7.99854C101.272 9.20737 100.555 9.95187 99.3472 9.95187C98.1398 9.95187 97.4301 9.20737 97.4301 7.99854V5.75702H98.4743V8.04658C98.4743 8.63097 98.7843 8.99122 99.3554 8.99122C99.9183 8.99122 100.228 8.63097 100.228 8.04658ZM106.205 9.13532C105.821 9.63966 105.185 9.95187 104.41 9.95187C102.95 9.95187 102.126 8.95119 102.126 7.77439C102.126 6.58158 102.893 5.59691 104.239 5.59691C105.381 5.59691 106.131 6.35743 106.131 7.41414C106.131 7.6383 106.099 7.84644 106.066 7.98253H103.186C103.284 8.73504 103.757 9.03925 104.402 9.03925C104.851 9.03925 105.242 8.84712 105.462 8.55892L106.205 9.13532ZM104.214 6.42947C103.684 6.42947 103.333 6.71767 103.219 7.24603H105.112C105.095 6.83775 104.793 6.42947 104.214 6.42947ZM108.837 5.75702H109.603V5.33273C109.603 4.47615 110.183 3.78768 111.211 3.78768C111.586 3.78768 111.904 3.87574 112.165 4.01183L111.724 4.86041C111.602 4.77235 111.439 4.7003 111.227 4.7003C110.876 4.7003 110.648 4.94046 110.648 5.30871V5.75702H111.904V6.66964H110.648V9.79176H109.603V6.66964H108.837V5.75702ZM113.528 9.91185C112.704 9.91185 112.141 9.44753 112.141 8.70302C112.141 8.09461 112.623 7.6383 113.504 7.4942L114.76 7.28606V7.18199C114.76 6.7577 114.434 6.48551 113.961 6.48551C113.561 6.48551 113.251 6.66964 113.031 6.96584L112.272 6.39745C112.639 5.90112 113.243 5.59691 113.993 5.59691C115.184 5.59691 115.796 6.29338 115.796 7.18199V9.79176H114.76V9.3995C114.499 9.71171 114.01 9.91185 113.528 9.91185ZM113.169 8.65499C113.169 8.92717 113.39 9.10329 113.74 9.10329C114.214 9.10329 114.556 8.88715 114.76 8.56693V7.99854L113.781 8.15865C113.349 8.2307 113.169 8.40682 113.169 8.65499ZM117.505 5.05254C117.138 5.05254 116.828 4.74833 116.828 4.38809C116.828 4.02784 117.138 3.72363 117.505 3.72363C117.872 3.72363 118.174 4.02784 118.174 4.38809C118.174 4.74833 117.872 5.05254 117.505 5.05254ZM116.983 9.79176V5.75702H118.019V9.79176H116.983ZM119.261 9.79176V5.75702H120.297V6.15729C120.567 5.8851 120.917 5.67696 121.382 5.67696C121.521 5.67696 121.643 5.70098 121.741 5.733V6.73368C121.611 6.70166 121.472 6.67764 121.284 6.67764C120.779 6.67764 120.452 6.94983 120.297 7.206V9.79176H119.261ZM126.185 9.13532C125.802 9.63966 125.166 9.95187 124.391 9.95187C122.93 9.95187 122.106 8.95119 122.106 7.77439C122.106 6.58158 122.873 5.59691 124.219 5.59691C125.361 5.59691 126.112 6.35743 126.112 7.41414C126.112 7.6383 126.079 7.84644 126.047 7.98253H123.167C123.265 8.73504 123.738 9.03925 124.382 9.03925C124.831 9.03925 125.223 8.84712 125.443 8.55892L126.185 9.13532ZM124.195 6.42947C123.665 6.42947 123.314 6.71767 123.2 7.24603H125.092C125.076 6.83775 124.774 6.42947 124.195 6.42947ZM129.03 7.77439C129.03 6.59759 129.821 5.59691 131.118 5.59691C131.673 5.59691 132.073 5.76502 132.391 6.07724V3.78768H133.435V9.79176H132.391V9.47155C132.073 9.78376 131.673 9.95187 131.118 9.95187C129.821 9.95187 129.03 8.95119 129.03 7.77439ZM130.115 7.77439C130.115 8.47887 130.563 8.99122 131.265 8.99122C131.73 8.99122 132.113 8.79909 132.391 8.43084V7.11794C132.113 6.74969 131.73 6.55756 131.265 6.55756C130.563 6.55756 130.115 7.06991 130.115 7.77439ZM138.462 9.13532C138.079 9.63966 137.443 9.95187 136.668 9.95187C135.207 9.95187 134.383 8.95119 134.383 7.77439C134.383 6.58158 135.15 5.59691 136.496 5.59691C137.638 5.59691 138.389 6.35743 138.389 7.41414C138.389 7.6383 138.356 7.84644 138.324 7.98253H135.444C135.542 8.73504 136.015 9.03925 136.659 9.03925C137.108 9.03925 137.5 8.84712 137.72 8.55892L138.462 9.13532ZM136.472 6.42947C135.942 6.42947 135.591 6.71767 135.476 7.24603H137.369C137.353 6.83775 137.051 6.42947 136.472 6.42947ZM90.756 20.9994V16.9646H91.7921V17.2689C92.0694 17.0047 92.4202 16.8045 92.926 16.8045C93.4481 16.8045 93.905 17.0287 94.1742 17.461C94.4679 17.1087 94.8595 16.8045 95.5529 16.8045C96.4013 16.8045 97.0703 17.3809 97.0703 18.5177V20.9994H96.0261V18.5577C96.0261 18.0694 95.7569 17.7652 95.2919 17.7652C94.8432 17.7652 94.5984 18.0694 94.4353 18.3416C94.4434 18.3976 94.4434 18.4537 94.4434 18.5177V20.9994H93.3992V18.5577C93.3992 18.0694 93.13 17.7652 92.665 17.7652C92.1918 17.7652 91.9471 18.1094 91.7921 18.3656V20.9994H90.756ZM102.038 20.3429C101.655 20.8473 101.018 21.1595 100.243 21.1595C98.7831 21.1595 97.9591 20.1588 97.9591 18.982C97.9591 17.7892 98.726 16.8045 100.072 16.8045C101.214 16.8045 101.965 17.5651 101.965 18.6218C101.965 18.8459 101.932 19.0541 101.899 19.1902H99.0197C99.1175 19.9427 99.5907 20.2469 100.235 20.2469C100.684 20.2469 101.075 20.0547 101.296 19.7666L102.038 20.3429ZM100.048 17.6371C99.5173 17.6371 99.1665 17.9253 99.0523 18.4537H100.945C100.929 18.0454 100.627 17.6371 100.048 17.6371ZM102.562 20.415L103.248 19.8066C103.5 20.1188 103.802 20.3429 104.194 20.3429C104.528 20.3429 104.7 20.1508 104.7 19.9107C104.7 19.2062 102.734 19.4704 102.734 18.0534C102.734 17.3409 103.345 16.8045 104.202 16.8045C104.83 16.8045 105.401 17.1007 105.695 17.493L105.01 18.0854C104.798 17.8292 104.528 17.6211 104.21 17.6211C103.884 17.6211 103.729 17.7972 103.729 18.0054C103.729 18.6938 105.695 18.4537 105.695 19.8466C105.679 20.6952 104.985 21.1595 104.21 21.1595C103.476 21.1595 102.954 20.8713 102.562 20.415ZM94.5413 31.5506C94.1579 32.0549 93.5216 32.3671 92.7466 32.3671C91.2863 32.3671 90.4623 31.3664 90.4623 30.1896C90.4623 28.9968 91.2292 28.0122 92.5752 28.0122C93.7174 28.0122 94.4679 28.7727 94.4679 29.8294C94.4679 30.0536 94.4353 30.2617 94.4026 30.3978H91.5229C91.6208 31.1503 92.0939 31.4545 92.7384 31.4545C93.1871 31.4545 93.5787 31.2624 93.7989 30.9742L94.5413 31.5506ZM92.5508 28.8447C92.0205 28.8447 91.6697 29.1329 91.5555 29.6613H93.4481C93.4318 29.253 93.13 28.8447 92.5508 28.8447ZM95.7336 30.734V29.0849H94.9668V28.1723H95.7336V27.1636H96.7778V28.1723H98.0342V29.0849H96.7778V30.734C96.7778 31.1823 97.0226 31.3584 97.4305 31.3584C97.716 31.3584 97.9036 31.3264 98.0423 31.2704V32.159C97.8384 32.247 97.5936 32.2871 97.2506 32.2871C96.2231 32.2871 95.7336 31.7187 95.7336 30.734ZM135.651 30.4058L135.521 29.0849C136.467 28.9888 137.087 28.7887 137.087 28.1082C137.087 27.6919 136.761 27.4038 136.337 27.4038C135.904 27.4038 135.635 27.6279 135.333 28.0682L134.444 27.5318C134.901 26.8194 135.521 26.4431 136.386 26.4431C137.348 26.4431 138.213 27.0915 138.213 28.1082C138.213 29.0449 137.487 29.6453 136.475 29.8134L136.418 30.4058H135.651ZM136.043 32.3031C135.651 32.3031 135.325 31.9829 135.325 31.6066C135.325 31.2304 135.651 30.9101 136.043 30.9101C136.418 30.9101 136.753 31.2304 136.753 31.6066C136.753 31.9829 136.418 32.3031 136.043 32.3031Z" fill="#161616"/>
<path d="M110.806 16.8049C112.144 16.8049 113.058 17.7736 113.058 18.9824C113.058 20.1912 112.144 21.1599 110.806 21.1599C109.468 21.1599 108.555 20.1912 108.555 18.9824C108.555 17.7736 109.468 16.8049 110.806 16.8049ZM110.823 20.1992C111.483 20.1992 111.981 19.6789 111.981 18.9824C111.981 18.2779 111.483 17.7656 110.823 17.7656C110.137 17.7656 109.632 18.2779 109.632 18.9824C109.632 19.6869 110.137 20.1992 110.823 20.1992ZM118.408 18.9824C118.408 20.1592 117.625 21.1599 116.32 21.1599C115.757 21.1599 115.357 20.9838 115.039 20.6715V20.9998H114.003V14.9957H115.039V17.2932C115.357 16.981 115.757 16.8049 116.32 16.8049C117.625 16.8049 118.408 17.8056 118.408 18.9824ZM116.173 17.7656C115.692 17.7656 115.292 17.9737 115.039 18.342V19.6228C115.316 19.9991 115.708 20.1992 116.173 20.1992C116.875 20.1992 117.331 19.6869 117.331 18.9824C117.331 18.2779 116.875 17.7656 116.173 17.7656ZM119.862 16.2605C119.495 16.2605 119.185 15.9563 119.185 15.5961C119.185 15.2358 119.495 14.9316 119.862 14.9316C120.221 14.9316 120.531 15.2358 120.531 15.5961C120.531 15.9563 120.221 16.2605 119.862 16.2605ZM120.393 21.4321C120.393 22.4408 119.911 23.0011 118.875 23.0011C118.533 23.0011 118.296 22.9611 118.092 22.873V21.9844C118.223 22.0405 118.418 22.0725 118.704 22.0725C119.112 22.0725 119.357 21.8964 119.357 21.4321V16.965H120.393V21.4321ZM125.42 20.3433C125.037 20.8477 124.401 21.1599 123.626 21.1599C122.165 21.1599 121.342 20.1592 121.342 18.9824C121.342 17.7896 122.108 16.8049 123.454 16.8049C124.597 16.8049 125.347 17.5654 125.347 18.6222C125.347 18.8463 125.314 19.0544 125.282 19.1905H122.402C122.5 19.9431 122.973 20.2473 123.618 20.2473C124.066 20.2473 124.458 20.0551 124.678 19.7669L125.42 20.3433ZM123.43 17.6375C122.9 17.6375 122.549 17.9257 122.435 18.454H124.327C124.311 18.0458 124.009 17.6375 123.43 17.6375ZM126.613 19.5268V17.8776H125.846V16.965H126.613V15.9563H127.657V16.965H128.913V17.8776H127.657V19.5268C127.657 19.9751 127.902 20.1512 128.31 20.1512C128.595 20.1512 128.783 20.1192 128.922 20.0631V20.9517C128.718 21.0398 128.473 21.0798 128.13 21.0798C127.102 21.0798 126.613 20.5114 126.613 19.5268ZM129.482 20.4154L130.167 19.807C130.42 20.1192 130.722 20.3433 131.114 20.3433C131.448 20.3433 131.619 20.1512 131.619 19.911C131.619 19.2065 129.653 19.4707 129.653 18.0538C129.653 17.3413 130.265 16.8049 131.122 16.8049C131.75 16.8049 132.321 17.1011 132.615 17.4934L131.929 18.0858C131.717 17.8296 131.448 17.6215 131.13 17.6215C130.804 17.6215 130.649 17.7976 130.649 18.0057C130.649 18.6942 132.615 18.454 132.615 19.847C132.598 20.6956 131.905 21.1599 131.13 21.1599C130.396 21.1599 129.874 20.8717 129.482 20.4154ZM100.867 30.19C100.867 29.0132 101.658 28.0125 102.955 28.0125C103.51 28.0125 103.91 28.1807 104.228 28.4929V26.2033H105.272V32.2074H104.228V31.8872C103.91 32.1994 103.51 32.3675 102.955 32.3675C101.658 32.3675 100.867 31.3668 100.867 30.19ZM101.952 30.19C101.952 30.8945 102.401 31.4069 103.102 31.4069C103.567 31.4069 103.951 31.2147 104.228 30.8465V29.5336C103.951 29.1653 103.567 28.9732 103.102 28.9732C102.401 28.9732 101.952 29.4855 101.952 30.19ZM108.905 27.5322H107.909L108.758 26.2033H109.884L108.905 27.5322ZM110.3 31.551C109.916 32.0553 109.28 32.3675 108.505 32.3675C107.045 32.3675 106.221 31.3668 106.221 30.19C106.221 28.9972 106.988 28.0125 108.334 28.0125C109.476 28.0125 110.226 28.7731 110.226 29.8298C110.226 30.0539 110.194 30.2621 110.161 30.3982H107.281C107.379 31.1507 107.852 31.4549 108.497 31.4549C108.945 31.4549 109.337 31.2628 109.557 30.9746L110.3 31.551ZM108.309 28.8451C107.779 28.8451 107.428 29.1333 107.314 29.6617H109.206C109.19 29.2534 108.888 28.8451 108.309 28.8451ZM113.181 31.4069C113.589 31.4069 113.915 31.2227 114.111 30.9425L114.919 31.551C114.535 32.0473 113.932 32.3675 113.181 32.3675C111.762 32.3675 110.913 31.3668 110.913 30.19C110.913 29.0132 111.762 28.0125 113.181 28.0125C113.932 28.0125 114.535 28.3328 114.919 28.8291L114.111 29.4375C113.915 29.1573 113.589 28.9732 113.165 28.9732C112.488 28.9732 111.99 29.4855 111.99 30.19C111.99 30.9025 112.488 31.4069 113.181 31.4069ZM115.692 32.2074V26.2033H116.728V28.4929C117.014 28.2207 117.397 28.0125 117.944 28.0125C118.833 28.0125 119.543 28.613 119.543 29.8058V32.2074H118.498V29.8458C118.498 29.3094 118.197 28.9732 117.683 28.9732C117.161 28.9732 116.883 29.3174 116.728 29.5736V32.2074H115.692ZM124.504 31.551C124.121 32.0553 123.485 32.3675 122.71 32.3675C121.249 32.3675 120.425 31.3668 120.425 30.19C120.425 28.9972 121.192 28.0125 122.538 28.0125C123.68 28.0125 124.431 28.7731 124.431 29.8298C124.431 30.0539 124.398 30.2621 124.366 30.3982H121.486C121.584 31.1507 122.057 31.4549 122.701 31.4549C123.15 31.4549 123.542 31.2628 123.762 30.9746L124.504 31.551ZM122.514 28.8451C121.984 28.8451 121.633 29.1333 121.519 29.6617H123.411C123.395 29.2534 123.093 28.8451 122.514 28.8451ZM125.697 30.7344V29.0853H124.93V28.1727H125.697V27.164H126.741V28.1727H127.997V29.0853H126.741V30.7344C126.741 31.1827 126.986 31.3588 127.394 31.3588C127.679 31.3588 127.867 31.3268 128.005 31.2708V32.1594C127.801 32.2474 127.557 32.2875 127.214 32.2875C126.186 32.2875 125.697 31.7191 125.697 30.7344ZM128.566 31.623L129.251 31.0146C129.504 31.3268 129.806 31.551 130.197 31.551C130.532 31.551 130.703 31.3588 130.703 31.1187C130.703 30.4142 128.737 30.6784 128.737 29.2614C128.737 28.5489 129.349 28.0125 130.206 28.0125C130.834 28.0125 131.405 28.3087 131.698 28.701L131.013 29.2934C130.801 29.0372 130.532 28.8291 130.214 28.8291C129.887 28.8291 129.732 29.0052 129.732 29.2134C129.732 29.9018 131.698 29.6617 131.698 31.0546C131.682 31.9032 130.989 32.3675 130.214 32.3675C129.48 32.3675 128.957 32.0793 128.566 31.623Z" fill="#37635F"/>
</g>
<defs>
<clipPath id="clip0_29879_12509">
<rect width="138.462" height="36.0914" fill="white"/>
</clipPath>
</defs>
</svg>
