<svg width="226" height="73" viewBox="0 0 226 73" fill="none" xmlns="http://www.w3.org/2000/svg">
<g clip-path="url(#clip0_199_348)">
<path d="M24.7813 72.3074C11.1615 72.3074 0.088562 61.3595 0.088562 47.9011V0.494873L201.25 0.50529C214.87 0.50529 225.948 11.4532 225.948 24.9115V72.3126" fill="white"/>
<path d="M24.7813 60.9688C11.1615 60.9688 0.088562 50.0209 0.088562 36.5626V0.494873L201.25 0.50529C214.87 0.50529 225.948 11.4532 225.948 24.9115V60.974" fill="white"/>
<path d="M201.255 6.16675H50.1979V36.5626C50.1979 46.8959 58.7292 55.3022 69.2188 55.3022H220.281V24.9063C220.281 14.573 211.745 6.16675 201.255 6.16675Z" fill="white"/>
<path d="M218.385 53.4115H69.2188C59.7761 53.4115 52.0886 45.8542 52.0886 36.5626V8.05737H201.25C210.698 8.05737 218.385 15.6147 218.385 24.9063V53.4115ZM201.255 6.16675H50.1979V36.5626C50.1979 46.8959 58.7344 55.3022 69.2188 55.3022H220.276V24.9063C220.276 14.573 211.745 6.16675 201.255 6.16675Z" fill="#FCC42F"/>
<path d="M163.021 55.3022L176.031 28.724L162.74 6.16675H201.255C211.745 6.16675 220.276 14.573 220.276 24.9063V55.3022" fill="#FCC42F"/>
<path d="M201.25 8.05737H166.047L178.172 28.6407L166.047 53.4115H218.385V24.9063C218.385 15.6147 210.698 8.05737 201.25 8.05737Z" fill="#FCC42F"/>
<path d="M206.208 41.8437H205.01C204.911 41.8437 204.812 41.8541 204.724 41.8697C205.286 35.6145 206.151 25.953 206.573 21.578C206.62 21.1353 206.292 20.7395 205.844 20.6926C205.391 20.6458 205.005 20.9791 204.958 21.4218C204.312 28.1458 202.609 47.3281 202.589 47.5208C202.557 47.8437 202.245 48.1093 201.87 48.1093H188.781C188.411 48.1093 188.094 47.8437 188.062 47.5208C188.047 47.3281 186.339 28.1458 185.693 21.4218C185.651 20.9791 185.26 20.6458 184.807 20.6926C184.365 20.7395 184.036 21.1353 184.078 21.578C184.5 25.953 185.37 35.6093 185.932 41.8697C185.839 41.8489 185.745 41.8385 185.646 41.8385H184.443C183.667 41.8385 183.036 42.4687 183.036 43.2447V48.3228C183.036 49.0989 183.667 49.7291 184.443 49.7291H185.646C186.229 49.7291 186.729 49.3697 186.943 48.8645C187.37 49.3958 188.036 49.7291 188.781 49.7291H201.87C202.62 49.7291 203.281 49.3958 203.708 48.8645C203.922 49.3749 204.422 49.7343 205.01 49.7343H206.208C206.984 49.7343 207.62 49.0989 207.62 48.3228V43.2499C207.62 42.4739 206.984 41.8437 206.208 41.8437Z" fill="#1C1C1B"/>
<path d="M190.271 25.3022V27.5938H190.943C191.339 27.5938 191.552 27.4115 191.552 26.8595V26.2084C191.552 25.5157 191.328 25.3022 190.797 25.3022H190.271ZM190.271 22.2657V24.2345H190.729C191.167 24.2345 191.432 24.0417 191.432 23.448V23.0313C191.432 22.4949 191.25 22.2657 190.839 22.2657H190.271ZM192.604 22.9115V23.1824C192.604 23.948 192.37 24.4272 191.849 24.672V24.6928C192.479 24.9376 192.724 25.4949 192.724 26.2813V26.8907C192.724 28.0417 192.12 28.6615 190.943 28.6615H189.099V21.198H190.87C192.083 21.198 192.604 21.7605 192.604 22.9115Z" fill="#1C1C1B"/>
<path d="M194.76 26.2917H195.896L195.339 22.5209H195.318L194.76 26.2917ZM197.437 28.6563H196.255L196.052 27.3074H194.615L194.411 28.6563H193.333L194.526 21.198H196.245" fill="#1C1C1B"/>
<path d="M201.589 25.875V26.8698C201.589 28.0625 200.995 28.7448 199.839 28.7448C198.688 28.7448 198.094 28.0625 198.094 26.8698V22.9844C198.094 21.7917 198.688 21.1094 199.839 21.1094C200.995 21.1094 201.589 21.7917 201.589 22.9844V23.7135H200.479V22.9115C200.479 22.3802 200.245 22.1771 199.87 22.1771C199.5 22.1771 199.266 22.3802 199.266 22.9115V26.9427C199.266 27.474 199.5 27.6667 199.87 27.6667C200.245 27.6667 200.479 27.474 200.479 26.9427V25.875" fill="#1C1C1B"/>
<path d="M192.63 31.3855V36.7188H193.292C193.661 36.7188 193.885 36.5261 193.885 35.9949V32.1147C193.885 31.5782 193.661 31.3855 193.292 31.3855H192.63ZM191.458 30.323H193.312C194.484 30.323 195.062 30.974 195.062 32.1667V35.9376C195.062 37.1355 194.484 37.7865 193.312 37.7865H191.458" fill="#1C1C1B"/>
<path d="M197.193 33.4688H198.807V34.5313H197.193V36.7188H199.219V37.7865H196.026V30.323H199.219V31.3855H197.193" fill="#1C1C1B"/>
<path d="M190.089 39.448H193.719V40.5105H192.49V46.9115H191.318V40.5105H190.089" fill="#1C1C1B"/>
<path d="M195.615 40.5105V42.8074H196.073C196.51 42.8074 196.781 42.6147 196.781 42.0157V41.2813C196.781 40.7449 196.594 40.5105 196.182 40.5105H195.615ZM196.896 46.9115C196.828 46.7136 196.792 46.599 196.792 45.9897V44.8178C196.792 44.1251 196.552 43.8699 196.021 43.8699H195.615V46.9115H194.443V39.448H196.214C197.427 39.448 197.953 40.0105 197.953 41.1615V41.7501C197.953 42.5157 197.703 43.0053 197.182 43.2501V43.2709C197.771 43.5209 197.964 44.073 197.964 44.8542V46.0053C197.964 46.3647 197.974 46.6303 198.089 46.9115" fill="#1C1C1B"/>
<path d="M198.948 46.9114H200.12V39.4426H198.948V46.9114Z" fill="#1C1C1B"/>
<path d="M207.052 17.7969H183.599V15.849C183.599 15.7813 183.635 15.75 183.625 15.75H185.323C185.516 15.75 185.698 15.6823 185.844 15.5521L187.974 13.6927C188.068 13.6094 188.302 13.5208 188.594 13.5208H202.062C202.354 13.5208 202.583 13.6094 202.682 13.6927L204.807 15.5521C204.953 15.6823 205.135 15.75 205.328 15.75H207.026C207.021 15.75 207.052 15.7813 207.052 15.849V17.7969ZM207.026 14.1615H205.63L203.724 12.5C203.312 12.1406 202.708 11.9375 202.062 11.9375H188.594C187.948 11.9375 187.339 12.1406 186.932 12.5L185.026 14.1615H183.625C182.74 14.1615 182.016 14.9167 182.016 15.849V17.9896C182.016 18.2917 182.094 18.5833 182.234 18.8438C182.297 18.9531 182.385 19.0469 182.49 19.1198C182.75 19.2917 183.052 19.3802 183.359 19.3802H207.297C207.604 19.3802 207.906 19.2917 208.161 19.1198C208.266 19.0469 208.359 18.9531 208.417 18.8438C208.562 18.5833 208.635 18.2917 208.635 17.9896V15.849C208.635 14.9167 207.911 14.1615 207.026 14.1615Z" fill="#1C1C1B"/>
<path d="M202.057 14.2605H188.599C188.229 14.2605 187.927 14.5626 187.927 14.9272C187.927 15.3022 188.229 15.6042 188.599 15.6042H202.057C202.427 15.6042 202.729 15.3022 202.729 14.9272C202.729 14.5626 202.427 14.2605 202.057 14.2605Z" fill="#1C1C1B"/>
<path d="M102.984 6.16675H50.1979V36.5626C50.1979 46.8959 58.7344 55.3022 69.2188 55.3022H122.01V24.9063C122.01 14.573 113.474 6.16675 102.984 6.16675Z" fill="#FCC42F"/>
<path d="M63.7396 29.8594C58.9375 29.8594 55.0417 33.75 55.0417 38.5521C55.0417 43.3542 58.9375 47.2448 63.7396 47.2448C68.5417 47.2448 72.4323 43.3542 72.4323 38.5521C72.4323 33.75 68.5417 29.8594 63.7396 29.8594Z" fill="white"/>
<path d="M69.4062 39.9687H65.1562V44.2187H62.3229V39.9687H58.0677V37.1353H62.3229V32.8801H65.1562V37.1353H69.4062" fill="#1C1C1B"/>
<path d="M55.8698 27.099V17.698H58.3594V25.0157H61.9167V27.099" fill="#1C1C1B"/>
<path d="M63.0261 27.099V17.698H69.1042V19.7813H65.5156V21.2553H68.5834V23.3386H65.5156V25.0157H69.2448V27.099" fill="#1C1C1B"/>
<path d="M75.1771 27.099V19.7813H72.6875V17.698H80.151V19.7813H77.6615V27.099" fill="#1C1C1B"/>
<path d="M83.6354 21.9792H84.5313C85.5365 21.9792 86.0365 21.5626 86.0365 20.7345C86.0365 20.3282 85.9115 20.047 85.6563 19.8959C85.4011 19.7397 85.0261 19.6615 84.5313 19.6615H83.6354V21.9792ZM81.1511 27.099V17.698H84.7084C85.2084 17.698 85.6875 17.7449 86.1459 17.8386C86.6042 17.9376 87.0052 18.099 87.349 18.3334C87.6875 18.5626 87.9636 18.8751 88.1615 19.2657C88.3646 19.6563 88.4688 20.1459 88.4688 20.7345C88.4688 21.4063 88.3281 21.9688 88.0573 22.4115C87.7813 22.8542 87.4115 23.2032 86.9479 23.4532L88.9896 27.099H86.2136L84.5938 23.9428H83.6354V27.099" fill="#1C1C1B"/>
<path d="M89.9583 27.099H92.4479V17.698H89.9583V27.099Z" fill="#1C1C1B"/>
<path d="M75.4636 43.7708V34.375H81.599V36.4583H77.9531V38.25H81.0781V40.3281H77.9531V43.7708" fill="#1C1C1B"/>
<path d="M85.0052 39.2032L84.8438 39.8542H86.5833L86.4219 39.2032C86.3073 38.7501 86.1927 38.2605 86.0729 37.7292C85.9583 37.198 85.8438 36.698 85.7292 36.224H85.6719C85.5625 36.7032 85.4531 37.2084 85.3438 37.7345C85.2344 38.2605 85.1198 38.7501 85.0052 39.2032ZM81.3906 43.7761L84.25 34.3699H87.2604L90.125 43.7761H87.4948L87.0312 41.7813H84.3958L83.9323 43.7761" fill="#1C1C1B"/>
<path d="M94.6511 43.948C94.0521 43.948 93.4844 43.849 92.9375 43.6511C92.3959 43.4532 91.9167 43.1563 91.5052 42.7553C91.0938 42.3542 90.7709 41.8542 90.5313 41.2501C90.2917 40.6459 90.1667 39.948 90.1667 39.1459C90.1667 38.3542 90.2917 37.6563 90.5417 37.0417C90.7969 36.4272 91.1302 35.9115 91.5469 35.4949C91.9688 35.073 92.4531 34.7553 92.9948 34.5313C93.5417 34.3126 94.1146 34.198 94.7084 34.198C95.3386 34.198 95.8959 34.323 96.3854 34.5678C96.8802 34.8126 97.2917 35.1042 97.6302 35.4428L96.3281 37.0365C96.099 36.8334 95.8594 36.6667 95.6146 36.5365C95.3698 36.4063 95.0834 36.3386 94.7656 36.3386C94.4844 36.3386 94.224 36.4011 93.9792 36.5261C93.7344 36.6511 93.5156 36.8334 93.3281 37.0626C93.1406 37.297 92.9896 37.5782 92.8802 37.9167C92.7656 38.2553 92.7136 38.6355 92.7136 39.0574C92.7136 39.948 92.9011 40.6251 93.2709 41.099C93.6406 41.573 94.1302 41.8074 94.7396 41.8074C95.1042 41.8074 95.4271 41.7292 95.7136 41.5678C96 41.4115 96.2396 41.2188 96.4427 40.9949L97.7448 42.5574C97.3438 43.0209 96.875 43.3699 96.349 43.599C95.8229 43.8334 95.2604 43.948 94.6511 43.948Z" fill="#1C1C1B"/>
<path d="M98.7031 43.7708H101.193V34.375H98.7031V43.7708Z" fill="#1C1C1B"/>
<path d="M102.958 43.7708V34.375H105.448V41.6927H109.005V43.7708" fill="#1C1C1B"/>
<path d="M110.12 43.7708V34.375H116.193V36.4583H112.604V37.9323H115.672V40.0156H112.604V41.6927H116.339V43.7708" fill="#1C1C1B"/>
<path d="M28.4896 26.2449C26.7969 28.7345 28.2344 32.0105 29.9844 33.672C31.5729 35.1824 32.849 35.5365 33.0156 35.5782L33.8281 34.0261L36.1771 40.4324L29.5469 41.7813L30.4271 40.1511L29.5313 39.6459C26.7396 37.8282 26.1511 35.3595 25.9584 34.5886C25.625 33.2605 25.1302 29.2917 28.4896 26.2449Z" fill="#1C1C1B"/>
<path d="M28.4583 26.3542C29.6614 29.1095 33.1979 29.6407 35.5364 29.0522C37.6041 28.5261 38.5885 27.672 38.7552 27.5157L38.75 27.5001L37.8594 25.9636L44.5312 27.422L42.1146 33.7397L41.2239 32.1459L40.3489 32.6199C37.3229 34.0105 34.9166 33.1928 34.1614 32.9428C32.8646 32.5157 29.2396 30.8178 28.4583 26.3542Z" fill="#1C1C1B"/>
<path d="M40.2448 19.6928C39.7864 22.9897 37.7969 24.573 37.1771 25.073C36.1146 25.9376 32.7291 28.0678 28.5521 26.3178C31.526 26.7917 33.8802 24.1042 34.6406 21.8178C35.3281 19.7709 35.125 18.474 35.0885 18.2709H35.0677L33.2969 18.1928L38.1094 13.3542L42.1354 18.7917L40.3229 18.6876" fill="#1C1C1B"/>
<path fill-rule="evenodd" clip-rule="evenodd" d="M20.026 16.9115C18.5052 16.9115 17.2708 15.6823 17.2708 14.1562C17.2708 12.6354 18.5052 11.4062 20.026 11.4062C21.5469 11.4062 22.776 12.6354 22.776 14.1562C22.776 15.6823 21.5469 16.9115 20.026 16.9115Z" fill="#1C1C1B"/>
<path d="M15.7604 30.297C15.9948 29.6511 16.3489 29.6928 16.3489 29.6928C16.3489 29.6928 16.6614 29.6251 16.8385 30.2709L19.4114 39.3074C17.2656 38.6876 15.3073 37.6199 13.6458 36.2136L15.7604 30.297ZM23.7864 6.16675C13.8437 6.16675 5.75519 14.2553 5.75519 24.198C5.75519 34.1407 13.8437 42.2345 23.7864 42.2345C24.3177 42.2345 24.8437 42.198 25.3646 42.1511L25.4844 43.9636L28.7812 40.7709L25.0885 37.9584L25.2291 39.8595C24.7552 39.9011 24.276 39.9324 23.7864 39.9324C23.026 39.9324 22.2708 39.8751 21.5364 39.7657L21.4635 39.2917L19.75 24.6876C19.5156 21.9324 21.0885 21.4949 22.0625 21.9063L27.5312 24.1042C28.1562 24.3751 28.4583 23.849 28.4583 23.849C28.4583 23.849 28.8125 23.3022 28.1823 22.8959C28.1823 22.8959 20.7291 17.9584 19.1354 17.6615C16.9687 17.2553 14.8281 19.0105 14.3489 21.297L11.7031 34.2605C9.42706 31.5313 8.05206 28.0209 8.05206 24.198C8.05206 15.5261 15.1146 8.46362 23.7864 8.46362C28.4219 8.46362 32.5937 10.4792 35.4739 13.6772L37.0885 12.0417C33.7916 8.43237 29.0521 6.16675 23.7864 6.16675Z" fill="#1C1C1B"/>
<path d="M83.9197 64.2149L83.8781 64.3816C83.6697 65.3816 84.0239 66.7566 85.7947 66.7566C87.2322 66.7566 88.4614 65.9233 88.7947 64.4024C89.0031 63.4233 88.4822 62.6941 87.5656 62.3399L86.8364 62.0483C86.1489 61.7566 86.0864 61.6316 86.2322 61.0274C86.3781 60.2774 86.7114 60.1941 87.2114 60.1941C87.9197 60.1941 87.9197 60.3816 87.7947 61.0274L87.7114 61.3608H89.2322L89.3156 61.0274C89.4822 60.2774 89.3364 58.9441 87.5239 58.9441C86.1697 58.9441 84.9406 59.8608 84.6697 61.1524C84.4406 62.1733 84.9822 62.9024 85.9406 63.3191L86.6489 63.5899C87.2531 63.7774 87.3572 63.9024 87.2114 64.6524C87.0864 65.1941 86.8156 65.5066 86.1072 65.5066C85.3156 65.5066 85.2322 65.2566 85.3989 64.3816L85.4822 64.0274H83.9614L83.9197 64.2149Z" fill="#1C1C1B"/>
<path d="M93.5056 63.8607L93.6097 63.2982C93.9431 61.7982 93.5264 60.7148 92.0264 60.7148C90.3389 60.7148 89.5264 62.4023 89.2347 63.819C88.7139 66.2982 89.9431 66.7565 90.8181 66.7565C91.9847 66.7565 93.0472 65.819 93.3389 64.4232H91.9431C91.8181 64.944 91.7556 65.6315 90.9847 65.6315C90.1722 65.6315 90.4639 64.9023 90.6306 64.1732L90.6514 64.069H93.4639L93.5056 63.8607ZM90.8389 63.1315L90.8597 63.0273C91.0056 62.319 91.1931 61.8398 91.8806 61.8398C92.4847 61.8398 92.4014 62.1523 92.2556 62.8398L92.2347 62.944H90.8806L90.8389 63.1315ZM91.6931 60.5273H92.5056L94.2347 58.7148H92.5056L91.3389 60.5273H91.6931Z" fill="#1C1C1B"/>
<path d="M93.2814 68.3607H94.5106L95.0106 65.9857H94.7189C94.7814 66.2773 95.3647 66.7565 95.9481 66.7565C96.6772 66.7565 97.9064 66.069 98.3856 63.7982C98.7814 61.944 98.3022 60.7148 97.0731 60.7148C96.4897 60.7148 95.8856 61.0898 95.5939 61.5065H95.9064L96.0522 60.8607H94.6356L93.0522 68.3607H93.2814ZM95.4481 63.6732C95.6981 62.5273 95.8439 61.944 96.5731 61.944C97.3231 61.944 97.1356 62.5273 96.8647 63.7565C96.5522 65.2357 96.3647 65.5065 95.7397 65.5065C94.9897 65.5065 95.1772 64.9648 95.4481 63.6732Z" fill="#1C1C1B"/>
<path d="M103.071 62.2148C103.279 61.2773 102.404 60.7148 101.446 60.7148C100.029 60.7148 99.2373 61.5273 98.9457 62.8607H100.362C100.508 62.1523 100.529 61.8398 101.258 61.8398C101.821 61.8398 101.716 61.944 101.633 62.444C101.529 62.9023 101.446 62.8398 101.05 62.944L100.154 63.1732C99.3832 63.4023 98.6123 63.8607 98.3415 65.0482C98.1332 66.0898 98.7582 66.7565 99.6332 66.7565C100.258 66.7565 100.862 66.444 101.216 65.9648H100.925C100.883 66.2982 101.446 66.6732 101.925 66.6732C102.133 66.6732 102.321 66.6107 102.633 66.4648L102.883 65.319C102.446 65.5482 102.508 65.4857 102.446 65.4857C102.279 65.4857 102.383 65.5065 102.425 65.2982L103.071 62.2148ZM101.196 64.4857C101.008 65.2773 100.8 65.569 100.154 65.569C99.6957 65.569 99.7373 65.4023 99.8415 64.944C99.9248 64.5482 99.9457 64.4232 100.279 64.2773C100.633 64.1107 101.383 63.944 101.279 64.0065L101.196 64.4857Z" fill="#1C1C1B"/>
<path d="M103.096 66.6107H104.326L105.055 63.194C105.263 62.194 105.701 62.1732 106.201 62.1732C106.367 62.1732 106.576 62.2148 106.784 62.2773L107.076 60.8398C106.805 60.7357 106.742 60.7148 106.617 60.7148C106.013 60.7148 105.388 61.1523 105.055 61.694H105.367L105.555 60.8607H104.076L102.846 66.6107H103.096Z" fill="#1C1C1B"/>
<path d="M110.666 63.8607L110.77 63.2982C111.103 61.7982 110.686 60.7148 109.186 60.7148C107.499 60.7148 106.686 62.4023 106.395 63.819C105.874 66.2982 107.103 66.7565 107.978 66.7565C109.145 66.7565 110.207 65.819 110.499 64.4232H109.103C108.978 64.944 108.916 65.6315 108.145 65.6315C107.332 65.6315 107.624 64.9023 107.791 64.1732L107.811 64.069H110.624L110.666 63.8607ZM107.999 63.1315L108.02 63.0273C108.166 62.319 108.353 61.8398 109.041 61.8398C109.645 61.8398 109.561 62.1523 109.416 62.8398L109.395 62.944H108.041L107.999 63.1315Z" fill="#1C1C1B"/>
<path d="M110.546 66.6106H114.275L114.546 65.3189H112.441L115.233 62.0273L115.483 60.8606H111.671L111.4 62.1314H113.421L110.546 65.5064L110.296 66.6106H110.546Z" fill="#1C1C1B"/>
<path d="M117.328 66.6107H118.557L120.161 59.0898H118.703L117.099 66.6107H117.328Z" fill="#1C1C1B"/>
<path d="M123.986 63.8607L124.09 63.2982C124.423 61.7982 124.006 60.7148 122.506 60.7148C120.819 60.7148 120.006 62.4023 119.715 63.819C119.194 66.2982 120.423 66.7565 121.298 66.7565C122.465 66.7565 123.527 65.819 123.819 64.4232H122.423C122.298 64.944 122.236 65.6315 121.465 65.6315C120.652 65.6315 120.944 64.9023 121.111 64.1732L121.131 64.069H123.944L123.986 63.8607ZM121.319 63.1315L121.34 63.0273C121.486 62.319 121.673 61.8398 122.361 61.8398C122.965 61.8398 122.881 62.1523 122.736 62.8398L122.715 62.944H121.361L121.319 63.1315Z" fill="#1C1C1B"/>
<path d="M128.47 62.6107L128.532 62.3607C128.657 61.694 128.345 60.7148 126.97 60.7148C125.866 60.7148 124.824 61.3607 124.616 62.3815C124.428 63.2357 124.886 63.8398 125.636 64.1107L126.449 64.4232C126.803 64.569 126.761 64.6315 126.678 65.0273C126.574 65.5273 126.407 65.6315 125.824 65.6315C125.199 65.6315 125.241 65.4857 125.366 64.8607L125.449 64.5065H124.116L124.032 64.8815C123.803 65.9232 124.282 66.7565 125.636 66.7565C126.72 66.7565 127.866 66.069 128.116 64.9232C128.282 64.069 127.824 63.444 127.074 63.1732L126.428 62.944C125.907 62.7357 125.949 62.7565 126.032 62.3398C126.136 61.8398 126.345 61.8398 126.761 61.8398C127.324 61.8398 127.178 62.0482 127.095 62.4648L127.032 62.7982H128.428L128.47 62.6107Z" fill="#1C1C1B"/>
<path d="M135.276 63.8607L135.38 63.2982C135.713 61.7982 135.296 60.7148 133.796 60.7148C132.109 60.7148 131.296 62.4023 131.005 63.819C130.484 66.2982 131.713 66.7565 132.588 66.7565C133.755 66.7565 134.817 65.819 135.109 64.4232H133.713C133.588 64.944 133.526 65.6315 132.755 65.6315C131.942 65.6315 132.234 64.9023 132.401 64.1732L132.421 64.069H135.234L135.276 63.8607ZM132.609 63.1315L132.63 63.0273C132.776 62.319 132.963 61.8398 133.651 61.8398C134.255 61.8398 134.171 62.1523 134.026 62.8398L134.005 62.944H132.651L132.609 63.1315ZM133.463 60.5273H134.276L136.005 58.7148H134.276L133.109 60.5273H133.463Z" fill="#1C1C1B"/>
<path d="M135.468 66.6107H136.697L138.301 59.0898H136.843L135.239 66.6107H135.468Z" fill="#1C1C1B"/>
<path d="M142.126 63.8607L142.23 63.2982C142.563 61.7982 142.146 60.7148 140.646 60.7148C138.959 60.7148 138.146 62.4023 137.855 63.819C137.334 66.2982 138.563 66.7565 139.438 66.7565C140.605 66.7565 141.667 65.819 141.959 64.4232H140.563C140.438 64.944 140.376 65.6315 139.605 65.6315C138.792 65.6315 139.084 64.9023 139.251 64.1732L139.271 64.069H142.084L142.126 63.8607ZM139.459 63.1315L139.48 63.0273C139.626 62.319 139.813 61.8398 140.501 61.8398C141.105 61.8398 141.021 62.1523 140.876 62.8398L140.855 62.944H139.501L139.459 63.1315ZM140.313 60.5273H141.126L142.855 58.7148H141.126L139.959 60.5273H140.313Z" fill="#1C1C1B"/>
<path d="M142.318 66.6107H143.547L144.36 62.819C144.506 62.1107 144.818 61.944 145.256 61.944C145.693 61.944 145.651 62.0273 145.506 62.7357L144.672 66.6107H146.151L146.964 62.819C147.11 62.1107 147.401 61.944 147.839 61.944C148.276 61.944 148.235 62.0273 148.089 62.7357L147.256 66.6107H148.735L149.651 62.3398C149.86 61.2982 149.214 60.7148 148.443 60.7148C147.797 60.7148 147.193 61.069 147.026 61.2773C147.026 61.2773 146.61 60.7148 145.839 60.7148C145.318 60.7148 144.61 61.069 144.276 61.4857H144.589L144.714 60.8607H143.297L142.089 66.6107H142.318Z" fill="#1C1C1B"/>
<path d="M154.156 63.8607L154.26 63.2982C154.593 61.7982 154.176 60.7148 152.676 60.7148C150.989 60.7148 150.176 62.4023 149.885 63.819C149.364 66.2982 150.593 66.7565 151.468 66.7565C152.635 66.7565 153.697 65.819 153.989 64.4232H152.593C152.468 64.944 152.406 65.6315 151.635 65.6315C150.822 65.6315 151.114 64.9023 151.281 64.1732L151.301 64.069H154.114L154.156 63.8607ZM151.489 63.1315L151.51 63.0273C151.656 62.319 151.843 61.8398 152.531 61.8398C153.135 61.8398 153.051 62.1523 152.906 62.8398L152.885 62.944H151.531L151.489 63.1315Z" fill="#1C1C1B"/>
<path d="M154.306 66.6107H155.536L156.348 62.819C156.494 62.1107 156.786 61.944 157.244 61.944C157.786 61.944 157.723 62.0273 157.577 62.7357L156.765 66.6107H158.223L159.119 62.3607C159.348 61.2773 158.723 60.7148 157.911 60.7148C157.306 60.7148 156.598 61.069 156.265 61.4857H156.556L156.702 60.8607H155.286L154.056 66.6107H154.306Z" fill="#1C1C1B"/>
<path d="M159.596 62.0274H160.096L159.429 65.1733C159.2 66.2774 159.721 66.6733 160.45 66.6733C160.804 66.6733 161.096 66.6316 161.512 66.5483L161.762 65.3608C161.408 65.4233 161.283 65.4233 161.116 65.4233C160.741 65.4233 160.846 65.4649 160.929 65.0483L161.575 62.0274H162.45L162.7 60.8608H161.825L162.158 59.3191H160.679L160.346 60.8608H159.616L159.366 62.0274H159.596Z" fill="#1C1C1B"/>
<path d="M166.23 62.6107L166.292 62.3607C166.417 61.694 166.105 60.7148 164.73 60.7148C163.626 60.7148 162.584 61.3607 162.376 62.3815C162.188 63.2357 162.646 63.8398 163.396 64.1107L164.209 64.4232C164.563 64.569 164.521 64.6315 164.438 65.0273C164.334 65.5273 164.167 65.6315 163.584 65.6315C162.959 65.6315 163.001 65.4857 163.126 64.8607L163.209 64.5065H161.876L161.792 64.8815C161.563 65.9232 162.042 66.7565 163.396 66.7565C164.48 66.7565 165.626 66.069 165.876 64.9232C166.042 64.069 165.584 63.444 164.834 63.1732L164.188 62.944C163.667 62.7357 163.709 62.7565 163.792 62.3398C163.896 61.8398 164.105 61.8398 164.521 61.8398C165.084 61.8398 164.938 62.0482 164.855 62.4648L164.792 62.7982H166.188L166.23 62.6107Z" fill="#1C1C1B"/>
<path d="M173.161 62.2148C173.369 61.2773 172.494 60.7148 171.536 60.7148C170.119 60.7148 169.327 61.5273 169.036 62.8607H170.452C170.598 62.1523 170.619 61.8398 171.348 61.8398C171.911 61.8398 171.806 61.944 171.723 62.444C171.619 62.9023 171.536 62.8398 171.14 62.944L170.244 63.1732C169.473 63.4023 168.702 63.8607 168.431 65.0482C168.223 66.0898 168.848 66.7565 169.723 66.7565C170.348 66.7565 170.952 66.444 171.306 65.9648H171.015C170.973 66.2982 171.536 66.6732 172.015 66.6732C172.223 66.6732 172.411 66.6107 172.723 66.4648L172.973 65.319C172.536 65.5482 172.598 65.4857 172.536 65.4857C172.369 65.4857 172.473 65.5065 172.515 65.2982L173.161 62.2148ZM171.286 64.4857C171.098 65.2773 170.89 65.569 170.244 65.569C169.786 65.569 169.827 65.4023 169.931 64.944C170.015 64.5482 170.036 64.4232 170.369 64.2773C170.723 64.1107 171.473 63.944 171.369 64.0065L171.286 64.4857Z" fill="#1C1C1B"/>
<path d="M174.105 66.6106H175.48L178.209 60.8606H176.667L174.917 65.0898H175.209L175.167 60.8606H173.605L173.917 66.6106H174.105Z" fill="#1C1C1B"/>
<path d="M181.87 62.2148C182.078 61.2773 181.203 60.7148 180.245 60.7148C178.828 60.7148 178.036 61.5273 177.745 62.8607H179.161C179.307 62.1523 179.328 61.8398 180.057 61.8398C180.62 61.8398 180.516 61.944 180.432 62.444C180.328 62.9023 180.245 62.8398 179.849 62.944L178.953 63.1732C178.182 63.4023 177.411 63.8607 177.141 65.0482C176.932 66.0898 177.557 66.7565 178.432 66.7565C179.057 66.7565 179.661 66.444 180.016 65.9648H179.724C179.682 66.2982 180.245 66.6732 180.724 66.6732C180.932 66.6732 181.12 66.6107 181.432 66.4648L181.682 65.319C181.245 65.5482 181.307 65.4857 181.245 65.4857C181.078 65.4857 181.182 65.5065 181.224 65.2982L181.87 62.2148ZM179.995 64.4857C179.807 65.2773 179.599 65.569 178.953 65.569C178.495 65.569 178.536 65.4023 178.641 64.944C178.724 64.5482 178.745 64.4232 179.078 64.2773C179.432 64.1107 180.182 63.944 180.078 64.0065L179.995 64.4857Z" fill="#1C1C1B"/>
<path d="M181.896 66.6107H183.125L183.937 62.819C184.083 62.1107 184.375 61.944 184.833 61.944C185.375 61.944 185.312 62.0273 185.166 62.7357L184.354 66.6107H185.812L186.708 62.3607C186.937 61.2773 186.312 60.7148 185.5 60.7148C184.896 60.7148 184.187 61.069 183.854 61.4857H184.146L184.291 60.8607H182.875L181.646 66.6107H181.896Z" fill="#1C1C1B"/>
<path d="M187.185 62.0274H187.685L187.018 65.1733C186.789 66.2774 187.31 66.6733 188.039 66.6733C188.393 66.6733 188.685 66.6316 189.101 66.5483L189.351 65.3608C188.997 65.4233 188.872 65.4233 188.706 65.4233C188.331 65.4233 188.435 65.4649 188.518 65.0483L189.164 62.0274H190.039L190.289 60.8608H189.414L189.747 59.3191H188.268L187.935 60.8608H187.206L186.956 62.0274H187.185Z" fill="#1C1C1B"/>
<path d="M194.636 66.6107H195.802L197.406 59.0898H195.927L195.427 61.4857H195.719C195.656 61.194 195.094 60.7148 194.511 60.7148C193.677 60.7148 192.573 61.2773 192.073 63.6523C191.656 65.5065 192.136 66.7565 193.406 66.7565C194.177 66.7565 194.677 66.2565 194.865 65.944H194.531L194.386 66.6107H194.636ZM194.99 63.7982C194.74 64.944 194.615 65.5065 193.865 65.5065C193.115 65.5065 193.323 64.9232 193.594 63.7148C193.886 62.2565 194.031 61.944 194.636 61.944C195.469 61.944 195.261 62.5065 194.99 63.7982Z" fill="#1C1C1B"/>
<path d="M201.175 63.8607L201.279 63.2982C201.612 61.7982 201.196 60.7148 199.696 60.7148C198.008 60.7148 197.196 62.4023 196.904 63.819C196.383 66.2982 197.612 66.7565 198.487 66.7565C199.654 66.7565 200.716 65.819 201.008 64.4232H199.612C199.487 64.944 199.425 65.6315 198.654 65.6315C197.841 65.6315 198.133 64.9023 198.3 64.1732L198.321 64.069H201.133L201.175 63.8607ZM198.508 63.1315L198.529 63.0273C198.675 62.319 198.862 61.8398 199.55 61.8398C200.154 61.8398 200.071 62.1523 199.925 62.8398L199.904 62.944H198.55L198.508 63.1315Z" fill="#1C1C1B"/>
<path d="M204.205 62.0274H204.705L204.038 65.1733C203.809 66.2774 204.33 66.6733 205.059 66.6733C205.413 66.6733 205.705 66.6316 206.121 66.5483L206.371 65.3608C206.017 65.4233 205.892 65.4233 205.726 65.4233C205.351 65.4233 205.455 65.4649 205.538 65.0483L206.184 62.0274H207.059L207.309 60.8608H206.434L206.767 59.3191H205.288L204.955 60.8608H204.226L203.976 62.0274H204.205Z" fill="#1C1C1B"/>
<path d="M206.506 66.6107H207.735L208.464 63.194C208.672 62.194 209.11 62.1732 209.61 62.1732C209.776 62.1732 209.985 62.2148 210.193 62.2773L210.485 60.8398C210.214 60.7357 210.151 60.7148 210.026 60.7148C209.422 60.7148 208.797 61.1523 208.464 61.694H208.776L208.964 60.8607H207.485L206.256 66.6107H206.506Z" fill="#1C1C1B"/>
<path d="M209.697 66.6108H210.926L212.156 60.8608H210.676L209.468 66.6108H209.697ZM211.01 60.4649H212.239L212.551 59.0066H211.072L210.781 60.4649H211.01Z" fill="#1C1C1B"/>
<path d="M216.355 63.8607L216.459 63.2982C216.792 61.7982 216.376 60.7148 214.876 60.7148C213.188 60.7148 212.376 62.4023 212.084 63.819C211.563 66.2982 212.792 66.7565 213.667 66.7565C214.834 66.7565 215.896 65.819 216.188 64.4232H214.792C214.667 64.944 214.605 65.6315 213.834 65.6315C213.021 65.6315 213.313 64.9023 213.48 64.1732L213.501 64.069H216.313L216.355 63.8607ZM213.688 63.1315L213.709 63.0273C213.855 62.319 214.042 61.8398 214.73 61.8398C215.334 61.8398 215.251 62.1523 215.105 62.8398L215.084 62.944H213.73L213.688 63.1315Z" fill="#1C1C1B"/>
<path d="M216.506 66.6107H217.735L218.464 63.194C218.672 62.194 219.11 62.1732 219.61 62.1732C219.776 62.1732 219.985 62.2148 220.193 62.2773L220.485 60.8398C220.214 60.7357 220.151 60.7148 220.026 60.7148C219.422 60.7148 218.797 61.1523 218.464 61.694H218.776L218.964 60.8607H217.485L216.256 66.6107H216.506Z" fill="#1C1C1B"/>
<path d="M128.85 33.7H129.816L129.13 34.708H128.472L128.85 33.7ZM130.299 35.002V35.828H128.514V37.004H130.194V37.83H128.514V39.174H130.369V40H127.506V35.002H130.299ZM130.876 40V35.002H131.884V39.174H133.669V40H130.876ZM135.461 33.7H136.427L135.741 34.708H135.083L135.461 33.7ZM136.91 35.002V35.828H135.125V37.004H136.805V37.83H135.125V39.174H136.98V40H134.117V35.002H136.91ZM137.508 35.002H139.006L139.72 38.53H139.734L140.455 35.002H141.946V40H141.022V36.01H141.008L140.119 40H139.335L138.446 36.01H138.432V40H137.508V35.002ZM145.461 35.002V35.828H143.676V37.004H145.356V37.83H143.676V39.174H145.531V40H142.668V35.002H145.461ZM147.2 35.002L148.418 38.425H148.432V35.002H149.356V40H148.208L146.976 36.5H146.962V40H146.038V35.002H147.2ZM152.984 35.002V35.828H151.892V40H150.884V35.828H149.792V35.002H152.984ZM155.143 35.002C154.999 35.268 154.875 35.527 154.772 35.779C154.67 36.0263 154.586 36.276 154.52 36.528C154.46 36.78 154.415 37.039 154.387 37.305C154.359 37.5663 154.345 37.8463 154.345 38.145C154.345 38.4437 154.359 38.726 154.387 38.992C154.415 39.2533 154.46 39.5077 154.52 39.755C154.586 39.9977 154.67 40.2427 154.772 40.49C154.875 40.742 154.999 41.001 155.143 41.267H154.401C154.051 40.7163 153.799 40.182 153.645 39.664C153.496 39.146 153.421 38.6397 153.421 38.145C153.421 37.6503 153.496 37.1417 153.645 36.619C153.799 36.0917 154.051 35.5527 154.401 35.002H155.143ZM156.305 38.439V38.586C156.305 38.7027 156.314 38.81 156.333 38.908C156.351 39.0013 156.386 39.0807 156.438 39.146C156.489 39.2113 156.557 39.2627 156.641 39.3C156.729 39.3373 156.839 39.356 156.97 39.356C157.124 39.356 157.261 39.307 157.383 39.209C157.509 39.1063 157.572 38.95 157.572 38.74C157.572 38.628 157.555 38.5323 157.523 38.453C157.495 38.369 157.446 38.2943 157.376 38.229C157.306 38.1637 157.212 38.1053 157.096 38.054C156.984 37.998 156.844 37.942 156.676 37.886C156.452 37.8113 156.258 37.7297 156.095 37.641C155.931 37.5523 155.794 37.4497 155.682 37.333C155.574 37.2117 155.495 37.074 155.444 36.92C155.392 36.7613 155.367 36.5793 155.367 36.374C155.367 35.8793 155.504 35.5107 155.78 35.268C156.055 35.0253 156.433 34.904 156.914 34.904C157.138 34.904 157.343 34.9297 157.53 34.981C157.721 35.0277 157.884 35.107 158.02 35.219C158.16 35.3263 158.267 35.4663 158.342 35.639C158.421 35.807 158.461 36.01 158.461 36.248V36.388H157.495C157.495 36.15 157.453 35.968 157.369 35.842C157.285 35.7113 157.145 35.646 156.949 35.646C156.837 35.646 156.743 35.6623 156.669 35.695C156.594 35.7277 156.533 35.772 156.487 35.828C156.445 35.8793 156.414 35.94 156.396 36.01C156.382 36.08 156.375 36.1523 156.375 36.227C156.375 36.381 156.407 36.5117 156.473 36.619C156.538 36.7217 156.678 36.8173 156.893 36.906L157.67 37.242C157.861 37.326 158.017 37.4147 158.139 37.508C158.26 37.5967 158.356 37.6947 158.426 37.802C158.5 37.9047 158.552 38.019 158.58 38.145C158.608 38.271 158.622 38.411 158.622 38.565C158.622 39.0923 158.468 39.4773 158.16 39.72C157.856 39.958 157.432 40.077 156.886 40.077C156.316 40.077 155.908 39.9533 155.661 39.706C155.418 39.4587 155.297 39.104 155.297 38.642V38.439H156.305ZM159.514 35.002C159.864 35.5527 160.114 36.0917 160.263 36.619C160.417 37.1417 160.494 37.6503 160.494 38.145C160.494 38.6397 160.417 39.146 160.263 39.664C160.114 40.182 159.864 40.7163 159.514 41.267H158.772C158.917 41.001 159.041 40.742 159.143 40.49C159.246 40.2427 159.328 39.9977 159.388 39.755C159.454 39.5077 159.5 39.2533 159.528 38.992C159.556 38.726 159.57 38.4437 159.57 38.145C159.57 37.8463 159.556 37.5663 159.528 37.305C159.5 37.039 159.454 36.78 159.388 36.528C159.328 36.276 159.246 36.0263 159.143 35.779C159.041 35.527 158.917 35.268 158.772 35.002H159.514ZM125.508 47.258H125.956C126.133 47.258 126.275 47.2277 126.383 47.167C126.49 47.1063 126.574 47.006 126.635 46.866C126.7 46.726 126.742 46.5417 126.761 46.313C126.784 46.0843 126.796 45.7997 126.796 45.459C126.796 45.1743 126.786 44.9247 126.768 44.71C126.749 44.4953 126.709 44.318 126.649 44.178C126.593 44.0333 126.506 43.926 126.39 43.856C126.278 43.7813 126.126 43.744 125.935 43.744H125.508V47.258ZM124.5 43.002H126.152C126.502 43.002 126.784 43.0603 126.999 43.177C127.213 43.289 127.379 43.4523 127.496 43.667C127.617 43.877 127.699 44.1313 127.741 44.43C127.783 44.7287 127.804 45.0623 127.804 45.431C127.804 45.8697 127.776 46.2523 127.72 46.579C127.668 46.901 127.577 47.167 127.447 47.377C127.316 47.587 127.141 47.7433 126.922 47.846C126.702 47.9487 126.425 48 126.089 48H124.5V43.002ZM129.492 43.912C129.492 44.0987 129.478 44.2713 129.45 44.43C129.427 44.584 129.38 44.7193 129.31 44.836C129.24 44.948 129.144 45.0413 129.023 45.116C128.906 45.186 128.755 45.2303 128.568 45.249V44.759C128.689 44.7357 128.78 44.6703 128.841 44.563C128.902 44.4557 128.932 44.3367 128.932 44.206V44.094H128.568V43.002H129.492V43.912ZM133.081 43.002V43.828H131.296V45.004H132.976V45.83H131.296V47.174H133.151V48H130.288V43.002H133.081ZM133.68 43.002H135.178L135.892 46.53H135.906L136.627 43.002H138.118V48H137.194V44.01H137.18L136.291 48H135.507L134.618 44.01H134.604V48H133.68V43.002ZM139.848 47.258H140.24C140.483 47.258 140.679 47.2043 140.828 47.097C140.978 46.9897 141.052 46.7913 141.052 46.502C141.052 46.3573 141.031 46.2383 140.989 46.145C140.952 46.047 140.898 45.97 140.828 45.914C140.763 45.8533 140.684 45.8113 140.59 45.788C140.497 45.7647 140.394 45.753 140.282 45.753H139.848V47.258ZM139.848 45.053H140.135C140.415 45.053 140.618 45.004 140.744 44.906C140.875 44.8033 140.94 44.633 140.94 44.395C140.94 44.157 140.882 43.989 140.765 43.891C140.649 43.793 140.464 43.744 140.212 43.744H139.848V45.053ZM138.84 43.002H140.527C140.733 43.002 140.922 43.023 141.094 43.065C141.272 43.107 141.423 43.177 141.549 43.275C141.675 43.373 141.773 43.5037 141.843 43.667C141.913 43.8303 141.948 44.031 141.948 44.269C141.948 44.5397 141.885 44.773 141.759 44.969C141.633 45.1603 141.444 45.291 141.192 45.361V45.375C141.472 45.4123 141.694 45.5313 141.857 45.732C142.021 45.9327 142.102 46.201 142.102 46.537C142.102 46.733 142.077 46.9197 142.025 47.097C141.974 47.2743 141.885 47.4307 141.759 47.566C141.638 47.6967 141.477 47.8017 141.276 47.881C141.08 47.9603 140.835 48 140.541 48H138.84V43.002ZM144.816 46.117L144.333 43.87H144.319L143.836 46.117H144.816ZM144.949 43.002L146.272 48H145.222L144.991 46.943H143.661L143.43 48H142.38L143.703 43.002H144.949ZM146.62 48V43.002H147.628V47.174H149.413V48H146.62ZM149.86 48V43.002H150.868V47.174H152.653V48H149.86ZM155.186 46.117L154.703 43.87H154.689L154.206 46.117H155.186ZM155.319 43.002L156.642 48H155.592L155.361 46.943H154.031L153.8 48H152.75L154.073 43.002H155.319ZM159.209 44.486C159.209 44.3927 159.197 44.297 159.174 44.199C159.155 44.101 159.122 44.0123 159.076 43.933C159.029 43.849 158.968 43.7813 158.894 43.73C158.824 43.674 158.737 43.646 158.635 43.646C158.392 43.646 158.217 43.7813 158.11 44.052C158.002 44.3227 157.949 44.7707 157.949 45.396C157.949 45.6947 157.958 45.9653 157.977 46.208C157.995 46.4507 158.028 46.6583 158.075 46.831C158.126 46.999 158.196 47.1297 158.285 47.223C158.378 47.3117 158.497 47.356 158.642 47.356C158.702 47.356 158.768 47.3397 158.838 47.307C158.912 47.2743 158.98 47.2253 159.041 47.16C159.106 47.0947 159.16 47.013 159.202 46.915C159.244 46.8123 159.265 46.6933 159.265 46.558V46.047H158.6V45.305H160.231V48H159.489V47.538H159.475C159.353 47.734 159.206 47.874 159.034 47.958C158.866 48.0373 158.663 48.077 158.425 48.077C158.117 48.077 157.865 48.0233 157.669 47.916C157.477 47.8087 157.326 47.643 157.214 47.419C157.106 47.195 157.034 46.9197 156.997 46.593C156.959 46.2617 156.941 45.879 156.941 45.445C156.941 45.025 156.966 44.6563 157.018 44.339C157.074 44.0217 157.167 43.758 157.298 43.548C157.428 43.3333 157.601 43.1723 157.816 43.065C158.03 42.9577 158.299 42.904 158.621 42.904C159.171 42.904 159.568 43.0417 159.811 43.317C160.053 43.5877 160.175 43.9773 160.175 44.486H159.209ZM163.672 43.002V43.828H161.887V45.004H163.567V45.83H161.887V47.174H163.742V48H160.879V43.002H163.672Z" fill="#1C1C1B"/>
<path d="M143.333 16.5038L145.349 14.1227L151.538 15.8851L149.429 18.7007L143.333 16.5038ZM146.772 25.545L143.533 22.8024L149.622 19.9625L152.679 22.1941L146.772 25.545ZM143.05 30.6756L143.026 23.6088L146.441 26.5009C146.583 26.6226 146.8 26.6434 146.965 26.5496L148.916 25.4442L148.96 26.8798L143.05 30.6756ZM138.229 26.5669C138.394 26.6538 138.604 26.6295 138.749 26.5079L142.078 23.6227L142.102 30.766L136.147 27.7001L136.14 25.4477L138.229 26.5669ZM141.561 22.8198L138.397 25.5624L132.335 22.3053L135.389 20.0667L141.561 22.8198ZM142.344 22.1454L136.357 19.4758L142.313 17.2372L142.344 22.1454ZM142.912 22.0585L142.881 17.3346L148.616 19.4028L142.912 22.0585ZM135.609 18.7563L133.397 15.8746L139.58 14.001L141.703 16.469L135.609 18.7563ZM153.809 21.8639L150.198 19.229L152.689 15.9024C152.782 15.7773 152.807 15.6174 152.758 15.4714C152.71 15.3254 152.593 15.2107 152.445 15.169L145.314 13.139C145.142 13.0903 144.949 13.1494 144.835 13.285L142.533 16.0067L140.083 13.1598C139.966 13.0243 139.769 12.9652 139.6 13.0208L132.484 15.1725C132.335 15.2177 132.222 15.3324 132.173 15.4784C132.129 15.6244 132.156 15.7877 132.249 15.9094L134.855 19.2985L131.188 21.9925C131.06 22.0863 130.988 22.2393 131.002 22.4026C131.012 22.5625 131.105 22.7051 131.246 22.7815L135.21 24.9123L135.217 27.9886C135.22 28.1659 135.316 28.3258 135.472 28.4058L142.357 31.9479C142.423 31.9826 142.492 31.9861 142.557 32H142.574C142.592 32 142.605 31.993 142.623 31.9896C142.664 31.9861 142.705 31.9791 142.743 31.9652C142.754 31.9618 142.761 31.9583 142.771 31.9548C142.795 31.9444 142.819 31.9374 142.84 31.9235L149.681 27.5263C149.819 27.4394 149.901 27.283 149.894 27.1196L149.826 24.8845L153.765 22.6529C153.903 22.573 153.989 22.4305 153.999 22.2706C154.009 22.1107 153.937 21.9577 153.809 21.8639Z" fill="#1C1C1B"/>
</g>
<defs>
<clipPath id="clip0_199_348">
<rect width="226" height="73" fill="white"/>
</clipPath>
</defs>
</svg>
