<svg xmlns="http://www.w3.org/2000/svg" width="842.0" height="312.0" viewBox="0.0 0.0 842.0 312.0" fill="none">
<g clip-path="url(#clip0_174_141)">
<rect width="842" height="312" fill="white" />
<g clip-path="url(#clip1_174_141)">
<path d="M229.32 270.68H237.22L241.63 287.35L246.81 270.58H253.53L258.76 287.4L263.28 270.68H271.02L262.45 298.38H255.42L250.14 281.5L244.75 298.38H237.77L229.31 270.68H229.32Z" fill="#1D1D1B" />
<path d="M272.97 270.68H280.87L285.28 287.35L290.46 270.58H297.18L302.41 287.4L306.92 270.68H314.67L306.1 298.38H299.07L293.79 281.5L288.41 298.38H281.43L272.96 270.68H272.97Z" fill="#1D1D1B" />
<path d="M316.62 270.68H324.52L328.93 287.35L334.11 270.58H340.83L346.06 287.4L350.57 270.68H358.32L349.75 298.38H342.72L337.44 281.5L332.06 298.38H325.08L316.61 270.68H316.62Z" fill="#1D1D1B" />
<path d="M359.15 289.97H367.46V298.18H359.15V289.97Z" fill="#1D1D1B" />
<path d="M372.38 284.48V284.38C372.38 275.2 378.38 270.17 384.9 270.17C389.05 270.17 391.62 272.07 393.47 274.27V260.73H401.26V298.17H393.47V294.22C391.57 296.78 388.95 298.68 384.9 298.68C378.49 298.68 372.38 293.65 372.38 284.47V284.48ZM393.56 284.48V284.38C393.56 279.81 390.53 276.79 386.89 276.79C383.25 276.79 380.17 279.77 380.17 284.38V284.48C380.17 289.05 383.25 292.07 386.89 292.07C390.53 292.07 393.56 289.04 393.56 284.48Z" fill="#1D1D1B" />
<path d="M406.59 290.27V290.17C406.59 284.17 411.16 281.4 417.67 281.4C420.44 281.4 422.44 281.86 424.39 282.53V282.07C424.39 278.84 422.39 277.04 418.49 277.04C415.51 277.04 413.41 277.6 410.9 278.53L408.95 272.58C411.98 271.25 414.95 270.37 419.62 270.37C423.88 270.37 426.95 271.5 428.9 273.45C430.95 275.5 431.88 278.53 431.88 282.22V298.17H424.34V295.19C422.44 297.29 419.82 298.68 416.03 298.68C410.85 298.68 406.59 295.7 406.59 290.27ZM424.49 288.48V287.1C423.16 286.48 421.41 286.07 419.51 286.07C416.18 286.07 414.13 287.41 414.13 289.87V289.97C414.13 292.07 415.87 293.3 418.38 293.3C422.02 293.3 424.48 291.3 424.48 288.48H424.49Z" fill="#1D1D1B" />
<path d="M436.45 294.53L439.78 289.4C442.76 291.55 445.88 292.68 448.45 292.68C450.71 292.68 451.73 291.86 451.73 290.63V290.53C451.73 288.84 449.07 288.27 446.04 287.35C442.19 286.22 437.83 284.43 437.83 279.09V278.99C437.83 273.4 442.34 270.27 447.88 270.27C451.37 270.27 455.16 271.45 458.14 273.45L455.16 278.84C452.44 277.25 449.72 276.28 447.72 276.28C445.82 276.28 444.85 277.1 444.85 278.18V278.28C444.85 279.82 447.46 280.54 450.44 281.56C454.29 282.84 458.75 284.69 458.75 289.72V289.82C458.75 295.92 454.18 298.69 448.24 298.69C444.39 298.69 440.08 297.41 436.44 294.54L436.45 294.53Z" fill="#1D1D1B" />
<path d="M465.12 290.38V277.35H461.84V270.68H465.12V263.65H472.91V270.68H479.38V277.35H472.91V289.1C472.91 290.89 473.68 291.76 475.42 291.76C476.86 291.76 478.14 291.4 479.27 290.78V297.04C477.63 298.02 475.73 298.63 473.12 298.63C468.35 298.63 465.12 296.73 465.12 290.37V290.38Z" fill="#1D1D1B" />
<path d="M485.13 270.68H492.92V276.22C494.51 272.43 497.07 269.97 501.69 270.17V278.33H501.28C496.1 278.33 492.92 281.46 492.92 288.02V298.18H485.13V270.69V270.68Z" fill="#1D1D1B" />
<path d="M506.72 260.73H514.93V267.65H506.72V260.73ZM506.93 270.68H514.72V298.17H506.93V270.68Z" fill="#1D1D1B" />
<path d="M521.75 289.97H530.06V298.18H521.75V289.97Z" fill="#1D1D1B" />
<path d="M537.29 277.35H534.06V270.94H537.29V269.2C537.29 266.17 538.06 263.97 539.49 262.53C540.93 261.09 543.03 260.38 545.8 260.38C548.26 260.38 549.9 260.69 551.34 261.15V267.61C550.21 267.2 549.14 266.94 547.8 266.94C546.01 266.94 544.98 267.87 544.98 269.92V271H551.29V277.36H545.08V298.19H537.29V277.36V277.35Z" fill="#1D1D1B" />
<path d="M555.55 270.68H563.34V276.22C564.93 272.43 567.49 269.97 572.11 270.17V278.33H571.7C566.52 278.33 563.34 281.46 563.34 288.02V298.18H555.55V270.69V270.68Z" fill="#1D1D1B" />
<path d="M590.94 257.24H597.56L574.84 304.74H568.22L590.94 257.24Z" fill="#1D1D1B" />
<path d="M597.77 270.68H605.57V274.63C607.47 272.07 610.08 270.17 614.14 270.17C620.55 270.17 626.66 275.2 626.66 284.38V284.48C626.66 293.66 620.66 298.69 614.14 298.69C609.99 298.69 607.42 296.79 605.57 294.59V306.39H597.77V270.69V270.68ZM618.85 284.48V284.38C618.85 279.81 615.77 276.79 612.13 276.79C608.49 276.79 605.46 279.82 605.46 284.38V284.48C605.46 289.05 608.49 292.07 612.13 292.07C615.77 292.07 618.85 289.1 618.85 284.48Z" fill="#1D1D1B" />
<path d="M630.75 290.27V290.17C630.75 284.17 635.32 281.4 641.83 281.4C644.6 281.4 646.6 281.86 648.55 282.53V282.07C648.55 278.84 646.55 277.04 642.65 277.04C639.67 277.04 637.57 277.6 635.06 278.53L633.11 272.58C636.14 271.25 639.11 270.37 643.78 270.37C648.04 270.37 651.11 271.5 653.06 273.45C655.11 275.5 656.04 278.53 656.04 282.22V298.17H648.5V295.19C646.6 297.29 643.98 298.68 640.19 298.68C635.01 298.68 630.75 295.7 630.75 290.27ZM648.65 288.48V287.1C647.32 286.48 645.57 286.07 643.67 286.07C640.34 286.07 638.29 287.41 638.29 289.87V289.97C638.29 292.07 640.03 293.3 642.54 293.3C646.18 293.3 648.64 291.3 648.64 288.48H648.65Z" fill="#1D1D1B" />
<path d="M663.78 290.38V277.35H660.5V270.68H663.78V263.65H671.58V270.68H678.04V277.35H671.58V289.1C671.58 290.89 672.35 291.76 674.09 291.76C675.53 291.76 676.81 291.4 677.94 290.78V297.04C676.3 298.02 674.4 298.63 671.79 298.63C667.02 298.63 663.79 296.73 663.79 290.37L663.78 290.38Z" fill="#1D1D1B" />
<path d="M683.94 260.73H692.15V267.65H683.94V260.73ZM684.15 270.68H691.95V298.17H684.15V270.68Z" fill="#1D1D1B" />
<path d="M697.95 284.58V284.48C697.95 276.63 703.54 270.17 711.54 270.17C720.72 270.17 724.93 277.3 724.93 285.1C724.93 285.71 724.88 286.43 724.83 287.15H705.7C706.47 290.69 708.93 292.54 712.42 292.54C715.04 292.54 716.94 291.72 719.09 289.72L723.55 293.67C720.99 296.85 717.29 298.8 712.32 298.8C704.06 298.8 697.96 293 697.96 284.59L697.95 284.58ZM717.33 282.27C716.87 278.78 714.82 276.42 711.53 276.42C708.24 276.42 706.2 278.73 705.58 282.27H717.33Z" fill="#1D1D1B" />
<path d="M730.72 270.68H738.51V274.58C740.31 272.27 742.61 270.17 746.56 270.17C752.46 270.17 755.89 274.07 755.89 280.38V298.18H748.1V282.84C748.1 279.15 746.35 277.25 743.38 277.25C740.41 277.25 738.51 279.15 738.51 282.84V298.18H730.72V270.69V270.68Z" fill="#1D1D1B" />
<path d="M763.96 290.38V277.35H760.68V270.68H763.96V263.65H771.75V270.68H778.22V277.35H771.75V289.1C771.75 290.89 772.52 291.76 774.26 291.76C775.7 291.76 776.98 291.4 778.11 290.78V297.04C776.47 298.02 774.57 298.63 771.96 298.63C767.19 298.63 763.96 296.73 763.96 290.37V290.38Z" fill="#1D1D1B" />
<path d="M781.81 294.53L785.14 289.4C788.12 291.55 791.24 292.68 793.81 292.68C796.07 292.68 797.09 291.86 797.09 290.63V290.53C797.09 288.84 794.43 288.27 791.4 287.35C787.55 286.22 783.19 284.43 783.19 279.09V278.99C783.19 273.4 787.7 270.27 793.24 270.27C796.73 270.27 800.52 271.45 803.5 273.45L800.52 278.84C797.8 277.25 795.08 276.28 793.08 276.28C791.18 276.28 790.21 277.1 790.21 278.18V278.28C790.21 279.82 792.82 280.54 795.8 281.56C799.65 282.84 804.11 284.69 804.11 289.72V289.82C804.11 295.92 799.54 298.69 793.6 298.69C789.75 298.69 785.44 297.41 781.8 294.54L781.81 294.53Z" fill="#1D1D1B" />
<path d="M122.66 196.33C121.92 196.14 116.19 194.5 109.01 187.51C101.13 179.85 94.6801 164.75 102.29 153.26C87.1801 167.29 89.3901 185.63 90.8901 191.78C91.7601 195.3 94.4301 206.75 106.98 215.1L111.02 217.42L107.06 224.96L136.87 218.76L126.31 189.18L122.65 196.34L122.66 196.33Z" fill="#1D1D1B" />
<path d="M144.45 151.98L148.47 159.03L148.5 159.12C147.74 159.82 143.3 163.79 133.99 166.19C123.49 168.94 107.58 166.48 102.16 153.74C105.68 174.34 122 182.19 127.83 184.15C131.21 185.3 142.04 189.08 155.67 182.72L159.61 180.47L163.6 187.85L174.48 158.69L144.45 151.97V151.98Z" fill="#1D1D1B" />
<path d="M131.9 116.44H132C132.18 117.37 133.07 123.37 129.99 132.82C126.54 143.39 115.96 155.79 102.57 153.57C121.39 161.69 136.61 151.85 141.4 147.87C144.18 145.54 153.12 138.22 155.2 122.99L155.57 118.34L163.7 118.83L145.59 93.73L123.92 116.08L131.9 116.43V116.44Z" fill="#1D1D1B" />
<path d="M51.8401 97.47C51.8401 104.49 57.3901 110.16 64.2101 110.16C71.0301 110.16 76.6101 104.49 76.6101 97.47C76.6101 90.45 71.0801 84.75 64.2101 84.75C57.3401 84.75 51.8401 90.44 51.8401 97.47Z" fill="#1D1D1B" />
<path d="M87.64 216.09C85.49 216.33 83.34 216.45 81.15 216.45C77.71 216.45 74.33 216.17 71.03 215.69L70.69 213.43L62.99 146.1C61.92 133.35 68.98 131.33 73.35 133.24L97.98 143.4C100.79 144.62 102.15 142.2 102.15 142.2C102.15 142.2 103.73 139.65 100.9 137.77C100.9 137.77 67.37 115 60.21 113.62C50.47 111.76 40.82 119.87 38.65 130.42L26.75 190.27C16.51 177.65 10.33 161.46 10.33 143.81C10.33 103.79 42.1 71.1701 81.14 71.1701C101.99 71.1701 120.76 80.4801 133.71 95.2301L140.98 87.6801C126.16 71.0401 104.79 60.5601 81.14 60.5601C36.41 60.5701 0 97.9301 0 143.82C0 189.71 36.41 227.08 81.15 227.08C83.55 227.08 85.91 226.9 88.24 226.72L88.77 235.06L103.6 220.32L87.03 207.32L87.63 216.1L87.64 216.09ZM35.49 199.25L45.01 171.95C46.08 169 47.68 169.17 47.68 169.17C47.68 169.17 49.09 168.84 49.87 171.88L61.46 213.54C51.79 210.69 42.98 205.78 35.49 199.26" fill="#1D1D1B" />
<path d="M808.02 254.44H226.29C207.62 254.44 192.42 239.08 192.42 220.21V75.4102C192.42 56.5302 207.61 41.1802 226.29 41.1802H808.02C826.69 41.1802 841.89 56.5402 841.89 75.4102V220.2C841.89 239.08 826.7 254.43 808.02 254.43V254.44ZM226.29 47.7202C211.19 47.7202 198.9 60.1402 198.9 75.4102V220.2C198.9 235.47 211.19 247.89 226.29 247.89H808.02C823.12 247.89 835.41 235.47 835.41 220.2V75.4102C835.41 60.1402 823.12 47.7202 808.02 47.7202H226.29Z" fill="#1D1D1B" />
<path d="M542.6 230.16H469C466.26 230.16 464.05 227.94 464.05 225.21L459.22 94.5899C459.22 91.8499 461.44 89.6399 464.17 89.6399H547.43C550.17 89.6399 552.38 91.8599 552.38 94.5899L547.55 225.21C547.55 227.95 545.33 230.16 542.6 230.16Z" fill="#FEEB17" />
<path d="M542.61 232.91H469.01C464.76 232.91 461.31 229.46 461.31 225.21L456.48 94.6899C456.48 90.3399 459.93 86.8899 464.18 86.8899H547.44C551.69 86.8899 555.14 90.3399 555.14 94.5899L550.3 225.31C550.3 229.45 546.85 232.91 542.6 232.91H542.61ZM464.17 92.3799C462.95 92.3799 461.96 93.3699 461.96 94.5899L466.79 225.11C466.79 226.43 467.78 227.42 469 227.42H542.6C543.82 227.42 544.81 226.43 544.81 225.21L549.65 94.4899C549.65 93.3699 548.66 92.3799 547.44 92.3799H464.18H464.17Z" fill="#1D1D1B" />
<path d="M501.56 156.31C501.56 154.2 503.1 152.45 505.11 152.12V150.16C497.41 149.94 491.23 143.63 491.23 135.87C491.23 133.25 491.93 130.8 493.16 128.69C493.17 128.66 493.19 128.64 493.2 128.61C493.26 128.52 493.31 128.42 493.37 128.33C495.42 125 498.78 122.57 502.74 121.78V120.83C492.67 122.2 484.91 130.83 484.91 141.28C484.91 142.42 485 143.54 485.18 144.63C484.31 144.97 483.45 145.36 482.6 145.83C473.45 150.87 469.63 161.83 473.28 171.31L474.11 170.85C472.1 164.48 474.78 157.37 480.85 154.03C482.97 152.86 485.27 152.29 487.53 152.26C487.53 152.26 487.53 152.28 487.53 152.29C487.65 152.29 487.76 152.29 487.88 152.29C492.71 152.29 496.98 154.69 499.57 158.35L501.63 157.16C501.57 156.88 501.54 156.6 501.54 156.3L501.56 156.31Z" fill="#1D1D1B" />
<path d="M505.81 160.57C504.25 160.57 502.88 159.73 502.14 158.47L500.32 159.52C501.51 161.6 502.19 164.02 502.19 166.59C502.19 174.48 495.79 180.88 487.9 180.88C487.17 180.88 486.46 180.83 485.76 180.72C482.35 180.23 479.15 178.52 476.85 175.79L476.02 176.25C482.08 184.41 493.38 187.04 502.53 182.01C503.72 181.36 504.81 180.6 505.81 179.77C506.57 180.4 507.39 180.99 508.26 181.53C517.16 186.99 528.58 184.89 535.01 177.02L534.2 176.53C529.66 181.43 522.16 182.62 516.25 178.99C514.11 177.68 512.43 175.89 511.28 173.84C511.3 173.84 511.31 173.83 511.33 173.82C510.5 172.37 509.92 170.75 509.64 169.03C509.64 169.03 509.62 169.03 509.61 169.04C509.27 166.89 509.41 164.66 510.08 162.53C510.09 162.49 510.1 162.45 510.12 162.41C510.14 162.35 510.16 162.3 510.18 162.24C510.49 161.31 510.89 160.42 511.38 159.58L509.48 158.48C508.74 159.73 507.38 160.57 505.82 160.57H505.81Z" fill="#1D1D1B" />
<path d="M529.83 146.32C528.58 145.56 527.28 144.94 525.96 144.47C526.12 143.44 526.2 142.38 526.2 141.3C526.2 130.85 518.44 122.22 508.37 120.85V121.8C514.92 123.11 519.85 128.89 519.85 135.82C519.85 138.33 519.2 140.7 518.06 142.75C515.78 146.92 511.48 149.82 506.48 150.15V152.13C508.51 152.45 510.06 154.21 510.06 156.33C510.06 156.63 510.03 156.92 509.97 157.2L512.11 158.44C514.7 154.82 518.94 152.45 523.74 152.45C531.63 152.45 538.03 158.85 538.03 166.74C538.03 168.04 537.85 169.31 537.53 170.51C537.53 170.54 537.52 170.56 537.51 170.59C537.47 170.74 537.43 170.88 537.38 171.03C537.31 171.27 537.23 171.5 537.14 171.74L537.95 172.23C542.04 162.93 538.74 151.8 529.84 146.34L529.83 146.32Z" fill="#1D1D1B" />
<path d="M524.01 156.29C524.01 155.45 523.95 154.62 523.84 153.81C523.81 153.81 523.77 153.81 523.74 153.81C522.01 153.81 520.36 154.15 518.85 154.77C518.91 155.27 518.94 155.77 518.94 156.29C518.94 156.54 518.94 156.79 518.92 157.04C518.68 161.39 516.35 165.19 512.91 167.46C512.29 167.87 511.63 168.23 510.95 168.53C511.19 170.26 511.78 171.88 512.64 173.33C519.31 170.55 524.01 163.96 524.01 156.3V156.29Z" fill="#1D1D1B" />
<path d="M505.56 142.92C507.87 142.92 510.04 143.51 511.94 144.54C512.6 144.9 513.22 145.31 513.81 145.77C515.11 144.68 516.2 143.34 516.99 141.82C513.85 139.33 509.88 137.84 505.56 137.84C501.24 137.84 497.23 139.35 494.08 141.86C494.88 143.38 495.97 144.72 497.27 145.8C497.93 145.28 498.63 144.82 499.37 144.43C501.22 143.46 503.33 142.91 505.56 142.91V142.92Z" fill="#1D1D1B" />
<path d="M498.83 173.46C499.73 172.04 500.35 170.44 500.64 168.72C499.99 168.46 499.37 168.15 498.77 167.8C495.04 165.59 492.47 161.62 492.21 157.04C492.2 156.79 492.19 156.54 492.19 156.29C492.19 155.67 492.23 155.05 492.32 154.45C490.94 153.95 489.45 153.67 487.9 153.67C487.7 153.67 487.5 153.67 487.3 153.68C487.18 154.53 487.12 155.4 487.12 156.28C487.12 164.08 491.98 170.76 498.83 173.45V173.46Z" fill="#1D1D1B" />
<path d="M552.91 94.89H458.71C456.48 94.89 454.76 92.56 455.08 89.96L457.64 69.14C457.9 67.02 459.45 65.45 461.27 65.45H550.34C552.16 65.45 553.71 67.02 553.97 69.14L556.53 89.96C556.85 92.56 555.13 94.89 552.9 94.89H552.91Z" fill="#3AAA35" />
<path d="M552.91 97.64H458.71C456.96 97.64 455.33 96.88 454.11 95.51C452.73 93.95 452.09 91.8 452.35 89.63L454.91 68.81C455.34 65.33 458.07 62.71 461.26 62.71H550.33C553.52 62.71 556.26 65.33 556.68 68.81L559.24 89.63C559.51 91.8 558.87 93.95 557.48 95.51C556.27 96.88 554.63 97.64 552.88 97.64H552.91ZM461.27 68.19C460.92 68.19 460.46 68.72 460.37 69.47L457.81 90.29C457.72 91 457.97 91.57 458.23 91.86C458.34 91.99 458.52 92.13 458.71 92.13H552.91C553.11 92.13 553.28 91.98 553.39 91.86C553.65 91.57 553.9 91 553.81 90.29L551.25 69.47C551.16 68.71 550.7 68.19 550.35 68.19H461.28H461.27Z" fill="#1D1D1B" />
<path d="M635.75 146.38L602.67 117.94V131.74H570.3V163.87H602.67V177.67L635.75 146.38Z" fill="#1D1D1B" />
<path d="M450.16 146.38L417.09 117.94V131.74H384.72V163.87H417.09V177.67L450.16 146.38Z" fill="#1D1D1B" />
<path d="M225.84 235.05H393.76C400.67 235.05 405.07 227.68 401.8 221.6L317.84 65.38C314.39 58.97 305.2 58.97 301.76 65.38L217.8 221.6C214.53 227.68 218.94 235.05 225.84 235.05Z" fill="#E5231B" />
<path d="M235.53 220.71H384.71L309.64 80.29L235.53 220.71Z" fill="white" />
<path d="M290.69 214.53C290.08 214.77 289.39 214.78 288.74 214.5L256.35 200.57C255.06 200.01 254.46 198.52 255.02 197.22C255.58 195.93 257.07 195.33 258.37 195.89L290.76 209.82C292.05 210.38 292.65 211.87 292.09 213.17C291.81 213.82 291.3 214.29 290.69 214.53Z" fill="#1D1D1B" />
<path d="M298.48 196.43C297.87 196.67 297.18 196.68 296.53 196.4L264.14 182.47C262.85 181.91 262.25 180.42 262.81 179.12C263.37 177.83 264.86 177.23 266.16 177.79L298.55 191.72C299.84 192.28 300.44 193.77 299.88 195.07C299.6 195.72 299.09 196.19 298.48 196.43Z" fill="#1D1D1B" />
<path d="M277.444 185.446L269.665 203.545L277.464 206.898L285.244 188.799L277.444 185.446Z" fill="#1D1D1B" />
<path d="M293.99 194.07L268.25 183L293.46 124.37C294.65 121.59 296.86 119.44 299.67 118.32C302.48 117.2 305.56 117.24 308.34 118.44L313.27 120.56C319.01 123.03 321.67 129.7 319.2 135.44L293.99 194.07ZM272.71 181.22L292.21 189.61L316.08 134.1C317.81 130.08 315.94 125.41 311.93 123.68L307 121.56C305.05 120.72 302.9 120.69 300.93 121.48C298.96 122.26 297.42 123.77 296.58 125.71L272.71 181.22Z" fill="#1D1D1B" />
<path d="M310.304 108.153L305.439 119.471L315.682 123.874L320.548 112.556L310.304 108.153Z" fill="#1D1D1B" />
<path d="M312.64 111.05L328.72 73.6499L330.72 78.6799L316.1 112.7L312.64 111.05Z" fill="#1D1D1B" />
<path d="M287.28 175.02C286.88 175.18 286.41 175.19 285.98 175L275.48 170.49C274.62 170.12 274.22 169.12 274.59 168.26C274.96 167.4 275.96 167 276.82 167.37L287.32 171.88C288.18 172.25 288.58 173.25 288.21 174.11C288.02 174.54 287.68 174.86 287.28 175.02Z" fill="#1D1D1B" />
<path d="M294.05 159.28C293.65 159.44 293.18 159.45 292.75 159.26L282.25 154.74C281.39 154.37 280.99 153.37 281.36 152.51C281.73 151.65 282.73 151.25 283.59 151.62L294.09 156.14C294.95 156.51 295.35 157.51 294.98 158.37C294.79 158.8 294.45 159.12 294.05 159.28Z" fill="#1D1D1B" />
<path d="M301.3 142.45C300.9 142.61 300.43 142.62 300 142.43L289.5 137.92C288.64 137.55 288.24 136.55 288.61 135.69C288.98 134.83 289.98 134.43 290.84 134.8L301.34 139.31C302.2 139.68 302.6 140.68 302.23 141.54C302.04 141.97 301.7 142.29 301.3 142.45Z" fill="#1D1D1B" />
<path d="M326.57 213V197.87C326.57 197.54 326.84 197.27 327.17 197.27H340.17C340.52 197.27 340.8 197.55 340.8 197.9V213H326.57Z" fill="#1D1D1B" />
<path d="M331.24 199.67V137.27L336.13 142.16V199.67H331.24Z" fill="#1D1D1B" />
<path d="M219.75 28.9202H170.82V59.9002H219.75V28.9202Z" fill="white" />
<path d="M224.69 27.9701C224.49 23.3201 224.1 19.8001 222.17 17.8501C220.23 15.9001 216.75 15.5101 212.1 15.3001C207.46 15.0901 201.65 15.0701 195.84 15.0701C190.03 15.0701 184.23 15.0901 179.58 15.3001C174.94 15.5101 171.45 15.9001 169.52 17.8501C167.59 19.8001 167.2 23.3301 166.99 27.9701C166.78 32.6101 166.76 38.3801 166.76 44.1601C166.76 49.9401 166.78 55.7501 166.99 60.4001C167.19 65.0501 167.58 68.5201 169.52 70.4601C171.45 72.3901 174.94 72.7701 179.58 72.9801C184.23 73.1901 190.03 73.2201 195.84 73.2201C201.65 73.2201 207.46 73.2001 212.1 72.9801C216.74 72.7701 220.23 72.3801 222.17 70.4601C224.1 68.5201 224.49 65.0401 224.69 60.4001C224.9 55.7501 224.93 49.9501 224.93 44.1601C224.93 38.3701 224.91 32.6101 224.69 27.9701Z" fill="#1D1D1B" />
<path d="M174.81 32.5601H193.03V38.09H181.12V41.96H191.89V47.2001H181.12V55.3301H174.81V32.55V32.5601Z" fill="white" />
<path d="M195.93 32.5601H206.7C210.18 32.5601 212.59 33.4701 214.12 35.0001C215.45 36.3301 216.14 38.0601 216.14 40.3001V40.3701C216.14 43.8801 214.29 46.1901 211.45 47.4001L216.88 55.3401H209.62L205.03 48.4401H202.23V55.3401H195.92V32.5601H195.93ZM206.44 43.4901C208.56 43.4901 209.82 42.4501 209.82 40.7901V40.7201C209.82 38.9001 208.49 37.9901 206.4 37.9901H202.23V43.4901H206.43H206.44Z" fill="white" />
<path d="M817.62 98.2701H779.91V60.5701H680.84V98.2701H643.14V197.34H680.84V235.05H779.91V197.34H817.62V98.2701Z" fill="#3AAA35" />
<path d="M767.6 225.2H693.15C691.79 225.2 690.69 224.1 690.69 222.74V187.5H655.45C654.09 187.5 652.99 186.4 652.99 185.04V110.59C652.99 109.23 654.09 108.13 655.45 108.13H690.69V72.8902C690.69 71.5302 691.79 70.4302 693.15 70.4302H767.6C768.96 70.4302 770.06 71.5302 770.06 72.8902V108.13H805.3C806.66 108.13 807.76 109.23 807.76 110.59V185.04C807.76 186.4 806.66 187.5 805.3 187.5H770.06V222.74C770.06 224.1 768.96 225.2 767.6 225.2ZM695.61 220.28H765.14V185.04C765.14 183.68 766.24 182.58 767.6 182.58H802.84V113.05H767.6C766.24 113.05 765.14 111.95 765.14 110.59V75.3502H695.61V110.59C695.61 111.95 694.51 113.05 693.15 113.05H657.91V182.58H693.15C694.51 182.58 695.61 183.68 695.61 185.04V220.28Z" fill="white" />
<path d="M680.75 98.1401C714.01 98.1401 746.74 98.1401 780.01 98.1401C780.01 131.39 780.01 164.17 780.01 197.45C746.75 197.45 714.02 197.47 680.75 197.47M704.45 161.57V165.51H708.42V161.57H720.44V157.55H724.44V149.58L724.41 149.61C725.76 149.59 727.1 149.57 728.44 149.55V153.58H732.2C732.2 154.92 732.2 156.26 732.2 157.6H728.46V165.61H732.2V169.58C728.27 169.58 724.33 169.58 720.4 169.58V165.64H712.51V173.5H716.45V169.55H720.43V177.59H712.51V197.45H716.45V193.56H720.42V197.43H724.35V189.51H716.48V181.52H728.4V185.57H732.12V189.54H728.46V197.45H732.2V193.49C733.6 193.49 734.89 193.49 736.18 193.49V197.43H740.09V193.52H736.15V189.53H744.16L744.13 189.5V193.42H764.05V189.48H760.17V185.5H768.15V181.58H772.13V185.54H776.03V193.55H768.16V197.44H780.01V177.5H764.19V173.52H768.04V169.5H764.17V165.63H772.12V173.48H780V169.52H776.15V165.51H780.02V161.54H776.13V157.56H780V153.55H776.15V149.54H780.02V145.77H776.13V141.8H780V137.79H776.06V129.91H772.05V137.84H768.06V141.83L768.09 141.8C766.75 141.8 765.42 141.82 764.08 141.82V137.79H760.12V129.91H756.16V137.76C757.52 137.76 758.84 137.76 760.15 137.76V141.79H764.11V145.73H756.06V141.82C753.34 141.82 750.72 141.82 748.11 141.82C748.11 139.15 748.11 136.48 748.11 133.81H752.05V129.84H748.11V121.85H744.12C744.12 120.51 744.12 119.17 744.12 117.83H748.06V113.86H744.12C744.12 112.52 744.12 111.18 744.12 109.84H748.06V105.88H744.12C744.12 104.54 744.12 103.19 744.11 101.85H748.07V98.1501H744.14V101.88H736.1V98.1401H732.13V101.93H724.34V105.8H720.34V98.1401H716.37V101.93H712.46V105.9H716.32V109.9H712.48V113.84C715.17 113.84 717.79 113.84 720.41 113.84V125.76H724.38V113.84C725.72 113.84 727.06 113.84 728.4 113.84V117.84H736.19V129.76H732.16V121.91H728.46V133.88H736.21V141.84H740.18C740.18 143.24 740.18 144.53 740.18 145.82H732.2C732.2 147.16 732.2 148.39 732.2 149.61C730.94 149.6 729.67 149.58 728.41 149.57V141.77H732.12V137.89H724.37V141.74H720.48V133.79H724.34V129.89H704.45C704.45 131.25 704.45 132.54 704.45 133.83C703.11 133.83 701.77 133.83 700.42 133.83V129.9H680.73V141.74H688.48V137.8L688.45 137.83H696.48V133.8C697.87 133.8 699.16 133.8 700.45 133.8V137.8H704.45C704.45 139.14 704.45 140.48 704.45 141.82H700.41V145.84H696.46V149.61H692.41V145.86H680.75V165.49H684.51V153.65H688.51V161.52H692.48V153.57C693.88 153.57 695.17 153.57 696.46 153.57V157.56C697.87 157.56 699.16 157.56 700.45 157.56C700.45 158.9 700.46 160.25 700.47 161.59H696.51V165.49H700.44V161.56C701.77 161.56 703.11 161.56 704.44 161.55L704.45 161.57ZM780.02 125.81V98.1501H752.2V125.81H780.02ZM680.76 169.62V197.48H708.37V169.62H680.76ZM680.75 98.1401V125.77H708.37V98.1401H680.75ZM716.34 125.81V117.95H712.47V125.81H716.34ZM768.03 133.82V129.92H764.2V133.82H768.03Z" fill="white" />
<path d="M736.19 193.52H732.21V197.48H728.47V189.57H732.13V185.6H728.41C728.41 184.18 728.41 182.86 728.41 181.55L728.38 181.58H736.19V185.5H740.1V177.55H736.24V173.54H744.11V169.57H740.18V165.58L740.15 165.61H744.1V157.6H740.17V153.61L740.14 153.64H744.16V149.69H748.17V153.65H752.07V157.66H748.2V161.54H756.18V157.68H760.16V161.56H772.04V157.58H764.17V153.6H768.02V149.69H760.08V153.57H756.11V149.59H752.1V145.82H748.15V141.83L748.12 141.86H756.07V145.77H764.12V141.83L764.09 141.86C765.43 141.86 766.76 141.84 768.1 141.84C768.1 143.15 768.1 144.46 768.1 145.77H772.01V141.87H768.07V137.88H772.06V129.95H776.07V137.83H780.01V141.84H776.14V145.81H780.03V149.58H776.16V153.59H780.01V157.6H776.14V161.58H780.03V165.55H776.16V169.56H780.01V173.52H772.13V165.67H764.18V169.54H768.05V173.56H764.2V177.54H780.02V197.48H768.17V193.59H776.04V185.58H772.14V181.62H768.16V185.54H760.18V189.52H764.06V193.46H744.14C744.14 192.17 744.14 190.86 744.14 189.54C748.11 189.54 752.08 189.54 756.07 189.54V185.63H744.17V189.57H736.16V193.56L736.19 193.53V193.52ZM760.06 177.52V165.67H748.21V177.52H760.06Z" fill="#3AAA35" />
<path d="M728.44 149.56C727.09 149.58 725.75 149.6 724.4 149.62C724.4 148.37 724.4 147.13 724.4 145.89H720.49V149.59H724.44V157.56H720.44V161.58H708.42L708.45 161.61V157.59H704.43L704.46 157.62V153.58H708.45V149.61L708.42 149.64C709.75 149.64 711.08 149.64 712.41 149.65V153.54H716.37V149.68C715.01 149.68 713.69 149.68 712.38 149.68C712.38 148.41 712.38 147.14 712.38 145.82H708.42L708.45 145.85V141.83H704.43L704.46 141.86C704.46 140.52 704.46 139.18 704.46 137.84L704.43 137.87H708.37V133.85H704.43L704.46 133.88V129.94H724.35V133.84H720.49V141.79H724.38V137.94H732.13V141.82H728.42C728.42 144.47 728.42 147.04 728.42 149.62L728.45 149.59L728.44 149.56Z" fill="#3AAA35" />
<path d="M780.02 125.81H752.2V98.1501H780.02V125.81ZM756.21 101.94V121.78H776.04V101.94H756.21Z" fill="#3AAA35" />
<path d="M680.76 169.62H708.37V197.48H680.76V169.62ZM684.54 173.61V193.45H704.38V173.61H684.54Z" fill="#3AAA35" />
<path d="M680.75 98.1401H708.37V125.77H680.75V98.1401ZM704.39 101.96H684.55V121.81H704.39V101.96Z" fill="#3AAA35" />
<path d="M720.39 169.59C724.32 169.59 728.26 169.59 732.19 169.59L732.16 169.56V173.61H728.37V181.57L728.4 181.54H716.48V189.53H724.35V197.45H720.42V193.58H716.45V197.47H712.51V177.61H720.43V169.57L720.4 169.6L720.39 169.59Z" fill="#3AAA35" />
<path d="M720.42 113.86H712.49V109.92H716.33V105.92H712.47V101.95H716.38V98.1602H720.35V105.82H724.35V101.95H732.14V98.1602H736.11V101.9H744.15L744.12 101.87C744.12 103.21 744.12 104.56 744.13 105.9L744.16 105.87H740.14V109.89L740.17 109.86C738.83 109.86 737.49 109.86 736.15 109.86L736.18 109.89V105.95H728.37V113.88L728.4 113.85C727.06 113.85 725.72 113.85 724.38 113.85L724.41 113.88V109.94H720.39V113.88L720.42 113.85V113.86Z" fill="#3AAA35" />
<path d="M748.14 133.82C748.14 136.49 748.14 139.16 748.14 141.83L748.17 141.8H744.13V145.79H740.16L740.19 145.82V141.84H736.22V133.88H728.47V121.91H732.17V129.76H736.2V117.84L736.17 117.87C738.84 117.87 741.51 117.87 744.18 117.87L744.15 117.84C744.15 119.18 744.15 120.52 744.15 121.86L744.18 121.83H740.25V137.76H744.19V133.84H748.17L748.14 133.81V133.82Z" fill="#3AAA35" />
<path d="M696.46 153.59H692.48V161.54H688.51V153.67H684.51V165.51H680.75V145.88H692.41V149.63H696.46L696.43 149.6C696.43 150.94 696.43 152.28 696.43 153.62L696.46 153.59Z" fill="#3AAA35" />
<path d="M688.48 137.82V141.76H680.73V129.92H700.42V133.85L700.45 133.82H696.48V137.85C693.73 137.85 691.09 137.85 688.45 137.85C688.45 136.54 688.45 135.23 688.45 133.91H684.54V137.82H688.48Z" fill="#3AAA35" />
<path d="M732.2 169.59V165.62H728.46V157.61H732.2L732.17 157.58V161.62H740.16V165.59L740.19 165.56H736.15V169.55H732.18L732.21 169.58L732.2 169.59Z" fill="#3AAA35" />
<path d="M696.46 149.63V145.86H700.41V141.84C701.82 141.84 703.13 141.84 704.45 141.84L704.42 141.81V145.83H708.44L708.41 145.8C708.41 147.07 708.41 148.35 708.41 149.62L708.44 149.59C704.44 149.59 700.44 149.59 696.43 149.59L696.46 149.62V149.63Z" fill="#3AAA35" />
<path d="M720.42 169.56H716.44V173.51H712.5V165.65H720.39C720.39 166.96 720.39 168.27 720.39 169.59L720.42 169.56Z" fill="#3AAA35" />
<path d="M724.38 113.86V125.78H720.41C720.41 121.81 720.41 117.83 720.41 113.86L720.38 113.89C721.72 113.89 723.06 113.89 724.4 113.89L724.37 113.86H724.38Z" fill="#3AAA35" />
<path d="M736.19 117.85H728.4C728.4 116.49 728.4 115.17 728.4 113.85L728.37 113.88H732.21V109.89H736.18L736.15 109.86V117.87L736.18 117.84L736.19 117.85Z" fill="#3AAA35" />
<path d="M732.2 149.62V145.83H740.18L740.15 145.8C740.15 148.4 740.15 151.01 740.15 153.61L740.18 153.58C738.84 153.58 737.5 153.58 736.16 153.58L736.19 153.61V149.59H732.17L732.2 149.62Z" fill="#3AAA35" />
<path d="M744.14 121.87H748.13V129.86L748.16 129.83H744.17V121.84L744.14 121.87Z" fill="#3AAA35" />
<path d="M760.18 137.77H756.19V129.92H760.15C760.15 132.53 760.15 135.16 760.15 137.8L760.18 137.77Z" fill="#3AAA35" />
<path d="M716.34 125.81H712.47V117.95H716.34V125.81Z" fill="#3AAA35" />
<path d="M744.14 105.9H748.08V109.86H744.14L744.17 109.89C744.17 108.55 744.17 107.21 744.17 105.87L744.14 105.9Z" fill="#3AAA35" />
<path d="M700.46 157.58H696.47C696.47 156.22 696.47 154.9 696.47 153.59L696.44 153.62H700.43V157.61L700.46 157.58Z" fill="#3AAA35" />
<path d="M732.2 157.61C732.2 156.27 732.2 154.93 732.2 153.59L732.17 153.62C733.51 153.62 734.85 153.62 736.19 153.62L736.16 153.59V157.58H732.17L732.2 157.61Z" fill="#3AAA35" />
<path d="M744.15 109.86C744.15 111.2 744.15 112.54 744.15 113.88L744.18 113.85H740.19V109.86L740.16 109.89C741.5 109.89 742.84 109.89 744.18 109.89L744.15 109.86Z" fill="#3AAA35" />
<path d="M700.47 161.61C700.47 160.27 700.46 158.92 700.45 157.58L700.42 157.61H704.44L704.41 157.58C704.41 158.92 704.41 160.26 704.41 161.6L704.44 161.57C703.11 161.57 701.77 161.57 700.44 161.58L700.47 161.61Z" fill="#3AAA35" />
<path d="M744.14 113.89H748.08V117.86C746.77 117.86 745.46 117.86 744.14 117.86L744.17 117.89C744.17 116.55 744.17 115.21 744.17 113.87L744.14 113.9V113.89Z" fill="#3AAA35" />
<path d="M748.14 129.86H752.08V133.83C750.77 133.83 749.46 133.83 748.14 133.83L748.17 133.86C748.17 132.52 748.17 131.18 748.17 129.84L748.14 129.87V129.86Z" fill="#3AAA35" />
<path d="M700.44 161.59V165.52H696.51V161.62C697.85 161.62 699.16 161.62 700.47 161.62L700.44 161.59Z" fill="#3AAA35" />
<path d="M708.41 161.57V165.51H704.44C704.44 164.2 704.44 162.89 704.44 161.57L704.41 161.6C705.75 161.6 707.09 161.6 708.43 161.6L708.4 161.57H708.41Z" fill="#3AAA35" />
<path d="M700.42 133.85C701.76 133.85 703.1 133.85 704.45 133.85L704.42 133.82C704.42 135.16 704.42 136.5 704.42 137.84L704.45 137.81C703.16 137.81 701.87 137.81 700.45 137.81C700.45 136.45 700.45 135.13 700.45 133.81L700.42 133.84V133.85Z" fill="#3AAA35" />
<path d="M768.03 133.82H764.2V129.92H768.03V133.82Z" fill="#3AAA35" />
<path d="M764.14 141.81H760.18C760.18 140.45 760.18 139.11 760.18 137.77L760.15 137.8C761.44 137.8 762.72 137.8 764.11 137.8C764.11 139.21 764.11 140.52 764.11 141.83L764.14 141.8V141.81Z" fill="#3AAA35" />
<path d="M736.16 193.55H740.1V197.46H736.19C736.19 196.14 736.19 194.83 736.19 193.52L736.16 193.55Z" fill="#3AAA35" />
<path d="M732.2 153.59H728.44C728.44 152.23 728.44 150.89 728.44 149.56L728.41 149.59C729.67 149.6 730.94 149.61 732.2 149.63L732.17 149.6C732.17 150.94 732.17 152.28 732.17 153.62L732.2 153.59Z" fill="#3AAA35" />
<path d="M744.16 101.9V98.1702H748.09V101.87C746.76 101.87 745.45 101.87 744.13 101.87L744.16 101.9Z" fill="#3AAA35" />
<path d="M740.15 153.62C740.15 151.02 740.15 148.41 740.15 145.81H744.12V141.82H748.16V145.81H752.11V149.58H756.12V153.56H760.09V149.68H768.03V153.59H764.18V157.57H772.05V161.55H760.17V157.67H756.19V161.53H748.21V157.65H752.08V153.64H748.18V149.68H744.17V153.63H740.15V153.62Z" fill="white" />
<path d="M732.17 169.56H736.14V165.57H740.18C740.18 166.86 740.18 168.15 740.18 169.56H744.11V173.53H736.24V177.54H740.1V185.49H736.19V181.57H728.38V173.61H732.17V169.56Z" fill="white" />
<path d="M760.06 177.52H748.21V165.67H760.06V177.52ZM756.09 169.63H752.2V173.5H756.09V169.63Z" fill="white" />
<path d="M732.17 157.58H736.16V153.59C737.5 153.59 738.84 153.59 740.18 153.59V157.58H744.11V165.59H740.16V161.62H732.17V157.58Z" fill="white" />
<path d="M744.17 189.56V185.62H756.07V189.53C752.08 189.53 748.11 189.53 744.14 189.53L744.17 189.56Z" fill="white" />
<path d="M768.09 141.84H772.03V145.74H768.12C768.12 144.43 768.12 143.12 768.12 141.81L768.09 141.84Z" fill="white" />
<path d="M704.45 157.61H700.43V153.62H696.44C696.44 152.28 696.44 150.94 696.44 149.6C700.44 149.6 704.44 149.6 708.45 149.6V153.57H704.46V157.61H704.45Z" fill="white" />
<path d="M712.37 149.67H716.36V153.53H712.4C712.4 152.26 712.4 150.95 712.4 149.64L712.37 149.67Z" fill="white" />
<path d="M704.42 137.84C704.42 136.5 704.42 135.16 704.42 133.82H708.36V137.84H704.42Z" fill="white" />
<path d="M708.44 161.6C707.1 161.6 705.76 161.6 704.42 161.6C704.42 160.26 704.42 158.92 704.42 157.58H708.44V161.6Z" fill="white" />
<path d="M708.44 145.83H704.42V141.81H708.44V145.83Z" fill="white" />
<path d="M708.41 149.62C708.41 148.35 708.41 147.07 708.41 145.8H712.37C712.37 147.12 712.37 148.39 712.37 149.66L712.4 149.63C711.07 149.63 709.74 149.63 708.41 149.62Z" fill="white" />
<path d="M724.43 149.59H720.48V145.89H724.39C724.39 147.13 724.39 148.37 724.39 149.62L724.42 149.59H724.43Z" fill="white" />
<path d="M756.21 101.94H776.04V121.78H756.21V101.94ZM772.04 117.82V105.96H760.18V117.82H772.04Z" fill="white" />
<path d="M684.54 173.61H704.38V193.45H684.54V173.61ZM700.4 177.64H688.51V189.48H700.4V177.64Z" fill="white" />
<path d="M704.39 101.96V121.81H684.55V101.96H704.39ZM700.4 105.96H688.55V117.81H700.4V105.96Z" fill="white" />
<path d="M744.17 113.86C744.17 115.2 744.17 116.54 744.17 117.88C741.5 117.88 738.83 117.88 736.16 117.88V109.87C737.5 109.87 738.84 109.87 740.18 109.87V113.86H744.17Z" fill="white" />
<path d="M736.19 109.89H732.22V113.88H728.38C728.38 111.26 728.38 108.64 728.38 105.95H736.19V109.89Z" fill="white" />
<path d="M724.41 113.89C723.07 113.89 721.73 113.89 720.39 113.89C720.39 112.6 720.39 111.31 720.39 109.95H724.41V113.89Z" fill="white" />
<path d="M744.17 109.89C742.83 109.89 741.49 109.89 740.15 109.89V105.87H744.17C744.17 107.21 744.17 108.55 744.17 109.89Z" fill="white" />
<path d="M748.17 129.83C748.17 131.17 748.17 132.51 748.17 133.85H744.19V137.77H740.25V121.84H744.18V129.83H748.17Z" fill="white" />
<path d="M688.48 137.82H684.54V133.91H688.45C688.45 135.23 688.45 136.54 688.45 137.85L688.48 137.82Z" fill="white" />
<path d="M732.17 153.62C732.17 152.28 732.17 150.94 732.17 149.6H736.19V153.62C734.85 153.62 733.51 153.62 732.17 153.62Z" fill="white" />
<path d="M756.09 169.63V173.5H752.2V169.63H756.09Z" fill="#3AAA35" />
<path d="M772.04 117.82H760.18V105.96H772.04V117.82Z" fill="#3AAA35" />
<path d="M700.4 177.64V189.48H688.51V177.64H700.4Z" fill="#3AAA35" />
<path d="M700.4 105.96V117.81H688.55V105.96H700.4Z" fill="#3AAA35" />
</g>
</g>
<defs>
<clipPath id="clip0_174_141">
<rect width="842" height="312" fill="white" />
</clipPath>
<clipPath id="clip1_174_141">
<rect width="841.89" height="311.81" fill="white" />
</clipPath>
</defs>
</svg>