<svg width="358" height="87" viewBox="0 0 358 87" fill="none" xmlns="http://www.w3.org/2000/svg">
<path d="M96.4743 44.651H95.4255C95.3628 44.0075 95.1566 43.3732 94.8159 42.7569H96.4743V44.651ZM93.4085 48.0947L65.0902 41.9141L65.4846 40.0654L93.803 46.246L93.4085 48.0947ZM67.5016 44.651V44.3519L68.8552 44.651H67.5016ZM68.0932 32.7791C68.7566 33.6219 69.8592 34.356 71.1142 34.7547C72.5395 35.2079 75.3992 35.6157 79.0746 33.5313L80.8585 35.0175L79.9172 36.1866C79.7648 36.386 79.7917 36.685 79.9889 36.8482C80.0786 36.9207 80.1772 36.9479 80.2758 36.9479C80.4102 36.9479 80.5447 36.8844 80.6433 36.7757L81.5666 35.6066L82.3914 36.2954L81.468 37.4554C81.3067 37.6547 81.3336 37.9538 81.5397 38.1169C81.6204 38.1894 81.719 38.2166 81.8266 38.2166C81.9611 38.2166 82.0955 38.1532 82.1852 38.0444L83.1085 36.8844L83.3864 37.12C83.5926 37.2832 83.7988 37.4463 84.0049 37.6094L83.1264 38.706C82.9651 38.9054 83.0009 39.2044 83.1982 39.3675C83.2878 39.431 83.3864 39.4672 83.494 39.4672C83.6195 39.4672 83.7539 39.4038 83.8436 39.295L84.7579 38.1532C85.9592 38.9869 87.2321 39.6575 88.5588 40.156C91.3736 41.2072 92.9872 42.8475 93.4534 44.2613L65.9059 38.2529C66.3183 36.4404 67.3761 34.0297 68.0932 32.7791ZM76.2956 30.1147C75.7757 29.6435 75.5426 29 75.7398 28.5832C75.8115 28.4291 75.955 28.3294 76.1432 28.2841C76.2149 28.266 76.2777 28.266 76.3494 28.266C76.6811 28.266 77.0665 28.411 77.3893 28.6829C77.6761 28.9185 77.9182 29.2266 78.1333 29.6163C78.3843 30.0875 78.5815 30.5769 78.7339 31.1207C78.1781 31.03 77.6851 30.885 77.2279 30.6857C76.8424 30.5225 76.5466 30.3413 76.2956 30.1147ZM80.1682 29.4804C80.3116 29.0907 80.473 28.7735 80.6792 28.5107C81.0288 28.0666 81.4949 27.8038 81.8804 27.8038C81.979 27.8038 82.0776 27.8129 82.1583 27.8582C82.3196 27.9125 82.4272 28.0485 82.481 28.2388C82.5796 28.6104 82.4631 29.0997 82.1673 29.5166C81.9431 29.8247 81.6652 30.0875 81.2887 30.3232C80.8405 30.6222 80.3654 30.8488 79.8365 31.03C79.8903 30.4682 80.0068 29.9607 80.1682 29.4804ZM95.8289 40.89H93.3368C92.288 39.9022 90.8806 39.0322 89.1953 38.4069C88.1106 37.9991 87.0528 37.4554 86.0488 36.7847C87.4114 37.3466 88.7919 37.7363 90.1903 37.9357C93.1575 38.3616 95.0759 39.6122 95.8289 40.89ZM98.0162 41.7329C97.7742 39.005 94.7353 36.7122 90.4503 36.0869C88.7202 35.8422 86.999 35.2804 85.3496 34.4104L80.3744 31.8185C80.8853 31.6282 81.3515 31.3925 81.7907 31.1116C82.2569 30.8035 82.6244 30.4682 82.9113 30.0694C83.3864 29.4079 83.5478 28.6285 83.3685 27.976C83.234 27.5138 82.9292 27.1604 82.5079 26.9882C81.6921 26.6529 80.6433 27.0425 79.962 27.9307C79.6841 28.275 79.4779 28.6829 79.3076 29.1722C79.2538 29.3172 79.209 29.4622 79.1642 29.6163C79.0925 29.4622 79.0208 29.3082 78.9311 29.1632C78.6622 28.6647 78.3484 28.275 77.9719 27.9579C77.3534 27.4504 76.6004 27.2238 75.946 27.3779C75.4799 27.4775 75.1034 27.7675 74.9151 28.1754C74.5296 28.9729 74.8434 30.0604 75.6771 30.8035C76.0087 31.1025 76.3942 31.3472 76.8604 31.5466C77.2548 31.7188 77.6672 31.8457 78.0974 31.9454C75.2288 33.5585 73.0326 33.4135 71.67 32.9785C70.3164 32.5525 69.5455 31.746 69.3572 31.311C69.16 30.8669 68.7656 30.5679 68.2904 30.4954C67.8153 30.441 67.3492 30.6222 67.0534 31.0029C66.13 32.181 64.1041 36.4585 63.8979 39.1319C63.7993 39.295 63.7276 39.4763 63.6828 39.6757L63.2883 41.5244C63.0732 42.5304 63.7007 43.5272 64.6957 43.7447L65.6639 43.9532V44.651C65.6639 45.675 66.4886 46.5179 67.5016 46.5179H77.4072L93.0141 49.9163C94.0091 50.1338 94.9952 49.4904 95.2104 48.4844L95.6048 46.6357C95.6138 46.5994 95.6138 46.5541 95.6138 46.5179H96.4743C97.4963 46.5179 98.321 45.675 98.321 44.651V42.7569C98.321 42.3763 98.2045 42.0319 98.0162 41.7329Z" fill="black"/>
<path d="M30.6491 40.0292C28.3721 43.4186 30.3084 47.8864 32.666 50.1429C34.8085 52.2092 36.5297 52.6895 36.7538 52.7439L37.8474 50.6232L41.0208 59.3686L32.0834 61.1992L33.2667 58.9789L32.0565 58.2901C28.3004 55.8161 27.5026 52.4448 27.2426 51.3936C26.7944 49.5811 26.1221 44.1707 30.6491 40.0292Z" fill="black"/>
<path d="M30.6131 40.1741C32.2356 43.926 37.0047 44.66 40.1512 43.8535C42.948 43.1285 44.2748 41.9685 44.4989 41.76L44.4899 41.7328L43.2887 39.6394L52.2799 41.6332L49.0259 50.2425L47.8246 48.0675L46.6413 48.711C42.5626 50.6141 39.3264 49.4903 38.3045 49.155C36.5475 48.575 31.6619 46.255 30.6131 40.1741Z" fill="black"/>
<path d="M46.507 31.0934C45.8795 35.5884 43.1992 37.7453 42.3655 38.4249C40.9312 39.6031 36.3683 42.5121 30.7387 40.1196C34.7458 40.7721 37.9192 37.1109 38.9501 33.9934C39.8734 31.2021 39.6045 29.4259 39.5507 29.154H39.5238L37.1303 29.0453L43.6205 22.4478L49.0529 29.8609L46.6056 29.7159" fill="black"/>
<path fill-rule="evenodd" clip-rule="evenodd" d="M19.2375 27.2962C17.1846 27.2962 15.5262 25.6197 15.5262 23.5534C15.5262 21.4781 17.1846 19.7925 19.2375 19.7925C21.2903 19.7925 22.9487 21.4781 22.9487 23.5534C22.9487 25.6197 21.2903 27.2962 19.2375 27.2962Z" fill="black"/>
<path d="M13.4913 45.5482C13.8051 44.6692 14.2802 44.7236 14.2802 44.7236C14.2802 44.7236 14.7015 44.6329 14.9436 45.512L18.4128 57.8279C15.5173 56.9851 12.8818 55.5261 10.6407 53.6139L13.4913 45.5482ZM24.3113 12.6514C10.9096 12.6514 0 23.6804 0 37.2379C0 50.7864 10.9096 61.8154 24.3113 61.8154C25.0284 61.8154 25.7366 61.7701 26.4358 61.7067L26.5972 64.1717L31.0435 59.8217L26.0683 55.9882L26.2566 58.5801C25.6111 58.6436 24.9747 58.6798 24.3113 58.6798C23.2894 58.6798 22.2674 58.6073 21.2814 58.4532L21.1827 57.8007L18.8699 37.8995C18.5562 34.1476 20.6807 33.5495 21.9895 34.1114L29.3582 37.102C30.2098 37.4736 30.6132 36.7576 30.6132 36.7576C30.6132 36.7576 31.0883 36.0145 30.2367 35.4617C30.2367 35.4617 20.1877 28.7282 18.0452 28.3204C15.1228 27.7676 12.2274 30.1601 11.5909 33.2776L8.02309 50.9495C4.94832 47.2339 3.10166 42.4489 3.10166 37.2379C3.10166 25.4114 12.6128 15.787 24.3113 15.787C30.5594 15.787 36.1891 18.5329 40.0706 22.892L42.2489 20.6626C37.8026 15.7417 31.4111 12.6514 24.3113 12.6514Z" fill="black"/>
<path d="M116.725 28.6828L112.108 24.4053V28.565H103.251V37.3556H112.108V41.5153L116.725 37.2378L121.332 32.9603" fill="black"/>
<path d="M181.438 33.5222C181.689 33.3862 181.886 33.1778 182.048 32.8969C182.191 32.6069 182.272 32.2625 182.272 31.8637C182.272 31.2565 182.11 30.7944 181.797 30.4772C181.483 30.1509 181.106 29.9878 180.649 29.9878C180.201 29.9878 179.816 30.1509 179.511 30.4772C179.206 30.7944 179.054 31.2565 179.054 31.8637C179.054 32.4709 179.206 32.924 179.502 33.2503C179.798 33.5765 180.174 33.7397 180.631 33.7397C180.918 33.7397 181.187 33.6672 181.438 33.5222ZM179 34.7275C178.516 34.4556 178.139 34.075 177.861 33.5765C177.584 33.0872 177.449 32.5162 177.449 31.8637C177.449 31.2203 177.592 30.6494 177.87 30.1509C178.157 29.6525 178.543 29.2719 179.036 29C179.52 28.7281 180.067 28.5922 180.676 28.5922C181.277 28.5922 181.824 28.7281 182.317 29C182.801 29.2719 183.195 29.6525 183.473 30.1509C183.76 30.6494 183.894 31.2203 183.894 31.8637C183.894 32.5162 183.751 33.0872 183.464 33.5765C183.177 34.075 182.783 34.4556 182.281 34.7275C181.788 34.9994 181.241 35.1353 180.631 35.1353C180.031 35.1353 179.484 34.9994 179 34.7275Z" fill="black"/>
<path d="M190.699 28.7009V35.0266H189.103V34.2291C188.897 34.51 188.637 34.7184 188.305 34.8725C187.973 35.0356 187.615 35.1081 187.238 35.1081C186.745 35.1081 186.306 35.0084 185.939 34.8C185.553 34.5825 185.257 34.2744 185.042 33.8666C184.827 33.4678 184.719 32.9784 184.719 32.4166V28.7009H186.306V32.1809C186.306 32.6884 186.432 33.0781 186.683 33.35C186.925 33.6128 187.265 33.7487 187.696 33.7487C188.135 33.7487 188.475 33.6128 188.726 33.35C188.977 33.0781 189.103 32.6884 189.103 32.1809V28.7009" fill="black"/>
<path d="M271.36 33.5222C271.611 33.3862 271.808 33.1778 271.969 32.8969C272.113 32.6069 272.193 32.2625 272.193 31.8637C272.193 31.2565 272.032 30.7944 271.718 30.4772C271.404 30.1509 271.028 29.9878 270.571 29.9878C270.123 29.9878 269.737 30.1509 269.432 30.4772C269.127 30.7944 268.975 31.2565 268.975 31.8637C268.975 32.4709 269.127 32.924 269.423 33.2503C269.719 33.5765 270.096 33.7397 270.553 33.7397C270.84 33.7397 271.109 33.6672 271.36 33.5222ZM268.921 34.7275C268.437 34.4556 268.061 34.075 267.783 33.5765C267.505 33.0872 267.37 32.5162 267.37 31.8637C267.37 31.2203 267.514 30.6494 267.792 30.1509C268.079 29.6525 268.464 29.2719 268.957 29C269.441 28.7281 269.988 28.5922 270.598 28.5922C271.198 28.5922 271.745 28.7281 272.238 29C272.731 29.2719 273.117 29.6525 273.395 30.1509C273.681 30.6494 273.816 31.2203 273.816 31.8637C273.816 32.5162 273.672 33.0872 273.386 33.5765C273.099 34.075 272.704 34.4556 272.202 34.7275C271.709 34.9994 271.162 35.1353 270.553 35.1353C269.952 35.1353 269.405 34.9994 268.921 34.7275Z" fill="black"/>
<path d="M280.62 28.7009V35.0266H279.024V34.2291C278.818 34.51 278.558 34.7184 278.226 34.8725C277.894 35.0356 277.536 35.1081 277.159 35.1081C276.666 35.1081 276.227 35.0084 275.851 34.8C275.474 34.5825 275.178 34.2744 274.963 33.8666C274.748 33.4678 274.64 32.9784 274.64 32.4166V28.7009H276.227V32.1809C276.227 32.6884 276.353 33.0781 276.604 33.35C276.846 33.6128 277.186 33.7487 277.617 33.7487C278.056 33.7487 278.397 33.6128 278.648 33.35C278.899 33.0781 279.024 32.6884 279.024 32.1809V28.7009" fill="black"/>
<path d="M324.133 38.9416H316.907C316.746 38.9416 316.585 38.8873 316.468 38.7785L311.197 34.1748C311.08 34.066 310.928 34.0116 310.767 34.0116H308.427V30.8216H313.797C314.514 30.8216 315.204 31.1116 315.706 31.6282L319.552 35.5069C319.722 35.6791 319.812 35.9148 319.803 36.1594C319.803 36.2138 319.794 36.2773 319.785 36.3316C319.776 36.3407 319.776 36.3588 319.767 36.3769C319.722 36.531 319.632 36.676 319.507 36.7848C319.166 37.0838 318.628 37.0566 318.288 36.7123L315.428 33.8213C315.177 33.5585 314.756 33.5585 314.505 33.8213C314.254 34.0751 314.254 34.4919 314.505 34.7457L317.364 37.6366C318.189 38.4794 319.507 38.5338 320.368 37.7816C320.565 37.6094 320.726 37.401 320.843 37.1744L324.186 37.1926C324.428 37.1926 324.652 37.2832 324.823 37.4644C324.984 37.6457 325.065 37.8813 325.056 38.126C325.029 38.5791 324.608 38.9416 324.133 38.9416ZM324.186 35.8694L321.085 35.8604C321.031 35.3801 320.816 34.9269 320.466 34.5735L316.629 30.6948C315.885 29.9335 314.854 29.5076 313.797 29.5076H307.773C307.414 29.5076 307.127 29.7976 307.127 30.1601V34.6732C307.127 35.0357 307.414 35.3257 307.773 35.3257H310.525L315.616 39.7754C315.975 40.0835 316.432 40.2557 316.907 40.2557H324.133C325.307 40.2557 326.284 39.3585 326.356 38.2076C326.392 37.6004 326.185 37.0113 325.773 36.5673C325.361 36.1232 324.787 35.8694 324.186 35.8694Z" fill="black"/>
<path d="M317.625 24.5141C317.974 23.5172 318.665 22.91 319.525 22.8466C319.579 22.8375 319.624 22.8375 319.678 22.8375C320.502 22.8375 321.282 23.336 321.703 24.1335C321.82 24.351 322.035 24.4869 322.277 24.4869C322.519 24.4869 322.743 24.351 322.851 24.1335C323.299 23.2906 324.16 22.7831 325.038 22.8466C325.89 22.91 326.589 23.5172 326.939 24.5141C327.781 26.9247 324.429 29.8156 322.277 31.1931C320.126 29.8156 316.773 26.9247 317.625 24.5141ZM321.946 32.5253C322.053 32.5888 322.161 32.625 322.277 32.625C322.394 32.625 322.51 32.5888 322.609 32.5253C323.335 32.0994 329.61 28.1844 328.167 24.0791C327.638 22.5838 326.508 21.6322 325.128 21.5325C324.061 21.451 323.021 21.895 322.277 22.7016C321.542 21.895 320.493 21.451 319.427 21.5325C318.055 21.6322 316.917 22.5838 316.397 24.0791C314.953 28.1844 321.228 32.0994 321.946 32.5253Z" fill="black"/>
<path d="M243.857 41.7782H238.523L237.779 38.5792H244.61L243.857 41.7782ZM245.372 37.9629C245.3 37.8723 245.193 37.827 245.076 37.827H237.6L237.206 36.1323C237.17 35.9692 237.017 35.8423 236.838 35.8423H235.009C234.803 35.8423 234.633 36.0145 234.633 36.2229C234.633 36.4313 234.803 36.6035 235.009 36.6035H236.542L236.937 38.2892L237.869 42.2404C237.905 42.4126 238.057 42.5304 238.228 42.5304H244.153C244.323 42.5304 244.476 42.4126 244.521 42.2404L245.444 38.2892C245.471 38.1713 245.444 38.0535 245.372 37.9629Z" fill="black"/>
<path d="M239.33 43.1375C238.828 43.1375 238.425 43.5453 238.425 44.0528C238.425 44.5512 238.828 44.9681 239.33 44.9681C239.832 44.9681 240.245 44.5512 240.245 44.0528C240.245 43.5453 239.832 43.1375 239.33 43.1375Z" fill="black"/>
<path d="M243.05 43.1375C242.548 43.1375 242.145 43.5453 242.145 44.0528C242.145 44.5512 242.548 44.9681 243.05 44.9681C243.552 44.9681 243.965 44.5512 243.965 44.0528C243.965 43.5453 243.552 43.1375 243.05 43.1375Z" fill="black"/>
<path d="M220.72 22.8828H223.517L222.567 28.1028H218.784L220.72 22.8828ZM239.76 28.1028H235.995L235.045 22.8828H237.815L239.76 28.1028ZM236.82 29.3625H239.948C239.715 30.015 239.106 30.4862 238.389 30.4862C237.663 30.4862 237.053 30.015 236.82 29.3625ZM233.826 30.4862C233.109 30.4862 232.49 30.015 232.266 29.3625H235.386C235.161 30.015 234.543 30.4862 233.826 30.4862ZM229.272 30.4862C228.546 30.4862 227.936 30.015 227.712 29.3625H230.832C230.608 30.015 229.989 30.4862 229.272 30.4862ZM224.709 30.4862C223.992 30.4862 223.373 30.015 223.158 29.3625H226.269C226.045 30.015 225.435 30.4862 224.709 30.4862ZM227.031 28.1028L227.407 22.8828H231.154L231.522 28.1028H227.031ZM220.155 30.4862C219.438 30.4862 218.819 30.015 218.595 29.3625H221.715C221.491 30.015 220.881 30.4862 220.155 30.4862ZM232.58 35.4343H229.846V40.1196H228.698V35.4343H225.964V40.1196H220.074V31.7459C220.101 31.7459 220.128 31.7459 220.155 31.7459C221.078 31.7459 221.903 31.3109 222.432 30.6221C222.97 31.3109 223.795 31.7459 224.709 31.7459C225.641 31.7459 226.457 31.3109 226.995 30.6221C227.524 31.3109 228.349 31.7459 229.272 31.7459C230.195 31.7459 231.011 31.3109 231.549 30.6221C232.078 31.3109 232.902 31.7459 233.826 31.7459C234.749 31.7459 235.574 31.3109 236.103 30.6221C236.641 31.3109 237.456 31.7459 238.389 31.7459C238.514 31.7459 238.64 31.7368 238.756 31.7187V35.8331H240.011V31.2384C240.782 30.7128 241.284 29.8156 241.284 28.8096C241.284 28.8006 241.284 28.7825 241.284 28.7643C241.284 28.6828 241.275 28.5921 241.239 28.5106L238.828 22.0309C238.738 21.7771 238.505 21.614 238.245 21.614H220.29C220.03 21.614 219.806 21.7771 219.707 22.0309L217.296 28.5106C217.26 28.5921 217.251 28.6828 217.26 28.7643C217.26 28.7825 217.251 28.8006 217.251 28.8096C217.251 29.9425 217.896 30.9303 218.819 31.4196V40.754C218.819 41.0984 219.097 41.3884 219.447 41.3884H234.624V40.1196H232.58" fill="black"/>
<path d="M140.821 34.8H142.883V33.9209H140.821V34.8Z" fill="black"/>
<path d="M134.026 23.5445L135.98 21.3423L138.481 23.8707V41.0079L134.026 38.6335V23.5445ZM147.401 21.0614L150.197 23.8889V41.307H139.7V23.762C139.736 23.5717 139.682 23.3542 139.53 23.2001L137.423 21.0614H147.401ZM151.399 23.5989C151.399 23.5717 151.399 23.5354 151.39 23.5082C151.39 23.4901 151.381 23.472 151.372 23.4539C151.372 23.4357 151.372 23.4176 151.363 23.3995C151.354 23.3723 151.336 23.3542 151.327 23.327C151.318 23.3179 151.309 23.3089 151.3 23.2907C151.282 23.2635 151.255 23.2273 151.228 23.2001L148.082 20.0101C147.965 19.9014 147.813 19.8289 147.652 19.8289H135.953H135.944C135.89 19.8379 135.846 19.8379 135.792 19.856L135.756 19.8742C135.72 19.8832 135.675 19.9014 135.639 19.9285C135.63 19.9285 135.621 19.9376 135.612 19.9376C135.577 19.9739 135.541 20.001 135.505 20.0373L132.959 22.901C132.86 23.0189 132.807 23.1639 132.807 23.3089V39.0051C132.807 39.2317 132.932 39.4401 133.129 39.5489L133.416 39.6939V40.5367H134.985L138.615 42.467C138.714 42.5214 138.804 42.5395 138.902 42.5395C138.929 42.5395 138.956 42.5304 138.983 42.5304C139.019 42.5395 139.046 42.5395 139.091 42.5395H139.682V43.201H141.296V42.5395H148.611V43.201H150.215V42.5395H150.798C151.13 42.5395 151.408 42.2676 151.408 41.9232V23.6351C151.408 23.617 151.399 23.6079 151.399 23.5989Z" fill="black"/>
<path d="M147.876 25.0759V27.6678L146.146 26.0456H142.031V25.0759H147.876ZM141.421 29.0996H148.485C148.817 29.0996 149.086 28.8278 149.086 28.4924V24.4596C149.086 24.1243 148.817 23.8434 148.485 23.8434H141.421C141.09 23.8434 140.821 24.1243 140.821 24.4596V28.4924C140.821 28.8278 141.09 29.0996 141.421 29.0996Z" fill="black"/>
<path d="M115.057 49.9889C115.371 49.4179 115.792 48.9739 116.33 48.6567C116.859 48.3395 117.46 48.1854 118.123 48.1854C118.93 48.1854 119.62 48.3757 120.194 48.7654C120.768 49.1461 121.189 49.6989 121.449 50.3967H120.597C120.391 49.9073 120.077 49.5176 119.656 49.2367C119.235 48.9648 118.724 48.8198 118.123 48.8198C117.594 48.8198 117.119 48.9467 116.689 49.1914C116.268 49.4451 115.936 49.8076 115.694 50.2789C115.452 50.7411 115.335 51.2939 115.335 51.9101C115.335 52.5354 115.452 53.0701 115.694 53.5414C115.936 54.0036 116.268 54.366 116.689 54.6107C117.119 54.8645 117.594 54.9914 118.123 54.9914C118.724 54.9914 119.235 54.8554 119.656 54.5745C120.077 54.3026 120.391 53.922 120.597 53.4326H121.449C121.189 54.1304 120.768 54.6742 120.185 55.0548C119.611 55.4354 118.921 55.6257 118.123 55.6257C117.46 55.6257 116.859 55.4717 116.33 55.1545C115.792 54.8373 115.371 54.3932 115.057 53.8314C114.744 53.2695 114.591 52.6261 114.591 51.9101C114.591 51.1942 114.744 50.5507 115.057 49.9889Z" fill="black"/>
<path d="M127.213 54.6289C127.634 54.3751 127.975 54.0126 128.217 53.5414C128.468 53.0792 128.594 52.5354 128.594 51.9101C128.594 51.2939 128.468 50.7501 128.217 50.2789C127.975 49.8167 127.634 49.4542 127.213 49.2095C126.783 48.9557 126.299 48.8289 125.761 48.8289C125.232 48.8289 124.748 48.9557 124.318 49.2095C123.887 49.4542 123.556 49.8167 123.305 50.2789C123.054 50.7501 122.937 51.2939 122.937 51.9101C122.937 52.5354 123.054 53.0792 123.305 53.5414C123.556 54.0126 123.887 54.3751 124.318 54.6289C124.748 54.8736 125.232 55.0004 125.761 55.0004C126.299 55.0004 126.783 54.8736 127.213 54.6289ZM123.95 55.1635C123.403 54.8464 122.973 54.4023 122.659 53.8314C122.345 53.2695 122.193 52.626 122.193 51.9101C122.193 51.1942 122.345 50.5507 122.659 49.9889C122.973 49.4179 123.403 48.9739 123.95 48.6567C124.488 48.3395 125.098 48.1854 125.761 48.1854C126.442 48.1854 127.052 48.3395 127.59 48.6567C128.136 48.9739 128.567 49.4179 128.872 49.9889C129.185 50.5507 129.338 51.1942 129.338 51.9101C129.338 52.626 129.185 53.2695 128.872 53.8314C128.567 54.4023 128.136 54.8464 127.59 55.1635C127.052 55.4807 126.442 55.6348 125.761 55.6348C125.098 55.6348 124.488 55.4807 123.95 55.1635Z" fill="black"/>
<path d="M135.738 55.5623H135.021L131.023 49.427V55.5623H130.297V48.267H131.023L135.021 54.3932V48.267H135.738" fill="black"/>
<path d="M141.242 48.267V48.8742H139.243V55.5623H138.517V48.8742H136.509V48.267" fill="black"/>
<path d="M142.757 48.865V51.5838H145.491V52.1909H142.757V54.9641H145.796V55.5622H142.031V48.2578H145.796V48.865" fill="black"/>
<path d="M152.304 55.5623H151.578L147.58 49.427V55.5623H146.863V48.267H147.58L151.578 54.3932V48.267H152.304" fill="black"/>
<path d="M154.303 48.865V51.5838H157.046V52.1909H154.303V54.9641H157.351V55.5622H153.586V48.2578H157.351V48.865" fill="black"/>
<path d="M159.108 48.267V52.8617C159.108 53.5867 159.279 54.1213 159.619 54.4657C159.96 54.8192 160.426 54.9913 161.018 54.9913C161.609 54.9913 162.075 54.8192 162.407 54.4748C162.739 54.1304 162.909 53.5957 162.909 52.8617V48.267H163.635V52.8526C163.635 53.777 163.384 54.4748 162.9 54.937C162.416 55.3992 161.789 55.6348 161.009 55.6348C160.229 55.6348 159.601 55.3992 159.117 54.937C158.624 54.4748 158.391 53.777 158.391 52.8526V48.267" fill="black"/>
<path d="M165.607 51.9192H167.059C167.624 51.9192 168.046 51.7832 168.332 51.5023C168.619 51.2213 168.763 50.8498 168.763 50.3876C168.763 49.9073 168.628 49.5357 168.35 49.2729C168.072 49.0101 167.642 48.8832 167.051 48.8832H165.607V51.9192ZM168.727 55.5623L166.934 52.5173H165.607V55.5623H164.881V48.267H167.051C167.857 48.267 168.467 48.4663 168.888 48.856C169.301 49.2457 169.507 49.7532 169.507 50.3876C169.507 50.9132 169.354 51.3663 169.059 51.7379C168.763 52.1095 168.323 52.3542 167.732 52.4629L169.587 55.5623" fill="black"/>
<path d="M185.894 48.3574V55.5621H185.167V49.8165L182.631 55.5621H182.102L179.565 49.8346V55.5621H178.839V48.3574H179.601L182.362 54.6015L185.114 48.3574" fill="black"/>
<path d="M191.138 53.224L189.713 49.2818L188.287 53.224H191.138ZM191.353 53.8312H188.072L187.445 55.5621H186.683L189.309 48.3574H190.125L192.751 55.5621H191.981" fill="black"/>
<path d="M199.224 50.3967C199.018 49.9164 198.704 49.5357 198.282 49.2639C197.852 48.992 197.359 48.856 196.785 48.856C196.248 48.856 195.772 48.9739 195.342 49.2276C194.912 49.4814 194.58 49.8348 194.329 50.297C194.087 50.7592 193.962 51.3029 193.962 51.9101C193.962 52.5264 194.087 53.061 194.329 53.5323C194.58 53.9945 194.912 54.3479 195.342 54.6017C195.772 54.8554 196.248 54.9823 196.785 54.9823C197.287 54.9823 197.745 54.8735 198.148 54.656C198.551 54.4295 198.874 54.1214 199.116 53.7135C199.358 53.3057 199.502 52.8345 199.537 52.2817H196.499V51.6926H200.299V52.2182C200.264 52.8617 200.093 53.4417 199.779 53.9582C199.475 54.4839 199.053 54.8917 198.533 55.1907C198.022 55.4898 197.431 55.6348 196.785 55.6348C196.122 55.6348 195.512 55.4807 194.975 55.1635C194.428 54.8464 193.997 54.4023 193.684 53.8314C193.37 53.2695 193.218 52.626 193.218 51.9101C193.218 51.1942 193.37 50.5507 193.684 49.9798C193.997 49.4179 194.428 48.9739 194.975 48.6567C195.512 48.3395 196.122 48.1854 196.785 48.1854C197.556 48.1854 198.229 48.3757 198.811 48.7654C199.385 49.1551 199.815 49.6989 200.075 50.3967" fill="black"/>
<path d="M205.221 53.224L203.795 49.2818L202.37 53.224H205.221ZM205.445 53.8312H202.155L201.527 55.5621H200.765L203.392 48.3574H204.217L206.834 55.5621H206.072" fill="black"/>
<path d="M208.564 55.3901C208.206 55.2179 207.919 54.9823 207.713 54.6832C207.506 54.3842 207.399 54.0579 207.381 53.6864H208.143C208.188 54.0398 208.34 54.357 208.618 54.6198C208.887 54.8826 209.29 55.0185 209.819 55.0185C210.312 55.0185 210.698 54.8917 210.985 54.6379C211.272 54.3842 211.406 54.067 211.406 53.6773C211.406 53.3601 211.334 53.1064 211.173 52.916C211.012 52.7257 210.814 52.5807 210.59 52.4901C210.348 52.3995 210.025 52.2907 209.613 52.182C209.129 52.0551 208.753 51.9192 208.466 51.7923C208.188 51.6654 207.946 51.4751 207.749 51.2123C207.542 50.9495 207.444 50.587 207.444 50.1339C207.444 49.7623 207.542 49.427 207.74 49.1279C207.928 48.8379 208.197 48.6023 208.546 48.4392C208.905 48.267 209.299 48.1854 209.757 48.1854C210.429 48.1854 210.967 48.3485 211.379 48.6748C211.782 49.0101 212.025 49.4361 212.078 49.9617H211.298C211.245 49.6536 211.092 49.3907 210.814 49.1551C210.536 48.9286 210.16 48.8107 209.694 48.8107C209.263 48.8107 208.905 48.9286 208.618 49.1551C208.322 49.3907 208.179 49.7079 208.179 50.1157C208.179 50.4239 208.259 50.6686 208.421 50.8589C208.573 51.0492 208.77 51.1851 209.012 51.2848C209.246 51.3845 209.568 51.4842 209.972 51.5929C210.447 51.7289 210.823 51.8557 211.11 51.9917C211.397 52.1186 211.648 52.3179 211.845 52.5807C212.042 52.8435 212.15 53.197 212.15 53.641C212.15 53.9854 212.06 54.3117 211.872 54.6198C211.693 54.9189 211.433 55.1636 211.083 55.3539C210.725 55.5442 210.312 55.6348 209.819 55.6348C209.344 55.6348 208.923 55.5532 208.564 55.3901Z" fill="black"/>
<path d="M213.181 55.5623H213.898V48.267H213.181V55.5623Z" fill="black"/>
<path d="M220.621 55.5623H219.904L215.897 49.427V55.5623H215.18V48.267H215.897L219.904 54.3932V48.267H220.621" fill="black"/>
<path d="M230.097 48.267L227.354 55.5623H226.529L223.795 48.267H224.584L226.941 54.7738L229.326 48.267" fill="black"/>
<path d="M235.502 54.6289C235.932 54.3751 236.264 54.0126 236.515 53.5414C236.766 53.0792 236.892 52.5354 236.892 51.9101C236.892 51.2939 236.766 50.7501 236.515 50.2789C236.264 49.8167 235.932 49.4542 235.502 49.2095C235.072 48.9557 234.597 48.8289 234.059 48.8289C233.521 48.8289 233.037 48.9557 232.607 49.2095C232.185 49.4542 231.845 49.8167 231.603 50.2789C231.352 50.7501 231.226 51.2939 231.226 51.9101C231.226 52.5354 231.352 53.0792 231.603 53.5414C231.845 54.0126 232.185 54.3751 232.607 54.6289C233.037 54.8736 233.521 55.0004 234.059 55.0004C234.597 55.0004 235.072 54.8736 235.502 54.6289ZM232.239 55.1635C231.701 54.8464 231.271 54.4023 230.957 53.8314C230.643 53.2695 230.482 52.626 230.482 51.9101C230.482 51.1942 230.643 50.5507 230.957 49.9889C231.271 49.4179 231.701 48.9739 232.239 48.6567C232.786 48.3395 233.387 48.1854 234.059 48.1854C234.731 48.1854 235.341 48.3395 235.888 48.6567C236.425 48.9739 236.856 49.4179 237.169 49.9889C237.474 50.5507 237.636 51.1942 237.636 51.9101C237.636 52.626 237.474 53.2695 237.169 53.8314C236.856 54.4023 236.425 54.8464 235.888 55.1635C235.341 55.4807 234.731 55.6348 234.059 55.6348C233.387 55.6348 232.786 55.4807 232.239 55.1635Z" fill="black"/>
<path d="M239.312 54.9732H241.903V55.5623H238.595V48.267H239.312" fill="black"/>
<path d="M247.264 54.6289C247.694 54.3751 248.035 54.0126 248.277 53.5414C248.528 53.0792 248.653 52.5354 248.653 51.9101C248.653 51.2939 248.528 50.7501 248.277 50.2789C248.035 49.8167 247.694 49.4542 247.264 49.2095C246.842 48.9557 246.358 48.8289 245.82 48.8289C245.283 48.8289 244.807 48.9557 244.377 49.2095C243.947 49.4542 243.606 49.8167 243.364 50.2789C243.113 50.7501 242.997 51.2939 242.997 51.9101C242.997 52.5354 243.113 53.0792 243.364 53.5414C243.606 54.0126 243.947 54.3751 244.377 54.6289C244.807 54.8736 245.283 55.0004 245.82 55.0004C246.358 55.0004 246.842 54.8736 247.264 54.6289ZM244.001 55.1635C243.463 54.8464 243.032 54.4023 242.719 53.8314C242.405 53.2695 242.244 52.626 242.244 51.9101C242.244 51.1942 242.405 50.5507 242.719 49.9889C243.032 49.4179 243.463 48.9739 244.001 48.6567C244.547 48.3395 245.157 48.1854 245.82 48.1854C246.493 48.1854 247.102 48.3395 247.649 48.6567C248.196 48.9739 248.617 49.4179 248.931 49.9889C249.236 50.5507 249.397 51.1942 249.397 51.9101C249.397 52.626 249.236 53.2695 248.931 53.8314C248.617 54.4023 248.196 54.8464 247.649 55.1635C247.102 55.4807 246.493 55.6348 245.82 55.6348C245.157 55.6348 244.547 55.4807 244.001 55.1635Z" fill="black"/>
<path d="M255.797 55.5623H255.071L251.073 49.427V55.5623H250.356V48.267H251.073L255.071 54.3932V48.267H255.797" fill="black"/>
<path d="M261.302 48.267V48.8742H259.294V55.5623H258.576V48.8742H256.56V48.267" fill="black"/>
<path d="M266.053 53.224L264.627 49.2818L263.202 53.224H266.053ZM266.268 53.8312H262.987L262.35 55.5621H261.589L264.224 48.3574H265.04L267.657 55.5621H266.895" fill="black"/>
<path d="M268.455 55.5623H269.181V48.267H268.455V55.5623Z" fill="black"/>
<path d="M271.18 51.9192H272.642C273.206 51.9192 273.628 51.7832 273.914 51.5023C274.201 51.2213 274.345 50.8498 274.345 50.3876C274.345 49.9073 274.201 49.5357 273.932 49.2729C273.655 49.0101 273.224 48.8832 272.633 48.8832H271.18V51.9192ZM274.3 55.5623L272.516 52.5173H271.18V55.5623H270.463V48.267H272.633C273.43 48.267 274.04 48.4663 274.461 48.856C274.874 49.2457 275.089 49.7532 275.089 50.3876C275.089 50.9132 274.936 51.3663 274.641 51.7379C274.336 52.1095 273.897 52.3542 273.314 52.4629L275.169 55.5623" fill="black"/>
<path d="M276.882 48.865V51.5838H279.616V52.1909H276.882V54.9641H279.93V55.5622H276.164V48.2578H279.93V48.865" fill="black"/>
<path d="M293.286 53.224L291.861 49.2818L290.436 53.224H293.286ZM293.502 53.8312H290.221L289.593 55.5621H288.831L291.458 48.3574H292.273L294.9 55.5621H294.138" fill="black"/>
<path d="M296.63 55.3901C296.272 55.2179 295.985 54.9823 295.779 54.6832C295.572 54.3842 295.456 54.0579 295.447 53.6864H296.209C296.245 54.0398 296.397 54.357 296.675 54.6198C296.953 54.8826 297.347 55.0185 297.885 55.0185C298.369 55.0185 298.764 54.8917 299.042 54.6379C299.328 54.3842 299.472 54.067 299.472 53.6773C299.472 53.3601 299.391 53.1064 299.239 52.916C299.077 52.7257 298.88 52.5807 298.647 52.4901C298.414 52.3995 298.091 52.2907 297.679 52.182C297.195 52.0551 296.809 51.9192 296.532 51.7923C296.245 51.6654 296.003 51.4751 295.805 51.2123C295.608 50.9495 295.51 50.587 295.51 50.1339C295.51 49.7623 295.608 49.427 295.796 49.1279C295.994 48.8379 296.263 48.6023 296.612 48.4392C296.962 48.267 297.365 48.1854 297.822 48.1854C298.486 48.1854 299.024 48.3485 299.436 48.6748C299.848 49.0101 300.081 49.4361 300.144 49.9617H299.355C299.31 49.6536 299.149 49.3907 298.871 49.1551C298.593 48.9286 298.226 48.8107 297.76 48.8107C297.329 48.8107 296.962 48.9286 296.675 49.1551C296.388 49.3907 296.245 49.7079 296.245 50.1157C296.245 50.4239 296.316 50.6686 296.478 50.8589C296.639 51.0492 296.836 51.1851 297.069 51.2848C297.311 51.3845 297.634 51.4842 298.038 51.5929C298.504 51.7289 298.88 51.8557 299.176 51.9917C299.463 52.1186 299.705 52.3179 299.911 52.5807C300.108 52.8435 300.207 53.197 300.207 53.641C300.207 53.9854 300.117 54.3117 299.938 54.6198C299.759 54.9189 299.499 55.1636 299.14 55.3539C298.791 55.5442 298.369 55.6348 297.885 55.6348C297.41 55.6348 296.989 55.5532 296.63 55.3901Z" fill="black"/>
<path d="M302.17 55.3901C301.811 55.2179 301.525 54.9823 301.318 54.6832C301.112 54.3842 301.005 54.0579 300.987 53.6864H301.758C301.794 54.0398 301.946 54.357 302.224 54.6198C302.493 54.8826 302.896 55.0185 303.425 55.0185C303.918 55.0185 304.304 54.8917 304.59 54.6379C304.877 54.3842 305.021 54.067 305.021 53.6773C305.021 53.3601 304.94 53.1064 304.779 52.916C304.617 52.7257 304.429 52.5807 304.196 52.4901C303.954 52.3995 303.631 52.2907 303.219 52.182C302.744 52.0551 302.358 51.9192 302.08 51.7923C301.794 51.6654 301.552 51.4751 301.354 51.2123C301.157 50.9495 301.05 50.587 301.05 50.1339C301.05 49.7623 301.148 49.427 301.345 49.1279C301.534 48.8379 301.811 48.6023 302.152 48.4392C302.511 48.267 302.914 48.1854 303.371 48.1854C304.035 48.1854 304.572 48.3485 304.985 48.6748C305.388 49.0101 305.63 49.4361 305.684 49.9617H304.904C304.859 49.6536 304.698 49.3907 304.42 49.1551C304.142 48.9286 303.775 48.8107 303.3 48.8107C302.869 48.8107 302.511 48.9286 302.224 49.1551C301.928 49.3907 301.785 49.7079 301.785 50.1157C301.785 50.4239 301.865 50.6686 302.027 50.8589C302.179 51.0492 302.385 51.1851 302.618 51.2848C302.86 51.3845 303.174 51.4842 303.577 51.5929C304.053 51.7289 304.429 51.8557 304.716 51.9917C305.003 52.1186 305.254 52.3179 305.451 52.5807C305.648 52.8435 305.756 53.197 305.756 53.641C305.756 53.9854 305.666 54.3117 305.478 54.6198C305.299 54.9189 305.039 55.1636 304.689 55.3539C304.339 55.5442 303.918 55.6348 303.425 55.6348C302.95 55.6348 302.538 55.5532 302.17 55.3901Z" fill="black"/>
<path d="M311.475 54.6289C311.896 54.3751 312.237 54.0126 312.479 53.5414C312.73 53.0792 312.855 52.5354 312.855 51.9101C312.855 51.2939 312.73 50.7501 312.479 50.2789C312.237 49.8167 311.896 49.4542 311.475 49.2095C311.045 48.9557 310.561 48.8289 310.023 48.8289C309.485 48.8289 309.01 48.9557 308.579 49.2095C308.149 49.4542 307.817 49.8167 307.566 50.2789C307.315 50.7501 307.199 51.2939 307.199 51.9101C307.199 52.5354 307.315 53.0792 307.566 53.5414C307.817 54.0126 308.149 54.3751 308.579 54.6289C309.01 54.8736 309.485 55.0004 310.023 55.0004C310.561 55.0004 311.045 54.8736 311.475 54.6289ZM308.203 55.1635C307.665 54.8464 307.235 54.4023 306.921 53.8314C306.607 53.2695 306.455 52.626 306.455 51.9101C306.455 51.1942 306.607 50.5507 306.921 49.9889C307.235 49.4179 307.665 48.9739 308.203 48.6567C308.75 48.3395 309.359 48.1854 310.023 48.1854C310.695 48.1854 311.305 48.3395 311.851 48.6567C312.398 48.9739 312.82 49.4179 313.133 49.9889C313.447 50.5507 313.599 51.1942 313.599 51.9101C313.599 52.626 313.447 53.2695 313.133 53.8314C312.82 54.4023 312.398 54.8464 311.851 55.1635C311.305 55.4807 310.695 55.6348 310.023 55.6348C309.359 55.6348 308.75 55.4807 308.203 55.1635Z" fill="black"/>
<path d="M314.693 49.9889C315.007 49.4179 315.428 48.9739 315.966 48.6567C316.504 48.3395 317.105 48.1854 317.759 48.1854C318.566 48.1854 319.256 48.3757 319.83 48.7654C320.403 49.1461 320.825 49.6989 321.085 50.3967H320.242C320.036 49.9073 319.713 49.5176 319.292 49.2367C318.871 48.9648 318.36 48.8198 317.759 48.8198C317.23 48.8198 316.755 48.9467 316.334 49.1914C315.903 49.4451 315.572 49.8076 315.33 50.2789C315.097 50.7411 314.971 51.2939 314.971 51.9101C314.971 52.5354 315.097 53.0701 315.33 53.5414C315.572 54.0036 315.903 54.366 316.334 54.6107C316.755 54.8645 317.23 54.9914 317.759 54.9914C318.36 54.9914 318.871 54.8554 319.292 54.5745C319.713 54.3026 320.036 53.922 320.242 53.4326H321.085C320.825 54.1304 320.403 54.6742 319.821 55.0548C319.247 55.4354 318.557 55.6257 317.759 55.6257C317.105 55.6257 316.504 55.4717 315.966 55.1545C315.428 54.8373 315.007 54.3932 314.693 53.8314C314.379 53.2695 314.227 52.6261 314.227 51.9101C314.227 51.1942 314.379 50.5507 314.693 49.9889Z" fill="black"/>
<path d="M322.16 55.5623H322.878V48.267H322.16V55.5623Z" fill="black"/>
<path d="M328.131 53.224L326.705 49.2818L325.28 53.224H328.131ZM328.346 53.8312H325.056L324.428 55.5621H323.666L326.302 48.3574H327.118L329.735 55.5621H328.973" fill="black"/>
<path d="M334.756 48.267V48.8742H332.757V55.5623H332.03V48.8742H330.022V48.267" fill="black"/>
<path d="M335.544 55.5623H336.261V48.267H335.544V55.5623Z" fill="black"/>
<path d="M342.232 54.6289C342.662 54.3751 343.003 54.0126 343.245 53.5414C343.496 53.0792 343.621 52.5354 343.621 51.9101C343.621 51.2939 343.496 50.7501 343.245 50.2789C343.003 49.8167 342.662 49.4542 342.232 49.2095C341.801 48.9557 341.326 48.8289 340.788 48.8289C340.251 48.8289 339.767 48.9557 339.336 49.2095C338.915 49.4542 338.574 49.8167 338.332 50.2789C338.081 50.7501 337.956 51.2939 337.956 51.9101C337.956 52.5354 338.081 53.0792 338.332 53.5414C338.574 54.0126 338.915 54.3751 339.336 54.6289C339.767 54.8736 340.251 55.0004 340.788 55.0004C341.326 55.0004 341.801 54.8736 342.232 54.6289ZM338.969 55.1635C338.431 54.8464 338.001 54.4023 337.687 53.8314C337.373 53.2695 337.212 52.626 337.212 51.9101C337.212 51.1942 337.373 50.5507 337.687 49.9889C338.001 49.4179 338.431 48.9739 338.969 48.6567C339.516 48.3395 340.125 48.1854 340.788 48.1854C341.461 48.1854 342.07 48.3395 342.617 48.6567C343.155 48.9739 343.585 49.4179 343.899 49.9889C344.204 50.5507 344.365 51.1942 344.365 51.9101C344.365 52.626 344.204 53.2695 343.899 53.8314C343.585 54.4023 343.155 54.8464 342.617 55.1635C342.07 55.4807 341.461 55.6348 340.788 55.6348C340.125 55.6348 339.516 55.4807 338.969 55.1635Z" fill="black"/>
<path d="M350.766 55.5623H350.04L346.042 49.427V55.5623H345.325V48.267H346.042L350.04 54.3932V48.267H350.766" fill="black"/>
<path d="M206.09 8.57324V9.62449H203.401V11.3011H205.472V12.3342H203.401V15.0892H202.11V8.57324" fill="black"/>
<path d="M208.305 11.5729H209.389C209.739 11.5729 209.999 11.4823 210.169 11.3101C210.348 11.1379 210.429 10.9023 210.429 10.5942C210.429 10.2951 210.348 10.0686 210.169 9.89637C209.999 9.73324 209.739 9.65168 209.389 9.65168H208.305V11.5729ZM210.339 15.0892L208.914 12.5517H208.305V15.0892H207.014V8.57324H209.434C209.927 8.57324 210.357 8.6548 210.707 8.83605C211.057 9.00824 211.317 9.25293 211.496 9.55199C211.675 9.86012 211.765 10.1954 211.765 10.567C211.765 11.002 211.639 11.3917 211.388 11.727C211.146 12.0804 210.779 12.3161 210.295 12.452L211.837 15.0892" fill="black"/>
<path d="M355.391 56.1965C355.391 60.5827 351.779 64.1624 347.341 64.1624H66.3987C61.9614 64.1624 58.3488 60.5827 58.3488 56.1965V20.6352C58.3488 16.2399 61.9614 12.6693 66.3987 12.6693H197.018C197.215 14.944 198.13 17.1643 199.851 18.9043C201.796 20.8618 204.342 21.8405 206.888 21.8405C209.434 21.8405 211.98 20.8618 213.916 18.9043C215.637 17.1643 216.551 14.944 216.749 12.6693H347.341C351.779 12.6693 355.391 16.2399 355.391 20.6352V56.1965ZM201.151 5.99021C202.684 4.44052 204.719 3.58865 206.888 3.58865C209.048 3.58865 211.092 4.44052 212.625 5.99021C214.149 7.5399 215.001 9.59709 215.001 11.7902C215.001 13.9833 214.149 16.0405 212.625 17.5902C211.092 19.1308 209.048 19.9918 206.888 19.9918C204.719 19.9918 202.684 19.1308 201.151 17.5902C197.986 14.3911 197.986 9.18927 201.151 5.99021ZM347.341 10.8115H216.74C216.525 8.57302 215.619 6.38896 213.916 4.67615C211.98 2.70959 209.434 1.73083 206.888 1.73083C204.342 1.73083 201.796 2.70959 199.851 4.67615C198.157 6.38896 197.242 8.57302 197.027 10.8115H66.3987C60.9484 10.8115 56.5111 15.2249 56.5111 20.6352V56.1965C56.5111 61.6068 60.9484 66.0112 66.3987 66.0112H347.341C352.792 66.0112 357.229 61.6068 357.229 56.1965V20.6352C357.229 15.2249 352.792 10.8115 347.341 10.8115Z" fill="black"/>
<path d="M112.592 78.0686C112.377 77.6789 112.099 77.3799 111.75 77.1714C111.4 76.9721 111.023 76.8724 110.62 76.8724C110.217 76.8724 109.84 76.9721 109.49 77.1714C109.141 77.3708 108.863 77.6608 108.639 78.0414C108.424 78.4311 108.316 78.8842 108.316 79.4189C108.316 79.9446 108.424 80.4067 108.639 80.8055C108.863 81.2042 109.141 81.5124 109.49 81.7208C109.849 81.9292 110.226 82.038 110.62 82.038C111.023 82.038 111.4 81.9292 111.75 81.7299C112.099 81.5214 112.377 81.2224 112.592 80.8327C112.807 80.4339 112.915 79.9717 112.915 79.4461C112.915 78.9114 112.807 78.4583 112.592 78.0686ZM107.187 77.3708C107.5 76.7727 107.931 76.3105 108.478 75.9842C109.024 75.658 109.634 75.4949 110.306 75.4949C110.889 75.4949 111.409 75.6127 111.866 75.8574C112.323 76.093 112.673 76.383 112.915 76.7274V75.6127H114.502V86.9317H112.915V82.1739C112.673 82.5183 112.314 82.8083 111.848 83.053C111.373 83.2886 110.844 83.4155 110.243 83.4155C109.589 83.4155 108.997 83.2433 108.469 82.908C107.931 82.5636 107.5 82.0924 107.187 81.4852C106.864 80.878 106.712 80.1892 106.712 79.4189C106.712 78.6486 106.864 77.9599 107.187 77.3708Z" fill="black"/>
<path d="M123.439 75.6217V83.2886H121.87V82.3823C121.619 82.6995 121.297 82.9442 120.902 83.1255C120.499 83.3067 120.077 83.3973 119.629 83.3973C119.029 83.3973 118.491 83.2705 118.025 83.0167C117.549 82.772 117.173 82.4005 116.904 81.9111C116.635 81.4217 116.501 80.8236 116.501 80.1258V75.6217H118.051V79.8901C118.051 80.5789 118.222 81.1045 118.562 81.467C118.903 81.8386 119.369 82.0198 119.952 82.0198C120.544 82.0198 121.01 81.8386 121.35 81.467C121.691 81.1045 121.87 80.5789 121.87 79.8901V75.6217" fill="black"/>
<path d="M130.817 78.7666C130.808 78.1775 130.601 77.7062 130.198 77.3619C129.795 76.9994 129.293 76.8272 128.701 76.8272C128.154 76.8272 127.697 76.9994 127.311 77.3528C126.926 77.6972 126.693 78.1684 126.612 78.7666H130.817ZM132.403 80.0444H126.603C126.648 80.6516 126.872 81.15 127.276 81.5216C127.688 81.8931 128.181 82.0744 128.764 82.0744C129.615 82.0744 130.207 81.7209 130.557 81.005H132.251C132.018 81.7119 131.605 82.2919 131.005 82.7359C130.404 83.1891 129.66 83.4156 128.764 83.4156C128.038 83.4156 127.392 83.2525 126.818 82.9172C126.245 82.5909 125.796 82.1197 125.465 81.5216C125.142 80.9325 124.981 80.2347 124.981 79.4462C124.981 78.6578 125.133 77.96 125.456 77.3619C125.77 76.7637 126.218 76.3016 126.792 75.9753C127.365 75.6491 128.02 75.495 128.764 75.495C129.481 75.495 130.117 75.6491 130.682 75.9662C131.238 76.2834 131.677 76.7184 131.991 77.2894C132.296 77.8603 132.457 78.5219 132.457 79.265C132.457 79.555 132.439 79.8087 132.403 80.0444Z" fill="black"/>
<path d="M137.181 76.9087H135.774V83.2887H134.187V76.9087H133.3V75.6127H134.187V75.078C134.187 74.1899 134.42 73.5465 134.886 73.1477C135.353 72.7399 136.079 72.5405 137.065 72.5405V73.8637C136.59 73.8637 136.258 73.9543 136.061 74.1355C135.872 74.3168 135.774 74.6249 135.774 75.078V75.6127H137.181" fill="black"/>
<path d="M143.931 78.0687C143.716 77.6791 143.438 77.38 143.089 77.1716C142.739 76.9722 142.363 76.8725 141.959 76.8725C141.556 76.8725 141.179 76.9722 140.83 77.1716C140.48 77.3709 140.193 77.6609 139.978 78.0416C139.763 78.4312 139.655 78.8844 139.655 79.4191C139.655 79.9447 139.763 80.4069 139.978 80.8056C140.193 81.2044 140.48 81.5125 140.83 81.7209C141.188 81.9294 141.565 82.0381 141.959 82.0381C142.363 82.0381 142.739 81.9294 143.089 81.73C143.438 81.5216 143.716 81.2225 143.931 80.8328C144.146 80.4341 144.254 79.9719 144.254 79.4462C144.254 78.9116 144.146 78.4584 143.931 78.0687ZM138.526 77.3709C138.84 76.7728 139.27 76.3106 139.817 75.9844C140.364 75.6581 140.964 75.495 141.628 75.495C142.219 75.495 142.739 75.6128 143.187 75.8484C143.636 76.0841 143.985 76.3741 144.254 76.7275V75.6128H145.841V83.2887H144.254V82.1469C143.985 82.5094 143.627 82.8084 143.169 83.0531C142.712 83.2887 142.183 83.4156 141.601 83.4156C140.946 83.4156 140.346 83.2434 139.808 82.9081C139.27 82.5637 138.84 82.0925 138.526 81.4853C138.203 80.8781 138.051 80.1894 138.051 79.4191C138.051 78.6487 138.203 77.96 138.526 77.3709Z" fill="black"/>
<path d="M149.471 83.2887H147.903V75.6127H149.471V83.2887ZM147.992 74.3077C147.795 74.1084 147.705 73.8727 147.705 73.5827C147.705 73.3018 147.795 73.0571 147.992 72.8577C148.18 72.6674 148.422 72.5677 148.7 72.5677C148.978 72.5677 149.211 72.6674 149.409 72.8577C149.597 73.0571 149.695 73.3018 149.695 73.5827C149.695 73.8727 149.597 74.1084 149.409 74.3077C149.211 74.4981 148.978 74.5977 148.7 74.5977C148.422 74.5977 148.18 74.4981 147.992 74.3077Z" fill="black"/>
<path d="M154.025 75.8212C154.411 75.6037 154.859 75.4858 155.388 75.4858V77.1352H154.985C154.366 77.1352 153.9 77.2893 153.586 77.6065C153.272 77.9237 153.111 78.4674 153.111 79.2468V83.2887H151.542V75.6127H153.111V76.7274C153.344 76.3377 153.649 76.0387 154.025 75.8212Z" fill="black"/>
<path d="M162.138 78.7666C162.129 78.1775 161.923 77.7062 161.52 77.3619C161.125 76.9994 160.623 76.8272 160.022 76.8272C159.485 76.8272 159.018 76.9994 158.633 77.3528C158.248 77.6972 158.014 78.1684 157.943 78.7666H162.138ZM163.725 80.0444H157.934C157.979 80.6516 158.203 81.15 158.606 81.5216C159.01 81.8931 159.503 82.0744 160.094 82.0744C160.937 82.0744 161.528 81.7209 161.887 81.005H163.572C163.348 81.7119 162.936 82.2919 162.326 82.7359C161.726 83.1891 160.982 83.4156 160.094 83.4156C159.368 83.4156 158.714 83.2525 158.149 82.9172C157.575 82.5909 157.118 82.1197 156.795 81.5216C156.464 80.9325 156.302 80.2347 156.302 79.4462C156.302 78.6578 156.464 77.96 156.777 77.3619C157.1 76.7637 157.539 76.3016 158.113 75.9753C158.687 75.6491 159.35 75.495 160.094 75.495C160.811 75.495 161.448 75.6491 162.004 75.9662C162.568 76.2834 162.999 76.7184 163.312 77.2894C163.626 77.8603 163.779 78.5219 163.779 79.265C163.779 79.555 163.761 79.8087 163.725 80.0444Z" fill="black"/>
<path d="M170.69 78.0687C170.475 77.679 170.188 77.3799 169.838 77.1715C169.489 76.9721 169.112 76.8724 168.709 76.8724C168.306 76.8724 167.929 76.9721 167.579 77.1715C167.239 77.3709 166.952 77.6609 166.737 78.0415C166.522 78.4312 166.414 78.8843 166.414 79.419C166.414 79.9446 166.522 80.4068 166.737 80.8056C166.952 81.2043 167.239 81.5124 167.588 81.7209C167.947 81.9293 168.314 82.0381 168.709 82.0381C169.112 82.0381 169.489 81.9293 169.838 81.7299C170.188 81.5215 170.475 81.2224 170.69 80.8327C170.905 80.434 171.013 79.9718 171.013 79.4462C171.013 78.9115 170.905 78.4584 170.69 78.0687ZM165.276 77.3709C165.589 76.7727 166.029 76.3106 166.566 75.9843C167.113 75.6581 167.723 75.4949 168.395 75.4949C168.888 75.4949 169.381 75.6037 169.865 75.8212C170.34 76.0387 170.726 76.3287 171.013 76.6912V72.9846H172.59V83.2887H171.013V82.1287C170.753 82.5002 170.403 82.8084 169.946 83.0531C169.489 83.2887 168.969 83.4156 168.386 83.4156C167.723 83.4156 167.113 83.2434 166.566 82.9081C166.029 82.5637 165.589 82.0924 165.276 81.4852C164.962 80.8781 164.8 80.1893 164.8 79.419C164.8 78.6487 164.962 77.9599 165.276 77.3709Z" fill="black"/>
<path d="M179.977 78.7666C179.968 78.1775 179.762 77.7062 179.358 77.3619C178.955 76.9994 178.453 76.8272 177.852 76.8272C177.315 76.8272 176.848 76.9994 176.463 77.3528C176.077 77.6972 175.853 78.1684 175.773 78.7666H179.977ZM181.555 80.0444H175.764C175.809 80.6516 176.033 81.15 176.436 81.5216C176.839 81.8931 177.341 82.0744 177.924 82.0744C178.767 82.0744 179.367 81.7209 179.717 81.005H181.402C181.178 81.7119 180.766 82.2919 180.165 82.7359C179.556 83.1891 178.812 83.4156 177.924 83.4156C177.198 83.4156 176.553 83.2525 175.979 82.9172C175.405 82.5909 174.957 82.1197 174.625 81.5216C174.303 80.9325 174.141 80.2347 174.141 79.4462C174.141 78.6578 174.294 77.96 174.607 77.3619C174.93 76.7637 175.369 76.3016 175.943 75.9753C176.517 75.6491 177.18 75.495 177.924 75.495C178.641 75.495 179.278 75.6491 179.834 75.9662C180.398 76.2834 180.829 76.7184 181.151 77.2894C181.456 77.8603 181.617 78.5219 181.617 79.265C181.617 79.555 181.6 79.8087 181.555 80.0444Z" fill="black"/>
<path d="M193.943 75.8666C194.419 76.1203 194.786 76.4919 195.055 76.9812C195.333 77.4706 195.467 78.0687 195.467 78.7666V83.2887H193.908V79.0022C193.908 78.3134 193.737 77.7878 193.406 77.4162C193.056 77.0537 192.599 76.8725 192.007 76.8725C191.425 76.8725 190.958 77.0537 190.618 77.4162C190.268 77.7878 190.098 78.3134 190.098 79.0022V83.2887H188.538V79.0022C188.538 78.3134 188.368 77.7878 188.036 77.4162C187.686 77.0537 187.229 76.8725 186.638 76.8725C186.055 76.8725 185.589 77.0537 185.239 77.4162C184.898 77.7878 184.728 78.3134 184.728 79.0022V83.2887H183.159V75.6219H184.728V76.4919C184.988 76.1837 185.311 75.93 185.705 75.7578C186.1 75.5766 186.521 75.495 186.969 75.495C187.579 75.495 188.117 75.6219 188.601 75.8847C189.076 76.1384 189.434 76.5191 189.694 77.0084C189.927 76.5462 190.286 76.1747 190.77 75.9028C191.254 75.6309 191.783 75.495 192.339 75.495C192.939 75.495 193.477 75.6219 193.943 75.8666Z" fill="black"/>
<path d="M202.773 78.7666C202.764 78.1775 202.558 77.7062 202.155 77.3619C201.752 76.9994 201.25 76.8272 200.658 76.8272C200.111 76.8272 199.654 76.9994 199.268 77.3528C198.883 77.6972 198.65 78.1684 198.578 78.7666H202.773ZM204.36 80.0444H198.56C198.614 80.6516 198.838 81.15 199.241 81.5216C199.645 81.8931 200.138 82.0744 200.721 82.0744C201.572 82.0744 202.164 81.7209 202.513 81.005H204.208C203.975 81.7119 203.562 82.2919 202.962 82.7359C202.361 83.1891 201.617 83.4156 200.721 83.4156C199.994 83.4156 199.349 83.2525 198.775 82.9172C198.202 82.5909 197.753 82.1197 197.422 81.5216C197.099 80.9325 196.938 80.2347 196.938 79.4462C196.938 78.6578 197.099 77.96 197.413 77.3619C197.735 76.7637 198.175 76.3016 198.748 75.9753C199.322 75.6491 199.986 75.495 200.721 75.495C201.438 75.495 202.074 75.6491 202.639 75.9662C203.204 76.2834 203.634 76.7184 203.948 77.2894C204.262 77.8603 204.414 78.5219 204.414 79.265C204.414 79.555 204.396 79.8087 204.36 80.0444Z" fill="black"/>
<path d="M207.112 83.0894C206.637 82.8628 206.261 82.5728 205.983 82.1922C205.714 81.8206 205.561 81.3947 205.543 80.9325H207.166C207.193 81.2587 207.345 81.5306 207.632 81.7481C207.91 81.9656 208.26 82.0744 208.681 82.0744C209.129 82.0744 209.461 81.9928 209.712 81.8206C209.954 81.6484 210.07 81.4219 210.07 81.1591C210.07 80.8691 209.936 80.6516 209.667 80.5156C209.398 80.3797 208.968 80.2256 208.385 80.0534C207.811 79.8994 207.345 79.7453 206.996 79.6003C206.628 79.4462 206.323 79.2197 206.063 78.9116C205.803 78.6125 205.669 78.2047 205.669 77.7062C205.669 77.2984 205.785 76.9269 206.028 76.5825C206.27 76.2472 206.61 75.9753 207.049 75.785C207.498 75.5856 208.009 75.495 208.591 75.495C209.452 75.495 210.151 75.7125 210.671 76.1566C211.2 76.5916 211.487 77.1987 211.523 77.9509H209.954C209.927 77.6156 209.784 77.3347 209.542 77.1353C209.291 76.9269 208.959 76.8272 208.538 76.8272C208.116 76.8272 207.802 76.9087 207.587 77.0628C207.363 77.2259 207.247 77.4253 207.247 77.6881C207.247 77.8966 207.327 78.0687 207.471 78.2047C207.623 78.3406 207.802 78.4584 208.009 78.5309C208.215 78.6125 208.538 78.7122 208.95 78.83C209.497 78.975 209.945 79.1291 210.303 79.2831C210.653 79.4372 210.958 79.6637 211.218 79.9628C211.469 80.2528 211.603 80.6516 211.621 81.1409C211.621 81.5759 211.496 81.9656 211.263 82.31C211.021 82.6544 210.68 82.9262 210.25 83.1166C209.81 83.3159 209.299 83.4156 208.717 83.4156C208.116 83.4156 207.578 83.3069 207.112 83.0894Z" fill="black"/>
<path d="M218.676 78.0687C218.461 77.679 218.174 77.3799 217.824 77.1715C217.475 76.9721 217.098 76.8724 216.695 76.8724C216.292 76.8724 215.915 76.9721 215.565 77.1715C215.216 77.3709 214.938 77.6609 214.723 78.0415C214.508 78.4312 214.4 78.8843 214.4 79.419C214.4 79.9446 214.508 80.4068 214.723 80.8056C214.938 81.2043 215.225 81.5124 215.574 81.7209C215.933 81.9293 216.3 82.0381 216.695 82.0381C217.098 82.0381 217.475 81.9293 217.824 81.7299C218.174 81.5215 218.461 81.2224 218.676 80.8327C218.891 80.434 218.999 79.9718 218.999 79.4462C218.999 78.9115 218.891 78.4584 218.676 78.0687ZM213.262 77.3709C213.575 76.7727 214.015 76.3106 214.561 75.9843C215.099 75.6581 215.709 75.4949 216.381 75.4949C216.874 75.4949 217.367 75.6037 217.851 75.8212C218.326 76.0387 218.712 76.3287 218.999 76.6912V72.9846H220.585V83.2887H218.999V82.1287C218.739 82.5002 218.38 82.8084 217.932 83.0531C217.475 83.2887 216.955 83.4156 216.363 83.4156C215.709 83.4156 215.099 83.2434 214.561 82.9081C214.015 82.5637 213.575 82.0924 213.262 81.4852C212.948 80.8781 212.786 80.1893 212.786 79.419C212.786 78.6487 212.948 77.9599 213.262 77.3709Z" fill="black"/>
<path d="M227.963 78.7666C227.954 78.1775 227.748 77.7062 227.345 77.3619C226.941 76.9994 226.439 76.8272 225.839 76.8272C225.301 76.8272 224.835 76.9994 224.449 77.3528C224.064 77.6972 223.831 78.1684 223.759 78.7666H227.963ZM229.541 80.0444H223.75C223.795 80.6516 224.019 81.15 224.422 81.5216C224.826 81.8931 225.328 82.0744 225.91 82.0744C226.753 82.0744 227.354 81.7209 227.703 81.005H229.388C229.164 81.7119 228.752 82.2919 228.142 82.7359C227.542 83.1891 226.798 83.4156 225.91 83.4156C225.184 83.4156 224.539 83.2525 223.965 82.9172C223.391 82.5909 222.943 82.1197 222.611 81.5216C222.289 80.9325 222.118 80.2347 222.118 79.4462C222.118 78.6578 222.28 77.96 222.602 77.3619C222.916 76.7637 223.364 76.3016 223.938 75.9753C224.512 75.6491 225.166 75.495 225.91 75.495C226.627 75.495 227.264 75.6491 227.82 75.9662C228.384 76.2834 228.815 76.7184 229.137 77.2894C229.442 77.8603 229.604 78.5219 229.604 79.265C229.604 79.555 229.577 79.8087 229.541 80.0444Z" fill="black"/>
<path d="M231.092 77.3618C231.414 76.7637 231.845 76.3015 232.409 75.9752C232.965 75.658 233.611 75.4858 234.337 75.4858C235.251 75.4858 236.013 75.7124 236.614 76.1565C237.214 76.5915 237.627 77.2168 237.833 78.0415H236.139C236.004 77.6608 235.78 77.3618 235.475 77.1443C235.179 76.9358 234.794 76.8271 234.337 76.8271C233.691 76.8271 233.18 77.0537 232.804 77.5158C232.418 77.978 232.23 78.6215 232.23 79.4462C232.23 80.2708 232.418 80.9143 232.804 81.3765C233.18 81.8477 233.691 82.0743 234.337 82.0743C235.251 82.0743 235.843 81.6665 236.139 80.869H237.833C237.618 81.6483 237.196 82.2646 236.596 82.7268C235.986 83.1799 235.242 83.4065 234.337 83.4065C233.611 83.4065 232.965 83.2433 232.409 82.9171C231.845 82.5908 231.414 82.1287 231.092 81.5305C230.778 80.9233 230.617 80.2346 230.617 79.4462C230.617 78.6577 230.778 77.9599 231.092 77.3618Z" fill="black"/>
<path d="M244.879 75.8665C245.336 76.1202 245.686 76.4918 245.946 76.9812C246.215 77.4706 246.349 78.0687 246.349 78.7665V83.2887H244.789V79.0021C244.789 78.3134 244.619 77.7877 244.278 77.4162C243.938 77.0537 243.471 76.8724 242.889 76.8724C242.297 76.8724 241.831 77.0537 241.49 77.4162C241.15 77.7877 240.97 78.3134 240.97 79.0021V83.2887H239.402V72.9846H240.97V76.5099C241.239 76.1837 241.58 75.9299 241.983 75.7577C242.396 75.5765 242.844 75.4949 243.328 75.4949C243.902 75.4949 244.422 75.6218 244.879 75.8665Z" fill="black"/>
<path d="M253.655 78.7666C253.646 78.1775 253.44 77.7062 253.036 77.3619C252.633 76.9994 252.131 76.8272 251.53 76.8272C250.993 76.8272 250.526 76.9994 250.141 77.3528C249.755 77.6972 249.531 78.1684 249.451 78.7666H253.655ZM255.242 80.0444H249.442C249.487 80.6516 249.711 81.15 250.114 81.5216C250.517 81.8931 251.01 82.0744 251.602 82.0744C252.445 82.0744 253.045 81.7209 253.395 81.005H255.089C254.856 81.7119 254.444 82.2919 253.843 82.7359C253.234 83.1891 252.49 83.4156 251.602 83.4156C250.876 83.4156 250.231 83.2525 249.657 82.9172C249.083 82.5909 248.626 82.1197 248.303 81.5216C247.981 80.9325 247.819 80.2347 247.819 79.4462C247.819 78.6578 247.972 77.96 248.294 77.3619C248.608 76.7637 249.056 76.3016 249.63 75.9753C250.204 75.6491 250.858 75.495 251.602 75.495C252.319 75.495 252.956 75.6491 253.52 75.9662C254.076 76.2834 254.516 76.7184 254.829 77.2894C255.134 77.8603 255.286 78.5219 255.286 79.265C255.286 79.555 255.277 79.8087 255.242 80.0444Z" fill="black"/>
<path d="M258.666 76.9087V81.159C258.666 81.4399 258.729 81.6483 258.863 81.7752C258.998 81.9021 259.222 81.9655 259.545 81.9655H260.513V83.2887H259.276C258.567 83.2887 258.021 83.1165 257.644 82.7812C257.268 82.4549 257.079 81.9112 257.079 81.159V76.9087H256.192V75.6127H257.079V73.7096H258.666V75.6127H260.513V76.9087" fill="black"/>
<path d="M263.112 83.0894C262.637 82.8628 262.261 82.5728 261.983 82.1922C261.714 81.8206 261.562 81.3947 261.544 80.9325H263.166C263.202 81.2587 263.345 81.5306 263.632 81.7481C263.91 81.9656 264.26 82.0744 264.681 82.0744C265.129 82.0744 265.47 81.9928 265.712 81.8206C265.954 81.6484 266.08 81.4219 266.08 81.1591C266.08 80.8691 265.936 80.6516 265.667 80.5156C265.398 80.3797 264.968 80.2256 264.385 80.0534C263.812 79.8994 263.345 79.7453 262.996 79.6003C262.637 79.4462 262.324 79.2197 262.064 78.9116C261.804 78.6125 261.669 78.2047 261.669 77.7062C261.669 77.2984 261.786 76.9269 262.028 76.5825C262.27 76.2472 262.61 75.9753 263.05 75.785C263.498 75.5856 264.009 75.495 264.592 75.495C265.452 75.495 266.151 75.7125 266.671 76.1566C267.2 76.5916 267.487 77.1987 267.523 77.9509H265.954C265.927 77.6156 265.784 77.3347 265.542 77.1353C265.291 76.9269 264.959 76.8272 264.538 76.8272C264.116 76.8272 263.803 76.9087 263.588 77.0628C263.363 77.2259 263.247 77.4253 263.247 77.6881C263.247 77.8966 263.328 78.0687 263.471 78.2047C263.623 78.3406 263.803 78.4584 264.009 78.5309C264.224 78.6125 264.538 78.7122 264.95 78.83C265.497 78.975 265.945 79.1291 266.304 79.2831C266.653 79.4372 266.958 79.6637 267.218 79.9628C267.478 80.2528 267.612 80.6516 267.621 81.1409C267.621 81.5759 267.496 81.9656 267.263 82.31C267.021 82.6544 266.68 82.9262 266.25 83.1166C265.811 83.3159 265.3 83.4156 264.717 83.4156C264.116 83.4156 263.579 83.3069 263.112 83.0894Z" fill="black"/>
<path d="M269.226 83.0892C269.038 82.8989 268.939 82.6542 268.939 82.3642C268.939 82.0833 269.038 81.8386 269.226 81.6483C269.423 81.4489 269.656 81.3492 269.943 81.3492C270.221 81.3492 270.454 81.4489 270.651 81.6483C270.84 81.8386 270.938 82.0833 270.938 82.3642C270.938 82.6542 270.84 82.8989 270.651 83.0892C270.454 83.2886 270.221 83.3883 269.943 83.3883C269.656 83.3883 269.423 83.2886 269.226 83.0892Z" fill="black"/>
<path d="M275.815 76.9087H274.407V83.2887H272.821V76.9087H271.924V75.6127H272.821V75.078C272.821 74.1899 273.054 73.5465 273.52 73.1477C273.986 72.7399 274.712 72.5405 275.698 72.5405V73.8637C275.223 73.8637 274.892 73.9543 274.694 74.1355C274.506 74.3168 274.407 74.6249 274.407 75.078V75.6127H275.815" fill="black"/>
<path d="M279.687 75.8212C280.064 75.6037 280.521 75.4858 281.041 75.4858V77.1352H280.647C280.028 77.1352 279.562 77.2893 279.248 77.6065C278.925 77.9237 278.773 78.4674 278.773 79.2468V83.2887H277.204V75.6127H278.773V76.7274C278.997 76.3377 279.302 76.0387 279.687 75.8212Z" fill="black"/>
</svg>
