<svg width="337" height="61" viewBox="0 0 337 61" fill="none" xmlns="http://www.w3.org/2000/svg">
<g clip-path="url(#clip0_221_255)">
<path d="M24.6979 60.4688C11.0781 60.4688 0 49.5208 0 36.0625V0H311.5C325.115 0 336.193 10.9479 336.193 24.4062V60.4688" fill="white"/>
<path d="M222.083 52.9114H69.1353C59.6874 52.9114 51.9999 45.3541 51.9999 36.0625V7.55725H204.948C214.396 7.55725 222.083 15.1145 222.083 24.4062V52.9114ZM204.948 5.66663H50.1145V36.0625C50.1145 46.3958 58.6458 54.802 69.1353 54.802H223.969V24.4062C223.969 14.0729 215.437 5.66663 204.948 5.66663Z" fill="#6B5B4A"/>
<path d="M196.714 54.802L209.724 28.2239L196.432 5.66663H310.479C320.969 5.66663 329.5 14.0729 329.5 24.4062V54.802" fill="#6B5B4A"/>
<path d="M102.901 5.66663H50.1145V36.0625C50.1145 46.3958 58.6458 54.802 69.1353 54.802H121.927V24.4062C121.927 14.0729 113.391 5.66663 102.901 5.66663Z" fill="#6B5B4A"/>
<path d="M63.651 29.3594C58.8489 29.3594 54.9583 33.25 54.9583 38.0521C54.9583 42.8542 58.8489 46.7448 63.651 46.7448C68.4583 46.7448 72.3489 42.8542 72.3489 38.0521C72.3489 33.25 68.4583 29.3594 63.651 29.3594Z" fill="white"/>
<path d="M69.3229 39.4688H65.0729V43.7188H62.2344V39.4688H57.9844V36.6355H62.2344V32.3802H65.0729V36.6355H69.3229" fill="#1C1C1B"/>
<path d="M55.7864 26.5937V17.1979H58.2708V24.5156H61.828V26.5937" fill="white"/>
<path d="M62.9426 26.5937V17.1979H69.0155V19.276H65.4322V20.7552H68.4947V22.8385H65.4322V24.5156H69.1614V26.5937" fill="white"/>
<path d="M75.0885 26.5937V19.276H72.6041V17.1979H80.0677V19.276H77.5781V26.5937" fill="white"/>
<path d="M83.5521 21.4739H84.4479C85.4479 21.4739 85.9531 21.0625 85.9531 20.2343C85.9531 19.8281 85.8229 19.5468 85.5677 19.3958C85.3125 19.2395 84.9375 19.1614 84.4479 19.1614H83.5521V21.4739ZM81.0625 26.5989V17.1979H84.6198C85.125 17.1979 85.6042 17.2448 86.0625 17.3385C86.5208 17.4375 86.9167 17.5989 87.2604 17.8333C87.6042 18.0625 87.875 18.375 88.0781 18.7656C88.2813 19.1562 88.3802 19.6458 88.3802 20.2343C88.3802 20.9062 88.2448 21.4687 87.9688 21.9114C87.6979 22.3541 87.3281 22.6979 86.8646 22.9531L88.901 26.5989H86.125L84.5052 23.4427H83.5521V26.5989" fill="white"/>
<path d="M89.8698 26.5989H92.3593V17.1979H89.8698V26.5989Z" fill="white"/>
<path d="M75.3801 43.276V33.8698H81.5103V35.9531H77.8697V37.75H80.9895V39.8333H77.8697V43.276" fill="white"/>
<path d="M84.9218 38.7031L84.7604 39.3541H86.4948L86.3385 38.7031C86.2239 38.25 86.1041 37.7604 85.9895 37.2291C85.875 36.6979 85.7604 36.1979 85.6406 35.7239H85.5833C85.4791 36.2031 85.3698 36.7083 85.2604 37.2343C85.151 37.7604 85.0364 38.25 84.9218 38.7031ZM81.3073 43.276L84.1666 33.8698H87.1718L90.0364 43.276H87.4062L86.9427 41.276H84.3125L83.8489 43.276" fill="white"/>
<path d="M94.5624 43.4479C93.9687 43.4479 93.3958 43.3489 92.8541 43.151C92.3072 42.9531 91.8333 42.651 91.4218 42.2552C91.0103 41.8541 90.6822 41.3541 90.4426 40.75C90.203 40.1458 90.0833 39.4479 90.0833 38.6458C90.0833 37.8541 90.2083 37.151 90.4583 36.5416C90.7083 35.927 91.0416 35.4114 91.4635 34.9948C91.8801 34.5729 92.3645 34.25 92.9114 34.0312C93.4583 33.8073 94.026 33.6979 94.6249 33.6979C95.2499 33.6979 95.8124 33.8229 96.302 34.0677C96.7968 34.3125 97.2083 34.6041 97.5468 34.9427L96.2447 36.5312C96.0155 36.3333 95.776 36.1666 95.5312 36.0312C95.2812 35.9062 94.9999 35.8385 94.6822 35.8385C94.401 35.8385 94.1405 35.901 93.8958 36.026C93.651 36.151 93.4322 36.3333 93.2447 36.5625C93.0572 36.7916 92.9062 37.0781 92.7968 37.4166C92.6822 37.75 92.6301 38.1354 92.6301 38.5573C92.6301 39.4479 92.8124 40.125 93.1874 40.5989C93.5572 41.0677 94.0468 41.3073 94.651 41.3073C95.0208 41.3073 95.3437 41.2291 95.6301 41.0677C95.9114 40.9062 96.1562 40.7187 96.3593 40.4948L97.6614 42.0573C97.2551 42.5208 96.7916 42.8698 96.2655 43.0989C95.7395 43.3333 95.1718 43.4479 94.5624 43.4479Z" fill="white"/>
<path d="M98.6198 43.276H101.104V33.8698H98.6198V43.276Z" fill="white"/>
<path d="M102.875 43.276V33.8698H105.365V41.1927H108.922V43.276" fill="white"/>
<path d="M110.031 43.276V33.8698H116.109V35.9531H112.521V37.4323H115.589V39.5156H112.521V41.1927H116.255V43.276" fill="white"/>
<path d="M28.4062 25.7448C26.7135 28.2343 28.151 31.5104 29.8958 33.1718C31.4895 34.6823 32.7655 35.0364 32.9322 35.0781L33.7447 33.5208L36.0885 39.9323L29.4635 41.2812L30.3437 39.6458L29.4478 39.1458C26.6562 37.3281 26.0676 34.8593 25.8749 34.0885C25.5416 32.7604 25.0468 28.7864 28.4062 25.7448Z" fill="#6B5B4A"/>
<path d="M28.375 25.8489C29.5781 28.6093 33.1146 29.1406 35.4479 28.552C37.5208 28.026 38.5052 27.1718 38.6719 27.0156L38.6615 27L37.776 25.4635L44.4427 26.9218L42.0312 33.2395L41.1354 31.6458L40.2656 32.1198C37.2396 33.5104 34.8333 32.6927 34.0781 32.4427C32.7813 32.0156 29.1562 30.3125 28.375 25.8489Z" fill="#6B5B4A"/>
<path d="M40.1613 19.1927C39.6978 22.4895 37.7134 24.0729 37.0936 24.5729C36.0311 25.4375 32.6457 27.5677 28.4634 25.8177C31.4373 26.2916 33.7967 23.6041 34.5571 21.3177C35.2446 19.2656 35.0415 17.9687 34.9998 17.7708L34.979 17.7656L33.2134 17.6927L38.0259 12.8541L42.0519 18.2864L40.2342 18.1823" fill="#6B5B4A"/>
<path fill-rule="evenodd" clip-rule="evenodd" d="M19.9375 16.4115C18.4167 16.4115 17.1875 15.1823 17.1875 13.6562C17.1875 12.1354 18.4167 10.9062 19.9375 10.9062C21.4583 10.9062 22.6927 12.1354 22.6927 13.6562C22.6927 15.1823 21.4583 16.4115 19.9375 16.4115Z" fill="#6B5B4A"/>
<path d="M15.6771 29.7968C15.9115 29.151 16.2604 29.1927 16.2604 29.1927C16.2604 29.1927 16.5781 29.125 16.7552 29.7708L19.3281 38.8073C17.1823 38.1823 15.224 37.1198 13.5573 35.7083L15.6771 29.7968ZM23.7031 5.66663C13.7604 5.66663 5.67188 13.7552 5.67188 23.6979C5.67188 33.6406 13.7604 41.7291 23.7031 41.7291C24.2344 41.7291 24.7552 41.6979 25.276 41.651L25.3958 43.4635L28.6979 40.2708L25.0052 37.4531L25.1458 39.3541C24.6719 39.401 24.1875 39.4323 23.7031 39.4323C22.9375 39.4323 22.1875 39.375 21.4531 39.2656L21.3802 38.7864L19.6667 24.1875C19.4323 21.4323 21.0052 20.9948 21.9792 21.4062L27.4479 23.6041C28.0729 23.875 28.375 23.3489 28.375 23.3489C28.375 23.3489 28.7292 22.802 28.0938 22.3958C28.0938 22.3958 20.6406 17.4583 19.0521 17.1562C16.8854 16.7552 14.7396 18.5104 14.2656 20.7968L11.6198 33.7604C9.34375 31.0312 7.96875 27.5208 7.96875 23.6979C7.96875 15.0208 15.026 7.9635 23.7031 7.9635C28.3385 7.9635 32.5104 9.97913 35.3906 13.177L37.0052 11.5364C33.7083 7.93225 28.9635 5.66663 23.7031 5.66663Z" fill="#6B5B4A"/>
<path d="M130.608 22.152H131.12C131.323 22.152 131.485 22.1173 131.608 22.048C131.731 21.9787 131.827 21.864 131.896 21.704C131.971 21.544 132.019 21.3333 132.04 21.072C132.067 20.8107 132.08 20.4853 132.08 20.096C132.08 19.7707 132.069 19.4853 132.048 19.24C132.027 18.9947 131.981 18.792 131.912 18.632C131.848 18.4667 131.749 18.344 131.616 18.264C131.488 18.1787 131.315 18.136 131.096 18.136H130.608V22.152ZM129.456 17.288H131.344C131.744 17.288 132.067 17.3547 132.312 17.488C132.557 17.616 132.747 17.8027 132.88 18.048C133.019 18.288 133.112 18.5787 133.16 18.92C133.208 19.2613 133.232 19.6427 133.232 20.064C133.232 20.5653 133.2 21.0027 133.136 21.376C133.077 21.744 132.973 22.048 132.824 22.288C132.675 22.528 132.475 22.7067 132.224 22.824C131.973 22.9413 131.656 23 131.272 23H129.456V17.288ZM135.53 15.8H136.634L135.85 16.952H135.098L135.53 15.8ZM137.186 17.288V18.232H135.146V19.576H137.066V20.52H135.146V22.056H137.266V23H133.994V17.288H137.186ZM140.285 19.216C140.285 18.8 140.235 18.4987 140.133 18.312C140.037 18.12 139.859 18.024 139.597 18.024C139.453 18.024 139.333 18.064 139.237 18.144C139.147 18.2187 139.075 18.344 139.021 18.52C138.968 18.6907 138.931 18.9173 138.909 19.2C138.888 19.4773 138.877 19.8187 138.877 20.224C138.877 20.656 138.891 21.0053 138.917 21.272C138.949 21.5387 138.995 21.7467 139.053 21.896C139.117 22.04 139.195 22.1387 139.285 22.192C139.381 22.24 139.491 22.264 139.613 22.264C139.715 22.264 139.808 22.248 139.893 22.216C139.984 22.1787 140.061 22.1093 140.125 22.008C140.189 21.9013 140.24 21.7547 140.277 21.568C140.315 21.376 140.333 21.1253 140.333 20.816H141.485C141.485 21.1253 141.461 21.4187 141.413 21.696C141.365 21.9733 141.275 22.216 141.141 22.424C141.013 22.632 140.829 22.7947 140.589 22.912C140.355 23.0293 140.048 23.088 139.669 23.088C139.237 23.088 138.893 23.0187 138.637 22.88C138.381 22.7413 138.184 22.5413 138.045 22.28C137.912 22.0187 137.824 21.7067 137.781 21.344C137.744 20.9813 137.725 20.5813 137.725 20.144C137.725 19.712 137.744 19.3147 137.781 18.952C137.824 18.584 137.912 18.2693 138.045 18.008C138.184 17.7467 138.381 17.544 138.637 17.4C138.893 17.2507 139.237 17.176 139.669 17.176C140.08 17.176 140.403 17.2427 140.637 17.376C140.877 17.5093 141.056 17.68 141.173 17.888C141.291 18.0907 141.363 18.312 141.389 18.552C141.421 18.7867 141.437 19.008 141.437 19.216H140.285ZM142.142 17.288H143.294V19.472H144.638V17.288H145.79V23H144.638V20.464H143.294V23H142.142V17.288ZM149.78 17.288V18.232H147.74V19.576H149.66V20.52H147.74V22.056H149.86V23H146.588V17.288H149.78ZM153.783 17.288V18.232H152.535V23H151.383V18.232H150.135V17.288H153.783ZM155.211 21.216V21.384C155.211 21.5173 155.221 21.64 155.243 21.752C155.264 21.8587 155.304 21.9493 155.363 22.024C155.421 22.0987 155.499 22.1573 155.595 22.2C155.696 22.2427 155.821 22.264 155.971 22.264C156.147 22.264 156.304 22.208 156.443 22.096C156.587 21.9787 156.659 21.8 156.659 21.56C156.659 21.432 156.64 21.3227 156.603 21.232C156.571 21.136 156.515 21.0507 156.435 20.976C156.355 20.9013 156.248 20.8347 156.115 20.776C155.987 20.712 155.827 20.648 155.635 20.584C155.379 20.4987 155.157 20.4053 154.971 20.304C154.784 20.2027 154.627 20.0853 154.499 19.952C154.376 19.8133 154.285 19.656 154.227 19.48C154.168 19.2987 154.139 19.0907 154.139 18.856C154.139 18.2907 154.296 17.8693 154.611 17.592C154.925 17.3147 155.357 17.176 155.907 17.176C156.163 17.176 156.397 17.2053 156.611 17.264C156.829 17.3173 157.016 17.408 157.171 17.536C157.331 17.6587 157.453 17.8187 157.539 18.016C157.629 18.208 157.675 18.44 157.675 18.712V18.872H156.571C156.571 18.6 156.523 18.392 156.427 18.248C156.331 18.0987 156.171 18.024 155.947 18.024C155.819 18.024 155.712 18.0427 155.627 18.08C155.541 18.1173 155.472 18.168 155.419 18.232C155.371 18.2907 155.336 18.36 155.315 18.44C155.299 18.52 155.291 18.6027 155.291 18.688C155.291 18.864 155.328 19.0133 155.403 19.136C155.477 19.2533 155.637 19.3627 155.883 19.464L156.771 19.848C156.989 19.944 157.168 20.0453 157.307 20.152C157.445 20.2533 157.555 20.3653 157.635 20.488C157.72 20.6053 157.779 20.736 157.811 20.88C157.843 21.024 157.859 21.184 157.859 21.36C157.859 21.9627 157.683 22.4027 157.331 22.68C156.984 22.952 156.499 23.088 155.875 23.088C155.224 23.088 154.757 22.9467 154.475 22.664C154.197 22.3813 154.059 21.976 154.059 21.448V21.216H155.211ZM161.561 22.152H162.073C162.276 22.152 162.438 22.1173 162.561 22.048C162.684 21.9787 162.78 21.864 162.849 21.704C162.924 21.544 162.972 21.3333 162.993 21.072C163.02 20.8107 163.033 20.4853 163.033 20.096C163.033 19.7707 163.022 19.4853 163.001 19.24C162.98 18.9947 162.934 18.792 162.865 18.632C162.801 18.4667 162.702 18.344 162.569 18.264C162.441 18.1787 162.268 18.136 162.049 18.136H161.561V22.152ZM160.409 17.288H162.297C162.697 17.288 163.02 17.3547 163.265 17.488C163.51 17.616 163.7 17.8027 163.833 18.048C163.972 18.288 164.065 18.5787 164.113 18.92C164.161 19.2613 164.185 19.6427 164.185 20.064C164.185 20.5653 164.153 21.0027 164.089 21.376C164.03 21.744 163.926 22.048 163.777 22.288C163.628 22.528 163.428 22.7067 163.177 22.824C162.926 22.9413 162.609 23 162.225 23H160.409V17.288ZM168.139 17.288V18.232H166.099V19.576H168.019V20.52H166.099V22.056H168.219V23H164.947V17.288H168.139ZM130.552 29.872H131.064C131.293 29.872 131.477 29.8027 131.616 29.664C131.76 29.5253 131.832 29.3093 131.832 29.016C131.832 28.728 131.771 28.5093 131.648 28.36C131.525 28.2107 131.32 28.136 131.032 28.136H130.552V29.872ZM129.4 27.288H131.416C131.709 27.288 131.955 27.3387 132.152 27.44C132.355 27.536 132.517 27.664 132.64 27.824C132.763 27.984 132.851 28.168 132.904 28.376C132.957 28.5787 132.984 28.7867 132.984 29C132.984 29.2933 132.939 29.5493 132.848 29.768C132.763 29.9867 132.64 30.1653 132.48 30.304C132.325 30.4427 132.136 30.5467 131.912 30.616C131.688 30.6853 131.44 30.72 131.168 30.72H130.552V33H129.4V27.288ZM133.548 27.288H135.676C136.156 27.288 136.53 27.4107 136.796 27.656C137.063 27.896 137.196 28.264 137.196 28.76C137.196 29.144 137.119 29.4587 136.964 29.704C136.81 29.944 136.57 30.0987 136.244 30.168V30.184C136.532 30.2267 136.743 30.32 136.876 30.464C137.01 30.608 137.092 30.84 137.124 31.16C137.135 31.2667 137.143 31.384 137.148 31.512C137.154 31.6347 137.159 31.7733 137.164 31.928C137.175 32.232 137.191 32.464 137.212 32.624C137.244 32.784 137.314 32.8933 137.42 32.952V33H136.172C136.114 32.92 136.076 32.8293 136.06 32.728C136.044 32.6213 136.034 32.512 136.028 32.4L135.996 31.304C135.986 31.08 135.93 30.904 135.828 30.776C135.727 30.648 135.556 30.584 135.316 30.584H134.7V33H133.548V27.288ZM134.7 29.784H135.18C135.458 29.784 135.671 29.72 135.82 29.592C135.97 29.4587 136.044 29.2373 136.044 28.928C136.044 28.4 135.778 28.136 135.244 28.136H134.7V29.784ZM139.53 25.8H140.634L139.85 26.952H139.098L139.53 25.8ZM141.186 27.288V28.232H139.146V29.576H141.066V30.52H139.146V32.056H141.266V33H137.994V27.288H141.186ZM142.997 29.872H143.509C143.739 29.872 143.923 29.8027 144.061 29.664C144.205 29.5253 144.277 29.3093 144.277 29.016C144.277 28.728 144.216 28.5093 144.093 28.36C143.971 28.2107 143.765 28.136 143.477 28.136H142.997V29.872ZM141.845 27.288H143.861C144.155 27.288 144.4 27.3387 144.597 27.44C144.8 27.536 144.963 27.664 145.085 27.824C145.208 27.984 145.296 28.168 145.349 28.376C145.403 28.5787 145.429 28.7867 145.429 29C145.429 29.2933 145.384 29.5493 145.293 29.768C145.208 29.9867 145.085 30.1653 144.925 30.304C144.771 30.4427 144.581 30.5467 144.357 30.616C144.133 30.6853 143.885 30.72 143.613 30.72H142.997V33H141.845V27.288ZM148.081 30.848L147.529 28.28H147.513L146.961 30.848H148.081ZM148.233 27.288L149.745 33H148.545L148.281 31.792H146.761L146.497 33H145.297L146.809 27.288H148.233ZM150.142 27.288H152.27C152.75 27.288 153.124 27.4107 153.39 27.656C153.657 27.896 153.79 28.264 153.79 28.76C153.79 29.144 153.713 29.4587 153.558 29.704C153.404 29.944 153.164 30.0987 152.838 30.168V30.184C153.126 30.2267 153.337 30.32 153.47 30.464C153.604 30.608 153.686 30.84 153.718 31.16C153.729 31.2667 153.737 31.384 153.742 31.512C153.748 31.6347 153.753 31.7733 153.758 31.928C153.769 32.232 153.785 32.464 153.806 32.624C153.838 32.784 153.908 32.8933 154.014 32.952V33H152.766C152.708 32.92 152.67 32.8293 152.654 32.728C152.638 32.6213 152.628 32.512 152.622 32.4L152.59 31.304C152.58 31.08 152.524 30.904 152.422 30.776C152.321 30.648 152.15 30.584 151.91 30.584H151.294V33H150.142V27.288ZM151.294 29.784H151.774C152.052 29.784 152.265 29.72 152.414 29.592C152.564 29.4587 152.638 29.2373 152.638 28.928C152.638 28.4 152.372 28.136 151.838 28.136H151.294V29.784ZM156.972 30.848L156.42 28.28H156.404L155.852 30.848H156.972ZM157.124 27.288L158.636 33H157.436L157.172 31.792H155.652L155.388 33H154.188L155.7 27.288H157.124ZM161.939 27.288V28.232H160.691V33H159.539V28.232H158.291V27.288H161.939ZM162.495 33V27.288H163.647V33H162.495ZM165.534 30.144C165.534 30.528 165.542 30.856 165.558 31.128C165.579 31.3947 165.616 31.6133 165.67 31.784C165.728 31.9493 165.808 32.072 165.91 32.152C166.016 32.2267 166.155 32.264 166.326 32.264C166.496 32.264 166.632 32.2267 166.734 32.152C166.84 32.072 166.92 31.9493 166.974 31.784C167.032 31.6133 167.07 31.3947 167.086 31.128C167.107 30.856 167.118 30.528 167.118 30.144C167.118 29.76 167.107 29.4347 167.086 29.168C167.07 28.9013 167.032 28.6827 166.974 28.512C166.92 28.3413 166.84 28.2187 166.734 28.144C166.632 28.064 166.496 28.024 166.326 28.024C166.155 28.024 166.016 28.064 165.91 28.144C165.808 28.2187 165.728 28.3413 165.67 28.512C165.616 28.6827 165.579 28.9013 165.558 29.168C165.542 29.4347 165.534 29.76 165.534 30.144ZM164.382 30.144C164.382 29.712 164.4 29.3147 164.438 28.952C164.48 28.584 164.568 28.2693 164.702 28.008C164.84 27.7467 165.038 27.544 165.294 27.4C165.55 27.2507 165.894 27.176 166.326 27.176C166.758 27.176 167.102 27.2507 167.358 27.4C167.614 27.544 167.808 27.7467 167.942 28.008C168.08 28.2693 168.168 28.584 168.206 28.952C168.248 29.3147 168.27 29.712 168.27 30.144C168.27 30.5813 168.248 30.9813 168.206 31.344C168.168 31.7067 168.08 32.0187 167.942 32.28C167.808 32.5413 167.614 32.7413 167.358 32.88C167.102 33.0187 166.758 33.088 166.326 33.088C165.894 33.088 165.55 33.0187 165.294 32.88C165.038 32.7413 164.84 32.5413 164.702 32.28C164.568 32.0187 164.48 31.7067 164.438 31.344C164.4 30.9813 164.382 30.5813 164.382 30.144ZM170.275 27.288L171.667 31.2H171.683V27.288H172.739V33H171.427L170.019 29H170.003V33H168.947V27.288H170.275ZM132.592 37.288V38.232H130.552V39.576H132.472V40.52H130.552V42.056H132.672V43H129.4V37.288H132.592ZM136.596 37.288V38.232H135.348V43H134.196V38.232H132.948V37.288H136.596ZM139.017 37.288H141.145C141.625 37.288 141.999 37.4107 142.265 37.656C142.532 37.896 142.665 38.264 142.665 38.76C142.665 39.144 142.588 39.4587 142.433 39.704C142.279 39.944 142.039 40.0987 141.713 40.168V40.184C142.001 40.2267 142.212 40.32 142.345 40.464C142.479 40.608 142.561 40.84 142.593 41.16C142.604 41.2667 142.612 41.384 142.617 41.512C142.623 41.6347 142.628 41.7733 142.633 41.928C142.644 42.232 142.66 42.464 142.681 42.624C142.713 42.784 142.783 42.8933 142.889 42.952V43H141.641C141.583 42.92 141.545 42.8293 141.529 42.728C141.513 42.6213 141.503 42.512 141.497 42.4L141.465 41.304C141.455 41.08 141.399 40.904 141.297 40.776C141.196 40.648 141.025 40.584 140.785 40.584H140.169V43H139.017V37.288ZM140.169 39.784H140.649C140.927 39.784 141.14 39.72 141.289 39.592C141.439 39.4587 141.513 39.2373 141.513 38.928C141.513 38.4 141.247 38.136 140.713 38.136H140.169V39.784ZM146.655 37.288V38.232H144.615V39.576H146.535V40.52H144.615V42.056H146.735V43H143.463V37.288H146.655ZM148.242 41.216V41.384C148.242 41.5173 148.253 41.64 148.274 41.752C148.295 41.8587 148.335 41.9493 148.394 42.024C148.453 42.0987 148.53 42.1573 148.626 42.2C148.727 42.2427 148.853 42.264 149.002 42.264C149.178 42.264 149.335 42.208 149.474 42.096C149.618 41.9787 149.69 41.8 149.69 41.56C149.69 41.432 149.671 41.3227 149.634 41.232C149.602 41.136 149.546 41.0507 149.466 40.976C149.386 40.9013 149.279 40.8347 149.146 40.776C149.018 40.712 148.858 40.648 148.666 40.584C148.41 40.4987 148.189 40.4053 148.002 40.304C147.815 40.2027 147.658 40.0853 147.53 39.952C147.407 39.8133 147.317 39.656 147.258 39.48C147.199 39.2987 147.17 39.0907 147.17 38.856C147.17 38.2907 147.327 37.8693 147.642 37.592C147.957 37.3147 148.389 37.176 148.938 37.176C149.194 37.176 149.429 37.2053 149.642 37.264C149.861 37.3173 150.047 37.408 150.202 37.536C150.362 37.6587 150.485 37.8187 150.57 38.016C150.661 38.208 150.706 38.44 150.706 38.712V38.872H149.602C149.602 38.6 149.554 38.392 149.458 38.248C149.362 38.0987 149.202 38.024 148.978 38.024C148.85 38.024 148.743 38.0427 148.658 38.08C148.573 38.1173 148.503 38.168 148.45 38.232C148.402 38.2907 148.367 38.36 148.346 38.44C148.33 38.52 148.322 38.6027 148.322 38.688C148.322 38.864 148.359 39.0133 148.434 39.136C148.509 39.2533 148.669 39.3627 148.914 39.464L149.802 39.848C150.021 39.944 150.199 40.0453 150.338 40.152C150.477 40.2533 150.586 40.3653 150.666 40.488C150.751 40.6053 150.81 40.736 150.842 40.88C150.874 41.024 150.89 41.184 150.89 41.36C150.89 41.9627 150.714 42.4027 150.362 42.68C150.015 42.952 149.53 43.088 148.906 43.088C148.255 43.088 147.789 42.9467 147.506 42.664C147.229 42.3813 147.09 41.976 147.09 41.448V41.216H148.242ZM154.807 37.288V38.232H153.559V43H152.407V38.232H151.159V37.288H154.807ZM158.498 37.288V38.232H156.458V39.576H158.378V40.52H156.458V42.056H158.578V43H155.306V37.288H158.498ZM160.086 41.216V41.384C160.086 41.5173 160.096 41.64 160.118 41.752C160.139 41.8587 160.179 41.9493 160.238 42.024C160.296 42.0987 160.374 42.1573 160.47 42.2C160.571 42.2427 160.696 42.264 160.846 42.264C161.022 42.264 161.179 42.208 161.318 42.096C161.462 41.9787 161.534 41.8 161.534 41.56C161.534 41.432 161.515 41.3227 161.478 41.232C161.446 41.136 161.39 41.0507 161.31 40.976C161.23 40.9013 161.123 40.8347 160.99 40.776C160.862 40.712 160.702 40.648 160.51 40.584C160.254 40.4987 160.032 40.4053 159.846 40.304C159.659 40.2027 159.502 40.0853 159.374 39.952C159.251 39.8133 159.16 39.656 159.102 39.48C159.043 39.2987 159.014 39.0907 159.014 38.856C159.014 38.2907 159.171 37.8693 159.486 37.592C159.8 37.3147 160.232 37.176 160.782 37.176C161.038 37.176 161.272 37.2053 161.486 37.264C161.704 37.3173 161.891 37.408 162.046 37.536C162.206 37.6587 162.328 37.8187 162.414 38.016C162.504 38.208 162.55 38.44 162.55 38.712V38.872H161.446C161.446 38.6 161.398 38.392 161.302 38.248C161.206 38.0987 161.046 38.024 160.822 38.024C160.694 38.024 160.587 38.0427 160.502 38.08C160.416 38.1173 160.347 38.168 160.294 38.232C160.246 38.2907 160.211 38.36 160.19 38.44C160.174 38.52 160.166 38.6027 160.166 38.688C160.166 38.864 160.203 39.0133 160.278 39.136C160.352 39.2533 160.512 39.3627 160.758 39.464L161.646 39.848C161.864 39.944 162.043 40.0453 162.182 40.152C162.32 40.2533 162.43 40.3653 162.51 40.488C162.595 40.6053 162.654 40.736 162.686 40.88C162.718 41.024 162.734 41.184 162.734 41.36C162.734 41.9627 162.558 42.4027 162.206 42.68C161.859 42.952 161.374 43.088 160.75 43.088C160.099 43.088 159.632 42.9467 159.35 42.664C159.072 42.3813 158.934 41.976 158.934 41.448V41.216H160.086ZM166.436 42.152H166.948C167.151 42.152 167.313 42.1173 167.436 42.048C167.559 41.9787 167.655 41.864 167.724 41.704C167.799 41.544 167.847 41.3333 167.868 41.072C167.895 40.8107 167.908 40.4853 167.908 40.096C167.908 39.7707 167.897 39.4853 167.876 39.24C167.855 38.9947 167.809 38.792 167.74 38.632C167.676 38.4667 167.577 38.344 167.444 38.264C167.316 38.1787 167.143 38.136 166.924 38.136H166.436V42.152ZM165.284 37.288H167.172C167.572 37.288 167.895 37.3547 168.14 37.488C168.385 37.616 168.575 37.8027 168.708 38.048C168.847 38.288 168.94 38.5787 168.988 38.92C169.036 39.2613 169.06 39.6427 169.06 40.064C169.06 40.5653 169.028 41.0027 168.964 41.376C168.905 41.744 168.801 42.048 168.652 42.288C168.503 42.528 168.303 42.7067 168.052 42.824C167.801 42.9413 167.484 43 167.1 43H165.284V37.288ZM173.014 37.288V38.232H170.974V39.576H172.894V40.52H170.974V42.056H173.094V43H169.822V37.288H173.014ZM175.595 37.288H177.723C178.203 37.288 178.577 37.4107 178.843 37.656C179.11 37.896 179.243 38.264 179.243 38.76C179.243 39.144 179.166 39.4587 179.011 39.704C178.857 39.944 178.617 40.0987 178.291 40.168V40.184C178.579 40.2267 178.79 40.32 178.923 40.464C179.057 40.608 179.139 40.84 179.171 41.16C179.182 41.2667 179.19 41.384 179.195 41.512C179.201 41.6347 179.206 41.7733 179.211 41.928C179.222 42.232 179.238 42.464 179.259 42.624C179.291 42.784 179.361 42.8933 179.467 42.952V43H178.219C178.161 42.92 178.123 42.8293 178.107 42.728C178.091 42.6213 178.081 42.512 178.075 42.4L178.043 41.304C178.033 41.08 177.977 40.904 177.875 40.776C177.774 40.648 177.603 40.584 177.363 40.584H176.747V43H175.595V37.288ZM176.747 39.784H177.227C177.505 39.784 177.718 39.72 177.867 39.592C178.017 39.4587 178.091 39.2373 178.091 38.928C178.091 38.4 177.825 38.136 177.291 38.136H176.747V39.784ZM183.233 37.288V38.232H181.193V39.576H183.113V40.52H181.193V42.056H183.313V43H180.041V37.288H183.233ZM185.044 39.872H185.556C185.786 39.872 185.97 39.8027 186.108 39.664C186.252 39.5253 186.324 39.3093 186.324 39.016C186.324 38.728 186.263 38.5093 186.14 38.36C186.018 38.2107 185.812 38.136 185.524 38.136H185.044V39.872ZM183.892 37.288H185.908C186.202 37.288 186.447 37.3387 186.644 37.44C186.847 37.536 187.01 37.664 187.132 37.824C187.255 37.984 187.343 38.168 187.396 38.376C187.45 38.5787 187.476 38.7867 187.476 39C187.476 39.2933 187.431 39.5493 187.34 39.768C187.255 39.9867 187.132 40.1653 186.972 40.304C186.818 40.4427 186.628 40.5467 186.404 40.616C186.18 40.6853 185.932 40.72 185.66 40.72H185.044V43H183.892V37.288ZM190.128 40.848L189.576 38.28H189.56L189.008 40.848H190.128ZM190.28 37.288L191.792 43H190.592L190.328 41.792H188.808L188.544 43H187.344L188.856 37.288H190.28ZM193.117 41.216V41.384C193.117 41.5173 193.128 41.64 193.149 41.752C193.17 41.8587 193.21 41.9493 193.269 42.024C193.328 42.0987 193.405 42.1573 193.501 42.2C193.602 42.2427 193.728 42.264 193.877 42.264C194.053 42.264 194.21 42.208 194.349 42.096C194.493 41.9787 194.565 41.8 194.565 41.56C194.565 41.432 194.546 41.3227 194.509 41.232C194.477 41.136 194.421 41.0507 194.341 40.976C194.261 40.9013 194.154 40.8347 194.021 40.776C193.893 40.712 193.733 40.648 193.541 40.584C193.285 40.4987 193.064 40.4053 192.877 40.304C192.69 40.2027 192.533 40.0853 192.405 39.952C192.282 39.8133 192.192 39.656 192.133 39.48C192.074 39.2987 192.045 39.0907 192.045 38.856C192.045 38.2907 192.202 37.8693 192.517 37.592C192.832 37.3147 193.264 37.176 193.813 37.176C194.069 37.176 194.304 37.2053 194.517 37.264C194.736 37.3173 194.922 37.408 195.077 37.536C195.237 37.6587 195.36 37.8187 195.445 38.016C195.536 38.208 195.581 38.44 195.581 38.712V38.872H194.477C194.477 38.6 194.429 38.392 194.333 38.248C194.237 38.0987 194.077 38.024 193.853 38.024C193.725 38.024 193.618 38.0427 193.533 38.08C193.448 38.1173 193.378 38.168 193.325 38.232C193.277 38.2907 193.242 38.36 193.221 38.44C193.205 38.52 193.197 38.6027 193.197 38.688C193.197 38.864 193.234 39.0133 193.309 39.136C193.384 39.2533 193.544 39.3627 193.789 39.464L194.677 39.848C194.896 39.944 195.074 40.0453 195.213 40.152C195.352 40.2533 195.461 40.3653 195.541 40.488C195.626 40.6053 195.685 40.736 195.717 40.88C195.749 41.024 195.765 41.184 195.765 41.36C195.765 41.9627 195.589 42.4027 195.237 42.68C194.89 42.952 194.405 43.088 193.781 43.088C193.13 43.088 192.664 42.9467 192.381 42.664C192.104 42.3813 191.965 41.976 191.965 41.448V41.216H193.117Z" fill="black"/>
<path d="M212.548 49.13C211.863 49.13 211.339 48.935 210.975 48.545C210.62 48.155 210.442 47.6047 210.442 46.894V42.006C210.442 41.2953 210.62 40.745 210.975 40.355C211.339 39.965 211.863 39.77 212.548 39.77C213.233 39.77 213.753 39.965 214.108 40.355C214.472 40.745 214.654 41.2953 214.654 42.006V42.968H213.302V41.915C213.302 41.3517 213.064 41.07 212.587 41.07C212.11 41.07 211.872 41.3517 211.872 41.915V46.998C211.872 47.5527 212.11 47.83 212.587 47.83C213.064 47.83 213.302 47.5527 213.302 46.998V45.607H214.654V46.894C214.654 47.6047 214.472 48.155 214.108 48.545C213.753 48.935 213.233 49.13 212.548 49.13ZM217.602 49.13C216.9 49.13 216.363 48.9307 215.99 48.532C215.617 48.1333 215.431 47.57 215.431 46.842V42.058C215.431 41.33 215.617 40.7667 215.99 40.368C216.363 39.9693 216.9 39.77 217.602 39.77C218.304 39.77 218.841 39.9693 219.214 40.368C219.587 40.7667 219.773 41.33 219.773 42.058V46.842C219.773 47.57 219.587 48.1333 219.214 48.532C218.841 48.9307 218.304 49.13 217.602 49.13ZM217.602 47.83C218.096 47.83 218.343 47.531 218.343 46.933V41.967C218.343 41.369 218.096 41.07 217.602 41.07C217.108 41.07 216.861 41.369 216.861 41.967V46.933C216.861 47.531 217.108 47.83 217.602 47.83ZM220.74 39.9H222.781L223.691 46.413H223.717L224.627 39.9H226.668V49H225.316V42.11H225.29L224.25 49H223.054L222.014 42.11H221.988V49H220.74V39.9ZM227.735 39.9H229.841C230.552 39.9 231.085 40.0907 231.44 40.472C231.795 40.8533 231.973 41.4123 231.973 42.149V43.046C231.973 43.7827 231.795 44.3417 231.44 44.723C231.085 45.1043 230.552 45.295 229.841 45.295H229.165V49H227.735V39.9ZM229.841 43.995C230.075 43.995 230.248 43.93 230.361 43.8C230.482 43.67 230.543 43.449 230.543 43.137V42.058C230.543 41.746 230.482 41.525 230.361 41.395C230.248 41.265 230.075 41.2 229.841 41.2H229.165V43.995H229.841ZM234.817 49.13C234.115 49.13 233.577 48.9307 233.205 48.532C232.832 48.1333 232.646 47.57 232.646 46.842V42.058C232.646 41.33 232.832 40.7667 233.205 40.368C233.577 39.9693 234.115 39.77 234.817 39.77C235.519 39.77 236.056 39.9693 236.429 40.368C236.801 40.7667 236.988 41.33 236.988 42.058V46.842C236.988 47.57 236.801 48.1333 236.429 48.532C236.056 48.9307 235.519 49.13 234.817 49.13ZM234.817 47.83C235.311 47.83 235.558 47.531 235.558 46.933V41.967C235.558 41.369 235.311 41.07 234.817 41.07C234.323 41.07 234.076 41.369 234.076 41.967V46.933C234.076 47.531 234.323 47.83 234.817 47.83ZM239.814 49.13C239.121 49.13 238.596 48.935 238.241 48.545C237.886 48.1463 237.708 47.5787 237.708 46.842V46.322H239.06V46.946C239.06 47.5353 239.307 47.83 239.801 47.83C240.044 47.83 240.226 47.7607 240.347 47.622C240.477 47.4747 240.542 47.2407 240.542 46.92C240.542 46.5387 240.455 46.205 240.282 45.919C240.109 45.6243 239.788 45.2733 239.32 44.866C238.731 44.346 238.319 43.878 238.085 43.462C237.851 43.0373 237.734 42.5607 237.734 42.032C237.734 41.3127 237.916 40.758 238.28 40.368C238.644 39.9693 239.173 39.77 239.866 39.77C240.551 39.77 241.066 39.9693 241.413 40.368C241.768 40.758 241.946 41.3213 241.946 42.058V42.435H240.594V41.967C240.594 41.655 240.533 41.4297 240.412 41.291C240.291 41.1437 240.113 41.07 239.879 41.07C239.402 41.07 239.164 41.3603 239.164 41.941C239.164 42.2703 239.251 42.578 239.424 42.864C239.606 43.15 239.931 43.4967 240.399 43.904C240.997 44.424 241.409 44.8963 241.634 45.321C241.859 45.7457 241.972 46.244 241.972 46.816C241.972 47.5613 241.786 48.1333 241.413 48.532C241.049 48.9307 240.516 49.13 239.814 49.13ZM243.91 41.2H242.415V39.9H246.835V41.2H245.34V49H243.91V41.2ZM247.527 39.9H251.427V41.2H248.957V43.605H250.92V44.905H248.957V47.7H251.427V49H247.527V39.9ZM254.33 49.13C253.636 49.13 253.108 48.935 252.744 48.545C252.38 48.1463 252.198 47.5787 252.198 46.842V39.9H253.628V46.946C253.628 47.258 253.688 47.4833 253.81 47.622C253.94 47.7607 254.122 47.83 254.356 47.83C254.59 47.83 254.767 47.7607 254.889 47.622C255.019 47.4833 255.084 47.258 255.084 46.946V39.9H256.462V46.842C256.462 47.5787 256.28 48.1463 255.916 48.545C255.552 48.935 255.023 49.13 254.33 49.13ZM257.48 39.9H259.599C260.336 39.9 260.873 40.0733 261.211 40.42C261.549 40.758 261.718 41.2823 261.718 41.993V42.552C261.718 43.4967 261.406 44.0947 260.782 44.346V44.372C261.129 44.476 261.372 44.6883 261.51 45.009C261.658 45.3297 261.731 45.7587 261.731 46.296V47.895C261.731 48.155 261.74 48.3673 261.757 48.532C261.775 48.688 261.818 48.844 261.887 49H260.431C260.379 48.8527 260.345 48.714 260.327 48.584C260.31 48.454 260.301 48.22 260.301 47.882V46.218C260.301 45.802 260.232 45.5117 260.093 45.347C259.963 45.1823 259.734 45.1 259.404 45.1H258.91V49H257.48V39.9ZM259.43 43.8C259.716 43.8 259.929 43.7263 260.067 43.579C260.215 43.4317 260.288 43.1847 260.288 42.838V42.136C260.288 41.8067 260.228 41.5683 260.106 41.421C259.994 41.2737 259.812 41.2 259.56 41.2H258.91V43.8H259.43Z" fill="white"/>
<path d="M270.533 39.9H272.691C273.428 39.9 273.965 40.0733 274.303 40.42C274.641 40.758 274.81 41.2823 274.81 41.993V42.357C274.81 42.825 274.732 43.2063 274.576 43.501C274.429 43.7957 274.199 44.008 273.887 44.138V44.164C274.598 44.4067 274.953 45.0393 274.953 46.062V46.842C274.953 47.544 274.767 48.0813 274.394 48.454C274.03 48.818 273.493 49 272.782 49H270.533V39.9ZM272.522 43.605C272.808 43.605 273.02 43.5313 273.159 43.384C273.306 43.2367 273.38 42.9897 273.38 42.643V42.136C273.38 41.8067 273.319 41.5683 273.198 41.421C273.085 41.2737 272.903 41.2 272.652 41.2H271.963V43.605H272.522ZM272.782 47.7C273.033 47.7 273.22 47.635 273.341 47.505C273.462 47.3663 273.523 47.1323 273.523 46.803V46.01C273.523 45.594 273.449 45.308 273.302 45.152C273.163 44.9873 272.929 44.905 272.6 44.905H271.963V47.7H272.782ZM276.894 39.9H278.831L280.313 49H278.883L278.623 47.193V47.219H276.998L276.738 49H275.412L276.894 39.9ZM278.454 45.984L277.817 41.486H277.791L277.167 45.984H278.454ZM282.996 49.13C282.312 49.13 281.787 48.935 281.423 48.545C281.068 48.155 280.89 47.6047 280.89 46.894V42.006C280.89 41.2953 281.068 40.745 281.423 40.355C281.787 39.965 282.312 39.77 282.996 39.77C283.681 39.77 284.201 39.965 284.556 40.355C284.92 40.745 285.102 41.2953 285.102 42.006V42.968H283.75V41.915C283.75 41.3517 283.512 41.07 283.035 41.07C282.559 41.07 282.32 41.3517 282.32 41.915V46.998C282.32 47.5527 282.559 47.83 283.035 47.83C283.512 47.83 283.75 47.5527 283.75 46.998V45.607H285.102V46.894C285.102 47.6047 284.92 48.155 284.556 48.545C284.201 48.935 283.681 49.13 282.996 49.13ZM290.055 49.13C289.37 49.13 288.846 48.935 288.482 48.545C288.127 48.155 287.949 47.6047 287.949 46.894V42.006C287.949 41.2953 288.127 40.745 288.482 40.355C288.846 39.965 289.37 39.77 290.055 39.77C290.74 39.77 291.26 39.965 291.615 40.355C291.979 40.745 292.161 41.2953 292.161 42.006V42.968H290.809V41.915C290.809 41.3517 290.571 41.07 290.094 41.07C289.617 41.07 289.379 41.3517 289.379 41.915V46.998C289.379 47.5527 289.617 47.83 290.094 47.83C290.571 47.83 290.809 47.5527 290.809 46.998V45.607H292.161V46.894C292.161 47.6047 291.979 48.155 291.615 48.545C291.26 48.935 290.74 49.13 290.055 49.13ZM295.109 49.13C294.407 49.13 293.869 48.9307 293.497 48.532C293.124 48.1333 292.938 47.57 292.938 46.842V42.058C292.938 41.33 293.124 40.7667 293.497 40.368C293.869 39.9693 294.407 39.77 295.109 39.77C295.811 39.77 296.348 39.9693 296.721 40.368C297.093 40.7667 297.28 41.33 297.28 42.058V46.842C297.28 47.57 297.093 48.1333 296.721 48.532C296.348 48.9307 295.811 49.13 295.109 49.13ZM295.109 47.83C295.603 47.83 295.85 47.531 295.85 46.933V41.967C295.85 41.369 295.603 41.07 295.109 41.07C294.615 41.07 294.368 41.369 294.368 41.967V46.933C294.368 47.531 294.615 47.83 295.109 47.83ZM298.247 39.9H299.677V47.7H302.03V49H298.247V39.9ZM302.716 39.9H304.146V47.7H306.499V49H302.716V39.9ZM307.184 39.9H311.084V41.2H308.614V43.605H310.577V44.905H308.614V47.7H311.084V49H307.184V39.9ZM313.922 49.13C313.237 49.13 312.713 48.935 312.349 48.545C311.994 48.155 311.816 47.6047 311.816 46.894V42.006C311.816 41.2953 311.994 40.745 312.349 40.355C312.713 39.965 313.237 39.77 313.922 39.77C314.607 39.77 315.127 39.965 315.482 40.355C315.846 40.745 316.028 41.2953 316.028 42.006V42.968H314.676V41.915C314.676 41.3517 314.438 41.07 313.961 41.07C313.484 41.07 313.246 41.3517 313.246 41.915V46.998C313.246 47.5527 313.484 47.83 313.961 47.83C314.438 47.83 314.676 47.5527 314.676 46.998V45.607H316.028V46.894C316.028 47.6047 315.846 48.155 315.482 48.545C315.127 48.935 314.607 49.13 313.922 49.13ZM318.002 41.2H316.507V39.9H320.927V41.2H319.432V49H318.002V41.2ZM321.619 39.9H325.519V41.2H323.049V43.605H325.012V44.905H323.049V47.7H325.519V49H321.619V39.9Z" fill="white"/>
<path d="M226.572 32.0229H228.464V19.0604H226.572V32.0229ZM228.952 33H226.084C225.815 33 225.596 32.7812 225.596 32.5116V18.5717C225.596 18.3021 225.815 18.0834 226.084 18.0834H228.952C229.221 18.0834 229.44 18.3021 229.44 18.5717V32.5116C229.44 32.7812 229.221 33 228.952 33Z" fill="white"/>
<path d="M243.61 32.0229H245.503V19.0604H243.61V32.0229ZM245.99 33H243.123C242.853 33 242.635 32.7812 242.635 32.5116V18.5717C242.635 18.3021 242.853 18.0834 243.123 18.0834H245.99C246.26 18.0834 246.478 18.3021 246.478 18.5717V32.5116C246.478 32.7812 246.26 33 245.99 33Z" fill="white"/>
<path d="M229.44 22.2163H242.635V20.677H229.44V22.2163ZM243.123 23.1933H228.952C228.683 23.1933 228.464 22.9746 228.464 22.705V20.1887C228.464 19.9187 228.683 19.7 228.952 19.7H243.123C243.392 19.7 243.61 19.9187 243.61 20.1887V22.705C243.61 22.9746 243.392 23.1933 243.123 23.1933Z" fill="white"/>
<path d="M229.44 27.2489H242.635V25.7096H229.44V27.2489ZM243.123 28.2256H228.952C228.683 28.2256 228.464 28.0072 228.464 27.7372V25.2213C228.464 24.9513 228.683 24.7326 228.952 24.7326H243.123C243.392 24.7326 243.61 24.9513 243.61 25.2213V27.7372C243.61 28.0072 243.392 28.2256 243.123 28.2256Z" fill="white"/>
<path d="M229.44 29.7652H242.635V28.2256H229.44V29.7652ZM243.123 30.7422H228.952C228.683 30.7422 228.464 30.5235 228.464 30.2535V27.7372C228.464 27.4676 228.683 27.2489 228.952 27.2489H243.123C243.392 27.2489 243.61 27.4676 243.61 27.7372V30.2535C243.61 30.5235 243.392 30.7422 243.123 30.7422Z" fill="white"/>
<path d="M237.986 20.6771C237.861 20.6771 237.737 20.6293 237.641 20.5342C237.451 20.3434 237.451 20.034 237.641 19.8432C237.979 19.5049 238.158 19.065 238.158 18.5718C238.158 17.5679 237.342 16.7507 236.339 16.7507C236.166 16.7507 235.996 16.6591 235.909 16.5094C235.821 16.3596 235.81 16.175 235.896 16.0234C236.013 15.8152 236.072 15.5891 236.072 15.3508C236.072 14.5936 235.457 13.977 234.7 13.977C234.117 13.977 233.597 14.3487 233.405 14.9015C233.357 15.0401 233.25 15.1495 233.112 15.2C232.975 15.2505 232.822 15.2366 232.696 15.162C232.484 15.0363 232.244 14.9701 232 14.9701C231.244 14.9701 230.628 15.5866 230.628 16.3443L230.631 16.3766C230.634 16.5247 230.571 16.6668 230.457 16.7622C230.344 16.858 230.193 16.8967 230.049 16.8678C228.931 16.6473 227.915 17.4878 227.877 18.5889C227.867 18.8588 227.634 19.0681 227.372 19.0601C227.103 19.0507 226.892 18.8243 226.902 18.5547C226.955 17.0412 228.181 15.8556 229.694 15.8556C229.698 15.8556 229.7 15.8556 229.704 15.8556C229.929 14.7928 230.873 13.9931 232 13.9931C232.242 13.9931 232.482 14.031 232.711 14.1045C233.134 13.4281 233.881 13 234.7 13C235.995 13 237.048 14.0547 237.048 15.3508C237.048 15.5205 237.03 15.6894 236.993 15.8545C238.225 16.1534 239.133 17.2586 239.133 18.5718C239.133 19.3193 238.849 20.0163 238.331 20.5342C238.236 20.6293 238.111 20.6771 237.986 20.6771Z" fill="white"/>
<path d="M244.631 18.6557C244.362 18.6557 244.144 18.437 244.144 18.167C244.144 17.6034 243.686 17.1447 243.123 17.1447C243.027 17.1447 242.924 17.1635 242.807 17.2022C242.631 17.2603 242.437 17.213 242.307 17.081C242.177 16.9489 242.133 16.7546 242.193 16.579C242.242 16.4362 242.267 16.2899 242.267 16.144C242.267 15.4013 241.664 14.7974 240.922 14.7974C240.559 14.7974 240.22 14.9402 239.965 15.1993C239.868 15.2979 239.732 15.3512 239.596 15.3449C239.458 15.339 239.329 15.2746 239.241 15.1676C238.948 14.8127 238.517 14.6089 238.058 14.6089C237.597 14.6089 237.165 14.8141 236.872 15.1718C236.701 15.3804 236.394 15.4111 236.185 15.2397C235.977 15.0687 235.946 14.7611 236.117 14.5521C236.596 13.9673 237.303 13.6319 238.058 13.6319C238.645 13.6319 239.204 13.8353 239.649 14.201C240.024 13.953 240.462 13.8203 240.922 13.8203C242.202 13.8203 243.242 14.8625 243.242 16.144C243.242 16.153 243.242 16.1621 243.242 16.1715C244.288 16.2335 245.119 17.105 245.119 18.167C245.119 18.437 244.901 18.6557 244.631 18.6557Z" fill="white"/>
<path d="M246.586 33H225.488C225.218 33 225 32.7812 225 32.5116C225 32.2417 225.218 32.0229 225.488 32.0229H246.586C246.856 32.0229 247.074 32.2417 247.074 32.5116C247.074 32.7812 246.856 33 246.586 33Z" fill="white"/>
<path d="M263.486 31.1C262.946 31.1 262.533 30.9467 262.246 30.64C261.96 30.3333 261.816 29.9 261.816 29.34V25.66C261.816 25.1 261.96 24.6667 262.246 24.36C262.533 24.0533 262.946 23.9 263.486 23.9C264.026 23.9 264.44 24.0533 264.726 24.36C265.013 24.6667 265.156 25.1 265.156 25.66V29.34C265.156 29.9 265.013 30.3333 264.726 30.64C264.44 30.9467 264.026 31.1 263.486 31.1ZM263.486 30.1C263.866 30.1 264.056 29.87 264.056 29.41V25.59C264.056 25.13 263.866 24.9 263.486 24.9C263.106 24.9 262.916 25.13 262.916 25.59V29.41C262.916 29.87 263.106 30.1 263.486 30.1ZM267.5 31.1C266.967 31.1 266.56 30.95 266.28 30.65C266 30.3433 265.86 29.9067 265.86 29.34V24H266.96V29.42C266.96 29.66 267.007 29.8333 267.1 29.94C267.2 30.0467 267.34 30.1 267.52 30.1C267.7 30.1 267.837 30.0467 267.93 29.94C268.03 29.8333 268.08 29.66 268.08 29.42V24H269.14V29.34C269.14 29.9067 269 30.3433 268.72 30.65C268.44 30.95 268.034 31.1 267.5 31.1Z" fill="white"/>
<path d="M290.202 16.8354C289.657 16.8354 289.214 17.2789 289.214 17.8239C289.214 18.3689 289.657 18.8129 290.202 18.8129H305.421C305.965 18.8129 306.408 18.3689 306.408 17.8239C306.408 17.2789 305.965 16.8354 305.421 16.8354H290.202ZM305.421 20.029H290.202C288.988 20.029 288 19.0396 288 17.8239C288 16.6082 288.988 15.6193 290.202 15.6193H305.421C306.635 15.6193 307.623 16.6082 307.623 17.8239C307.623 19.0396 306.635 20.029 305.421 20.029Z" fill="white"/>
<path d="M302.196 34H293.426C291.753 34 290.354 32.744 290.171 31.0782L288.885 19.3171C288.849 18.9832 289.089 18.6828 289.423 18.6464C289.752 18.6082 290.057 18.8506 290.093 19.1844L291.378 30.9456C291.493 31.9935 292.374 32.7839 293.426 32.7839H302.196C303.249 32.7839 304.13 31.9935 304.245 30.9456L305.53 19.1844C305.567 18.8506 305.871 18.6078 306.2 18.6464C306.533 18.6828 306.774 18.9832 306.737 19.3171L305.452 31.0782C305.269 32.744 303.87 34 302.196 34Z" fill="white"/>
<path d="M300.524 16C300.189 16 299.917 15.7277 299.917 15.3922V13.3453C299.917 13.2781 299.863 13.2239 299.796 13.2239H295.336C295.269 13.2239 295.214 13.2781 295.214 13.3453V15.3922C295.214 15.7277 294.943 16 294.607 16C294.272 16 294 15.7277 294 15.3922V13.3453C294 12.6074 294.599 12.0078 295.336 12.0078H299.796C300.532 12.0078 301.132 12.6074 301.132 13.3453V15.3922C301.132 15.7277 300.86 16 300.524 16Z" fill="white"/>
<path d="M297.711 22.8401C295.025 22.8401 292.839 24.3973 292.839 26.3112C292.839 28.225 295.025 29.7822 297.711 29.7822C300.398 29.7822 302.583 28.225 302.583 26.3112C302.583 24.3973 300.398 22.8401 297.711 22.8401ZM297.711 30.6223C294.562 30.6223 292 28.6884 292 26.3112C292 23.9339 294.562 22 297.711 22C300.86 22 303.422 23.9339 303.422 26.3112C303.422 28.6884 300.86 30.6223 297.711 30.6223Z" fill="white"/>
<path d="M296.068 30.431C295.954 30.431 295.841 30.3845 295.758 30.2932C294.864 29.3075 294.539 28.0448 294.818 26.6413C295.024 25.6088 295.485 24.8637 295.505 24.8328C295.606 24.672 295.802 24.5989 295.983 24.654C296.164 24.7094 296.286 24.8789 296.28 25.0688C296.28 25.0685 296.28 25.0685 296.28 25.0685C296.281 25.0685 296.341 25.9296 298.151 26.5724C300.146 27.2801 300.371 29.1005 300.211 29.9643C300.168 30.1926 299.948 30.3423 299.722 30.301C299.494 30.2587 299.344 30.0401 299.385 29.8128C299.399 29.7349 299.678 28.0055 297.87 27.3643C296.779 26.9767 296.177 26.4927 295.845 26.0662C295.513 26.9647 295.237 28.4701 296.379 29.7283C296.535 29.8999 296.522 30.1659 296.35 30.3219C296.27 30.395 296.169 30.431 296.068 30.431Z" fill="white"/>
<path d="M299.659 28.9352C299.553 28.9352 299.447 28.8953 299.365 28.8151C299.2 28.6527 299.197 28.3868 299.359 28.2211C299.817 27.753 300.043 27.239 300.032 26.6933C300.02 26.0784 299.717 25.5165 299.445 25.1338C298.924 26.1228 297.887 26.9704 297.745 27.0842C297.564 27.2289 297.3 27.1989 297.156 27.0174C297.011 26.8362 297.041 26.572 297.222 26.4271C297.635 26.0958 298.742 25.0574 298.888 24.2409C298.915 24.0897 299.023 23.9651 299.169 23.9166C299.313 23.868 299.475 23.9028 299.588 24.0079C299.639 24.0558 300.838 25.1943 300.871 26.6703C300.889 27.4523 300.581 28.172 299.958 28.8091C299.876 28.8929 299.768 28.9352 299.659 28.9352Z" fill="white"/>
<path d="M297.891 30.6196C297.889 30.6196 297.887 30.6196 297.885 30.6196C297.654 30.6166 297.468 30.4261 297.471 30.1943C297.486 29.0975 296.548 28.5254 296.508 28.5015C296.309 28.3832 296.243 28.1262 296.36 27.927C296.477 27.7275 296.731 27.6596 296.931 27.7764C296.989 27.8096 298.332 28.6102 298.31 30.2051C298.307 30.4354 298.12 30.6196 297.891 30.6196Z" fill="white"/>
</g>
<defs>
<clipPath id="clip0_221_255">
<rect width="337" height="61" fill="white"/>
</clipPath>
</defs>
</svg>
