<svg xmlns="http://www.w3.org/2000/svg" width="227.0" height="61.0" fill="none" viewBox="0.0 0.0 227.0 61.0">
  <path fill="#fff" d="M24.854 60.792C11.234 60.792.156 49.839.156 36.38V.318h201.167c13.615 0 24.693 10.947 24.693 24.406l.005 36.068" />
  <path fill="#FCC42F" d="M218.458 53.23H69.292c-9.448 0-17.136-7.558-17.136-16.85V7.875h149.167c9.448 0 17.135 7.557 17.135 16.849v28.505ZM201.323 5.983H50.271V36.38c0 10.334 8.531 18.74 19.02 18.74H220.35V24.724c0-10.328-8.537-18.74-19.026-18.74Z" />
  <path fill="#FCC42F" d="m162.281 55.12 13.011-26.578L162 5.984h38.516c10.489 0 19.026 8.407 19.026 18.74V55.12" />
  <path fill="#FCC42F" d="M203.208 7.875H168l12.13 20.583-12.125 24.771h52.339V24.724c0-9.292-7.688-16.849-17.136-16.849Z" />
  <path fill="#1C1C1B" d="M206.281 41.661h-1.203c-.099 0-.193.01-.286.026.562-6.255 1.432-15.916 1.854-20.291a.811.811 0 0 0-.729-.88.799.799 0 0 0-.886.729c-.646 6.718-2.354 25.9-2.37 26.094-.031.322-.349.588-.718.588h-13.089c-.375 0-.687-.266-.719-.588-.015-.193-1.724-19.375-2.37-26.094a.798.798 0 0 0-.885-.73.81.81 0 0 0-.729.88c.422 4.376 1.292 14.032 1.854 20.293a1.345 1.345 0 0 0-.286-.032h-1.204c-.776 0-1.411.636-1.411 1.412v5.073a1.41 1.41 0 0 0 1.411 1.406h1.204c.578 0 1.083-.354 1.296-.865a2.343 2.343 0 0 0 1.839.865h13.089c.744 0 1.406-.333 1.838-.86.214.506.714.865 1.297.865h1.203c.776 0 1.406-.63 1.406-1.411v-5.073c0-.776-.63-1.407-1.406-1.407Z" />
  <path fill="#1C1C1B" d="M190.344 25.12v2.291h.672c.395 0 .609-.182.609-.734v-.651c0-.693-.224-.906-.76-.906h-.521Zm0-3.037v1.97h.458c.438 0 .703-.188.703-.787v-.417c0-.537-.182-.766-.599-.766h-.562Zm2.333.651V23c0 .766-.234 1.245-.755 1.49v.02c.625.25.875.802.875 1.589v.61c0 1.15-.61 1.77-1.781 1.77h-1.844v-7.463h1.766c1.218 0 1.739.567 1.739 1.718Zm2.156 3.381h1.131l-.553-3.776h-.026l-.552 3.776Zm2.677 2.364h-1.182l-.203-1.354h-1.437l-.209 1.354h-1.073l1.193-7.463h1.714m5.348 4.677v.994c0 1.193-.599 1.875-1.75 1.875s-1.75-.682-1.75-1.875v-3.88c0-1.198.599-1.88 1.75-1.88s1.75.682 1.75 1.88v.724h-1.109v-.802c0-.531-.234-.734-.609-.734-.37 0-.605.203-.605.734v4.031c0 .532.235.724.605.724.375 0 .609-.192.609-.724v-1.067m-7.849 5.515v5.328h.662c.369 0 .593-.192.593-.724v-3.88c0-.531-.224-.724-.593-.724h-.662Zm-1.172-1.067h1.854c1.172 0 1.745.65 1.745 1.843v3.776c0 1.193-.573 1.844-1.745 1.844h-1.854m5.735-4.318h1.609v1.063h-1.609v2.188h2.026v1.067h-3.198v-7.463h3.198v1.062h-2.026m-7.105 8.063h3.625v1.062h-1.224v6.401h-1.177v-6.4h-1.224m5.527-.001v2.297h.458c.437 0 .703-.193.703-.792V41.1c0-.531-.182-.77-.599-.77h-.562Zm1.281 6.401c-.068-.193-.11-.312-.11-.916v-1.178c0-.687-.234-.947-.765-.947h-.406v3.041h-1.172v-7.463h1.77c1.214 0 1.735.562 1.735 1.713v.589c0 .765-.245 1.255-.766 1.505v.02c.584.245.776.798.776 1.579v1.15c0 .36.011.631.13.907m.855.001h1.172v-7.464h-1.172v7.463Zm8.109-29.11h-23.453v-1.953c0-.068.031-.1.026-.1h1.698a.776.776 0 0 0 .521-.197l2.13-1.86c.093-.083.323-.166.614-.166h13.469c.292 0 .526.083.62.166l2.13 1.86c.146.13.328.198.521.198h1.698c-.011 0 .026.03.026.099v1.953Zm-.026-3.64h-1.401l-1.906-1.662c-.407-.36-1.011-.563-1.662-.563h-13.469c-.646 0-1.25.203-1.661.563l-1.906 1.661h-1.396c-.891 0-1.61.76-1.61 1.688v2.145c0 .297.073.589.219.85a.81.81 0 0 0 .255.275c.261.172.558.26.865.26h23.943c.307 0 .604-.088.864-.26a.807.807 0 0 0 .255-.276c.141-.26.219-.552.219-.849v-2.145c0-.928-.724-1.688-1.609-1.688Z" />
  <path fill="#1C1C1B" d="M202.125 14.078h-13.458a.674.674 0 0 0-.672.672c0 .37.302.672.672.672h13.458c.37 0 .672-.302.672-.672a.674.674 0 0 0-.672-.672Z" />
  <path fill="#FCC42F" d="M103.057 5.984H50.271V36.38c0 10.334 8.531 18.74 19.02 18.74h52.792V24.724c0-10.328-8.536-18.74-19.026-18.74Z" />
  <path fill="#fff" d="M63.807 29.677a8.691 8.691 0 0 0-8.693 8.693 8.691 8.691 0 0 0 8.693 8.692 8.692 8.692 0 0 0 8.698-8.692 8.692 8.692 0 0 0-8.698-8.693Z" />
  <path fill="#1C1C1B" d="M69.48 39.786h-4.25v4.256h-2.84v-4.256h-4.25v-2.833h4.25v-4.25h2.84v4.25h4.25M55.943 26.917v-9.401h2.484v7.317h3.557v2.084m1.115 0v-9.401h6.073v2.083h-3.584v1.474h3.063v2.083h-3.063v1.677h3.73v2.084m5.927 0v-7.318H72.76v-2.083h7.464v2.083h-2.49v7.318m5.974-5.12h.896c1 0 1.505-.417 1.505-1.245 0-.406-.13-.682-.385-.838-.255-.157-.63-.235-1.12-.235h-.896v2.318Zm-2.49 5.12v-9.401h3.558c.505 0 .984.047 1.443.14a3.44 3.44 0 0 1 1.198.495c.343.23.614.542.817.932.204.391.303.88.303 1.47 0 .676-.136 1.233-.412 1.676a2.87 2.87 0 0 1-1.104 1.042l2.036 3.646h-2.776l-1.62-3.157h-.953v3.157m6.318 0h2.49v-9.401h-2.49v9.4Zm-14.49 16.677v-9.401h6.13v2.083h-3.64v1.792h3.12v2.083h-3.12v3.443m7.052-4.574-.162.652h1.735l-.156-.651a42.512 42.512 0 0 1-.35-1.474 44.109 44.109 0 0 0-.348-1.505h-.058c-.104.484-.213.99-.323 1.51a35.618 35.618 0 0 1-.338 1.469Zm-3.615 4.574 2.86-9.401h3.005l2.864 9.4h-2.63L87.1 41.6h-2.63l-.464 1.995m10.713.171a4.953 4.953 0 0 1-1.709-.297 3.946 3.946 0 0 1-1.432-.896 4.261 4.261 0 0 1-.98-1.505c-.239-.6-.358-1.302-.358-2.104 0-.787.125-1.49.375-2.105a4.653 4.653 0 0 1 1.005-1.547c.416-.416.9-.74 1.448-.963a4.563 4.563 0 0 1 1.713-.333c.625 0 1.188.125 1.677.37a4.9 4.9 0 0 1 1.245.874l-1.302 1.594a3.692 3.692 0 0 0-.714-.5 1.806 1.806 0 0 0-.849-.198c-.28 0-.541.063-.786.193a2.033 2.033 0 0 0-.651.531 2.71 2.71 0 0 0-.448.854 3.55 3.55 0 0 0-.167 1.141c0 .89.183 1.573.558 2.042.37.474.859.708 1.463.708.37 0 .693-.078.98-.24a2.94 2.94 0 0 0 .728-.567l1.303 1.557c-.407.469-.87.813-1.396 1.042a4.136 4.136 0 0 1-1.703.349Zm4.057-.172h2.484v-9.401h-2.484v9.4Zm4.255 0v-9.401h2.49v7.317h3.557v2.084m1.11 0v-9.401h6.078v2.083h-3.589v1.474h3.068v2.083h-3.068v1.677h3.734v2.084M28.562 26.063c-1.692 2.49-.255 5.765 1.49 7.427 1.594 1.51 2.87 1.87 3.037 1.911l.812-1.557 2.344 6.411L29.62 41.6l.88-1.63-.896-.505c-2.792-1.818-3.38-4.287-3.573-5.058-.333-1.328-.828-5.297 2.531-8.343Z" />
  <path fill="#1C1C1B" d="M28.531 26.172c1.203 2.755 4.74 3.291 7.073 2.698 2.073-.526 3.057-1.38 3.224-1.537l-.01-.015-.886-1.532L44.6 27.24l-2.411 6.318-.896-1.588-.87.468c-3.026 1.391-5.432.573-6.188.323-1.297-.427-4.922-2.125-5.703-6.588Z" />
  <path fill="#1C1C1B" d="M40.318 19.516c-.464 3.297-2.448 4.88-3.068 5.38-1.063.86-4.448 2.99-8.63 1.24 2.974.473 5.333-2.209 6.093-4.495.688-2.052.485-3.35.443-3.552h-.02l-1.766-.079 4.812-4.838 4.026 5.437-1.817-.104" />
  <path fill="#1C1C1B" fill-rule="evenodd" d="M20.094 16.73a2.748 2.748 0 0 1-2.75-2.75 2.752 2.752 0 1 1 5.505 0c0 1.52-1.234 2.75-2.755 2.75Z" clip-rule="evenodd" />
  <path fill="#1C1C1B" d="M15.833 30.115c.235-.646.584-.605.584-.605s.317-.067.494.584l2.573 9.031a15.715 15.715 0 0 1-5.77-3.094l2.12-5.916Zm8.026-24.13c-9.942 0-18.03 8.088-18.03 18.036 0 9.937 8.088 18.031 18.03 18.031.532 0 1.052-.036 1.573-.083l.12 1.812 3.302-3.192-3.692-2.813.14 1.901a16.38 16.38 0 0 1-1.443.073c-.765 0-1.515-.057-2.25-.161l-.073-.48-1.713-14.599c-.235-2.755 1.338-3.198 2.312-2.78l5.47 2.192c.624.27.926-.25.926-.25s.354-.552-.281-.959c0 0-7.453-4.937-9.042-5.234-2.166-.406-4.312 1.35-4.786 3.636l-2.646 12.968a15.678 15.678 0 0 1-3.651-10.062c0-8.677 7.057-15.735 15.734-15.735 4.636 0 8.808 2.016 11.688 5.209l1.614-1.636C33.865 8.25 29.12 5.984 23.86 5.984ZM162.906 26.75l-19.323 12.307v-5.15l1.401-.808v1.943c0 .125.068.234.172.297.11.062.24.057.349-.006l13.766-8.296c.01-.006.015-.006.021-.011l2.213-1.333a.35.35 0 0 0 .167-.292v-1.932l1.234-.709v3.99Zm0 1.297-2.291 1.479-.485-.198 2.776-1.765v.484Zm0 2.75-6.875 4.703-12.448 8.52v-2.676l17.25-11.146c.006 0 .011-.005.016-.01l2.057-1.329v1.938Zm-19.323 9.073 15.834-10.089.494.198-16.328 10.552v-.661Zm-.364-6.547-4.172-1.766-.323-.135a.293.293 0 0 0-.156-.063l-8.662-3.666 1.235-.589 1.859.76h.01l11.537 4.693-.958.558-.37.208Zm-.318 2.594-6.224-2.75 1.844-1.084 2.896 1.22 1.484.63v1.984Zm0 3.229-13.479-6.334v-2.098l13.479 5.953v2.479Zm0 1.463-10.359-4.994.5-.292c.015-.01.026-.026.036-.037l9.823 4.615v.708Zm0 3.495-4.729-2.49-8.74-4.588-.005-2.151 13.474 6.5v2.73Zm-13.474-10.531 2.917 1.364-.464.277c-.026.01-.041.036-.062.052l-2.391-1.151v-.542Zm6.484-2.594 1.829.771-1.834 1.078-1.864-.823 1.869-1.026Zm-2.656.677-.505-.224 1.87-1 .489.203-1.854 1.021Zm-3.838-3.427 4.396 1.86-1.86.994-2.536-1.12V28.23Zm1.713-1.838a.379.379 0 0 1-.005 0h.005Zm16.599-5.417c.094-.047.141-.125.172-.219.037-.073.078-.146.089-.229l.057-.354.969.307v1.433l-11.578 6.229a644 644 0 0 0-2.417-.985l11.031-5.244 1.568-.86c.031-.01.047-.042.073-.062l.036-.016Zm12.526 3.818-.791.479-9.766-3.38v-1.01l10.557 3.39v.52Zm-10.557-1.776v-.401l9 3.12-.531.317-8.469-3.036Zm0 2.067v-1.338l7.708 2.765-1.698 1.021-6.01-2.448Zm-11.005 3.568c-.146-.063-.287-.12-.433-.177l10.756-5.781v.312l-10.323 5.646Zm10.323-4.864v1.328l-7.771 4.573c-.557-.23-1.141-.464-1.735-.709l9.506-5.192Zm-3.391 7.677c-.094-.037-1.589-.641-3.583-1.454l7.343-4.317 5.594 2.281-8.578 5.167v-.526a1.2 1.2 0 0 0-.776-1.152Zm3.01-12.688.724-.344 10.636 3.13 2.39.704-1.099.635-12.776-4.063.125-.062Zm.683-1.047c.015 0 .031.005.052.005-.021 0-.042-.005-.068-.005h.016Zm15 4.396c0-.026 0-.057-.005-.083a.772.772 0 0 0-.073-.25 1.04 1.04 0 0 0-.084-.183c-.021-.036-.047-.073-.067-.104a.623.623 0 0 0-.146-.14.677.677 0 0 0-.162-.125c-.041-.026-.078-.042-.114-.058-.037-.015-.073-.031-.115-.041l-13.917-4.1a1.156 1.156 0 0 0-.203-.036c-.036-.005-.078-.005-.114-.005h-.068a.895.895 0 0 0-.198.042.8.8 0 0 0-.182.057l-1.75.833a1.054 1.054 0 0 0-.453.417.86.86 0 0 0-.089.213.93.93 0 0 0-.068.339v1.083l-13.411 6.391-1.568-.635a1.055 1.055 0 0 0-.859.026l-2.063.979-.062.031a.902.902 0 0 0-.266.224 1.033 1.033 0 0 0-.12.146.38.38 0 0 0-.041.078c-.078.151-.12.318-.12.49l.005 2.421v.089l.005 2.698c-.005.073-.005.14 0 .208v1.068c-.005.088-.005.172.006.26l.005 2.776c0 .052.005.12.021.177a.623.623 0 0 0 .047.188c.01.036.041.104.062.135.01.021.042.078.057.1.026.041.058.077.089.114a.686.686 0 0 0 .141.125.729.729 0 0 0 .151.11l14.156 7.437a1.09 1.09 0 0 0 1.078-.047c.01-.005.016-.016.026-.02l20.005-13.694a.974.974 0 0 0 .115-.099 2.4 2.4 0 0 0 .109-.114c.037-.047.068-.094.099-.14.005-.011.021-.048.031-.063a.94.94 0 0 0 .058-.151c.015-.058.031-.115.036-.172a.659.659 0 0 0 .016-.146v-8.849Z" />
</svg>