<svg width="238" height="61" viewBox="0 0 238 61" fill="none" xmlns="http://www.w3.org/2000/svg">
<g clip-path="url(#clip0_79_235)">
<path d="M24.6979 60.4688C11.0781 60.4688 0 49.5208 0 36.0625V0H212.948C226.562 0 237.641 10.9479 237.641 24.4062V60.4688" fill="white"/>
<path d="M222.083 52.9114H69.1353C59.6874 52.9114 51.9999 45.3541 51.9999 36.0625V7.55725H204.948C214.396 7.55725 222.083 15.1145 222.083 24.4062V52.9114ZM204.948 5.66663H50.1145V36.0625C50.1145 46.3958 58.6458 54.802 69.1353 54.802H223.969V24.4062C223.969 14.0729 215.437 5.66663 204.948 5.66663Z" fill="#010101"/>
<path d="M168.714 54.802L181.724 28.2239L168.432 5.66663H211.948C222.437 5.66663 230.969 14.0729 230.969 24.4062V54.802" fill="#010101"/>
<path d="M102.901 5.66663H50.1145V36.0625C50.1145 46.3958 58.6458 54.802 69.1353 54.802H121.927V24.4062C121.927 14.0729 113.391 5.66663 102.901 5.66663Z" fill="#010101"/>
<path d="M63.651 29.3594C58.8489 29.3594 54.9583 33.25 54.9583 38.0521C54.9583 42.8542 58.8489 46.7448 63.651 46.7448C68.4583 46.7448 72.3489 42.8542 72.3489 38.0521C72.3489 33.25 68.4583 29.3594 63.651 29.3594Z" fill="white"/>
<path d="M69.3229 39.4688H65.0729V43.7188H62.2344V39.4688H57.9844V36.6355H62.2344V32.3802H65.0729V36.6355H69.3229" fill="#1C1C1B"/>
<path d="M55.7864 26.5937V17.1979H58.2708V24.5156H61.828V26.5937" fill="white"/>
<path d="M62.9426 26.5937V17.1979H69.0155V19.276H65.4322V20.7552H68.4947V22.8385H65.4322V24.5156H69.1614V26.5937" fill="white"/>
<path d="M75.0885 26.5937V19.276H72.6041V17.1979H80.0677V19.276H77.5781V26.5937" fill="white"/>
<path d="M83.5521 21.4739H84.4479C85.4479 21.4739 85.9531 21.0625 85.9531 20.2343C85.9531 19.8281 85.8229 19.5468 85.5677 19.3958C85.3125 19.2395 84.9375 19.1614 84.4479 19.1614H83.5521V21.4739ZM81.0625 26.5989V17.1979H84.6198C85.125 17.1979 85.6042 17.2448 86.0625 17.3385C86.5208 17.4375 86.9167 17.5989 87.2604 17.8333C87.6042 18.0625 87.875 18.375 88.0781 18.7656C88.2813 19.1562 88.3802 19.6458 88.3802 20.2343C88.3802 20.9062 88.2448 21.4687 87.9688 21.9114C87.6979 22.3541 87.3281 22.6979 86.8646 22.9531L88.901 26.5989H86.125L84.5052 23.4427H83.5521V26.5989" fill="white"/>
<path d="M89.8698 26.5989H92.3593V17.1979H89.8698V26.5989Z" fill="white"/>
<path d="M75.3801 43.276V33.8698H81.5103V35.9531H77.8697V37.75H80.9895V39.8333H77.8697V43.276" fill="white"/>
<path d="M84.9218 38.7031L84.7604 39.3541H86.4948L86.3385 38.7031C86.2239 38.25 86.1041 37.7604 85.9895 37.2291C85.875 36.6979 85.7604 36.1979 85.6406 35.7239H85.5833C85.4791 36.2031 85.3698 36.7083 85.2604 37.2343C85.151 37.7604 85.0364 38.25 84.9218 38.7031ZM81.3073 43.276L84.1666 33.8698H87.1718L90.0364 43.276H87.4062L86.9427 41.276H84.3125L83.8489 43.276" fill="white"/>
<path d="M94.5624 43.4479C93.9687 43.4479 93.3958 43.3489 92.8541 43.151C92.3072 42.9531 91.8333 42.651 91.4218 42.2552C91.0103 41.8541 90.6822 41.3541 90.4426 40.75C90.203 40.1458 90.0833 39.4479 90.0833 38.6458C90.0833 37.8541 90.2083 37.151 90.4583 36.5416C90.7083 35.927 91.0416 35.4114 91.4635 34.9948C91.8801 34.5729 92.3645 34.25 92.9114 34.0312C93.4583 33.8073 94.026 33.6979 94.6249 33.6979C95.2499 33.6979 95.8124 33.8229 96.302 34.0677C96.7968 34.3125 97.2083 34.6041 97.5468 34.9427L96.2447 36.5312C96.0155 36.3333 95.776 36.1666 95.5312 36.0312C95.2812 35.9062 94.9999 35.8385 94.6822 35.8385C94.401 35.8385 94.1405 35.901 93.8958 36.026C93.651 36.151 93.4322 36.3333 93.2447 36.5625C93.0572 36.7916 92.9062 37.0781 92.7968 37.4166C92.6822 37.75 92.6301 38.1354 92.6301 38.5573C92.6301 39.4479 92.8124 40.125 93.1874 40.5989C93.5572 41.0677 94.0468 41.3073 94.651 41.3073C95.0208 41.3073 95.3437 41.2291 95.6301 41.0677C95.9114 40.9062 96.1562 40.7187 96.3593 40.4948L97.6614 42.0573C97.2551 42.5208 96.7916 42.8698 96.2655 43.0989C95.7395 43.3333 95.1718 43.4479 94.5624 43.4479Z" fill="white"/>
<path d="M98.6198 43.276H101.104V33.8698H98.6198V43.276Z" fill="white"/>
<path d="M102.875 43.276V33.8698H105.365V41.1927H108.922V43.276" fill="white"/>
<path d="M110.031 43.276V33.8698H116.109V35.9531H112.521V37.4323H115.589V39.5156H112.521V41.1927H116.255V43.276" fill="white"/>
<path d="M28.4062 25.7448C26.7135 28.2343 28.151 31.5104 29.8958 33.1718C31.4895 34.6823 32.7655 35.0364 32.9322 35.0781L33.7447 33.5208L36.0885 39.9323L29.4635 41.2812L30.3437 39.6458L29.4478 39.1458C26.6562 37.3281 26.0676 34.8593 25.8749 34.0885C25.5416 32.7604 25.0468 28.7864 28.4062 25.7448Z" fill="#010101"/>
<path d="M28.375 25.8489C29.5781 28.6093 33.1146 29.1406 35.4479 28.552C37.5208 28.026 38.5052 27.1718 38.6719 27.0156L38.6615 27L37.776 25.4635L44.4427 26.9218L42.0312 33.2395L41.1354 31.6458L40.2656 32.1198C37.2396 33.5104 34.8333 32.6927 34.0781 32.4427C32.7813 32.0156 29.1562 30.3125 28.375 25.8489Z" fill="#010101"/>
<path d="M40.1613 19.1927C39.6978 22.4895 37.7134 24.0729 37.0936 24.5729C36.0311 25.4375 32.6457 27.5677 28.4634 25.8177C31.4373 26.2916 33.7967 23.6041 34.5571 21.3177C35.2446 19.2656 35.0415 17.9687 34.9998 17.7708L34.979 17.7656L33.2134 17.6927L38.0259 12.8541L42.0519 18.2864L40.2342 18.1823" fill="#010101"/>
<path fill-rule="evenodd" clip-rule="evenodd" d="M19.9375 16.4115C18.4167 16.4115 17.1875 15.1823 17.1875 13.6562C17.1875 12.1354 18.4167 10.9062 19.9375 10.9062C21.4583 10.9062 22.6927 12.1354 22.6927 13.6562C22.6927 15.1823 21.4583 16.4115 19.9375 16.4115Z" fill="#010101"/>
<path d="M15.6771 29.7968C15.9115 29.151 16.2604 29.1927 16.2604 29.1927C16.2604 29.1927 16.5781 29.125 16.7552 29.7708L19.3281 38.8073C17.1823 38.1823 15.224 37.1198 13.5573 35.7083L15.6771 29.7968ZM23.7031 5.66663C13.7604 5.66663 5.67188 13.7552 5.67188 23.6979C5.67188 33.6406 13.7604 41.7291 23.7031 41.7291C24.2344 41.7291 24.7552 41.6979 25.276 41.651L25.3958 43.4635L28.6979 40.2708L25.0052 37.4531L25.1458 39.3541C24.6719 39.401 24.1875 39.4323 23.7031 39.4323C22.9375 39.4323 22.1875 39.375 21.4531 39.2656L21.3802 38.7864L19.6667 24.1875C19.4323 21.4323 21.0052 20.9948 21.9792 21.4062L27.4479 23.6041C28.0729 23.875 28.375 23.3489 28.375 23.3489C28.375 23.3489 28.7292 22.802 28.0938 22.3958C28.0938 22.3958 20.6406 17.4583 19.0521 17.1562C16.8854 16.7552 14.7396 18.5104 14.2656 20.7968L11.6198 33.7604C9.34375 31.0312 7.96875 27.5208 7.96875 23.6979C7.96875 15.0208 15.026 7.9635 23.7031 7.9635C28.3385 7.9635 32.5104 9.97913 35.3906 13.177L37.0052 11.5364C33.7083 7.93225 28.9635 5.66663 23.7031 5.66663Z" fill="#010101"/>
<path d="M186.473 41H187.963L189.103 48H188.003L187.803 46.61V46.63H186.553L186.353 48H185.333L186.473 41ZM187.673 45.68L187.183 42.22H187.163L186.683 45.68H187.673ZM191.037 48.1C190.504 48.1 190.101 47.95 189.827 47.65C189.554 47.3433 189.417 46.9067 189.417 46.34V45.94H190.457V46.42C190.457 46.8733 190.647 47.1 191.027 47.1C191.214 47.1 191.354 47.0467 191.447 46.94C191.547 46.8267 191.597 46.6467 191.597 46.4C191.597 46.1067 191.531 45.85 191.397 45.63C191.264 45.4033 191.017 45.1333 190.657 44.82C190.204 44.42 189.887 44.06 189.707 43.74C189.527 43.4133 189.437 43.0467 189.437 42.64C189.437 42.0867 189.577 41.66 189.857 41.36C190.137 41.0533 190.544 40.9 191.077 40.9C191.604 40.9 192.001 41.0533 192.267 41.36C192.541 41.66 192.677 42.0933 192.677 42.66V42.95H191.637V42.59C191.637 42.35 191.591 42.1767 191.497 42.07C191.404 41.9567 191.267 41.9 191.087 41.9C190.721 41.9 190.537 42.1233 190.537 42.57C190.537 42.8233 190.604 43.06 190.737 43.28C190.877 43.5 191.127 43.7667 191.487 44.08C191.947 44.48 192.264 44.8433 192.437 45.17C192.611 45.4967 192.697 45.88 192.697 46.32C192.697 46.8933 192.554 47.3333 192.267 47.64C191.987 47.9467 191.577 48.1 191.037 48.1ZM194.758 48.1C194.225 48.1 193.821 47.95 193.548 47.65C193.275 47.3433 193.138 46.9067 193.138 46.34V45.94H194.178V46.42C194.178 46.8733 194.368 47.1 194.748 47.1C194.935 47.1 195.075 47.0467 195.168 46.94C195.268 46.8267 195.318 46.6467 195.318 46.4C195.318 46.1067 195.251 45.85 195.118 45.63C194.985 45.4033 194.738 45.1333 194.378 44.82C193.925 44.42 193.608 44.06 193.428 43.74C193.248 43.4133 193.158 43.0467 193.158 42.64C193.158 42.0867 193.298 41.66 193.578 41.36C193.858 41.0533 194.265 40.9 194.798 40.9C195.325 40.9 195.721 41.0533 195.988 41.36C196.261 41.66 196.398 42.0933 196.398 42.66V42.95H195.358V42.59C195.358 42.35 195.311 42.1767 195.218 42.07C195.125 41.9567 194.988 41.9 194.808 41.9C194.441 41.9 194.258 42.1233 194.258 42.57C194.258 42.8233 194.325 43.06 194.458 43.28C194.598 43.5 194.848 43.7667 195.208 44.08C195.668 44.48 195.985 44.8433 196.158 45.17C196.331 45.4967 196.418 45.88 196.418 46.32C196.418 46.8933 196.275 47.3333 195.988 47.64C195.708 47.9467 195.298 48.1 194.758 48.1ZM198.639 48.1C198.099 48.1 197.685 47.9467 197.399 47.64C197.112 47.3333 196.969 46.9 196.969 46.34V42.66C196.969 42.1 197.112 41.6667 197.399 41.36C197.685 41.0533 198.099 40.9 198.639 40.9C199.179 40.9 199.592 41.0533 199.879 41.36C200.165 41.6667 200.309 42.1 200.309 42.66V46.34C200.309 46.9 200.165 47.3333 199.879 47.64C199.592 47.9467 199.179 48.1 198.639 48.1ZM198.639 47.1C199.019 47.1 199.209 46.87 199.209 46.41V42.59C199.209 42.13 199.019 41.9 198.639 41.9C198.259 41.9 198.069 42.13 198.069 42.59V46.41C198.069 46.87 198.259 47.1 198.639 47.1ZM202.603 48.1C202.076 48.1 201.673 47.95 201.393 47.65C201.119 47.35 200.983 46.9267 200.983 46.38V42.62C200.983 42.0733 201.119 41.65 201.393 41.35C201.673 41.05 202.076 40.9 202.603 40.9C203.129 40.9 203.529 41.05 203.803 41.35C204.083 41.65 204.223 42.0733 204.223 42.62V43.36H203.183V42.55C203.183 42.1167 202.999 41.9 202.633 41.9C202.266 41.9 202.083 42.1167 202.083 42.55V46.46C202.083 46.8867 202.266 47.1 202.633 47.1C202.999 47.1 203.183 46.8867 203.183 46.46V45.39H204.223V46.38C204.223 46.9267 204.083 47.35 203.803 47.65C203.529 47.95 203.129 48.1 202.603 48.1ZM204.881 41H205.981V48H204.881V41ZM207.655 41H209.145L210.285 48H209.185L208.985 46.61V46.63H207.735L207.535 48H206.515L207.655 41ZM208.855 45.68L208.365 42.22H208.345L207.865 45.68H208.855ZM211.219 42H210.069V41H213.469V42H212.319V48H211.219V42ZM214.002 41H215.102V48H214.002V41ZM217.516 48.1C216.976 48.1 216.562 47.9467 216.276 47.64C215.989 47.3333 215.846 46.9 215.846 46.34V42.66C215.846 42.1 215.989 41.6667 216.276 41.36C216.562 41.0533 216.976 40.9 217.516 40.9C218.056 40.9 218.469 41.0533 218.756 41.36C219.042 41.6667 219.186 42.1 219.186 42.66V46.34C219.186 46.9 219.042 47.3333 218.756 47.64C218.469 47.9467 218.056 48.1 217.516 48.1ZM217.516 47.1C217.896 47.1 218.086 46.87 218.086 46.41V42.59C218.086 42.13 217.896 41.9 217.516 41.9C217.136 41.9 216.946 42.13 216.946 42.59V46.41C216.946 46.87 217.136 47.1 217.516 47.1ZM219.93 41H221.31L222.38 45.19H222.4V41H223.38V48H222.25L220.93 42.89H220.91V48H219.93V41Z" fill="white"/>
<path d="M211.01 31.548H204.203C204.051 31.548 203.908 31.489 203.79 31.3878L198.83 27.1026C198.72 27.0098 198.577 26.9592 198.433 26.9592H196.223V23.9899H201.276C201.951 23.9899 202.609 24.2599 203.081 24.7322L206.691 28.351C206.852 28.5113 206.936 28.7222 206.928 28.9499C206.928 29.009 206.919 29.0596 206.911 29.1102C206.911 29.1271 206.902 29.1439 206.902 29.1524C206.86 29.3042 206.776 29.4392 206.649 29.5404C206.337 29.8188 205.823 29.785 205.502 29.4645L202.811 26.7736C202.575 26.5374 202.187 26.5374 201.951 26.7736C201.706 27.0182 201.706 27.4063 201.951 27.6424L204.642 30.3333C205.418 31.1178 206.658 31.1684 207.459 30.4599C207.645 30.2996 207.796 30.114 207.906 29.9031L211.061 29.9116C211.289 29.9116 211.5 30.0044 211.651 30.1731C211.812 30.3418 211.888 30.5527 211.871 30.7804C211.845 31.2022 211.457 31.548 211.01 31.548ZM211.061 28.6884L208.142 28.68C208.083 28.2329 207.881 27.8027 207.56 27.4822L203.95 23.8634C203.241 23.1633 202.271 22.7584 201.276 22.7584H195.616C195.278 22.7584 195 23.0367 195 23.3741V27.5665C195 27.9124 195.278 28.1823 195.616 28.1823H198.205L202.988 32.3156C203.326 32.6109 203.764 32.7712 204.203 32.7712H211.01C212.107 32.7712 213.026 31.9361 213.094 30.8648C213.128 30.2912 212.942 29.7513 212.546 29.3295C212.166 28.9246 211.618 28.6884 211.061 28.6884Z" fill="white"/>
<path d="M204.878 18.1189C205.207 17.191 205.856 16.6174 206.666 16.5583C206.717 16.5583 206.767 16.5583 206.818 16.5583C207.586 16.5583 208.328 17.0138 208.716 17.7646C208.826 17.9586 209.036 18.0851 209.264 18.0851C209.492 18.0851 209.694 17.9586 209.804 17.7646C210.226 16.9717 211.036 16.4993 211.854 16.5583C212.664 16.6174 213.313 17.191 213.642 18.1189C214.435 20.3543 211.289 23.0536 209.264 24.3273C207.24 23.0536 204.085 20.3543 204.878 18.1189ZM208.952 25.5758C209.045 25.6348 209.155 25.6601 209.264 25.6601C209.374 25.6601 209.484 25.6348 209.576 25.5758C210.251 25.1709 216.156 21.5268 214.798 17.7055C214.309 16.3221 213.237 15.4364 211.947 15.3352C210.943 15.2677 209.956 15.6726 209.264 16.4234C208.573 15.6726 207.586 15.2593 206.582 15.3352C205.283 15.4364 204.211 16.3221 203.722 17.7055C202.373 21.5268 208.269 25.1709 208.952 25.5758Z" fill="white"/>
<path d="M139.795 45V39.288H140.947V44.056H142.987V45H139.795ZM143.554 45V39.288H144.706V45H143.554ZM146.416 39.288L147.224 43.512H147.248L148.096 39.288H149.288L147.976 45H146.496L145.184 39.288H146.416ZM149.709 39.288H151.837C152.317 39.288 152.69 39.4107 152.957 39.656C153.223 39.896 153.357 40.264 153.357 40.76C153.357 41.144 153.279 41.4587 153.125 41.704C152.97 41.944 152.73 42.0987 152.405 42.168V42.184C152.693 42.2267 152.903 42.32 153.037 42.464C153.17 42.608 153.253 42.84 153.285 43.16C153.295 43.2667 153.303 43.384 153.309 43.512C153.314 43.6347 153.319 43.7733 153.325 43.928C153.335 44.232 153.351 44.464 153.373 44.624C153.405 44.784 153.474 44.8933 153.581 44.952V45H152.333C152.274 44.92 152.237 44.8293 152.221 44.728C152.205 44.6213 152.194 44.512 152.189 44.4L152.157 43.304C152.146 43.08 152.09 42.904 151.989 42.776C151.887 42.648 151.717 42.584 151.477 42.584H150.861V45H149.709V39.288ZM150.861 41.784H151.341C151.618 41.784 151.831 41.72 151.981 41.592C152.13 41.4587 152.205 41.2373 152.205 40.928C152.205 40.4 151.938 40.136 151.405 40.136H150.861V41.784ZM157.346 39.288V40.232H155.306V41.576H157.226V42.52H155.306V44.056H157.426V45H154.154V39.288H157.346Z" fill="#1C1C1B"/>
<path d="M149.365 31.56L149.354 31.1016L164.859 25.3152V25.5652L149.365 31.56ZM132.333 19.0548L147.938 26.1277L148.026 31.4245L132.333 23.3933V19.0548ZM147.578 14.3673L163.474 20.2475L148.635 24.9818L133.625 18.1745L147.578 14.3673ZM149.333 29.9245L164.859 24.31V24.6016L149.344 30.3985L149.333 29.9245ZM164.859 21.487L149.281 26.6954L149.271 26.1798L164.859 21.2058V21.487ZM164.859 22.5912L149.302 27.961L149.292 27.3933L164.859 22.1902V22.5912ZM149.312 28.6641L164.859 23.2943V23.6016L149.323 29.2214L149.312 28.6641ZM165.755 19.6693L147.839 13.0443C147.708 12.9923 147.562 12.987 147.432 13.0235L131.49 17.3777C131.198 17.4558 131 17.7162 131 18.0183V23.8048C131 24.0495 131.141 24.2787 131.359 24.3985L148.411 33.1173C148.505 33.1641 148.609 33.1902 148.714 33.1902C148.792 33.1902 148.875 33.1745 148.953 33.1485L165.766 26.6433C166.021 26.5443 166.193 26.2995 166.193 26.0235V20.2943C166.193 20.0131 166.016 19.7631 165.755 19.6693Z" fill="#1C1C1B"/>
</g>
<defs>
<clipPath id="clip0_79_235">
<rect width="238" height="61" fill="white"/>
</clipPath>
</defs>
</svg>
