<svg width="312" height="61" viewBox="0 0 312 61" fill="none" xmlns="http://www.w3.org/2000/svg">
<g clip-path="url(#clip0_79_1596)">
<path d="M24.6979 60.4688C11.0781 60.4688 0 49.5208 0 36.0625V0H286.948C300.563 0 311.641 10.9479 311.641 24.4062V60.4688" fill="white"/>
<path d="M244.083 52.9114H69.1353C59.6874 52.9114 51.9999 45.3541 51.9999 36.0625V7.55725H226.948C236.396 7.55725 244.083 15.1145 244.083 24.4062V52.9114ZM227 6L50.1667 5.66663L50.1145 36.0625C50.1145 46.3958 58.6458 54.802 69.1353 54.802L245.969 55V24.4062C245.969 14.0729 237.49 6 227 6Z" fill="#010101"/>
<path d="M102.901 5.66663H50.1145V36.0625C50.1145 46.3958 58.6458 54.802 69.1353 54.802H121.927V24.4062C121.927 14.0729 113.391 5.66663 102.901 5.66663Z" fill="#010101"/>
<path d="M191 6H288C297.941 6 306 14.0589 306 24V30.5V55H210H191L204.5 28.5L191 6Z" fill="#010101"/>
<path d="M63.651 29.3594C58.8489 29.3594 54.9583 33.25 54.9583 38.0521C54.9583 42.8542 58.8489 46.7448 63.651 46.7448C68.4583 46.7448 72.3489 42.8542 72.3489 38.0521C72.3489 33.25 68.4583 29.3594 63.651 29.3594Z" fill="white"/>
<path d="M69.3229 39.4688H65.0729V43.7188H62.2344V39.4688H57.9844V36.6355H62.2344V32.3802H65.0729V36.6355H69.3229" fill="#1C1C1B"/>
<path d="M55.7864 26.5937V17.1979H58.2708V24.5156H61.828V26.5937" fill="white"/>
<path d="M62.9426 26.5937V17.1979H69.0155V19.276H65.4322V20.7552H68.4947V22.8385H65.4322V24.5156H69.1614V26.5937" fill="white"/>
<path d="M75.0885 26.5937V19.276H72.6041V17.1979H80.0677V19.276H77.5781V26.5937" fill="white"/>
<path d="M83.5521 21.4739H84.4479C85.4479 21.4739 85.9531 21.0625 85.9531 20.2343C85.9531 19.8281 85.8229 19.5468 85.5677 19.3958C85.3125 19.2395 84.9375 19.1614 84.4479 19.1614H83.5521V21.4739ZM81.0625 26.5989V17.1979H84.6198C85.125 17.1979 85.6042 17.2448 86.0625 17.3385C86.5208 17.4375 86.9167 17.5989 87.2604 17.8333C87.6042 18.0625 87.875 18.375 88.0781 18.7656C88.2813 19.1562 88.3802 19.6458 88.3802 20.2343C88.3802 20.9062 88.2448 21.4687 87.9688 21.9114C87.6979 22.3541 87.3281 22.6979 86.8646 22.9531L88.901 26.5989H86.125L84.5052 23.4427H83.5521V26.5989" fill="white"/>
<path d="M89.8698 26.5989H92.3593V17.1979H89.8698V26.5989Z" fill="white"/>
<path d="M75.3801 43.276V33.8698H81.5103V35.9531H77.8697V37.75H80.9895V39.8333H77.8697V43.276" fill="white"/>
<path d="M84.9218 38.7031L84.7604 39.3541H86.4948L86.3385 38.7031C86.2239 38.25 86.1041 37.7604 85.9895 37.2291C85.875 36.6979 85.7604 36.1979 85.6406 35.7239H85.5833C85.4791 36.2031 85.3698 36.7083 85.2604 37.2343C85.151 37.7604 85.0364 38.25 84.9218 38.7031ZM81.3073 43.276L84.1666 33.8698H87.1718L90.0364 43.276H87.4062L86.9427 41.276H84.3125L83.8489 43.276" fill="white"/>
<path d="M94.5624 43.4479C93.9687 43.4479 93.3958 43.3489 92.8541 43.151C92.3072 42.9531 91.8333 42.651 91.4218 42.2552C91.0103 41.8541 90.6822 41.3541 90.4426 40.75C90.203 40.1458 90.0833 39.4479 90.0833 38.6458C90.0833 37.8541 90.2083 37.151 90.4583 36.5416C90.7083 35.927 91.0416 35.4114 91.4635 34.9948C91.8801 34.5729 92.3645 34.25 92.9114 34.0312C93.4583 33.8073 94.026 33.6979 94.6249 33.6979C95.2499 33.6979 95.8124 33.8229 96.302 34.0677C96.7968 34.3125 97.2083 34.6041 97.5468 34.9427L96.2447 36.5312C96.0155 36.3333 95.776 36.1666 95.5312 36.0312C95.2812 35.9062 94.9999 35.8385 94.6822 35.8385C94.401 35.8385 94.1405 35.901 93.8958 36.026C93.651 36.151 93.4322 36.3333 93.2447 36.5625C93.0572 36.7916 92.9062 37.0781 92.7968 37.4166C92.6822 37.75 92.6301 38.1354 92.6301 38.5573C92.6301 39.4479 92.8124 40.125 93.1874 40.5989C93.5572 41.0677 94.0468 41.3073 94.651 41.3073C95.0208 41.3073 95.3437 41.2291 95.6301 41.0677C95.9114 40.9062 96.1562 40.7187 96.3593 40.4948L97.6614 42.0573C97.2551 42.5208 96.7916 42.8698 96.2655 43.0989C95.7395 43.3333 95.1718 43.4479 94.5624 43.4479Z" fill="white"/>
<path d="M98.6198 43.276H101.104V33.8698H98.6198V43.276Z" fill="white"/>
<path d="M102.875 43.276V33.8698H105.365V41.1927H108.922V43.276" fill="white"/>
<path d="M110.031 43.276V33.8698H116.109V35.9531H112.521V37.4323H115.589V39.5156H112.521V41.1927H116.255V43.276" fill="white"/>
<path fill-rule="evenodd" clip-rule="evenodd" d="M16.2604 29.1927C16.2604 29.1927 15.9115 29.151 15.6771 29.7968L13.5573 35.7083C15.224 37.1198 17.1823 38.1823 19.3281 38.8073L16.7552 29.7708C16.5781 29.125 16.2604 29.1927 16.2604 29.1927ZM5.67188 23.6979C5.67188 13.7552 13.7604 5.66663 23.7031 5.66663C28.9635 5.66663 33.7083 7.93225 37.0052 11.5364L35.3906 13.177C32.5104 9.97913 28.3385 7.9635 23.7031 7.9635C15.026 7.9635 7.96875 15.0208 7.96875 23.6979C7.96875 27.5208 9.34375 31.0312 11.6198 33.7604L14.2656 20.7968C14.7396 18.5104 16.8854 16.7552 19.0521 17.1562C20.6406 17.4583 28.0938 22.3958 28.0938 22.3958C28.7292 22.802 28.375 23.3489 28.375 23.3489C28.375 23.3489 28.0729 23.875 27.4479 23.6041L21.9792 21.4062C21.0052 20.9948 19.4323 21.4323 19.6667 24.1875L21.3802 38.7864L21.4531 39.2656C22.1875 39.375 22.9375 39.4323 23.7031 39.4323C24.1875 39.4323 24.6719 39.401 25.1458 39.3541L25.0052 37.4531L28.6979 40.2708L25.3958 43.4635L25.276 41.651C24.7552 41.6979 24.2344 41.7291 23.7031 41.7291C13.7604 41.7291 5.67188 33.6406 5.67188 23.6979ZM19.9375 16.4115C18.4167 16.4115 17.1875 15.1823 17.1875 13.6562C17.1875 12.1354 18.4167 10.9062 19.9375 10.9062C21.4583 10.9062 22.6927 12.1354 22.6927 13.6562C22.6927 15.1823 21.4583 16.4115 19.9375 16.4115ZM37.1046 24.564C37.7365 24.0543 39.7005 22.4703 40.1613 19.1927L40.2342 18.1823L42.0519 18.2864L38.0259 12.8541L33.2134 17.6927L34.979 17.7656L34.9998 17.7708C35.0415 17.9687 35.2446 19.2656 34.5571 21.3177C33.7967 23.6041 31.4373 26.2916 28.4634 25.8177C32.6457 27.5677 36.0311 25.4375 37.0936 24.5729L37.1046 24.564ZM28.375 25.8489C29.5781 28.6093 33.1146 29.1406 35.4479 28.552C37.5208 28.026 38.5052 27.1718 38.6719 27.0156L38.6615 27L37.776 25.4635L44.4427 26.9218L42.0312 33.2395L41.1354 31.6458L40.2656 32.1198C37.2654 33.4985 34.8744 32.7065 34.0978 32.4492L34.0781 32.4427C32.7812 32.0156 29.1562 30.3125 28.375 25.8489ZM28.4062 25.7448C26.7135 28.2343 28.151 31.5104 29.8958 33.1718C31.4895 34.6823 32.7655 35.0364 32.9322 35.0781L33.7447 33.5208L36.0885 39.9323L29.4635 41.2812L30.3437 39.6458L29.4478 39.1458C26.6887 37.3493 26.0817 34.9168 25.8818 34.1162L25.8749 34.0885C25.5416 32.7604 25.0468 28.7864 28.4062 25.7448Z" fill="#010101"/>
<path d="M131.328 22.308H132.096C132.44 22.308 132.716 22.204 132.924 21.996C133.14 21.788 133.248 21.464 133.248 21.024C133.248 20.592 133.156 20.264 132.972 20.04C132.788 19.816 132.48 19.704 132.048 19.704H131.328V22.308ZM129.6 18.432H132.624C133.064 18.432 133.432 18.508 133.728 18.66C134.032 18.804 134.276 18.996 134.46 19.236C134.644 19.476 134.776 19.752 134.856 20.064C134.936 20.368 134.976 20.68 134.976 21C134.976 21.44 134.908 21.824 134.772 22.152C134.644 22.48 134.46 22.748 134.22 22.956C133.988 23.164 133.704 23.32 133.368 23.424C133.032 23.528 132.66 23.58 132.252 23.58H131.328V27H129.6V18.432ZM137.371 22.716C137.371 23.292 137.383 23.784 137.407 24.192C137.439 24.592 137.495 24.92 137.575 25.176C137.663 25.424 137.783 25.608 137.935 25.728C138.095 25.84 138.303 25.896 138.559 25.896C138.815 25.896 139.019 25.84 139.171 25.728C139.331 25.608 139.451 25.424 139.531 25.176C139.619 24.92 139.675 24.592 139.699 24.192C139.731 23.784 139.747 23.292 139.747 22.716C139.747 22.14 139.731 21.652 139.699 21.252C139.675 20.852 139.619 20.524 139.531 20.268C139.451 20.012 139.331 19.828 139.171 19.716C139.019 19.596 138.815 19.536 138.559 19.536C138.303 19.536 138.095 19.596 137.935 19.716C137.783 19.828 137.663 20.012 137.575 20.268C137.495 20.524 137.439 20.852 137.407 21.252C137.383 21.652 137.371 22.14 137.371 22.716ZM135.643 22.716C135.643 22.068 135.671 21.472 135.727 20.928C135.791 20.376 135.923 19.904 136.123 19.512C136.331 19.12 136.627 18.816 137.011 18.6C137.395 18.376 137.911 18.264 138.559 18.264C139.207 18.264 139.723 18.376 140.107 18.6C140.491 18.816 140.783 19.12 140.983 19.512C141.191 19.904 141.323 20.376 141.379 20.928C141.443 21.472 141.475 22.068 141.475 22.716C141.475 23.372 141.443 23.972 141.379 24.516C141.323 25.06 141.191 25.528 140.983 25.92C140.783 26.312 140.491 26.612 140.107 26.82C139.723 27.028 139.207 27.132 138.559 27.132C137.911 27.132 137.395 27.028 137.011 26.82C136.627 26.612 136.331 26.312 136.123 25.92C135.923 25.528 135.791 25.06 135.727 24.516C135.671 23.972 135.643 23.372 135.643 22.716ZM144.063 16.2H145.791L146.727 17.928H145.455L144.903 16.908L144.327 17.928H143.127L144.063 16.2ZM147.279 18.432V19.848H144.219V21.864H147.099V23.28H144.219V25.584H147.399V27H142.491V18.432H147.279ZM148.268 27V18.432H149.996V25.584H153.056V27H148.268ZM158.611 18.432V19.848H155.551V21.864H158.431V23.28H155.551V25.584H158.731V27H153.823V18.432H158.611ZM164.031 22.716C164.031 23.292 164.043 23.784 164.067 24.192C164.099 24.592 164.155 24.92 164.235 25.176C164.323 25.424 164.443 25.608 164.595 25.728C164.755 25.84 164.963 25.896 165.219 25.896C165.475 25.896 165.679 25.84 165.831 25.728C165.991 25.608 166.111 25.424 166.191 25.176C166.279 24.92 166.335 24.592 166.359 24.192C166.391 23.784 166.407 23.292 166.407 22.716C166.407 22.14 166.391 21.652 166.359 21.252C166.335 20.852 166.279 20.524 166.191 20.268C166.111 20.012 165.991 19.828 165.831 19.716C165.679 19.596 165.475 19.536 165.219 19.536C164.963 19.536 164.755 19.596 164.595 19.716C164.443 19.828 164.323 20.012 164.235 20.268C164.155 20.524 164.099 20.852 164.067 21.252C164.043 21.652 164.031 22.14 164.031 22.716ZM162.303 22.716C162.303 22.068 162.331 21.472 162.387 20.928C162.451 20.376 162.583 19.904 162.783 19.512C162.991 19.12 163.287 18.816 163.671 18.6C164.055 18.376 164.571 18.264 165.219 18.264C165.867 18.264 166.383 18.376 166.767 18.6C167.151 18.816 167.443 19.12 167.643 19.512C167.851 19.904 167.983 20.376 168.039 20.928C168.103 21.472 168.135 22.068 168.135 22.716C168.135 23.372 168.103 23.972 168.039 24.516C167.983 25.06 167.851 25.528 167.643 25.92C167.443 26.312 167.151 26.612 166.767 26.82C166.383 27.028 165.867 27.132 165.219 27.132C164.571 27.132 164.055 27.028 163.671 26.82C163.287 26.612 162.991 26.312 162.783 25.92C162.583 25.528 162.451 25.06 162.387 24.516C162.331 23.972 162.303 23.372 162.303 22.716ZM170.771 18.432V24.408C170.771 24.624 170.783 24.824 170.807 25.008C170.839 25.184 170.891 25.34 170.963 25.476C171.043 25.604 171.147 25.708 171.275 25.788C171.411 25.86 171.579 25.896 171.779 25.896C171.987 25.896 172.155 25.86 172.283 25.788C172.411 25.708 172.511 25.604 172.583 25.476C172.663 25.34 172.715 25.184 172.739 25.008C172.771 24.824 172.787 24.624 172.787 24.408V18.432H174.515V24.408C174.515 24.952 174.439 25.404 174.287 25.764C174.135 26.116 173.931 26.396 173.675 26.604C173.419 26.812 173.127 26.952 172.799 27.024C172.471 27.096 172.131 27.132 171.779 27.132C171.427 27.132 171.087 27.1 170.759 27.036C170.431 26.972 170.139 26.844 169.883 26.652C169.627 26.452 169.423 26.172 169.271 25.812C169.119 25.452 169.043 24.984 169.043 24.408V18.432H170.771ZM133.26 36.324C133.26 35.7 133.184 35.248 133.032 34.968C132.888 34.68 132.62 34.536 132.228 34.536C132.012 34.536 131.832 34.596 131.688 34.716C131.552 34.828 131.444 35.016 131.364 35.28C131.284 35.536 131.228 35.876 131.196 36.3C131.164 36.716 131.148 37.228 131.148 37.836C131.148 38.484 131.168 39.008 131.208 39.408C131.256 39.808 131.324 40.12 131.412 40.344C131.508 40.56 131.624 40.708 131.76 40.788C131.904 40.86 132.068 40.896 132.252 40.896C132.404 40.896 132.544 40.872 132.672 40.824C132.808 40.768 132.924 40.664 133.02 40.512C133.116 40.352 133.192 40.132 133.248 39.852C133.304 39.564 133.332 39.188 133.332 38.724H135.06C135.06 39.188 135.024 39.628 134.952 40.044C134.88 40.46 134.744 40.824 134.544 41.136C134.352 41.448 134.076 41.692 133.716 41.868C133.364 42.044 132.904 42.132 132.336 42.132C131.688 42.132 131.172 42.028 130.788 41.82C130.404 41.612 130.108 41.312 129.9 40.92C129.7 40.528 129.568 40.06 129.504 39.516C129.448 38.972 129.42 38.372 129.42 37.716C129.42 37.068 129.448 36.472 129.504 35.928C129.568 35.376 129.7 34.904 129.9 34.512C130.108 34.12 130.404 33.816 130.788 33.6C131.172 33.376 131.688 33.264 132.336 33.264C132.952 33.264 133.436 33.364 133.788 33.564C134.148 33.764 134.416 34.02 134.592 34.332C134.768 34.636 134.876 34.968 134.916 35.328C134.964 35.68 134.988 36.012 134.988 36.324H133.26ZM139.621 38.772L138.793 34.92H138.769L137.941 38.772H139.621ZM139.849 33.432L142.117 42H140.317L139.921 40.188H137.641L137.245 42H135.445L137.713 33.432H139.849ZM144.105 39.324V39.576C144.105 39.776 144.121 39.96 144.153 40.128C144.185 40.288 144.245 40.424 144.333 40.536C144.421 40.648 144.537 40.736 144.681 40.8C144.833 40.864 145.021 40.896 145.245 40.896C145.509 40.896 145.745 40.812 145.953 40.644C146.169 40.468 146.277 40.2 146.277 39.84C146.277 39.648 146.249 39.484 146.193 39.348C146.145 39.204 146.061 39.076 145.941 38.964C145.821 38.852 145.661 38.752 145.461 38.664C145.269 38.568 145.029 38.472 144.741 38.376C144.357 38.248 144.025 38.108 143.745 37.956C143.465 37.804 143.229 37.628 143.037 37.428C142.853 37.22 142.717 36.984 142.629 36.72C142.541 36.448 142.497 36.136 142.497 35.784C142.497 34.936 142.733 34.304 143.205 33.888C143.677 33.472 144.325 33.264 145.149 33.264C145.533 33.264 145.885 33.308 146.205 33.396C146.533 33.476 146.813 33.612 147.045 33.804C147.285 33.988 147.469 34.228 147.597 34.524C147.733 34.812 147.801 35.16 147.801 35.568V35.808H146.145C146.145 35.4 146.073 35.088 145.929 34.872C145.785 34.648 145.545 34.536 145.209 34.536C145.017 34.536 144.857 34.564 144.729 34.62C144.601 34.676 144.497 34.752 144.417 34.848C144.345 34.936 144.293 35.04 144.261 35.16C144.237 35.28 144.225 35.404 144.225 35.532C144.225 35.796 144.281 36.02 144.393 36.204C144.505 36.38 144.745 36.544 145.113 36.696L146.445 37.272C146.773 37.416 147.041 37.568 147.249 37.728C147.457 37.88 147.621 38.048 147.741 38.232C147.869 38.408 147.957 38.604 148.005 38.82C148.053 39.036 148.077 39.276 148.077 39.54C148.077 40.444 147.813 41.104 147.285 41.52C146.765 41.928 146.037 42.132 145.101 42.132C144.125 42.132 143.425 41.92 143.001 41.496C142.585 41.072 142.377 40.464 142.377 39.672V39.324H144.105ZM150.328 39.324V39.576C150.328 39.776 150.344 39.96 150.376 40.128C150.408 40.288 150.468 40.424 150.556 40.536C150.644 40.648 150.76 40.736 150.904 40.8C151.056 40.864 151.244 40.896 151.468 40.896C151.732 40.896 151.968 40.812 152.176 40.644C152.392 40.468 152.5 40.2 152.5 39.84C152.5 39.648 152.472 39.484 152.416 39.348C152.368 39.204 152.284 39.076 152.164 38.964C152.044 38.852 151.884 38.752 151.684 38.664C151.492 38.568 151.252 38.472 150.964 38.376C150.58 38.248 150.248 38.108 149.968 37.956C149.688 37.804 149.452 37.628 149.26 37.428C149.076 37.22 148.94 36.984 148.852 36.72C148.764 36.448 148.72 36.136 148.72 35.784C148.72 34.936 148.956 34.304 149.428 33.888C149.9 33.472 150.548 33.264 151.372 33.264C151.756 33.264 152.108 33.308 152.428 33.396C152.756 33.476 153.036 33.612 153.268 33.804C153.508 33.988 153.692 34.228 153.82 34.524C153.956 34.812 154.024 35.16 154.024 35.568V35.808H152.368C152.368 35.4 152.296 35.088 152.152 34.872C152.008 34.648 151.768 34.536 151.432 34.536C151.24 34.536 151.08 34.564 150.952 34.62C150.824 34.676 150.72 34.752 150.64 34.848C150.568 34.936 150.516 35.04 150.484 35.16C150.46 35.28 150.448 35.404 150.448 35.532C150.448 35.796 150.504 36.02 150.616 36.204C150.728 36.38 150.968 36.544 151.336 36.696L152.668 37.272C152.996 37.416 153.264 37.568 153.472 37.728C153.68 37.88 153.844 38.048 153.964 38.232C154.092 38.408 154.18 38.604 154.228 38.82C154.276 39.036 154.3 39.276 154.3 39.54C154.3 40.444 154.036 41.104 153.508 41.52C152.988 41.928 152.26 42.132 151.324 42.132C150.348 42.132 149.648 41.92 149.224 41.496C148.808 41.072 148.6 40.464 148.6 39.672V39.324H150.328ZM159.947 33.432V34.848H156.887V36.864H159.767V38.28H156.887V40.584H160.067V42H155.159V33.432H159.947ZM160.936 33.432H164.128C164.848 33.432 165.408 33.616 165.808 33.984C166.208 34.344 166.408 34.896 166.408 35.64C166.408 36.216 166.292 36.688 166.06 37.056C165.828 37.416 165.468 37.648 164.98 37.752V37.776C165.412 37.84 165.728 37.98 165.928 38.196C166.128 38.412 166.252 38.76 166.3 39.24C166.316 39.4 166.328 39.576 166.336 39.768C166.344 39.952 166.352 40.16 166.36 40.392C166.376 40.848 166.4 41.196 166.432 41.436C166.48 41.676 166.584 41.84 166.744 41.928V42H164.872C164.784 41.88 164.728 41.744 164.704 41.592C164.68 41.432 164.664 41.268 164.656 41.1L164.608 39.456C164.592 39.12 164.508 38.856 164.356 38.664C164.204 38.472 163.948 38.376 163.588 38.376H162.664V42H160.936V33.432ZM162.664 37.176H163.384C163.8 37.176 164.12 37.08 164.344 36.888C164.568 36.688 164.68 36.356 164.68 35.892C164.68 35.1 164.28 34.704 163.48 34.704H162.664V37.176ZM169.152 37.716C169.152 38.292 169.164 38.784 169.188 39.192C169.22 39.592 169.276 39.92 169.356 40.176C169.444 40.424 169.564 40.608 169.716 40.728C169.876 40.84 170.084 40.896 170.34 40.896C170.596 40.896 170.8 40.84 170.952 40.728C171.112 40.608 171.232 40.424 171.312 40.176C171.4 39.92 171.456 39.592 171.48 39.192C171.512 38.784 171.528 38.292 171.528 37.716C171.528 37.14 171.512 36.652 171.48 36.252C171.456 35.852 171.4 35.524 171.312 35.268C171.232 35.012 171.112 34.828 170.952 34.716C170.8 34.596 170.596 34.536 170.34 34.536C170.084 34.536 169.876 34.596 169.716 34.716C169.564 34.828 169.444 35.012 169.356 35.268C169.276 35.524 169.22 35.852 169.188 36.252C169.164 36.652 169.152 37.14 169.152 37.716ZM167.424 37.716C167.424 37.068 167.452 36.472 167.508 35.928C167.572 35.376 167.704 34.904 167.904 34.512C168.112 34.12 168.408 33.816 168.792 33.6C169.176 33.376 169.692 33.264 170.34 33.264C170.988 33.264 171.504 33.376 171.888 33.6C172.272 33.816 172.564 34.12 172.764 34.512C172.972 34.904 173.104 35.376 173.16 35.928C173.224 36.472 173.256 37.068 173.256 37.716C173.256 38.372 173.224 38.972 173.16 39.516C173.104 40.06 172.972 40.528 172.764 40.92C172.564 41.312 172.272 41.612 171.888 41.82C171.504 42.028 170.988 42.132 170.34 42.132C169.692 42.132 169.176 42.028 168.792 41.82C168.408 41.612 168.112 41.312 167.904 40.92C167.704 40.528 167.572 40.06 167.508 39.516C167.452 38.972 167.424 38.372 167.424 37.716ZM174.272 42V33.432H176V40.584H179.06V42H174.272ZM184.615 33.432V34.848H181.555V36.864H184.435V38.28H181.555V40.584H184.735V42H179.827V33.432H184.615Z" fill="black"/>
<path d="M191 6H217V55H210H191L204.5 28.5L191 6Z" fill="#010101"/>
<rect x="217" y="8" width="31" height="31" fill="black"/>
<path d="M214.473 42H215.963L217.103 49H216.003L215.803 47.61V47.63H214.553L214.353 49H213.333L214.473 42ZM215.673 46.68L215.183 43.22H215.163L214.683 46.68H215.673ZM219.037 49.1C218.504 49.1 218.101 48.95 217.827 48.65C217.554 48.3433 217.417 47.9067 217.417 47.34V46.94H218.457V47.42C218.457 47.8733 218.647 48.1 219.027 48.1C219.214 48.1 219.354 48.0467 219.447 47.94C219.547 47.8267 219.597 47.6467 219.597 47.4C219.597 47.1067 219.531 46.85 219.397 46.63C219.264 46.4033 219.017 46.1333 218.657 45.82C218.204 45.42 217.887 45.06 217.707 44.74C217.527 44.4133 217.437 44.0467 217.437 43.64C217.437 43.0867 217.577 42.66 217.857 42.36C218.137 42.0533 218.544 41.9 219.077 41.9C219.604 41.9 220.001 42.0533 220.267 42.36C220.541 42.66 220.677 43.0933 220.677 43.66V43.95H219.637V43.59C219.637 43.35 219.591 43.1767 219.497 43.07C219.404 42.9567 219.267 42.9 219.087 42.9C218.721 42.9 218.537 43.1233 218.537 43.57C218.537 43.8233 218.604 44.06 218.737 44.28C218.877 44.5 219.127 44.7667 219.487 45.08C219.947 45.48 220.264 45.8433 220.437 46.17C220.611 46.4967 220.697 46.88 220.697 47.32C220.697 47.8933 220.554 48.3333 220.267 48.64C219.987 48.9467 219.577 49.1 219.037 49.1ZM222.758 49.1C222.225 49.1 221.821 48.95 221.548 48.65C221.275 48.3433 221.138 47.9067 221.138 47.34V46.94H222.178V47.42C222.178 47.8733 222.368 48.1 222.748 48.1C222.935 48.1 223.075 48.0467 223.168 47.94C223.268 47.8267 223.318 47.6467 223.318 47.4C223.318 47.1067 223.251 46.85 223.118 46.63C222.985 46.4033 222.738 46.1333 222.378 45.82C221.925 45.42 221.608 45.06 221.428 44.74C221.248 44.4133 221.158 44.0467 221.158 43.64C221.158 43.0867 221.298 42.66 221.578 42.36C221.858 42.0533 222.265 41.9 222.798 41.9C223.325 41.9 223.721 42.0533 223.988 42.36C224.261 42.66 224.398 43.0933 224.398 43.66V43.95H223.358V43.59C223.358 43.35 223.311 43.1767 223.218 43.07C223.125 42.9567 222.988 42.9 222.808 42.9C222.441 42.9 222.258 43.1233 222.258 43.57C222.258 43.8233 222.325 44.06 222.458 44.28C222.598 44.5 222.848 44.7667 223.208 45.08C223.668 45.48 223.985 45.8433 224.158 46.17C224.331 46.4967 224.418 46.88 224.418 47.32C224.418 47.8933 224.275 48.3333 223.988 48.64C223.708 48.9467 223.298 49.1 222.758 49.1ZM226.639 49.1C226.099 49.1 225.685 48.9467 225.399 48.64C225.112 48.3333 224.969 47.9 224.969 47.34V43.66C224.969 43.1 225.112 42.6667 225.399 42.36C225.685 42.0533 226.099 41.9 226.639 41.9C227.179 41.9 227.592 42.0533 227.879 42.36C228.165 42.6667 228.309 43.1 228.309 43.66V47.34C228.309 47.9 228.165 48.3333 227.879 48.64C227.592 48.9467 227.179 49.1 226.639 49.1ZM226.639 48.1C227.019 48.1 227.209 47.87 227.209 47.41V43.59C227.209 43.13 227.019 42.9 226.639 42.9C226.259 42.9 226.069 43.13 226.069 43.59V47.41C226.069 47.87 226.259 48.1 226.639 48.1ZM230.603 49.1C230.076 49.1 229.673 48.95 229.393 48.65C229.119 48.35 228.983 47.9267 228.983 47.38V43.62C228.983 43.0733 229.119 42.65 229.393 42.35C229.673 42.05 230.076 41.9 230.603 41.9C231.129 41.9 231.529 42.05 231.803 42.35C232.083 42.65 232.223 43.0733 232.223 43.62V44.36H231.183V43.55C231.183 43.1167 230.999 42.9 230.633 42.9C230.266 42.9 230.083 43.1167 230.083 43.55V47.46C230.083 47.8867 230.266 48.1 230.633 48.1C230.999 48.1 231.183 47.8867 231.183 47.46V46.39H232.223V47.38C232.223 47.9267 232.083 48.35 231.803 48.65C231.529 48.95 231.129 49.1 230.603 49.1ZM232.881 42H233.981V49H232.881V42ZM235.655 42H237.145L238.285 49H237.185L236.985 47.61V47.63H235.735L235.535 49H234.515L235.655 42ZM236.855 46.68L236.365 43.22H236.345L235.865 46.68H236.855ZM239.219 43H238.069V42H241.469V43H240.319V49H239.219V43ZM242.002 42H243.102V49H242.002V42ZM245.516 49.1C244.976 49.1 244.562 48.9467 244.276 48.64C243.989 48.3333 243.846 47.9 243.846 47.34V43.66C243.846 43.1 243.989 42.6667 244.276 42.36C244.562 42.0533 244.976 41.9 245.516 41.9C246.056 41.9 246.469 42.0533 246.756 42.36C247.042 42.6667 247.186 43.1 247.186 43.66V47.34C247.186 47.9 247.042 48.3333 246.756 48.64C246.469 48.9467 246.056 49.1 245.516 49.1ZM245.516 48.1C245.896 48.1 246.086 47.87 246.086 47.41V43.59C246.086 43.13 245.896 42.9 245.516 42.9C245.136 42.9 244.946 43.13 244.946 43.59V47.41C244.946 47.87 245.136 48.1 245.516 48.1ZM247.93 42H249.31L250.38 46.19H250.4V42H251.38V49H250.25L248.93 43.89H248.91V49H247.93V42Z" fill="white"/>
<path d="M239.01 31.2217H232.203C232.051 31.2217 231.908 31.1626 231.79 31.0614L226.83 26.7762C226.72 26.6834 226.577 26.6328 226.433 26.6328H224.223V23.6636H229.276C229.951 23.6636 230.609 23.9335 231.081 24.4059L234.691 28.0247C234.852 28.1849 234.936 28.3958 234.928 28.6236C234.928 28.6826 234.919 28.7332 234.911 28.7838C234.911 28.8007 234.902 28.8176 234.902 28.826C234.86 28.9779 234.776 29.1128 234.649 29.2141C234.337 29.4924 233.823 29.4587 233.502 29.1381L230.811 26.4472C230.575 26.2111 230.187 26.2111 229.951 26.4472C229.706 26.6919 229.706 27.0799 229.951 27.3161L232.642 30.007C233.418 30.7915 234.658 30.8421 235.459 30.1335C235.645 29.9732 235.796 29.7877 235.906 29.5768L239.061 29.5852C239.289 29.5852 239.5 29.678 239.651 29.8467C239.812 30.0154 239.888 30.2263 239.871 30.4541C239.845 30.8758 239.457 31.2217 239.01 31.2217ZM239.061 28.3621L236.142 28.3536C236.083 27.9066 235.881 27.4764 235.56 27.1558L231.95 23.537C231.241 22.8369 230.271 22.432 229.276 22.432H223.616C223.278 22.432 223 22.7104 223 23.0478V27.2402C223 27.586 223.278 27.856 223.616 27.856H226.205L230.988 31.9893C231.326 32.2845 231.764 32.4448 232.203 32.4448H239.01C240.107 32.4448 241.026 31.6097 241.094 30.5384C241.128 29.9648 240.942 29.4249 240.546 29.0032C240.166 28.5983 239.618 28.3621 239.061 28.3621Z" fill="white"/>
<path d="M232.878 17.7926C233.207 16.8647 233.856 16.2911 234.666 16.232C234.717 16.232 234.767 16.232 234.818 16.232C235.586 16.232 236.328 16.6875 236.716 17.4383C236.826 17.6323 237.037 17.7588 237.264 17.7588C237.492 17.7588 237.694 17.6323 237.804 17.4383C238.226 16.6454 239.036 16.173 239.854 16.232C240.664 16.2911 241.313 16.8647 241.642 17.7926C242.435 20.028 239.289 22.7273 237.264 24.001C235.24 22.7273 232.085 20.028 232.878 17.7926ZM236.952 25.2495C237.045 25.3085 237.155 25.3338 237.264 25.3338C237.374 25.3338 237.484 25.3085 237.576 25.2495C238.251 24.8446 244.156 21.2005 242.798 17.3792C242.309 15.9958 241.237 15.1101 239.947 15.0089C238.943 14.9414 237.956 15.3463 237.264 16.0971C236.573 15.3463 235.586 14.933 234.582 15.0089C233.283 15.1101 232.211 15.9958 231.722 17.3792C230.373 21.2005 236.269 24.8446 236.952 25.2495Z" fill="white"/>
<path d="M255.486 34.1C254.946 34.1 254.533 33.9467 254.246 33.64C253.96 33.3333 253.816 32.9 253.816 32.34V28.66C253.816 28.1 253.96 27.6667 254.246 27.36C254.533 27.0533 254.946 26.9 255.486 26.9C256.026 26.9 256.44 27.0533 256.726 27.36C257.013 27.6667 257.156 28.1 257.156 28.66V32.34C257.156 32.9 257.013 33.3333 256.726 33.64C256.44 33.9467 256.026 34.1 255.486 34.1ZM255.486 33.1C255.866 33.1 256.056 32.87 256.056 32.41V28.59C256.056 28.13 255.866 27.9 255.486 27.9C255.106 27.9 254.916 28.13 254.916 28.59V32.41C254.916 32.87 255.106 33.1 255.486 33.1ZM259.5 34.1C258.967 34.1 258.56 33.95 258.28 33.65C258 33.3433 257.86 32.9067 257.86 32.34V27H258.96V32.42C258.96 32.66 259.007 32.8333 259.1 32.94C259.2 33.0467 259.34 33.1 259.52 33.1C259.7 33.1 259.837 33.0467 259.93 32.94C260.03 32.8333 260.08 32.66 260.08 32.42V27H261.14V32.34C261.14 32.9067 261 33.3433 260.72 33.65C260.44 33.95 260.034 34.1 259.5 34.1Z" fill="white"/>
<path fill-rule="evenodd" clip-rule="evenodd" d="M279.109 14.1063C278.715 13.9593 278.442 13.9112 278.26 13.9138C278.076 13.9164 278.017 13.9696 278.005 13.983C277.994 13.9948 277.976 14.0235 277.975 14.1029C277.974 14.1628 277.984 14.2337 278.004 14.3061L280.457 16.7194H282.07C282.35 16.3731 282.982 15.6937 284.041 14.766C284.332 14.5109 284.438 14.3351 284.469 14.2426C284.486 14.1909 284.48 14.1822 284.466 14.1637L284.464 14.1606C284.428 14.1114 284.342 14.0437 284.193 13.9816C284.059 13.9255 283.904 13.8872 283.762 13.8665C283.659 13.8692 283.582 13.8932 283.446 13.9423L283.419 13.9521C283.371 13.9696 283.335 13.9876 283.3 14.0059C283.226 14.0437 283.15 14.0826 282.951 14.1204C282.636 14.1804 282.41 14.185 282.155 14.124C281.99 14.0845 281.808 14.0142 281.587 13.9294C281.511 13.8998 281.429 13.8684 281.342 13.8359L281.34 13.8357C281.335 13.835 281.315 13.8327 281.278 13.8341C281.224 13.8361 281.153 13.8447 281.066 13.86C280.894 13.8904 280.691 13.9409 280.477 13.9945L280.464 13.9977C280.252 14.0505 280.026 14.1067 279.837 14.1369C279.742 14.1519 279.644 14.1628 279.554 14.1606L279.525 14.1602C279.431 14.1593 279.201 14.1571 279.109 14.1063ZM280.242 13.1757C279.947 13.2429 279.406 13.3023 279.406 13.3023C279.09 13.2908 278.86 13.2277 278.667 13.1747C278.513 13.1326 278.383 13.0968 278.251 13.0987C277.953 13.1029 277.694 13.1923 277.508 13.3963C277.321 13.6018 277.262 13.8653 277.259 14.0916C277.257 14.3145 277.307 14.5303 277.37 14.7023L277.402 14.7912L279.578 16.9319C278.757 17.1125 277.88 17.4785 277.072 18.1145C275.533 19.3262 274.301 21.4723 274.126 25.024C274.115 25.2552 274.102 25.4899 274.09 25.7262C274.038 26.698 273.984 27.698 274.004 28.6023C274.029 29.71 274.162 30.7759 274.615 31.5044C275.429 32.813 276.76 33.4463 278.037 33.7444C279.31 34.0416 280.582 34.019 281.369 33.9721C282.089 33.9584 283.275 33.9154 284.49 33.6601C285.701 33.4057 287.004 32.9283 287.895 31.9992C288.611 31.2516 288.855 30.1504 288.929 28.9703C288.987 28.0415 288.943 26.9912 288.898 25.9219L288.898 25.9218L288.898 25.9216C288.886 25.6252 288.873 25.3272 288.863 25.03C288.746 21.692 287.518 19.598 285.98 18.3585C284.982 17.5541 283.871 17.124 282.887 16.9376C283.206 16.5912 283.724 16.0726 284.477 15.4121C284.806 15.1237 285.036 14.8353 285.137 14.5344C285.251 14.1954 285.189 13.8795 285.014 13.6398C284.86 13.4286 284.636 13.2982 284.439 13.216C284.234 13.1306 284.014 13.0793 283.824 13.0539L283.803 13.0511H283.782C283.552 13.0511 283.386 13.1088 283.23 13.1653L283.204 13.1747C283.062 13.2261 282.907 13.282 282.663 13.3284C282.449 13.3691 282.436 13.3656 282.355 13.3435L282.355 13.3435L282.355 13.3435C282.339 13.3391 282.32 13.334 282.297 13.3284C282.176 13.2994 282.051 13.2515 281.854 13.1757C281.847 13.1727 281.833 13.1658 281.815 13.1563C281.723 13.1093 281.511 13 281.269 13C280.911 13 280.568 13.0906 280.362 13.1452C280.314 13.1578 280.273 13.1685 280.242 13.1757ZM277.598 18.7826C276.294 19.8098 275.141 21.7024 274.975 25.0658C274.964 25.3062 274.951 25.5471 274.938 25.7873L274.938 25.7873L274.938 25.7874C274.886 26.7564 274.835 27.7147 274.854 28.5836C274.879 29.6845 275.017 30.5403 275.337 31.0555C275.986 32.0991 277.071 32.6458 278.23 32.9165C279.389 33.1869 280.569 33.1684 281.327 33.1229L281.336 33.1224L281.345 33.1222C282.051 33.1089 283.176 33.0673 284.316 32.828C285.465 32.5867 286.566 32.1565 287.281 31.411C287.778 30.8917 288.009 30.0543 288.08 28.9168C288.136 28.0371 288.094 27.048 288.05 25.9868L288.05 25.9866C288.037 25.6833 288.024 25.3741 288.013 25.0598C287.903 21.9361 286.769 20.0859 285.447 19.0204C284.443 18.2117 283.307 17.8352 282.37 17.7159C283.146 18.5301 284.026 19.349 284.507 19.6446L284.061 20.3687C283.86 20.1673 283.557 19.9036 283.208 19.5994L283.208 19.5994C282.705 19.1614 282.106 18.6395 281.574 18.0991C281.548 18.4454 281.525 18.8325 281.515 19.1999C281.507 19.5164 281.509 19.8104 281.526 20.048C281.534 20.1669 281.546 20.2653 281.56 20.3418C281.567 20.3798 281.574 20.4092 281.581 20.4311C281.587 20.4519 281.591 20.4611 281.591 20.462L281.652 20.7938L280.831 20.8422C280.732 20.6443 280.696 20.3607 280.678 20.1075C280.659 19.8317 280.657 19.5076 280.666 19.1781C280.672 18.9159 280.685 18.6454 280.702 18.3858C280.011 19.0527 279.284 19.6307 278.748 20.0572C278.673 20.1168 278.601 20.1734 278.535 20.227L278.089 19.5029C278.561 19.1737 279.435 18.4574 280.209 17.6831C279.385 17.7926 278.447 18.1141 277.598 18.7826Z" fill="white"/>
<path d="M266.876 42H268.496C269.042 42 269.452 42.1467 269.726 42.44C269.999 42.7333 270.136 43.1633 270.136 43.73V44.42C270.136 44.9867 269.999 45.4167 269.726 45.71C269.452 46.0033 269.042 46.15 268.496 46.15H267.976V49H266.876V42ZM268.496 45.15C268.676 45.15 268.809 45.1 268.896 45C268.989 44.9 269.036 44.73 269.036 44.49V43.66C269.036 43.42 268.989 43.25 268.896 43.15C268.809 43.05 268.676 43 268.496 43H267.976V45.15H268.496ZM272.323 49.1C271.783 49.1 271.37 48.9467 271.083 48.64C270.797 48.3333 270.653 47.9 270.653 47.34V43.66C270.653 43.1 270.797 42.6667 271.083 42.36C271.37 42.0533 271.783 41.9 272.323 41.9C272.863 41.9 273.277 42.0533 273.563 42.36C273.85 42.6667 273.993 43.1 273.993 43.66V47.34C273.993 47.9 273.85 48.3333 273.563 48.64C273.277 48.9467 272.863 49.1 272.323 49.1ZM272.323 48.1C272.703 48.1 272.893 47.87 272.893 47.41V43.59C272.893 43.13 272.703 42.9 272.323 42.9C271.943 42.9 271.753 43.13 271.753 43.59V47.41C271.753 47.87 271.943 48.1 272.323 48.1ZM276.337 49.1C275.804 49.1 275.397 48.95 275.117 48.65C274.837 48.3433 274.697 47.9067 274.697 47.34V42H275.797V47.42C275.797 47.66 275.844 47.8333 275.937 47.94C276.037 48.0467 276.177 48.1 276.357 48.1C276.537 48.1 276.674 48.0467 276.767 47.94C276.867 47.8333 276.917 47.66 276.917 47.42V42H277.977V47.34C277.977 47.9067 277.837 48.3433 277.557 48.65C277.277 48.95 276.87 49.1 276.337 49.1ZM278.761 42H280.421C280.987 42 281.401 42.1333 281.661 42.4C281.921 42.66 282.051 43.0633 282.051 43.61V43.89C282.051 44.25 281.991 44.5433 281.871 44.77C281.757 44.9967 281.581 45.16 281.341 45.26V45.28C281.887 45.4667 282.161 45.9533 282.161 46.74V47.34C282.161 47.88 282.017 48.2933 281.731 48.58C281.451 48.86 281.037 49 280.491 49H278.761V42ZM280.291 44.85C280.511 44.85 280.674 44.7933 280.781 44.68C280.894 44.5667 280.951 44.3767 280.951 44.11V43.72C280.951 43.4667 280.904 43.2833 280.811 43.17C280.724 43.0567 280.584 43 280.391 43H279.861V44.85H280.291ZM280.491 48C280.684 48 280.827 47.95 280.921 47.85C281.014 47.7433 281.061 47.5633 281.061 47.31V46.7C281.061 46.38 281.004 46.16 280.891 46.04C280.784 45.9133 280.604 45.85 280.351 45.85H279.861V48H280.491ZM282.804 42H285.804V43H283.904V44.85H285.414V45.85H283.904V48H285.804V49H282.804V42ZM286.436 42H287.536V48H289.346V49H286.436V42ZM289.874 42H290.974V48H292.784V49H289.874V42ZM293.311 42H296.311V43H294.411V44.85H295.921V45.85H294.411V48H296.311V49H293.311V42Z" fill="white"/>
</g>
<defs>
<clipPath id="clip0_79_1596">
<rect width="312" height="61" fill="white"/>
</clipPath>
</defs>
</svg>
