<svg width="260" height="61" viewBox="0 0 260 61" fill="none" xmlns="http://www.w3.org/2000/svg">
<g clip-path="url(#clip0_79_1018)">
<path d="M24.6979 60.4688C11.0781 60.4688 0 49.5208 0 36.0625V0H234.948C248.562 0 259.641 10.9479 259.641 24.4062V60.4688" fill="white"/>
<path d="M222.083 52.9114H69.1353C59.6874 52.9114 51.9999 45.3541 51.9999 36.0625V7.55725H204.948C214.396 7.55725 222.083 15.1145 222.083 24.4062V52.9114ZM204.948 5.66663H50.1145V36.0625C50.1145 46.3958 58.6458 54.802 69.1353 54.802H223.969V24.4062C223.969 14.0729 215.437 5.66663 204.948 5.66663Z" fill="#333347"/>
<path d="M196.714 54.802L209.724 28.2239L196.432 5.66663H234.948C245.437 5.66663 253.969 14.0729 253.969 24.4062V54.802" fill="#333347"/>
<path d="M102.901 5.66663H50.1145V36.0625C50.1145 46.3958 58.6458 54.802 69.1353 54.802H121.927V24.4062C121.927 14.0729 113.391 5.66663 102.901 5.66663Z" fill="#333347"/>
<path d="M63.651 29.3594C58.8489 29.3594 54.9583 33.25 54.9583 38.0521C54.9583 42.8542 58.8489 46.7448 63.651 46.7448C68.4583 46.7448 72.3489 42.8542 72.3489 38.0521C72.3489 33.25 68.4583 29.3594 63.651 29.3594Z" fill="white"/>
<path d="M69.3229 39.4688H65.0729V43.7188H62.2344V39.4688H57.9844V36.6355H62.2344V32.3802H65.0729V36.6355H69.3229" fill="#1C1C1B"/>
<path d="M55.7864 26.5937V17.1979H58.2708V24.5156H61.828V26.5937" fill="white"/>
<path d="M62.9426 26.5937V17.1979H69.0155V19.276H65.4322V20.7552H68.4947V22.8385H65.4322V24.5156H69.1614V26.5937" fill="white"/>
<path d="M75.0885 26.5937V19.276H72.6041V17.1979H80.0677V19.276H77.5781V26.5937" fill="white"/>
<path d="M83.5521 21.4739H84.4479C85.4479 21.4739 85.9531 21.0625 85.9531 20.2343C85.9531 19.8281 85.8229 19.5468 85.5677 19.3958C85.3125 19.2395 84.9375 19.1614 84.4479 19.1614H83.5521V21.4739ZM81.0625 26.5989V17.1979H84.6198C85.125 17.1979 85.6042 17.2448 86.0625 17.3385C86.5208 17.4375 86.9167 17.5989 87.2604 17.8333C87.6042 18.0625 87.875 18.375 88.0781 18.7656C88.2813 19.1562 88.3802 19.6458 88.3802 20.2343C88.3802 20.9062 88.2448 21.4687 87.9688 21.9114C87.6979 22.3541 87.3281 22.6979 86.8646 22.9531L88.901 26.5989H86.125L84.5052 23.4427H83.5521V26.5989" fill="white"/>
<path d="M89.8698 26.5989H92.3593V17.1979H89.8698V26.5989Z" fill="white"/>
<path d="M75.3801 43.276V33.8698H81.5103V35.9531H77.8697V37.75H80.9895V39.8333H77.8697V43.276" fill="white"/>
<path d="M84.9218 38.7031L84.7604 39.3541H86.4948L86.3385 38.7031C86.2239 38.25 86.1041 37.7604 85.9895 37.2291C85.875 36.6979 85.7604 36.1979 85.6406 35.7239H85.5833C85.4791 36.2031 85.3698 36.7083 85.2604 37.2343C85.151 37.7604 85.0364 38.25 84.9218 38.7031ZM81.3073 43.276L84.1666 33.8698H87.1718L90.0364 43.276H87.4062L86.9427 41.276H84.3125L83.8489 43.276" fill="white"/>
<path d="M94.5624 43.4479C93.9687 43.4479 93.3958 43.3489 92.8541 43.151C92.3072 42.9531 91.8333 42.651 91.4218 42.2552C91.0103 41.8541 90.6822 41.3541 90.4426 40.75C90.203 40.1458 90.0833 39.4479 90.0833 38.6458C90.0833 37.8541 90.2083 37.151 90.4583 36.5416C90.7083 35.927 91.0416 35.4114 91.4635 34.9948C91.8801 34.5729 92.3645 34.25 92.9114 34.0312C93.4583 33.8073 94.026 33.6979 94.6249 33.6979C95.2499 33.6979 95.8124 33.8229 96.302 34.0677C96.7968 34.3125 97.2083 34.6041 97.5468 34.9427L96.2447 36.5312C96.0155 36.3333 95.776 36.1666 95.5312 36.0312C95.2812 35.9062 94.9999 35.8385 94.6822 35.8385C94.401 35.8385 94.1405 35.901 93.8958 36.026C93.651 36.151 93.4322 36.3333 93.2447 36.5625C93.0572 36.7916 92.9062 37.0781 92.7968 37.4166C92.6822 37.75 92.6301 38.1354 92.6301 38.5573C92.6301 39.4479 92.8124 40.125 93.1874 40.5989C93.5572 41.0677 94.0468 41.3073 94.651 41.3073C95.0208 41.3073 95.3437 41.2291 95.6301 41.0677C95.9114 40.9062 96.1562 40.7187 96.3593 40.4948L97.6614 42.0573C97.2551 42.5208 96.7916 42.8698 96.2655 43.0989C95.7395 43.3333 95.1718 43.4479 94.5624 43.4479Z" fill="white"/>
<path d="M98.6198 43.276H101.104V33.8698H98.6198V43.276Z" fill="white"/>
<path d="M102.875 43.276V33.8698H105.365V41.1927H108.922V43.276" fill="white"/>
<path d="M110.031 43.276V33.8698H116.109V35.9531H112.521V37.4323H115.589V39.5156H112.521V41.1927H116.255V43.276" fill="white"/>
<path d="M28.4062 25.7448C26.7135 28.2343 28.151 31.5104 29.8958 33.1718C31.4895 34.6823 32.7655 35.0364 32.9322 35.0781L33.7447 33.5208L36.0885 39.9323L29.4635 41.2812L30.3437 39.6458L29.4478 39.1458C26.6562 37.3281 26.0676 34.8593 25.8749 34.0885C25.5416 32.7604 25.0468 28.7864 28.4062 25.7448Z" fill="#333347"/>
<path d="M28.375 25.8489C29.5781 28.6093 33.1146 29.1406 35.4479 28.552C37.5208 28.026 38.5052 27.1718 38.6719 27.0156L38.6615 27L37.776 25.4635L44.4427 26.9218L42.0312 33.2395L41.1354 31.6458L40.2656 32.1198C37.2396 33.5104 34.8333 32.6927 34.0781 32.4427C32.7813 32.0156 29.1562 30.3125 28.375 25.8489Z" fill="#333347"/>
<path d="M40.1613 19.1927C39.6978 22.4895 37.7134 24.0729 37.0936 24.5729C36.0311 25.4375 32.6457 27.5677 28.4634 25.8177C31.4373 26.2916 33.7967 23.6041 34.5571 21.3177C35.2446 19.2656 35.0415 17.9687 34.9998 17.7708L34.979 17.7656L33.2134 17.6927L38.0259 12.8541L42.0519 18.2864L40.2342 18.1823" fill="#333347"/>
<path fill-rule="evenodd" clip-rule="evenodd" d="M19.9375 16.4115C18.4167 16.4115 17.1875 15.1823 17.1875 13.6562C17.1875 12.1354 18.4167 10.9062 19.9375 10.9062C21.4583 10.9062 22.6927 12.1354 22.6927 13.6562C22.6927 15.1823 21.4583 16.4115 19.9375 16.4115Z" fill="#333347"/>
<path d="M15.6771 29.7968C15.9115 29.151 16.2604 29.1927 16.2604 29.1927C16.2604 29.1927 16.5781 29.125 16.7552 29.7708L19.3281 38.8073C17.1823 38.1823 15.224 37.1198 13.5573 35.7083L15.6771 29.7968ZM23.7031 5.66663C13.7604 5.66663 5.67188 13.7552 5.67188 23.6979C5.67188 33.6406 13.7604 41.7291 23.7031 41.7291C24.2344 41.7291 24.7552 41.6979 25.276 41.651L25.3958 43.4635L28.6979 40.2708L25.0052 37.4531L25.1458 39.3541C24.6719 39.401 24.1875 39.4323 23.7031 39.4323C22.9375 39.4323 22.1875 39.375 21.4531 39.2656L21.3802 38.7864L19.6667 24.1875C19.4323 21.4323 21.0052 20.9948 21.9792 21.4062L27.4479 23.6041C28.0729 23.875 28.375 23.3489 28.375 23.3489C28.375 23.3489 28.7292 22.802 28.0938 22.3958C28.0938 22.3958 20.6406 17.4583 19.0521 17.1562C16.8854 16.7552 14.7396 18.5104 14.2656 20.7968L11.6198 33.7604C9.34375 31.0312 7.96875 27.5208 7.96875 23.6979C7.96875 15.0208 15.026 7.9635 23.7031 7.9635C28.3385 7.9635 32.5104 9.97913 35.3906 13.177L37.0052 11.5364C33.7083 7.93225 28.9635 5.66663 23.7031 5.66663Z" fill="#333347"/>
<path d="M130.992 24.324V24.576C130.992 24.776 131.008 24.96 131.04 25.128C131.072 25.288 131.132 25.424 131.22 25.536C131.308 25.648 131.424 25.736 131.568 25.8C131.72 25.864 131.908 25.896 132.132 25.896C132.396 25.896 132.632 25.812 132.84 25.644C133.056 25.468 133.164 25.2 133.164 24.84C133.164 24.648 133.136 24.484 133.08 24.348C133.032 24.204 132.948 24.076 132.828 23.964C132.708 23.852 132.548 23.752 132.348 23.664C132.156 23.568 131.916 23.472 131.628 23.376C131.244 23.248 130.912 23.108 130.632 22.956C130.352 22.804 130.116 22.628 129.924 22.428C129.74 22.22 129.604 21.984 129.516 21.72C129.428 21.448 129.384 21.136 129.384 20.784C129.384 19.936 129.62 19.304 130.092 18.888C130.564 18.472 131.212 18.264 132.036 18.264C132.42 18.264 132.772 18.308 133.092 18.396C133.42 18.476 133.7 18.612 133.932 18.804C134.172 18.988 134.356 19.228 134.484 19.524C134.62 19.812 134.688 20.16 134.688 20.568V20.808H133.032C133.032 20.4 132.96 20.088 132.816 19.872C132.672 19.648 132.432 19.536 132.096 19.536C131.904 19.536 131.744 19.564 131.616 19.62C131.488 19.676 131.384 19.752 131.304 19.848C131.232 19.936 131.18 20.04 131.148 20.16C131.124 20.28 131.112 20.404 131.112 20.532C131.112 20.796 131.168 21.02 131.28 21.204C131.392 21.38 131.632 21.544 132 21.696L133.332 22.272C133.66 22.416 133.928 22.568 134.136 22.728C134.344 22.88 134.508 23.048 134.628 23.232C134.756 23.408 134.844 23.604 134.892 23.82C134.94 24.036 134.964 24.276 134.964 24.54C134.964 25.444 134.7 26.104 134.172 26.52C133.652 26.928 132.924 27.132 131.988 27.132C131.012 27.132 130.312 26.92 129.888 26.496C129.472 26.072 129.264 25.464 129.264 24.672V24.324H130.992ZM139.399 23.772L138.571 19.92H138.547L137.719 23.772H139.399ZM139.627 18.432L141.895 27H140.095L139.699 25.188H137.419L137.023 27H135.223L137.491 18.432H139.627ZM144.219 22.308H144.987C145.331 22.308 145.607 22.204 145.815 21.996C146.031 21.788 146.139 21.464 146.139 21.024C146.139 20.592 146.047 20.264 145.863 20.04C145.679 19.816 145.371 19.704 144.939 19.704H144.219V22.308ZM142.491 18.432H145.515C145.955 18.432 146.323 18.508 146.619 18.66C146.923 18.804 147.167 18.996 147.351 19.236C147.535 19.476 147.667 19.752 147.747 20.064C147.827 20.368 147.867 20.68 147.867 21C147.867 21.44 147.799 21.824 147.663 22.152C147.535 22.48 147.351 22.748 147.111 22.956C146.879 23.164 146.595 23.32 146.259 23.424C145.923 23.528 145.551 23.58 145.143 23.58H144.219V27H142.491V18.432ZM148.797 27V18.432H150.525V27H148.797ZM153.799 18.432L155.887 24.3H155.911V18.432H157.495V27H155.527L153.415 21H153.391V27H151.807V18.432H153.799ZM163.392 25.728H164.16C164.464 25.728 164.708 25.676 164.892 25.572C165.076 25.468 165.22 25.296 165.324 25.056C165.436 24.816 165.508 24.5 165.54 24.108C165.58 23.716 165.6 23.228 165.6 22.644C165.6 22.156 165.584 21.728 165.552 21.36C165.52 20.992 165.452 20.688 165.348 20.448C165.252 20.2 165.104 20.016 164.904 19.896C164.712 19.768 164.452 19.704 164.124 19.704H163.392V25.728ZM161.664 18.432H164.496C165.096 18.432 165.58 18.532 165.948 18.732C166.316 18.924 166.6 19.204 166.8 19.572C167.008 19.932 167.148 20.368 167.22 20.88C167.292 21.392 167.328 21.964 167.328 22.596C167.328 23.348 167.28 24.004 167.184 24.564C167.096 25.116 166.94 25.572 166.716 25.932C166.492 26.292 166.192 26.56 165.816 26.736C165.44 26.912 164.964 27 164.388 27H161.664V18.432ZM173.259 18.432V19.848H170.199V21.864H173.079V23.28H170.199V25.584H173.379V27H168.471V18.432H173.259ZM131.592 33.432L133.68 39.3H133.704V33.432H135.288V42H133.32L131.208 36H131.184V42H129.6V33.432H131.592ZM138.039 37.716C138.039 38.292 138.051 38.784 138.075 39.192C138.107 39.592 138.163 39.92 138.243 40.176C138.331 40.424 138.451 40.608 138.603 40.728C138.763 40.84 138.971 40.896 139.227 40.896C139.483 40.896 139.687 40.84 139.839 40.728C139.999 40.608 140.119 40.424 140.199 40.176C140.287 39.92 140.343 39.592 140.367 39.192C140.399 38.784 140.415 38.292 140.415 37.716C140.415 37.14 140.399 36.652 140.367 36.252C140.343 35.852 140.287 35.524 140.199 35.268C140.119 35.012 139.999 34.828 139.839 34.716C139.687 34.596 139.483 34.536 139.227 34.536C138.971 34.536 138.763 34.596 138.603 34.716C138.451 34.828 138.331 35.012 138.243 35.268C138.163 35.524 138.107 35.852 138.075 36.252C138.051 36.652 138.039 37.14 138.039 37.716ZM136.311 37.716C136.311 37.068 136.339 36.472 136.395 35.928C136.459 35.376 136.591 34.904 136.791 34.512C136.999 34.12 137.295 33.816 137.679 33.6C138.063 33.376 138.579 33.264 139.227 33.264C139.875 33.264 140.391 33.376 140.775 33.6C141.159 33.816 141.451 34.12 141.651 34.512C141.859 34.904 141.991 35.376 142.047 35.928C142.111 36.472 142.143 37.068 142.143 37.716C142.143 38.372 142.111 38.972 142.047 39.516C141.991 40.06 141.859 40.528 141.651 40.92C141.451 41.312 141.159 41.612 140.775 41.82C140.391 42.028 139.875 42.132 139.227 42.132C138.579 42.132 138.063 42.028 137.679 41.82C137.295 41.612 136.999 41.312 136.791 40.92C136.591 40.528 136.459 40.06 136.395 39.516C136.339 38.972 136.311 38.372 136.311 37.716ZM145.955 31.404H147.299V32.82H145.955V31.404ZM143.891 31.404H145.235V32.82H143.891V31.404ZM147.947 33.432V34.848H144.887V36.864H147.767V38.28H144.887V40.584H148.067V42H143.159V33.432H147.947ZM148.936 42V33.432H150.664V40.584H153.724V42H148.936ZM159.365 33.432L161.453 39.3H161.477V33.432H163.061V42H161.093L158.981 36H158.957V42H157.373V33.432H159.365ZM167.84 38.772L167.012 34.92H166.988L166.16 38.772H167.84ZM168.068 33.432L170.336 42H168.536L168.14 40.188H165.86L165.464 42H163.664L165.932 33.432H168.068ZM175.292 33.432V34.848H173.42V42H171.692V34.848H169.82V33.432H175.292ZM177.661 33.432V39.408C177.661 39.624 177.673 39.824 177.697 40.008C177.729 40.184 177.781 40.34 177.853 40.476C177.933 40.604 178.037 40.708 178.165 40.788C178.301 40.86 178.469 40.896 178.669 40.896C178.877 40.896 179.045 40.86 179.173 40.788C179.301 40.708 179.401 40.604 179.473 40.476C179.553 40.34 179.605 40.184 179.629 40.008C179.661 39.824 179.677 39.624 179.677 39.408V33.432H181.405V39.408C181.405 39.952 181.329 40.404 181.177 40.764C181.025 41.116 180.821 41.396 180.565 41.604C180.309 41.812 180.017 41.952 179.689 42.024C179.361 42.096 179.021 42.132 178.669 42.132C178.317 42.132 177.977 42.1 177.649 42.036C177.321 41.972 177.029 41.844 176.773 41.652C176.517 41.452 176.313 41.172 176.161 40.812C176.009 40.452 175.933 39.984 175.933 39.408V33.432H177.661ZM182.498 33.432H185.69C186.41 33.432 186.97 33.616 187.37 33.984C187.77 34.344 187.97 34.896 187.97 35.64C187.97 36.216 187.854 36.688 187.622 37.056C187.39 37.416 187.03 37.648 186.542 37.752V37.776C186.974 37.84 187.29 37.98 187.49 38.196C187.69 38.412 187.814 38.76 187.862 39.24C187.878 39.4 187.89 39.576 187.898 39.768C187.906 39.952 187.914 40.16 187.922 40.392C187.938 40.848 187.962 41.196 187.994 41.436C188.042 41.676 188.146 41.84 188.306 41.928V42H186.434C186.346 41.88 186.29 41.744 186.266 41.592C186.242 41.432 186.226 41.268 186.218 41.1L186.17 39.456C186.154 39.12 186.07 38.856 185.918 38.664C185.766 38.472 185.51 38.376 185.15 38.376H184.226V42H182.498V33.432ZM184.226 37.176H184.946C185.362 37.176 185.682 37.08 185.906 36.888C186.13 36.688 186.242 36.356 186.242 35.892C186.242 35.1 185.842 34.704 185.042 34.704H184.226V37.176ZM193.954 33.432V34.848H190.894V36.864H193.774V38.28H190.894V40.584H194.074V42H189.166V33.432H193.954ZM194.944 42V33.432H196.672V40.584H199.732V42H194.944Z" fill="black"/>
<path d="M222.337 35.8405L216.602 35.8342C216.276 35.8342 216.006 35.5707 216.006 35.2444L216 29.5407C216 29.3023 216.144 29.0827 216.37 28.9948C216.59 28.9007 216.847 28.9509 217.016 29.1203L218.14 30.2372L227.803 20.6181C228.035 20.3923 228.411 20.3923 228.643 20.6181L231.304 23.2661C231.417 23.379 231.48 23.5233 231.48 23.6865C231.48 23.8433 231.417 23.9939 231.304 24.1069L221.641 33.7134L222.758 34.8303C222.927 34.9997 222.977 35.257 222.883 35.4766C222.795 35.6962 222.576 35.8405 222.337 35.8405ZM217.198 34.6483L220.894 34.6546L220.373 34.1338C220.141 33.9016 220.141 33.5252 220.373 33.293L230.036 23.6865L228.223 21.8794L218.56 31.4922C218.328 31.7243 217.951 31.7243 217.719 31.4922L217.192 30.9776" fill="white"/>
<path d="M234.473 27.2442C234.015 27.2442 233.575 27.0685 233.237 26.7547C232.885 26.4285 232.684 25.983 232.666 25.4998L232.578 22.7703L233.77 22.7327L233.858 25.4622C233.864 25.6253 233.933 25.7759 234.052 25.8888C234.171 26.0018 234.341 26.0457 234.498 26.0583C234.661 26.052 234.811 25.983 234.924 25.8637C235.037 25.7445 235.094 25.5877 235.088 25.4245L234.956 21.7852L236.148 21.7476L236.28 25.3806C236.299 25.8637 236.129 26.3218 235.797 26.6732C235.464 27.0246 235.019 27.2253 234.535 27.2379C234.51 27.2442 234.491 27.2442 234.473 27.2442Z" fill="white"/>
<path d="M234.473 27.2442C234.015 27.2442 233.575 27.0685 233.237 26.7547C232.885 26.4285 232.684 25.983 232.666 25.4998L232.578 22.7703L233.77 22.7327L233.858 25.4622C233.864 25.6253 233.933 25.7759 234.052 25.8888C234.171 26.0018 234.341 26.0457 234.498 26.0583C234.661 26.052 234.811 25.983 234.924 25.8637C235.037 25.7445 235.094 25.5877 235.088 25.4245L234.956 21.7852L236.148 21.7476L236.28 25.3806C236.299 25.8637 236.129 26.3218 235.797 26.6732C235.464 27.0246 235.019 27.2253 234.535 27.2379C234.51 27.2442 234.491 27.2442 234.473 27.2442Z" fill="white"/>
<path d="M232.063 27.6521C231.599 27.6521 231.166 27.4827 230.827 27.169C230.476 26.8364 230.269 26.3909 230.256 25.9078L230.168 23.1783L231.36 23.1406L231.448 25.8701C231.455 26.0395 231.524 26.1901 231.643 26.3031C231.762 26.416 231.919 26.485 232.082 26.4662C232.421 26.4537 232.691 26.1713 232.678 25.8325L232.546 22.1994L233.739 22.1555L233.87 25.7886C233.908 26.7862 233.124 27.6145 232.126 27.6521C232.101 27.6521 232.082 27.6521 232.063 27.6521Z" fill="white"/>
<path d="M234.115 35.8531C233.87 35.8531 233.651 35.7025 233.563 35.4829C233.469 35.2632 233.519 35.006 233.688 34.8366L234.811 33.7197L225.148 24.1069C224.916 23.881 224.916 23.5045 225.148 23.2723L227.803 20.6244C228.022 20.4048 228.424 20.4048 228.643 20.6244L238.733 30.6576L237.886 31.4984L228.223 21.8856L226.41 23.6927L236.073 33.2993C236.311 33.5314 236.311 33.9142 236.073 34.1401L235.552 34.6609H239.248L239.254 29.547H240.446L240.44 35.2507C240.44 35.577 240.176 35.8405 239.844 35.8405L234.115 35.8531Z" fill="white"/>
<path d="M228.198 40.3645C228.041 40.3645 227.891 40.308 227.771 40.1888L223.718 36.1668C223.548 35.9973 223.498 35.7401 223.586 35.5205C223.68 35.2946 223.9 35.1503 224.138 35.1503H225.726V24.1068C225.726 23.7806 225.989 23.5107 226.322 23.5107H230.08C230.407 23.5107 230.677 23.7806 230.677 24.1068V35.7464H229.484V24.7029H226.918V35.7464C226.918 36.0726 226.648 36.3362 226.322 36.3362H225.581L228.198 38.9339L231.831 35.326L232.678 36.1668L228.618 40.1888C228.499 40.308 228.349 40.3645 228.198 40.3645Z" fill="white"/>
<path d="M222.331 35.8405L216.602 35.8342C216.276 35.8342 216.006 35.5707 216.006 35.2444L216 29.5407C216 29.3023 216.144 29.0827 216.37 28.9948C216.59 28.9007 216.847 28.9509 217.016 29.1203L218.14 30.2372L227.803 20.6181C228.035 20.3923 228.411 20.3923 228.643 20.6181L231.304 23.2661C231.417 23.379 231.48 23.5233 231.48 23.6865C231.48 23.8433 231.417 23.9939 231.304 24.1069L221.214 34.1338L220.373 33.293L230.036 23.6865L228.223 21.8794L218.56 31.4922C218.328 31.7243 217.951 31.7243 217.719 31.4922L217.192 30.9776L217.198 34.6483L222.337 34.6546" fill="white"/>
<path d="M241.927 18.8236C241.494 18.8236 241.086 18.6542 240.779 18.353L235.182 12.7811C234.874 12.4799 234.705 12.0721 234.705 11.6454C234.705 11.2124 234.874 10.8109 235.175 10.5034L236.631 9.05395C237.246 8.45158 238.313 8.45158 238.928 9.05395L244.525 14.6259C245.158 15.2533 245.158 16.2761 244.525 16.9036L243.069 18.353C242.762 18.6542 242.36 18.8236 241.927 18.8236ZM237.779 9.76926C237.666 9.76926 237.56 9.81946 237.478 9.89476V9.90103L236.023 11.3442C235.941 11.4258 235.897 11.5324 235.897 11.6454C235.897 11.7583 235.941 11.865 236.023 11.9403L241.62 17.5122C241.783 17.6754 242.065 17.6691 242.228 17.5122L243.684 16.069C243.847 15.8996 243.847 15.6298 243.678 15.4667L238.081 9.90103C237.999 9.81946 237.892 9.76926 237.779 9.76926Z" fill="white"/>
<path d="M236 28.5L231.5 24.5L230.5 25.5L230 27.5L233 31.5L236 28.5Z" fill="#333347"/>
<path d="M234.115 35.8531C233.87 35.8531 233.651 35.7025 233.563 35.4829C233.469 35.2632 233.519 35.006 233.688 34.8366L234.811 33.7197L225.148 24.1069C224.916 23.881 224.916 23.5045 225.148 23.2723L227.803 20.6244C228.022 20.4048 228.424 20.4048 228.643 20.6244L238.313 30.2435L239.43 29.1266C239.599 28.9572 239.856 28.907 240.082 29.0011C240.302 29.089 240.446 29.3086 240.446 29.547L240.44 35.2507C240.44 35.577 240.176 35.8405 239.844 35.8405L234.115 35.8531ZM226.41 23.6927L236.073 33.2993C236.311 33.5314 236.311 33.9142 236.073 34.1401L235.552 34.6609H239.248L239.254 30.9839L238.733 31.4984C238.501 31.7306 238.125 31.7306 237.886 31.4984L228.223 21.8856" fill="white"/>
<path d="M224.5 36H226.5V24.5H230L230.5 36H231.5L228 40L224.5 36Z" fill="#333347"/>
<path d="M228.198 40.3645C228.041 40.3645 227.891 40.308 227.778 40.1888L223.718 36.1668C223.548 35.9973 223.498 35.7401 223.586 35.5205C223.68 35.2946 223.9 35.1503 224.138 35.1503H225.726V24.1068C225.726 23.7806 225.989 23.5107 226.322 23.5107H230.08C230.407 23.5107 230.677 23.7806 230.677 24.1068V35.1503H232.251C232.496 35.1503 232.716 35.2946 232.804 35.5205C232.898 35.7401 232.848 35.9973 232.678 36.1668L228.618 40.1888C228.499 40.308 228.349 40.3645 228.198 40.3645ZM225.581 36.3362L228.198 38.9339L230.815 36.3362H230.08C229.748 36.3362 229.484 36.0726 229.484 35.7464V24.7029H226.918V35.7464C226.918 36.0726 226.648 36.3362 226.322 36.3362" fill="white"/>
<path d="M230.501 21.0825L227.803 24.6841C227.345 25.2928 227.47 26.1587 228.085 26.6105C228.694 27.0685 229.566 26.943 230.024 26.3344L231.706 24.088C232.377 23.2096 233.13 22.8833 233.494 22.7892C234.303 22.5758 236.738 21.666 238.043 20.8817C239.342 20.0911 240.013 18.2589 239.944 16.6839L236.06 12.8187L227.815 15.3788C226.811 15.7176 226.447 16.2886 226.297 16.6275C226.146 16.9726 224.502 20.8378 224.502 20.8378C224.314 21.3209 224.207 21.8982 224.483 22.3876C224.759 22.877 225.387 23.8559 225.387 23.8559L227.2 22.0488C227.2 22.0488 227.131 21.0511 227.363 20.5366C227.602 20.0283 227.853 19.1812 228.392 18.9867C228.926 18.7985 229.861 18.4973 229.861 18.4973C229.861 18.4973 229.779 19.564 229.967 20.135C230.162 20.706 230.457 21.0448 230.457 21.0448" fill="#333347"/>
<path d="M228.913 27.4826C228.487 27.4826 228.072 27.3446 227.727 27.0873C227.301 26.7736 227.025 26.3093 226.949 25.7885C226.88 25.2677 227.012 24.7469 227.332 24.3265L229.76 21.0825C229.641 20.8879 229.509 20.637 229.403 20.3232C229.309 20.0283 229.265 19.6581 229.252 19.3255C229.02 19.4008 228.781 19.4824 228.593 19.5452C228.399 19.6142 228.167 20.1726 228.041 20.4675L227.909 20.7875C227.79 21.0385 227.771 21.6535 227.796 22.0111C227.809 22.1805 227.746 22.3499 227.627 22.4692L225.807 24.2763C225.682 24.4018 225.5 24.4645 225.324 24.4457C225.142 24.4269 224.985 24.3265 224.885 24.1759C224.885 24.1759 224.245 23.1782 223.963 22.6825C223.643 22.1115 223.636 21.415 223.95 20.6181C223.956 20.6056 225.6 16.7341 225.751 16.3953C226.071 15.6674 226.717 15.1215 227.621 14.8141L235.878 12.254C236.091 12.185 236.324 12.2414 236.481 12.3983L240.371 16.2698C240.477 16.3765 240.534 16.5145 240.54 16.6651C240.609 18.2651 239.95 20.4236 238.35 21.3836C236.995 22.2056 234.535 23.128 233.644 23.3664C233.513 23.3978 232.822 23.6112 232.182 24.4457L230.501 26.692C230.181 27.1124 229.723 27.3885 229.196 27.4638C229.102 27.4764 229.007 27.4826 228.913 27.4826ZM229.867 17.9075C229.999 17.9075 230.131 17.9514 230.231 18.033C230.388 18.1585 230.476 18.3467 230.457 18.5475C230.432 18.9114 230.425 19.6142 230.538 19.9467C230.683 20.3922 230.909 20.6621 230.915 20.6621C231.147 20.8628 231.166 21.1891 230.978 21.4401L228.286 25.0355C228.154 25.2049 228.104 25.412 228.135 25.619C228.16 25.8261 228.273 26.0144 228.443 26.1336C228.612 26.2653 228.819 26.3093 229.026 26.2904C229.233 26.2591 229.422 26.1461 229.547 25.983L231.229 23.7304C232.088 22.6135 233.061 22.2872 233.343 22.2182C234.058 22.0299 236.468 21.1389 237.729 20.3734C238.802 19.7271 239.342 18.2024 239.354 16.9349L235.891 13.4964L227.991 15.9435C227.42 16.138 227.025 16.4517 226.843 16.8659C226.692 17.211 225.054 21.0699 225.054 21.0699C224.885 21.5029 224.866 21.8542 225.004 22.0927C225.123 22.3123 225.318 22.626 225.494 22.9084L226.598 21.8166C226.592 21.4276 226.61 20.7562 226.824 20.2918L226.943 20.0158C227.175 19.451 227.501 18.673 228.192 18.4283C228.731 18.24 229.679 17.9326 229.679 17.9326C229.742 17.9137 229.804 17.9075 229.867 17.9075Z" fill="white"/>
<path d="M212.41 44H214.09C214.637 44 215.047 44.1467 215.32 44.44C215.593 44.7333 215.73 45.1633 215.73 45.73V49.27C215.73 49.8367 215.593 50.2667 215.32 50.56C215.047 50.8533 214.637 51 214.09 51H212.41V44ZM214.07 50C214.25 50 214.387 49.9467 214.48 49.84C214.58 49.7333 214.63 49.56 214.63 49.32V45.68C214.63 45.44 214.58 45.2667 214.48 45.16C214.387 45.0533 214.25 45 214.07 45H213.51V50H214.07ZM216.473 44H219.473V45H217.573V46.85H219.083V47.85H217.573V50H219.473V51H216.473V44ZM218.073 42.38H219.273L218.203 43.53H217.373L218.073 42.38ZM221.655 51.1C221.129 51.1 220.725 50.95 220.445 50.65C220.172 50.35 220.035 49.9267 220.035 49.38V45.62C220.035 45.0733 220.172 44.65 220.445 44.35C220.725 44.05 221.129 43.9 221.655 43.9C222.182 43.9 222.582 44.05 222.855 44.35C223.135 44.65 223.275 45.0733 223.275 45.62V46.36H222.235V45.55C222.235 45.1167 222.052 44.9 221.685 44.9C221.319 44.9 221.135 45.1167 221.135 45.55V49.46C221.135 49.8867 221.319 50.1 221.685 50.1C222.052 50.1 222.235 49.8867 222.235 49.46V48.39H223.275V49.38C223.275 49.9267 223.135 50.35 222.855 50.65C222.582 50.95 222.182 51.1 221.655 51.1ZM223.933 44H225.033V46.85H226.213V44H227.313V51H226.213V47.85H225.033V51H223.933V44ZM228.133 44H231.133V45H229.233V46.85H230.743V47.85H229.233V50H231.133V51H228.133V44ZM228.333 42.38H229.533L230.233 43.53H229.403L228.333 42.38ZM232.625 45H231.475V44H234.875V45H233.725V51H232.625V45ZM235.408 44H238.408V45H236.508V46.85H238.018V47.85H236.508V50H238.408V51H235.408V44ZM239.041 44H240.671C241.238 44 241.651 44.1333 241.911 44.4C242.171 44.66 242.301 45.0633 242.301 45.61V46.04C242.301 46.7667 242.061 47.2267 241.581 47.42V47.44C241.848 47.52 242.034 47.6833 242.141 47.93C242.254 48.1767 242.311 48.5067 242.311 48.92V50.15C242.311 50.35 242.318 50.5133 242.331 50.64C242.344 50.76 242.378 50.88 242.431 51H241.311C241.271 50.8867 241.244 50.78 241.231 50.68C241.218 50.58 241.211 50.4 241.211 50.14V48.86C241.211 48.54 241.158 48.3167 241.051 48.19C240.951 48.0633 240.774 48 240.521 48H240.141V51H239.041V44ZM240.541 47C240.761 47 240.924 46.9433 241.031 46.83C241.144 46.7167 241.201 46.5267 241.201 46.26V45.72C241.201 45.4667 241.154 45.2833 241.061 45.17C240.974 45.0567 240.834 45 240.641 45H240.141V47H240.541ZM243.074 44H244.174V51H243.074V44ZM244.998 44H247.998V45H246.098V46.85H247.608V47.85H246.098V50H247.998V51H244.998V44Z" fill="white"/>
</g>
<defs>
<clipPath id="clip0_79_1018">
<rect width="260" height="61" fill="white"/>
</clipPath>
</defs>
</svg>
