<svg width="358" height="64" viewBox="0 0 358 64" fill="none" xmlns="http://www.w3.org/2000/svg">
<g clip-path="url(#clip0_291_3619)">
<path d="M30.6493 38.161C28.3723 41.5285 30.3086 45.9466 32.6663 48.1915C34.8087 50.23 36.5299 50.7149 36.763 50.7688L37.8566 48.6675L41.0121 57.3241L32.0746 59.147L33.2669 56.9469L32.0567 56.2645C28.3006 53.813 27.5028 50.4724 27.2428 49.4308C26.7946 47.6348 26.1223 42.2738 30.6493 38.161Z" fill="black"/>
<path d="M30.613 38.3046C32.2356 42.0313 37.0046 42.7497 40.1511 41.9505C42.948 41.2411 44.2747 40.0916 44.4988 39.8761L44.4898 39.8582L43.2886 37.7838L52.2799 39.7504L49.0168 48.2813L47.8246 46.1351L46.6413 46.7727C42.5625 48.6495 39.3174 47.5449 38.3044 47.2127C36.5474 46.629 31.6619 44.3302 30.613 38.3046Z" fill="black"/>
<path d="M46.507 29.316C45.8795 33.77 43.1992 35.9072 42.3655 36.5807C40.9402 37.7481 36.3684 40.6306 30.7388 38.2599C34.7458 38.9065 37.9192 35.2786 38.9501 32.1805C39.8734 29.4147 39.6045 27.6637 39.5507 27.3943L39.5238 27.3853L37.1303 27.2865L43.6295 20.7491L49.0529 28.0947L46.6057 27.951" fill="black"/>
<path fill-rule="evenodd" clip-rule="evenodd" d="M19.2374 25.5532C17.1845 25.5532 15.5261 23.8919 15.5261 21.8355C15.5261 19.7791 17.1845 18.1179 19.2374 18.1179C21.2902 18.1179 22.9486 19.7791 22.9486 21.8355C22.9486 23.8919 21.2902 25.5532 19.2374 25.5532Z" fill="black"/>
<path d="M13.4913 43.6298C13.8051 42.7588 14.2802 42.8216 14.2802 42.8216C14.2802 42.8216 14.7015 42.7228 14.9436 43.6029L18.4128 55.8065C15.5173 54.9624 12.8818 53.5256 10.6317 51.6219L13.4913 43.6298ZM24.3113 11.0418C10.9096 11.0418 0 21.9703 0 35.4042C0 48.8292 10.9096 59.7577 24.3113 59.7577C25.0284 59.7577 25.7366 59.7128 26.4358 59.6499L26.5972 62.0925L31.0435 57.7821L26.0683 53.9836L26.2566 56.5519C25.6111 56.6057 24.9747 56.6506 24.3113 56.6506C23.2804 56.6506 22.2764 56.5698 21.2814 56.4261L21.1827 55.7796L18.8699 36.0598C18.5562 32.3421 20.6807 31.7494 21.9895 32.3062L29.3582 35.2695C30.2098 35.6377 30.6132 34.9283 30.6132 34.9283C30.6132 34.9283 31.0883 34.192 30.2367 33.6352C30.2367 33.6352 20.1877 26.9721 18.0452 26.568C15.1228 26.0203 12.2274 28.3909 11.5819 31.48L8.02309 48.9908C4.94832 45.3091 3.10166 40.5677 3.10166 35.4042C3.10166 23.6765 12.6128 14.1488 24.3113 14.1488C30.5594 14.1488 36.1891 16.8698 40.0706 21.1891L42.2489 18.971C37.8026 14.104 31.4111 11.0418 24.3113 11.0418Z" fill="black"/>
<path d="M116.725 26.9272L112.108 22.6797V26.8105H103.251V35.521H112.108V39.6428L116.725 35.4042L121.332 31.1657" fill="black"/>
<path d="M73.3285 48.5508H88.2451V34.4254C88.2451 34.0483 88.4693 33.6981 88.8278 33.5544C89.1774 33.4107 89.5898 33.4915 89.8587 33.7609L91.1048 35.0091L94.305 31.8123L88.6485 26.155L85.3676 24.799C84.3277 26.1101 82.6245 26.9183 80.7868 26.9183C78.9581 26.9183 77.2549 26.1101 76.224 24.799L72.9161 26.1729L67.2775 31.8123L70.4778 35.0091L71.7149 33.7699C71.9838 33.5005 72.3872 33.4197 72.7458 33.5634C73.0954 33.716 73.3285 34.0573 73.3285 34.4434V48.5508ZM89.1864 50.4545H72.3783C71.8583 50.4545 71.437 50.0325 71.437 49.5027V36.7333L71.1412 37.0206C70.7736 37.3978 70.173 37.3978 69.8055 37.0206L65.2695 32.4858C65.0902 32.3062 64.9916 32.0637 64.9916 31.8123C64.9916 31.5609 65.0902 31.3184 65.2695 31.1478L71.7149 24.6912C71.7956 24.6014 71.9031 24.5386 72.0197 24.4847L76.1971 22.7606C76.6274 22.581 77.1921 22.7695 77.4162 23.1916C78.0168 24.3051 79.3346 25.0235 80.7868 25.0235C82.248 25.0235 83.5747 24.2961 84.1664 23.1826C84.3367 22.8773 84.6504 22.6797 85.0001 22.6797C85.1256 22.6797 85.269 22.7067 85.3855 22.7516L89.545 24.4757C89.6615 24.5206 89.7691 24.5925 89.8587 24.6823L96.3131 31.1478C96.4834 31.3184 96.5909 31.5609 96.5909 31.8123C96.5909 32.0637 96.4834 32.3062 96.3131 32.4858L91.7771 37.0206C91.5978 37.2002 91.3558 37.299 91.1048 37.299C90.8538 37.299 90.6117 37.2002 90.4324 37.0206L90.1366 36.7243V49.5027C90.1366 50.0325 89.7063 50.4545 89.1864 50.4545Z" fill="black"/>
<path d="M181.438 31.7226C181.689 31.5879 181.895 31.3813 182.048 31.094C182.191 30.8156 182.272 30.4744 182.272 30.0793C182.272 29.4776 182.11 29.0196 181.797 28.7053C181.483 28.3821 181.106 28.2204 180.649 28.2204C180.201 28.2204 179.825 28.3821 179.511 28.7053C179.206 29.0196 179.054 29.4776 179.054 30.0793C179.054 30.6719 179.206 31.1299 179.502 31.4532C179.798 31.7765 180.174 31.9381 180.631 31.9381C180.918 31.9381 181.187 31.8663 181.438 31.7226ZM179 32.9169C178.516 32.6475 178.139 32.2704 177.861 31.7765C177.592 31.2826 177.449 30.7168 177.449 30.0793C177.449 29.4327 177.592 28.867 177.879 28.3731C178.157 27.8882 178.543 27.502 179.036 27.2416C179.529 26.9722 180.076 26.8375 180.676 26.8375C181.277 26.8375 181.824 26.9722 182.317 27.2416C182.81 27.502 183.195 27.8882 183.473 28.3731C183.76 28.867 183.903 29.4327 183.903 30.0793C183.903 30.7168 183.751 31.2826 183.464 31.7765C183.177 32.2704 182.783 32.6475 182.281 32.9169C181.797 33.1863 181.241 33.312 180.631 33.312C180.031 33.312 179.484 33.1863 179 32.9169Z" fill="black"/>
<path d="M190.699 26.9362V33.2132H189.103V32.4229C188.897 32.6923 188.637 32.9078 188.305 33.0605C187.973 33.2132 187.624 33.294 187.238 33.294C186.745 33.294 186.315 33.1952 185.939 32.9887C185.562 32.7731 185.266 32.4678 185.051 32.0637C184.827 31.6596 184.719 31.1837 184.719 30.618V26.9362H186.306V30.3935C186.306 30.8963 186.432 31.2735 186.683 31.5429C186.934 31.8123 187.274 31.947 187.696 31.947C188.135 31.947 188.484 31.8123 188.726 31.5429C188.977 31.2735 189.103 30.8963 189.103 30.3935V26.9362" fill="black"/>
<path d="M271.36 31.7226C271.611 31.5879 271.808 31.3813 271.96 31.094C272.113 30.8156 272.184 30.4744 272.184 30.0793C272.184 29.4776 272.032 29.0196 271.718 28.7053C271.404 28.3821 271.019 28.2204 270.571 28.2204C270.114 28.2204 269.737 28.3821 269.432 28.7053C269.127 29.0196 268.975 29.4776 268.975 30.0793C268.975 30.6719 269.127 31.1299 269.423 31.4532C269.719 31.7765 270.096 31.9381 270.544 31.9381C270.831 31.9381 271.109 31.8663 271.36 31.7226ZM268.921 32.9169C268.437 32.6475 268.061 32.2704 267.783 31.7765C267.505 31.2826 267.37 30.7168 267.37 30.0793C267.37 29.4327 267.514 28.867 267.792 28.3731C268.079 27.8882 268.464 27.502 268.948 27.2416C269.441 26.9722 269.988 26.8375 270.598 26.8375C271.198 26.8375 271.745 26.9722 272.238 27.2416C272.722 27.502 273.108 27.8882 273.395 28.3731C273.672 28.867 273.816 29.4327 273.816 30.0793C273.816 30.7168 273.672 31.2826 273.386 31.7765C273.09 32.2704 272.695 32.6475 272.202 32.9169C271.709 33.1863 271.153 33.312 270.544 33.312C269.943 33.312 269.396 33.1863 268.921 32.9169Z" fill="black"/>
<path d="M280.62 26.9362V33.2132H279.024V32.4229C278.818 32.6923 278.549 32.9078 278.226 33.0605C277.894 33.2132 277.536 33.294 277.15 33.294C276.666 33.294 276.227 33.1952 275.851 32.9887C275.474 32.7731 275.178 32.4678 274.963 32.0637C274.748 31.6596 274.64 31.1837 274.64 30.618V26.9362H276.227V30.3935C276.227 30.8963 276.353 31.2735 276.604 31.5429C276.846 31.8123 277.186 31.947 277.617 31.947C278.056 31.947 278.397 31.8123 278.648 31.5429C278.899 31.2735 279.024 30.8963 279.024 30.3935V26.9362" fill="black"/>
<path d="M324.133 37.0924H316.907C316.746 37.0924 316.585 37.0295 316.468 36.9308L311.197 32.36C311.081 32.2612 310.928 32.2073 310.776 32.2073H308.427V29.0464H313.797C314.505 29.0464 315.204 29.3338 315.706 29.8366L319.552 33.689C319.722 33.8596 319.812 34.0841 319.803 34.3356C319.803 34.3894 319.794 34.4433 319.785 34.4972C319.776 34.5152 319.776 34.5331 319.767 34.5421C319.722 34.7037 319.633 34.8474 319.507 34.9552C319.166 35.2515 318.629 35.2156 318.288 34.8744L315.428 32.0098C315.177 31.7583 314.756 31.7583 314.505 32.0098C314.254 32.2702 314.254 32.6833 314.505 32.9347L317.365 35.7993C318.189 36.6344 319.516 36.6883 320.368 35.934C320.565 35.7634 320.726 35.5658 320.843 35.3413L324.187 35.3503C324.429 35.3503 324.653 35.4491 324.823 35.6287C324.984 35.8083 325.065 36.0328 325.056 36.2752C325.02 36.7242 324.617 37.0924 324.133 37.0924ZM324.195 34.0482L321.085 34.0392C321.031 33.5633 320.816 33.1143 320.466 32.7641L316.63 28.9117C315.886 28.1664 314.855 27.7354 313.797 27.7354H307.773C307.414 27.7354 307.118 28.0317 307.118 28.3909V32.8539C307.118 33.2221 307.414 33.5094 307.773 33.5094H310.525L315.617 37.9096C315.975 38.2239 316.432 38.3945 316.907 38.3945H324.133C325.307 38.3945 326.284 37.5055 326.356 36.365C326.392 35.7544 326.186 35.1797 325.773 34.7397C325.361 34.2996 324.787 34.0482 324.195 34.0482Z" fill="black"/>
<path d="M317.625 22.7966C317.974 21.8088 318.665 21.2072 319.525 21.1353C319.579 21.1353 319.624 21.1353 319.678 21.1353C320.502 21.1353 321.291 21.6202 321.703 22.4195C321.811 22.635 322.035 22.7607 322.277 22.7607C322.519 22.7607 322.743 22.635 322.851 22.4195C323.299 21.5753 324.16 21.0725 325.029 21.1353C325.89 21.2072 326.589 21.8088 326.939 22.7966C327.781 25.1763 324.429 28.0498 322.277 29.4058C320.126 28.0498 316.782 25.1763 317.625 22.7966ZM321.946 30.7348C322.053 30.7977 322.161 30.8246 322.277 30.8246C322.394 30.8246 322.51 30.7977 322.609 30.7348C323.335 30.3128 329.61 26.4245 328.167 22.3566C327.638 20.8839 326.508 19.941 325.128 19.8422C324.061 19.7614 323.021 20.1924 322.277 20.9916C321.542 20.1924 320.493 19.7614 319.427 19.8422C318.055 19.941 316.917 20.8839 316.397 22.3566C314.953 26.4245 321.228 30.3128 321.946 30.7348Z" fill="black"/>
<path d="M243.857 39.8942H238.523L237.779 36.7333H244.61L243.857 39.8942ZM245.372 36.1227C245.3 36.0329 245.193 35.979 245.076 35.979H237.6L237.206 34.3087C237.17 34.1381 237.017 34.0214 236.838 34.0214H235.009C234.803 34.0214 234.633 34.192 234.633 34.3985C234.633 34.6051 234.803 34.7757 235.009 34.7757H236.542L236.937 36.437L237.869 40.3522C237.905 40.5228 238.057 40.6485 238.228 40.6485H244.153C244.332 40.6485 244.476 40.5228 244.52 40.3522L245.444 36.437C245.471 36.3292 245.444 36.2125 245.372 36.1227Z" fill="black"/>
<path d="M239.33 41.2411C238.828 41.2411 238.425 41.6542 238.425 42.1481C238.425 42.651 238.828 43.0551 239.33 43.0551C239.832 43.0551 240.236 42.651 240.236 42.1481C240.236 41.6542 239.832 41.2411 239.33 41.2411Z" fill="black"/>
<path d="M243.05 41.2411C242.548 41.2411 242.145 41.6542 242.145 42.1481C242.145 42.651 242.548 43.0551 243.05 43.0551C243.552 43.0551 243.965 42.651 243.965 42.1481C243.965 41.6542 243.552 41.2411 243.05 41.2411Z" fill="black"/>
<path d="M220.729 21.1711H223.517L222.567 26.3435H218.784L220.729 21.1711ZM239.76 26.3435H235.995L235.045 21.1711H237.815L239.76 26.3435ZM236.82 27.6007H239.939C239.715 28.2382 239.106 28.7052 238.38 28.7052C237.663 28.7052 237.053 28.2382 236.82 27.6007ZM233.826 28.7052C233.109 28.7052 232.49 28.2382 232.266 27.6007H235.386C235.161 28.2382 234.543 28.7052 233.826 28.7052ZM229.272 28.7052C228.546 28.7052 227.936 28.2382 227.712 27.6007H230.832C230.608 28.2382 229.989 28.7052 229.272 28.7052ZM224.709 28.7052C223.992 28.7052 223.382 28.2382 223.149 27.6007H226.278C226.045 28.2382 225.435 28.7052 224.709 28.7052ZM227.04 26.3435L227.407 21.1711H231.154L231.522 26.3435H227.04ZM220.155 28.7052C219.438 28.7052 218.819 28.2382 218.595 27.6007H221.715C221.491 28.2382 220.872 28.7052 220.155 28.7052ZM232.58 33.6082H229.846V38.2598H228.698V33.6082H225.964V38.2598H220.075V29.9534C220.101 29.9534 220.128 29.9624 220.155 29.9624C221.079 29.9624 221.903 29.5223 222.432 28.8489C222.97 29.5223 223.786 29.9624 224.709 29.9624C225.641 29.9624 226.457 29.5223 226.986 28.8489C227.524 29.5223 228.349 29.9624 229.272 29.9624C230.195 29.9624 231.011 29.5223 231.549 28.8489C232.078 29.5223 232.902 29.9624 233.826 29.9624C234.749 29.9624 235.574 29.5223 236.103 28.8489C236.641 29.5223 237.456 29.9624 238.38 29.9624C238.514 29.9624 238.64 29.9444 238.765 29.9354V34.0123H240.011V29.4595C240.782 28.9387 241.284 28.0496 241.284 27.0529C241.284 27.0349 241.284 27.0259 241.284 27.008C241.284 26.9182 241.275 26.8374 241.239 26.7476L238.828 20.3269C238.738 20.0845 238.505 19.9229 238.245 19.9229H220.29C220.03 19.9229 219.797 20.0845 219.707 20.3269L217.296 26.7476C217.26 26.8374 217.251 26.9182 217.26 27.008C217.26 27.0259 217.251 27.0349 217.251 27.0529C217.251 28.1754 217.896 29.1452 218.819 29.6301V38.8884C218.819 39.2296 219.106 39.508 219.447 39.508H234.624V38.2598H232.58" fill="black"/>
<path d="M140.821 32.9887H142.874V32.1177H140.821V32.9887Z" fill="black"/>
<path d="M134.026 21.8356L135.98 19.6445L138.481 22.1589V39.1399L134.026 36.7782V21.8356ZM147.401 19.3751L150.188 22.1679V39.4362H139.691V22.0511C139.736 21.8536 139.682 21.6381 139.53 21.4944L137.423 19.3751H147.401ZM151.399 21.8805C151.399 21.8626 151.399 21.8266 151.39 21.7997C151.39 21.7817 151.381 21.7638 151.372 21.7368C151.372 21.7189 151.372 21.7009 151.363 21.6919C151.354 21.665 151.336 21.647 151.327 21.6201C151.318 21.6111 151.309 21.5932 151.3 21.5842C151.282 21.5483 151.255 21.5123 151.228 21.4944L148.082 18.3335C147.965 18.2167 147.813 18.1539 147.652 18.1539H135.962C135.953 18.1539 135.953 18.1539 135.944 18.1539C135.89 18.1539 135.845 18.1629 135.792 18.1808C135.783 18.1808 135.774 18.1898 135.756 18.1898C135.72 18.2077 135.675 18.2257 135.639 18.2437C135.63 18.2527 135.621 18.2526 135.612 18.2616C135.577 18.2886 135.532 18.3245 135.505 18.3514L132.959 21.1981C132.86 21.3058 132.807 21.4495 132.807 21.6021V37.1463C132.807 37.3798 132.932 37.5863 133.129 37.6851L133.416 37.8378V38.6639H134.985L138.615 40.5856C138.705 40.6305 138.804 40.6575 138.902 40.6575C138.929 40.6575 138.956 40.6485 138.983 40.6485C139.019 40.6485 139.055 40.6575 139.091 40.6575H139.691V41.313H141.296V40.6575H148.611V41.313H150.215V40.6575H150.798C151.139 40.6575 151.408 40.3791 151.408 40.0468V21.9164C151.408 21.9075 151.399 21.8985 151.399 21.8805Z" fill="black"/>
<path d="M147.876 23.3442V25.9214L146.145 24.314H142.031V23.3442H147.876ZM141.421 27.3402H148.485C148.817 27.3402 149.095 27.0708 149.095 26.7386V22.7425C149.095 22.4013 148.817 22.1319 148.485 22.1319H141.421C141.09 22.1319 140.821 22.4013 140.821 22.7425V26.7386C140.821 27.0708 141.09 27.3402 141.421 27.3402Z" fill="black"/>
<path d="M115.057 48.03C115.362 47.4732 115.792 47.0332 116.33 46.7189C116.859 46.4046 117.46 46.252 118.123 46.252C118.93 46.252 119.62 46.4405 120.194 46.8267C120.768 47.2038 121.189 47.7426 121.449 48.443H120.597C120.391 47.9492 120.077 47.572 119.656 47.2936C119.235 47.0152 118.724 46.8805 118.123 46.8805C117.594 46.8805 117.119 47.0063 116.689 47.2487C116.268 47.5002 115.936 47.8594 115.694 48.3263C115.452 48.7843 115.335 49.3231 115.335 49.9427C115.335 50.5533 115.452 51.0921 115.694 51.5501C115.936 52.017 116.268 52.3762 116.689 52.6187C117.119 52.8701 117.594 52.9958 118.123 52.9958C118.724 52.9958 119.235 52.8611 119.656 52.5828C120.077 52.3134 120.391 51.9362 120.597 51.4513H121.449C121.189 52.1428 120.768 52.6726 120.185 53.0587C119.611 53.4359 118.921 53.6244 118.123 53.6244C117.46 53.6244 116.859 53.4628 116.33 53.1575C115.792 52.8432 115.362 52.4032 115.057 51.8464C114.744 51.2807 114.591 50.6521 114.591 49.9427C114.591 49.2333 114.744 48.5957 115.057 48.03Z" fill="black"/>
<path d="M127.213 52.6277C127.634 52.3852 127.975 52.026 128.217 51.5591C128.468 51.0921 128.594 50.5533 128.594 49.9427C128.594 49.3231 128.468 48.7843 128.217 48.3263C127.975 47.8683 127.634 47.5091 127.213 47.2577C126.783 47.0152 126.299 46.8895 125.761 46.8895C125.223 46.8895 124.748 47.0152 124.318 47.2577C123.887 47.5091 123.556 47.8683 123.305 48.3263C123.054 48.7843 122.937 49.3231 122.937 49.9427C122.937 50.5533 123.054 51.0921 123.305 51.5591C123.556 52.026 123.887 52.3852 124.318 52.6277C124.748 52.8791 125.223 53.0048 125.761 53.0048C126.299 53.0048 126.783 52.8791 127.213 52.6277ZM123.95 53.1665C123.403 52.8522 122.973 52.4122 122.659 51.8464C122.346 51.2897 122.193 50.6521 122.193 49.9427C122.193 49.2333 122.346 48.5957 122.659 48.03C122.973 47.4732 123.403 47.0332 123.95 46.7189C124.488 46.4046 125.098 46.252 125.761 46.252C126.433 46.252 127.052 46.4046 127.59 46.7189C128.136 47.0332 128.567 47.4732 128.872 48.03C129.185 48.5957 129.338 49.2333 129.338 49.9427C129.338 50.6521 129.185 51.2897 128.872 51.8464C128.567 52.4122 128.136 52.8522 127.59 53.1665C127.052 53.4718 126.433 53.6334 125.761 53.6334C125.098 53.6334 124.488 53.4718 123.95 53.1665Z" fill="black"/>
<path d="M135.738 53.5616H135.021L131.023 47.4822V53.5616H130.297V46.3328H131.023L135.021 52.4032V46.3328H135.738" fill="black"/>
<path d="M141.242 46.3328V46.9344H139.243V53.5616H138.517V46.9344H136.5V46.3328" fill="black"/>
<path d="M142.748 46.9165V49.6195H145.491V50.2211H142.748V52.96H145.796V53.5616H142.031V46.3149H145.796V46.9165" fill="black"/>
<path d="M152.304 53.5616H151.578L147.58 47.4822V53.5616H146.863V46.3328H147.58L151.578 52.4032V46.3328H152.304" fill="black"/>
<path d="M154.303 46.9165V49.6195H157.046V50.2211H154.303V52.96H157.351V53.5616H153.586V46.3149H157.351V46.9165" fill="black"/>
<path d="M159.108 46.3328V50.8856C159.108 51.595 159.278 52.1338 159.619 52.475C159.96 52.8162 160.426 52.9958 161.017 52.9958C161.609 52.9958 162.075 52.8252 162.407 52.484C162.739 52.1338 162.909 51.604 162.909 50.8856V46.3328H163.635V50.8766C163.635 51.7925 163.384 52.484 162.9 52.942C162.416 53.3999 161.788 53.6334 161.008 53.6334C160.228 53.6334 159.601 53.3999 159.117 52.942C158.624 52.484 158.382 51.7925 158.382 50.8766V46.3328" fill="black"/>
<path d="M165.607 49.9517H167.059C167.624 49.9517 168.046 49.808 168.332 49.5386C168.619 49.2602 168.763 48.892 168.763 48.4341C168.763 47.9581 168.628 47.5899 168.35 47.3295C168.072 47.0691 167.642 46.9434 167.051 46.9434H165.607V49.9517ZM168.727 53.5616L166.934 50.5443H165.607V53.5616H164.881V46.3328H167.051C167.857 46.3328 168.467 46.5213 168.879 46.9075C169.301 47.2936 169.507 47.8055 169.507 48.4341C169.507 48.9549 169.354 49.4039 169.059 49.7721C168.763 50.1402 168.315 50.3827 167.732 50.4905L169.587 53.5616" fill="black"/>
<path d="M185.894 46.4226V53.5616H185.167V47.8594L182.631 53.5616H182.102L179.556 47.8863V53.5616H178.839V46.4226H179.601L182.362 52.6097L185.114 46.4226" fill="black"/>
<path d="M191.138 51.2448L189.712 47.3386L188.287 51.2448H191.138ZM191.353 51.8465H188.072L187.444 53.5616H186.673L189.309 46.4226H190.125L192.742 53.5616H191.98" fill="black"/>
<path d="M199.224 48.443C199.018 47.9671 198.704 47.59 198.282 47.3206C197.852 47.0512 197.359 46.9075 196.785 46.9075C196.248 46.9075 195.763 47.0332 195.342 47.2846C194.912 47.5271 194.58 47.8863 194.329 48.3443C194.078 48.8022 193.962 49.3321 193.962 49.9427C193.962 50.5443 194.078 51.0831 194.329 51.5411C194.58 52.0081 194.912 52.3583 195.342 52.6097C195.763 52.8611 196.248 52.9869 196.785 52.9869C197.287 52.9869 197.745 52.8791 198.148 52.6546C198.551 52.4391 198.874 52.1248 199.116 51.7297C199.358 51.3256 199.502 50.8497 199.537 50.3109H196.499V49.7272H200.299V50.248C200.264 50.8856 200.093 51.4603 199.779 51.9721C199.466 52.493 199.053 52.8971 198.533 53.1844C198.014 53.4808 197.431 53.6334 196.785 53.6334C196.113 53.6334 195.512 53.4718 194.966 53.1665C194.428 52.8522 193.997 52.4122 193.684 51.8464C193.37 51.2897 193.218 50.6521 193.218 49.9427C193.218 49.2333 193.37 48.5957 193.684 48.03C193.997 47.4732 194.428 47.0332 194.966 46.7189C195.512 46.4046 196.113 46.252 196.785 46.252C197.556 46.252 198.229 46.4405 198.811 46.8267C199.385 47.2128 199.806 47.7516 200.066 48.443" fill="black"/>
<path d="M205.221 51.2448L203.795 47.3386L202.37 51.2448H205.221ZM205.445 51.8465H202.155L201.527 53.5616H200.765L203.392 46.4226H204.208L206.834 53.5616H206.072" fill="black"/>
<path d="M208.564 53.382C208.206 53.2203 207.919 52.9869 207.713 52.6905C207.506 52.3942 207.39 52.0619 207.381 51.7027H208.143C208.179 52.053 208.331 52.3583 208.609 52.6277C208.887 52.8881 209.29 53.0228 209.819 53.0228C210.312 53.0228 210.698 52.8971 210.985 52.6456C211.272 52.3942 211.406 52.0799 211.406 51.6938C211.406 51.3795 211.334 51.128 211.173 50.9395C211.012 50.7509 210.814 50.6072 210.581 50.5174C210.348 50.4186 210.025 50.3198 209.613 50.2121C209.129 50.0774 208.753 49.9517 208.466 49.8259C208.188 49.7002 207.946 49.5117 207.749 49.2423C207.542 48.9908 207.444 48.6316 207.444 48.1826C207.444 47.8055 207.542 47.4822 207.731 47.1859C207.928 46.8895 208.197 46.656 208.546 46.4944C208.896 46.3328 209.299 46.252 209.757 46.252C210.429 46.252 210.967 46.4136 211.37 46.7369C211.782 47.0691 212.016 47.4912 212.078 48.003H211.298C211.245 47.7067 211.083 47.4463 210.814 47.2128C210.536 46.9883 210.16 46.8716 209.694 46.8716C209.263 46.8716 208.896 46.9883 208.609 47.2128C208.322 47.4463 208.179 47.7606 208.179 48.1647C208.179 48.461 208.251 48.7124 208.412 48.901C208.573 49.0806 208.77 49.2243 209.012 49.3231C209.246 49.4129 209.568 49.5206 209.972 49.6284C210.447 49.7631 210.823 49.8888 211.11 50.0145C211.397 50.1492 211.648 50.3378 211.845 50.5982C212.042 50.8676 212.141 51.2178 212.141 51.6578C212.141 51.9991 212.051 52.3134 211.872 52.6187C211.693 52.924 211.433 53.1665 211.083 53.355C210.725 53.5436 210.312 53.6334 209.819 53.6334C209.344 53.6334 208.923 53.5526 208.564 53.382Z" fill="black"/>
<path d="M213.181 53.5616H213.898V46.3328H213.181V53.5616Z" fill="black"/>
<path d="M220.621 53.5616H219.895L215.897 47.4822V53.5616H215.18V46.3328H215.897L219.895 52.4032V46.3328H220.621" fill="black"/>
<path d="M230.088 46.3328L227.354 53.5616H226.529L223.795 46.3328H224.575L226.941 52.7803L229.326 46.3328" fill="black"/>
<path d="M235.502 52.6277C235.932 52.3852 236.264 52.026 236.515 51.5591C236.766 51.0921 236.883 50.5533 236.883 49.9427C236.883 49.3231 236.766 48.7843 236.515 48.3263C236.264 47.8683 235.932 47.5091 235.502 47.2577C235.072 47.0152 234.597 46.8895 234.059 46.8895C233.521 46.8895 233.037 47.0152 232.607 47.2577C232.185 47.5091 231.845 47.8683 231.603 48.3263C231.352 48.7843 231.226 49.3231 231.226 49.9427C231.226 50.5533 231.352 51.0921 231.603 51.5591C231.845 52.026 232.185 52.3852 232.607 52.6277C233.037 52.8791 233.521 53.0048 234.059 53.0048C234.597 53.0048 235.072 52.8791 235.502 52.6277ZM232.239 53.1665C231.701 52.8522 231.262 52.4122 230.957 51.8464C230.643 51.2897 230.482 50.6521 230.482 49.9427C230.482 49.2333 230.643 48.5957 230.957 48.03C231.262 47.4732 231.701 47.0332 232.239 46.7189C232.777 46.4046 233.387 46.252 234.059 46.252C234.731 46.252 235.341 46.4046 235.888 46.7189C236.425 47.0332 236.856 47.4732 237.169 48.03C237.474 48.5957 237.627 49.2333 237.627 49.9427C237.627 50.6521 237.474 51.2897 237.169 51.8464C236.856 52.4122 236.425 52.8522 235.888 53.1665C235.341 53.4718 234.731 53.6334 234.059 53.6334C233.387 53.6334 232.777 53.4718 232.239 53.1665Z" fill="black"/>
<path d="M239.312 52.9689H241.903V53.5616H238.595V46.3328H239.312" fill="black"/>
<path d="M247.264 52.6277C247.694 52.3852 248.026 52.026 248.277 51.5591C248.528 51.0921 248.653 50.5533 248.653 49.9427C248.653 49.3231 248.528 48.7843 248.277 48.3263C248.026 47.8683 247.694 47.5091 247.264 47.2577C246.833 47.0152 246.358 46.8895 245.82 46.8895C245.283 46.8895 244.798 47.0152 244.368 47.2577C243.947 47.5091 243.606 47.8683 243.364 48.3263C243.113 48.7843 242.988 49.3231 242.988 49.9427C242.988 50.5533 243.113 51.0921 243.364 51.5591C243.606 52.026 243.947 52.3852 244.368 52.6277C244.798 52.8791 245.283 53.0048 245.82 53.0048C246.358 53.0048 246.833 52.8791 247.264 52.6277ZM244.001 53.1665C243.463 52.8522 243.032 52.4122 242.719 51.8464C242.405 51.2897 242.244 50.6521 242.244 49.9427C242.244 49.2333 242.405 48.5957 242.719 48.03C243.032 47.4732 243.463 47.0332 244.001 46.7189C244.547 46.4046 245.148 46.252 245.82 46.252C246.493 46.252 247.102 46.4046 247.649 46.7189C248.187 47.0332 248.617 47.4732 248.931 48.03C249.236 48.5957 249.397 49.2333 249.397 49.9427C249.397 50.6521 249.236 51.2897 248.931 51.8464C248.617 52.4122 248.187 52.8522 247.649 53.1665C247.102 53.4718 246.493 53.6334 245.82 53.6334C245.148 53.6334 244.547 53.4718 244.001 53.1665Z" fill="black"/>
<path d="M255.797 53.5616H255.071L251.073 47.4822V53.5616H250.356V46.3328H251.073L255.071 52.4032V46.3328H255.797" fill="black"/>
<path d="M261.302 46.3328V46.9344H259.294V53.5616H258.576V46.9344H256.56V46.3328" fill="black"/>
<path d="M266.053 51.2448L264.627 47.3386L263.202 51.2448H266.053ZM266.268 51.8465H262.987L262.35 53.5616H261.589L264.224 46.4226H265.04L267.657 53.5616H266.895" fill="black"/>
<path d="M268.455 53.5616H269.181V46.3328H268.455V53.5616Z" fill="black"/>
<path d="M271.18 49.9517H272.642C273.206 49.9517 273.628 49.808 273.914 49.5386C274.192 49.2602 274.345 48.892 274.345 48.4341C274.345 47.9581 274.201 47.5899 273.923 47.3295C273.655 47.0691 273.215 46.9434 272.624 46.9434H271.18V49.9517ZM274.3 53.5616L272.516 50.5443H271.18V53.5616H270.463V46.3328H272.624C273.43 46.3328 274.04 46.5213 274.461 46.9075C274.874 47.2936 275.08 47.8055 275.08 48.4341C275.08 48.9549 274.936 49.4039 274.641 49.7721C274.336 50.1402 273.897 50.3827 273.305 50.4905L275.169 53.5616" fill="black"/>
<path d="M276.882 46.9165V49.6195H279.616V50.2211H276.882V52.96H279.93V53.5616H276.164V46.3149H279.93V46.9165" fill="black"/>
<path d="M293.287 51.2448L291.861 47.3386L290.436 51.2448H293.287ZM293.502 51.8465H290.221L289.593 53.5616H288.822L291.458 46.4226H292.274L294.9 53.5616H294.138" fill="black"/>
<path d="M296.63 53.382C296.263 53.2203 295.985 52.9869 295.779 52.6905C295.572 52.3942 295.456 52.0619 295.447 51.7027H296.209C296.245 52.053 296.397 52.3583 296.675 52.6277C296.953 52.8881 297.347 53.0228 297.885 53.0228C298.369 53.0228 298.755 52.8971 299.042 52.6456C299.328 52.3942 299.472 52.0799 299.472 51.6938C299.472 51.3795 299.391 51.128 299.239 50.9395C299.077 50.7509 298.88 50.6072 298.647 50.5174C298.414 50.4186 298.091 50.3198 297.679 50.2121C297.195 50.0774 296.809 49.9517 296.532 49.8259C296.245 49.7002 296.003 49.5117 295.805 49.2423C295.608 48.9908 295.51 48.6316 295.51 48.1826C295.51 47.8055 295.599 47.4822 295.796 47.1859C295.985 46.8895 296.263 46.656 296.612 46.4944C296.962 46.3328 297.365 46.252 297.822 46.252C298.486 46.252 299.024 46.4136 299.436 46.7369C299.848 47.0691 300.081 47.4912 300.144 48.003H299.355C299.31 47.7067 299.149 47.4463 298.871 47.2128C298.593 46.9883 298.226 46.8716 297.76 46.8716C297.32 46.8716 296.962 46.9883 296.675 47.2128C296.388 47.4463 296.245 47.7606 296.245 48.1647C296.245 48.461 296.316 48.7124 296.478 48.901C296.639 49.0806 296.836 49.2243 297.069 49.3231C297.311 49.4129 297.625 49.5206 298.038 49.6284C298.504 49.7631 298.88 49.8888 299.167 50.0145C299.463 50.1492 299.705 50.3378 299.902 50.5982C300.108 50.8676 300.207 51.2178 300.207 51.6578C300.207 51.9991 300.117 52.3134 299.938 52.6187C299.759 52.924 299.49 53.1665 299.14 53.355C298.791 53.5436 298.369 53.6334 297.885 53.6334C297.41 53.6334 296.989 53.5526 296.63 53.382Z" fill="black"/>
<path d="M302.17 53.382C301.811 53.2203 301.525 52.9869 301.318 52.6905C301.112 52.3942 301.005 52.0619 300.987 51.7027H301.749C301.794 52.053 301.946 52.3583 302.224 52.6277C302.493 52.8881 302.896 53.0228 303.425 53.0228C303.918 53.0228 304.304 52.8971 304.59 52.6456C304.877 52.3942 305.012 52.0799 305.012 51.6938C305.012 51.3795 304.94 51.128 304.779 50.9395C304.617 50.7509 304.42 50.6072 304.196 50.5174C303.954 50.4186 303.631 50.3198 303.219 50.2121C302.744 50.0774 302.358 49.9517 302.071 49.8259C301.794 49.7002 301.552 49.5117 301.354 49.2423C301.148 48.9908 301.05 48.6316 301.05 48.1826C301.05 47.8055 301.148 47.4822 301.345 47.1859C301.534 46.8895 301.803 46.656 302.152 46.4944C302.511 46.3328 302.905 46.252 303.362 46.252C304.035 46.252 304.572 46.4136 304.985 46.7369C305.388 47.0691 305.63 47.4912 305.684 48.003H304.904C304.859 47.7067 304.698 47.4463 304.42 47.2128C304.142 46.9883 303.766 46.8716 303.3 46.8716C302.869 46.8716 302.511 46.9883 302.224 47.2128C301.928 47.4463 301.785 47.7606 301.785 48.1647C301.785 48.461 301.865 48.7124 302.027 48.901C302.179 49.0806 302.376 49.2243 302.618 49.3231C302.851 49.4129 303.174 49.5206 303.577 49.6284C304.053 49.7631 304.429 49.8888 304.716 50.0145C305.003 50.1492 305.254 50.3378 305.451 50.5982C305.648 50.8676 305.756 51.2178 305.756 51.6578C305.756 51.9991 305.666 52.3134 305.478 52.6187C305.299 52.924 305.039 53.1665 304.689 53.355C304.33 53.5436 303.918 53.6334 303.425 53.6334C302.95 53.6334 302.529 53.5526 302.17 53.382Z" fill="black"/>
<path d="M311.475 52.6277C311.896 52.3852 312.237 52.026 312.479 51.5591C312.73 51.0921 312.856 50.5533 312.856 49.9427C312.856 49.3231 312.73 48.7843 312.479 48.3263C312.237 47.8683 311.896 47.5091 311.475 47.2577C311.045 47.0152 310.561 46.8895 310.023 46.8895C309.485 46.8895 309.01 47.0152 308.58 47.2577C308.149 47.5091 307.818 47.8683 307.567 48.3263C307.316 48.7843 307.199 49.3231 307.199 49.9427C307.199 50.5533 307.316 51.0921 307.567 51.5591C307.818 52.026 308.149 52.3852 308.58 52.6277C309.01 52.8791 309.485 53.0048 310.023 53.0048C310.561 53.0048 311.045 52.8791 311.475 52.6277ZM308.212 53.1665C307.665 52.8522 307.235 52.4122 306.921 51.8464C306.607 51.2897 306.446 50.6521 306.446 49.9427C306.446 49.2333 306.607 48.5957 306.921 48.03C307.235 47.4732 307.665 47.0332 308.212 46.7189C308.75 46.4046 309.359 46.252 310.023 46.252C310.704 46.252 311.314 46.4046 311.852 46.7189C312.398 47.0332 312.829 47.4732 313.133 48.03C313.447 48.5957 313.6 49.2333 313.6 49.9427C313.6 50.6521 313.447 51.2897 313.133 51.8464C312.829 52.4122 312.398 52.8522 311.852 53.1665C311.314 53.4718 310.704 53.6334 310.023 53.6334C309.359 53.6334 308.75 53.4718 308.212 53.1665Z" fill="black"/>
<path d="M314.693 48.03C315.007 47.4732 315.428 47.0332 315.966 46.7189C316.495 46.4046 317.096 46.252 317.759 46.252C318.566 46.252 319.256 46.4405 319.83 46.8267C320.403 47.2038 320.825 47.7426 321.085 48.443H320.242C320.027 47.9492 319.713 47.572 319.292 47.2936C318.871 47.0152 318.36 46.8805 317.759 46.8805C317.23 46.8805 316.755 47.0063 316.334 47.2487C315.903 47.5002 315.572 47.8594 315.33 48.3263C315.097 48.7843 314.971 49.3231 314.971 49.9427C314.971 50.5533 315.097 51.0921 315.33 51.5501C315.572 52.017 315.903 52.3762 316.334 52.6187C316.755 52.8701 317.23 52.9958 317.759 52.9958C318.36 52.9958 318.871 52.8611 319.292 52.5828C319.713 52.3134 320.027 51.9362 320.242 51.4513H321.085C320.825 52.1428 320.403 52.6726 319.821 53.0587C319.247 53.4359 318.557 53.6244 317.759 53.6244C317.096 53.6244 316.495 53.4628 315.966 53.1575C315.428 52.8432 315.007 52.4032 314.693 51.8464C314.379 51.2807 314.227 50.6521 314.227 49.9427C314.227 49.2333 314.379 48.5957 314.693 48.03Z" fill="black"/>
<path d="M322.16 53.5616H322.878V46.3328H322.16V53.5616Z" fill="black"/>
<path d="M328.131 51.2448L326.705 47.3386L325.28 51.2448H328.131ZM328.346 51.8465H325.056L324.428 53.5616H323.666L326.302 46.4226H327.118L329.735 53.5616H328.973" fill="black"/>
<path d="M334.755 46.3328V46.9344H332.756V53.5616H332.03V46.9344H330.013V46.3328" fill="black"/>
<path d="M335.544 53.5616H336.27V46.3328H335.544V53.5616Z" fill="black"/>
<path d="M342.232 52.6277C342.662 52.3852 343.003 52.026 343.245 51.5591C343.496 51.0921 343.621 50.5533 343.621 49.9427C343.621 49.3231 343.496 48.7843 343.245 48.3263C343.003 47.8683 342.662 47.5091 342.232 47.2577C341.801 47.0152 341.326 46.8895 340.788 46.8895C340.251 46.8895 339.767 47.0152 339.336 47.2577C338.915 47.5091 338.574 47.8683 338.332 48.3263C338.081 48.7843 337.956 49.3231 337.956 49.9427C337.956 50.5533 338.081 51.0921 338.332 51.5591C338.574 52.026 338.915 52.3852 339.336 52.6277C339.767 52.8791 340.251 53.0048 340.788 53.0048C341.326 53.0048 341.801 52.8791 342.232 52.6277ZM338.969 53.1665C338.431 52.8522 338.001 52.4122 337.687 51.8464C337.373 51.2897 337.212 50.6521 337.212 49.9427C337.212 49.2333 337.373 48.5957 337.687 48.03C338.001 47.4732 338.431 47.0332 338.969 46.7189C339.516 46.4046 340.125 46.252 340.788 46.252C341.461 46.252 342.07 46.4046 342.617 46.7189C343.155 47.0332 343.585 47.4732 343.899 48.03C344.204 48.5957 344.365 49.2333 344.365 49.9427C344.365 50.6521 344.204 51.2897 343.899 51.8464C343.585 52.4122 343.155 52.8522 342.617 53.1665C342.07 53.4718 341.461 53.6334 340.788 53.6334C340.125 53.6334 339.516 53.4718 338.969 53.1665Z" fill="black"/>
<path d="M350.766 53.5616H350.04L346.042 47.4822V53.5616H345.325V46.3328H346.042L350.04 52.4032V46.3328H350.766" fill="black"/>
<path d="M206.099 6.99182V8.04247H203.41V9.70375H205.472V10.7275H203.41V13.4573H202.11V6.99182" fill="black"/>
<path d="M208.305 9.96416H209.389C209.739 9.96416 209.999 9.88334 210.169 9.71273C210.348 9.54211 210.429 9.30863 210.429 9.00332C210.429 8.70698 210.348 8.48248 210.169 8.31186C209.999 8.15023 209.739 8.06941 209.389 8.06941H208.305V9.96416ZM210.339 13.4573L208.914 10.943H208.305V13.4573H207.014V6.99182H209.434C209.936 6.99182 210.357 7.08162 210.707 7.26122C211.057 7.43184 211.317 7.67429 211.496 7.97063C211.675 8.27595 211.765 8.6082 211.765 8.97638C211.765 9.40741 211.639 9.78457 211.388 10.1258C211.146 10.476 210.779 10.7095 210.295 10.8352L211.836 13.4573" fill="black"/>
<path d="M355.391 54.181C355.391 58.5363 351.779 62.0743 347.341 62.0743H66.3988C61.9614 62.0743 58.3488 58.5363 58.3488 54.181V18.9529C58.3488 14.5977 61.9614 11.0596 66.3988 11.0596H197.018C197.215 13.3136 198.13 15.5136 199.851 17.2288C201.787 19.1774 204.342 20.1473 206.888 20.1473C209.434 20.1473 211.98 19.1774 213.916 17.2288C215.637 15.5136 216.552 13.3136 216.749 11.0596H347.341C351.779 11.0596 355.391 14.5977 355.391 18.9529V54.181ZM201.151 4.43245C202.684 2.90587 204.719 2.05278 206.888 2.05278C209.048 2.05278 211.092 2.90587 212.625 4.43245C214.158 5.96801 215.001 8.01543 215.001 10.1796C215.001 12.3527 214.158 14.3911 212.625 15.9267C211.092 17.4623 209.048 18.3154 206.888 18.3154C204.719 18.3154 202.684 17.4623 201.151 15.9267C197.986 12.7568 197.986 7.60235 201.151 4.43245ZM347.341 9.21873H216.74C216.525 7.0007 215.619 4.83655 213.916 3.13935C211.98 1.19071 209.434 0.220886 206.888 0.220886C204.342 0.220886 201.796 1.19071 199.851 3.13935C198.157 4.83655 197.242 7.0007 197.027 9.21873H66.3988C60.9485 9.21873 56.5111 13.583 56.5111 18.9529V54.181C56.5111 59.551 60.9485 63.9152 66.3988 63.9152H347.341C352.792 63.9152 357.229 59.551 357.229 54.181V18.9529C357.229 13.583 352.792 9.21873 347.341 9.21873Z" fill="black"/>
</g>
<defs>
<clipPath id="clip0_291_3619">
<rect width="358" height="64" fill="white"/>
</clipPath>
</defs>
</svg>
