<svg width="40" height="40" viewBox="0 0 40 40" fill="none" xmlns="http://www.w3.org/2000/svg">
<g clip-path="url(#clip0_5808_3905)">
<path d="M9.39303 19.425C7.58589 16.9321 5.85375 13.7714 4.86446 11.8643C4.46446 11.0964 5.02161 10.1821 5.88589 10.1821H10.0145" fill="#9FDECF"/>
<path d="M9.39294 20.1393C9.17151 20.1393 8.95366 20.0357 8.81437 19.8428C7.0358 17.3893 5.33937 14.3286 4.22866 12.1928C3.92509 11.6107 3.94651 10.925 4.28937 10.3643C4.63223 9.80356 5.22866 9.46785 5.8858 9.46785H10.0144C10.4072 9.46785 10.7287 9.78928 10.7287 10.1821C10.7287 10.575 10.4072 10.8964 10.0144 10.8964H5.8858C5.66437 10.8964 5.55009 11.0428 5.5108 11.1071C5.47151 11.1714 5.39294 11.3393 5.49651 11.5357C6.3858 13.2464 8.15366 16.4964 9.97151 19.0071C10.2037 19.325 10.1322 19.775 9.8108 20.0036C9.6858 20.0964 9.5358 20.1393 9.39294 20.1393Z" fill="#3F5753"/>
<path d="M19.4787 2.8607C14.4644 2.8607 10.318 6.75713 10.0037 11.7607L8.41797 33.5678H30.5394L28.9537 11.7607C28.6394 6.75713 24.493 2.8607 19.4787 2.8607Z" fill="#9FDECF"/>
<path d="M30.5396 34.2821H8.41815C8.21815 34.2821 8.02887 34.2 7.89673 34.0536C7.76101 33.9071 7.69315 33.7143 7.70744 33.5143L9.29315 11.7071C9.62887 6.34642 14.1039 2.14285 19.4789 2.14285C24.8539 2.14285 29.3289 6.34642 29.6646 11.7143L31.2503 33.5143C31.2646 33.7107 31.1967 33.9071 31.061 34.0536C30.9253 34.2 30.736 34.2821 30.5396 34.2821ZM9.18601 32.8536H29.7717L28.2396 11.8143C27.9503 7.19285 24.1003 3.575 19.4789 3.575C14.8574 3.575 11.0074 7.18928 10.7182 11.8071L9.18601 32.8536Z" fill="#3F5753"/>
<path d="M8.35745 33.5679H30.6325C31.5896 33.5679 32.3682 34.3464 32.3682 35.3036V37.1393H6.61816V35.3036C6.61816 34.3464 7.39674 33.5679 8.35388 33.5679H8.35745Z" fill="#76C1A8"/>
<path d="M32.3645 37.8536H6.61809C6.22524 37.8536 5.90381 37.5321 5.90381 37.1393V35.3036C5.90381 33.9536 7.00381 32.8536 8.35381 32.8536H30.6288C31.9788 32.8536 33.0788 33.9536 33.0788 35.3036V37.1393C33.0788 37.5321 32.7574 37.8536 32.3645 37.8536ZM7.33238 36.425H31.6502V35.3036C31.6502 34.7393 31.1931 34.2821 30.6288 34.2821H8.35738C7.79309 34.2821 7.33595 34.7393 7.33595 35.3036V36.425H7.33238Z" fill="#3F5753"/>
<path d="M25.1181 14.6429C25.1181 13.4574 24.1571 12.4964 22.9716 12.4964C21.7862 12.4964 20.8252 13.4574 20.8252 14.6429V25.9536C20.8252 27.139 21.7862 28.1 22.9716 28.1C24.1571 28.1 25.1181 27.139 25.1181 25.9536V14.6429Z" fill="#6FD3C3"/>
<path d="M22.9716 28.8179C21.393 28.8179 20.1108 27.5357 20.1108 25.9571V14.6428C20.1108 13.0643 21.393 11.7821 22.9716 11.7821C24.5501 11.7821 25.8323 13.0643 25.8323 14.6428V25.9571C25.8323 27.5357 24.5501 28.8179 22.9716 28.8179ZM22.9716 13.2143C22.1823 13.2143 21.5394 13.8571 21.5394 14.6464V25.9607C21.5394 26.75 22.1823 27.3928 22.9716 27.3928C23.7608 27.3928 24.4037 26.75 24.4037 25.9607V14.6464C24.4037 13.8571 23.7608 13.2143 22.9716 13.2143Z" fill="#3F5753"/>
<path d="M30.9426 30.5679H33.9891C34.6962 30.5679 35.2676 29.9964 35.2676 29.2893C35.2676 28.5821 34.6962 28.0107 33.9891 28.0107H30.5391" fill="#8BF8E7"/>
<path d="M33.9856 31.2821H30.9391C30.5463 31.2821 30.2249 30.9607 30.2249 30.5678C30.2249 30.175 30.5463 29.8536 30.9391 29.8536H33.9856C34.2963 29.8536 34.5499 29.6 34.5499 29.2893C34.5499 28.9786 34.2963 28.725 33.9856 28.725H30.5356C30.1427 28.725 29.8213 28.4036 29.8213 28.0107C29.8213 27.6178 30.1427 27.2964 30.5356 27.2964H33.9856C35.0856 27.2964 35.9784 28.1893 35.9784 29.2893C35.9784 30.3893 35.0856 31.2821 33.9856 31.2821Z" fill="#3F5753"/>
<path d="M27.1858 7.75714H18.5536C18.1608 7.75714 17.8394 7.43571 17.8394 7.04285C17.8394 6.65 18.1608 6.32857 18.5536 6.32857H27.1858C27.5786 6.32857 27.9001 6.65 27.9001 7.04285C27.9001 7.43571 27.5786 7.75714 27.1858 7.75714Z" fill="#3F5753"/>
<path d="M15.8501 7.75714H11.6108C11.2179 7.75714 10.8965 7.43571 10.8965 7.04285C10.8965 6.65 11.2179 6.32857 11.6108 6.32857H15.8501C16.2429 6.32857 16.5643 6.65 16.5643 7.04285C16.5643 7.43571 16.2429 7.75714 15.8501 7.75714Z" fill="#3F5753"/>
<path d="M23.0034 20.8536H21.1034C20.7106 20.8536 20.3892 20.5321 20.3892 20.1393C20.3892 19.7464 20.7106 19.425 21.1034 19.425H23.0034C23.3963 19.425 23.7177 19.7464 23.7177 20.1393C23.7177 20.5321 23.3963 20.8536 23.0034 20.8536Z" fill="#3F5753"/>
<path d="M35.2678 21.9357C34.875 21.9357 34.5535 21.6143 34.5535 21.2214V12.6714C34.5535 11.6928 33.7571 10.8964 32.7785 10.8964H28.9535C28.5607 10.8964 28.2393 10.575 28.2393 10.1821C28.2393 9.78928 28.5607 9.46785 28.9535 9.46785H32.7785C34.5464 9.46785 35.9821 10.9036 35.9821 12.6714V21.2214C35.9821 21.6143 35.6607 21.9357 35.2678 21.9357Z" fill="#3F5753"/>
</g>
<defs>
<clipPath id="clip0_5808_3905">
<rect width="40" height="40" fill="white"/>
</clipPath>
</defs>
</svg>
