<svg width="40" height="40" viewBox="0 0 40 40" fill="none" xmlns="http://www.w3.org/2000/svg">
<g clip-path="url(#clip0_5808_4044)">
<path d="M5.61084 38.0821V35.1393H2.66798V38.0821H5.61084Z" fill="#DFFDF7"/>
<path d="M5.61076 38.7928H2.6679C2.27504 38.7928 1.95361 38.4714 1.95361 38.0786V35.1357C1.95361 34.7428 2.27504 34.4214 2.6679 34.4214H5.61076C6.00361 34.4214 6.32504 34.7428 6.32504 35.1357V38.0786C6.32504 38.4714 6.00361 38.7928 5.61076 38.7928ZM3.38218 37.3643H4.89647V35.85H3.38218V37.3643Z" fill="#3F5753"/>
<path d="M37.5322 38.0786V35.1357H34.5894V38.0786H37.5322Z" fill="#DFFDF7"/>
<path d="M37.5321 38.7928H34.5893C34.1964 38.7928 33.875 38.4714 33.875 38.0786V35.1357C33.875 34.7428 34.1964 34.4214 34.5893 34.4214H37.5321C37.925 34.4214 38.2464 34.7428 38.2464 35.1357V38.0786C38.2464 38.4714 37.925 38.7928 37.5321 38.7928ZM35.3036 37.3643H36.8179V35.85H35.3036V37.3643Z" fill="#3F5753"/>
<path d="M35.9676 25.2857C35.9676 31.5179 28.7854 33.1321 19.9247 33.1321C11.064 33.1321 3.88184 31.5214 3.88184 25.2857C3.88184 19.05 5.87112 15 19.9247 15C33.9783 15 35.9676 19.0536 35.9676 25.2857Z" fill="#6FD3C3"/>
<path d="M19.9212 33.8428C14.8141 33.8428 11.0141 33.3071 8.30692 32.2036C4.89263 30.8143 3.16406 28.4857 3.16406 25.2821C3.16406 18.3143 5.90692 14.2821 19.9212 14.2821C33.9355 14.2821 36.6784 18.3143 36.6784 25.2821C36.6784 33.8428 24.0641 33.8428 19.9212 33.8428ZM19.9212 15.7107C5.72121 15.7107 4.59263 19.8607 4.59263 25.2821C4.59263 30.1464 9.46406 32.4143 19.9212 32.4143C30.3784 32.4143 35.2498 30.15 35.2498 25.2821C35.2498 19.8571 34.1212 15.7107 19.9212 15.7107Z" fill="#3F5753"/>
<path d="M26.0896 25.9107C26.0896 25.9107 25.286 23.4286 26.0896 21.3607C26.0896 21.3607 28.1431 20.6321 30.911 20.9893C33.6789 21.3464 34.8146 21.7786 34.8146 21.7786L33.6503 25.9143H26.0896V25.9107Z" fill="#5BB5A7"/>
<path d="M33.6501 26.625H26.0894C25.7787 26.625 25.5037 26.425 25.4108 26.1321C25.3751 26.0214 24.5394 23.3821 25.4251 21.1036C25.5001 20.9107 25.6572 20.7571 25.8501 20.6893C25.9394 20.6571 28.0965 19.9071 31.0037 20.2821C33.8215 20.6464 35.0215 21.0929 35.0715 21.1107C35.418 21.2429 35.6073 21.6143 35.5073 21.9714L34.343 26.1071C34.2573 26.4143 33.9751 26.6286 33.6537 26.6286L33.6501 26.625ZM26.6394 25.1964H33.1073L33.9323 22.2607C33.3465 22.1107 32.3358 21.8929 30.8144 21.6964C28.8573 21.4429 27.2858 21.7679 26.6394 21.9393C26.2787 23.1571 26.4787 24.4964 26.6358 25.1964H26.6394Z" fill="#3F5753"/>
<path d="M3.88936 20.7286C1.28578 20.3036 0.714355 21.9429 0.714355 23.3964C0.714355 24.3107 1.18221 25.1179 1.88936 25.5893L1.88936 35.1286H6.45007V23.2893C6.45007 21.875 5.28578 20.9536 3.88936 20.7286Z" fill="#8BF8E7"/>
<path d="M6.45 35.8429H1.88929C1.49643 35.8429 1.175 35.5214 1.175 35.1286L1.175 25.9429C0.432143 25.3107 0 24.3821 0 23.3964C0 22.1679 0.367857 21.2071 1.06071 20.6143C1.76429 20.0179 2.75357 19.8179 4.00357 20.0214C5.89286 20.3286 7.16429 21.6429 7.16429 23.2893V35.1286C7.16429 35.5214 6.84286 35.8429 6.45 35.8429ZM2.60357 34.4143H5.73571V23.2893C5.73571 22.1536 4.67857 21.5786 3.77143 21.4321C2.95357 21.3 2.35357 21.3893 1.98571 21.7036C1.525 22.0964 1.42857 22.8393 1.42857 23.3964C1.42857 24.0393 1.75 24.6393 2.28571 24.9964C2.48571 25.1286 2.60357 25.3536 2.60357 25.5893L2.60357 34.4143Z" fill="#3F5753"/>
<path d="M36.111 20.7286C38.7146 20.3036 39.286 21.9429 39.286 23.3964C39.286 24.3107 38.8181 25.1179 38.111 25.5893V35.1286H33.5503V23.2893C33.5503 21.875 34.7146 20.9536 36.111 20.7286Z" fill="#8BF8E7"/>
<path d="M38.1109 35.8429H33.5502C33.1574 35.8429 32.8359 35.5214 32.8359 35.1286V23.2893C32.8359 21.6429 34.1074 20.3321 35.9967 20.0214C37.2467 19.8179 38.2359 20.0179 38.9395 20.6143C39.6324 21.2036 40.0002 22.1679 40.0002 23.3964C40.0002 24.3857 39.5681 25.3107 38.8252 25.9429V35.1286C38.8252 35.5214 38.5038 35.8429 38.1109 35.8429ZM34.2645 34.4143H37.3967V25.5893C37.3967 25.35 37.5145 25.1286 37.7145 24.9964C38.2502 24.6393 38.5717 24.0393 38.5717 23.3964C38.5717 22.8393 38.4752 22.0964 38.0145 21.7036C37.6467 21.3893 37.0467 21.3 36.2288 21.4321C35.3217 21.5786 34.2645 22.1536 34.2645 23.2893V34.4143Z" fill="#3F5753"/>
<path d="M37.8892 32.1786H1.88916V35.1286H37.8892V32.1786Z" fill="#9FDECF"/>
<path d="M37.8891 35.8429H1.88909C1.49623 35.8429 1.1748 35.5214 1.1748 35.1286V32.1786C1.1748 31.7857 1.49623 31.4643 1.88909 31.4643H37.8891C38.2819 31.4643 38.6034 31.7857 38.6034 32.1786V35.1286C38.6034 35.5214 38.2819 35.8429 37.8891 35.8429ZM2.60338 34.4143H37.1748V32.8929H2.60338V34.4143Z" fill="#3F5753"/>
<path d="M4.07487 25.2821H16.0463C18.1642 25.2821 19.8856 27.0036 19.8856 29.1214V32.1821H4.07487C2.86773 32.1821 1.88916 31.2036 1.88916 29.9964L1.88916 27.4679C1.88916 26.2607 2.86773 25.2821 4.07487 25.2821Z" fill="#8BF8E7"/>
<path d="M19.8891 32.8928H4.0748C2.4748 32.8928 1.1748 31.5928 1.1748 29.9928L1.1748 27.4643C1.1748 25.8643 2.4748 24.5643 4.0748 24.5643H16.0462C18.5569 24.5643 20.5998 26.6071 20.5998 29.1178V32.1786C20.5998 32.5714 20.2784 32.8928 19.8855 32.8928H19.8891ZM4.0748 25.9928C3.26409 25.9928 2.60338 26.6536 2.60338 27.4643V29.9928C2.60338 30.8036 3.26409 31.4643 4.0748 31.4643H19.1748V29.1178C19.1748 27.3928 17.7712 25.9928 16.0498 25.9928H4.0748Z" fill="#3F5753"/>
<path d="M23.7286 25.2821H35.7C36.9072 25.2821 37.8857 26.2607 37.8857 27.4679V29.9964C37.8857 31.2036 36.9072 32.1821 35.7 32.1821H19.8857V29.1214C19.8857 27.0036 21.6072 25.2821 23.725 25.2821H23.7286Z" fill="#8BF8E7"/>
<path d="M35.7034 32.8928H19.8891C19.4962 32.8928 19.1748 32.5714 19.1748 32.1786V29.1178C19.1748 26.6071 21.2177 24.5643 23.7284 24.5643H35.6998C37.2998 24.5643 38.5998 25.8643 38.5998 27.4643V29.9928C38.5998 31.5928 37.2998 32.8928 35.6998 32.8928H35.7034ZM20.6034 31.4643H35.7034C36.5141 31.4643 37.1748 30.8036 37.1748 29.9928V27.4643C37.1748 26.6536 36.5141 25.9928 35.7034 25.9928H23.7319C22.0069 25.9928 20.6069 27.3964 20.6069 29.1178V31.4643H20.6034Z" fill="#3F5753"/>
</g>
<defs>
<clipPath id="clip0_5808_4044">
<rect width="40" height="40" fill="white"/>
</clipPath>
</defs>
</svg>
