<svg width="40" height="40" viewBox="0 0 40 40" fill="none" xmlns="http://www.w3.org/2000/svg">
<g clip-path="url(#clip0_5808_4077)">
<path d="M14.5896 7.38214H11.4538V4.24643H8.04669V7.38214H4.91455V10.7893H8.04669V13.9214H11.4538V10.7893H14.5896V7.38214Z" fill="#5BB5A7"/>
<path d="M11.4538 14.6357H8.04662C7.65377 14.6357 7.33234 14.3143 7.33234 13.9214V11.5036H4.91448C4.52162 11.5036 4.2002 11.1821 4.2002 10.7893V7.38213C4.2002 6.98928 4.52162 6.66785 4.91448 6.66785H7.33234V4.24999C7.33234 3.85713 7.65377 3.53571 8.04662 3.53571L11.4538 3.53571C11.8466 3.53571 12.1681 3.85713 12.1681 4.24999V6.66785H14.5859C14.9788 6.66785 15.3002 6.98928 15.3002 7.38213V10.7893C15.3002 11.1821 14.9788 11.5036 14.5859 11.5036H12.1681V13.9214C12.1681 14.3143 11.8466 14.6357 11.4538 14.6357ZM8.76091 13.2071H10.7395V10.7893C10.7395 10.3964 11.0609 10.075 11.4538 10.075H13.8716V8.09642H11.4538C11.0609 8.09642 10.7395 7.77499 10.7395 7.38213V4.96428H8.76091V7.38213C8.76091 7.77499 8.43948 8.09642 8.04662 8.09642H5.62877V10.075H8.04662C8.43948 10.075 8.76091 10.3964 8.76091 10.7893V13.2071Z" fill="#3F5753"/>
<path d="M12.5035 35.9357C16.4898 35.9357 19.7214 32.7042 19.7214 28.7179C19.7214 24.7315 16.4898 21.5 12.5035 21.5C8.51719 21.5 5.28564 24.7315 5.28564 28.7179C5.28564 32.7042 8.51719 35.9357 12.5035 35.9357Z" fill="#BAFAEE"/>
<path d="M12.5034 36.65C8.12843 36.65 4.57129 33.0928 4.57129 28.7178C4.57129 24.3428 8.12843 20.7857 12.5034 20.7857C16.8784 20.7857 20.4356 24.3428 20.4356 28.7178C20.4356 33.0928 16.8784 36.65 12.5034 36.65ZM12.5034 22.2143C8.91772 22.2143 5.99986 25.1321 5.99986 28.7178C5.99986 32.3036 8.91772 35.2214 12.5034 35.2214C16.0891 35.2214 19.007 32.3036 19.007 28.7178C19.007 25.1321 16.0891 22.2143 12.5034 22.2143Z" fill="#3F5753"/>
<path d="M14.8249 36.2679C14.5249 36.2679 14.2463 36.075 14.1463 35.775L9.66059 22.05C9.53916 21.675 9.74273 21.2714 10.1177 21.15C10.4927 21.0286 10.8963 21.2321 11.0177 21.6071L15.5034 35.3321C15.6249 35.7071 15.4213 36.1107 15.0463 36.2321C14.9713 36.2571 14.8963 36.2679 14.8249 36.2679Z" fill="#3F5753"/>
<path d="M13.957 24.8178C13.957 24.8178 15.8963 24.9607 16.7963 27.7071L13.957 24.8178Z" fill="#EE706B"/>
<path d="M16.7964 28.4214C16.4964 28.4214 16.2179 28.2285 16.1179 27.9285C15.3929 25.7143 13.9536 25.5357 13.8929 25.5286C13.5071 25.4857 13.2179 25.1428 13.25 24.7535C13.2857 24.3643 13.6214 24.0714 14.0071 24.1035C14.1071 24.1107 16.4393 24.3178 17.475 27.4821C17.5964 27.8571 17.3929 28.2607 17.0179 28.3821C16.9429 28.4071 16.8679 28.4178 16.7964 28.4178V28.4214Z" fill="white"/>
<path d="M30.1305 11.4331C28.9625 8.61624 25.7322 7.27952 22.9153 8.44745C20.0985 9.61539 18.7617 12.8457 19.9297 15.6626L25.6953 29.5683C26.8632 32.3851 30.0936 33.7219 32.9104 32.5539C35.7273 31.386 37.064 28.1557 35.8961 25.3388L30.1305 11.4331Z" fill="#BAFAEE"/>
<path d="M30.8036 33.6928C28.3571 33.6928 26.0286 32.2428 25.0357 29.8464L19.2678 15.9393C17.95 12.7643 19.4643 9.10714 22.6393 7.78928C24.1786 7.14999 25.8714 7.14999 27.4107 7.78928C28.95 8.42499 30.15 9.62499 30.7857 11.1643L36.5536 25.0714C37.8714 28.2464 36.3571 31.9036 33.1821 33.2214C32.4036 33.5428 31.5964 33.6964 30.8036 33.6964V33.6928ZM25.0286 8.73928C24.4036 8.73928 23.7821 8.86071 23.1857 9.10714C20.7393 10.1214 19.5714 12.9393 20.5857 15.3893L26.3536 29.2964C27.3678 31.7428 30.1857 32.9107 32.6357 31.8964C35.0821 30.8821 36.25 28.0643 35.2357 25.6143L29.4678 11.7071C28.975 10.5214 28.0536 9.59642 26.8643 9.10714C26.2714 8.86071 25.65 8.73928 25.025 8.73928H25.0286Z" fill="#3F5753"/>
<path d="M34.057 29.7821C31.2392 30.95 28.0106 29.6143 26.8428 26.7964L21.0749 12.8893C20.6999 11.9857 20.5856 11.0393 20.6928 10.1286C19.4963 11.6464 19.1356 13.75 19.9285 15.6607L25.6963 29.5679C26.8642 32.3857 30.0928 33.7214 32.9106 32.5536C34.8213 31.7607 36.0499 30.0179 36.2785 28.0964C35.7142 28.8143 34.9642 29.4036 34.0606 29.7786L34.057 29.7821Z" fill="#73E0CF"/>
<path d="M30.8036 33.6928C28.3571 33.6928 26.0286 32.2428 25.0357 29.8464L19.2678 15.9393C17.95 12.7643 19.4643 9.10714 22.6393 7.78928C24.1786 7.14999 25.8714 7.14999 27.4107 7.78928C28.95 8.42499 30.15 9.62499 30.7857 11.1643L36.5536 25.0714C37.8714 28.2464 36.3571 31.9036 33.1821 33.2214C32.4036 33.5428 31.5964 33.6964 30.8036 33.6964V33.6928ZM25.0286 8.73928C24.4036 8.73928 23.7821 8.86071 23.1857 9.10714C20.7393 10.1214 19.5714 12.9393 20.5857 15.3893L26.3536 29.2964C27.3678 31.7428 30.1857 32.9107 32.6357 31.8964C35.0821 30.8821 36.25 28.0643 35.2357 25.6143L29.4678 11.7071C28.975 10.5214 28.0536 9.59642 26.8643 9.10714C26.2714 8.86071 25.65 8.73928 25.025 8.73928H25.0286Z" fill="#3F5753"/>
<path d="M22.8141 23.3321C22.532 23.3321 22.2677 23.1679 22.1534 22.8929C22.0034 22.5286 22.1748 22.1107 22.5391 21.9607L32.7391 17.7321C33.1034 17.5821 33.5212 17.7536 33.6712 18.1179C33.8212 18.4821 33.6498 18.9 33.2855 19.05L23.0855 23.2786C22.9962 23.3143 22.9034 23.3321 22.8141 23.3321Z" fill="#3F5753"/>
<path d="M33.2283 29.1464C33.1105 29.1464 32.989 29.1179 32.8783 29.0536C32.5355 28.8607 32.4105 28.425 32.6069 28.0821C32.714 27.8929 32.7855 27.6607 32.8212 27.3964C32.8783 26.9536 32.7998 26.475 32.5998 26.0107L31.6855 23.9071C31.5283 23.5464 31.6962 23.125 32.0569 22.9679C32.4212 22.8107 32.839 22.975 32.9962 23.3393L33.9105 25.4429C34.214 26.1429 34.3283 26.8821 34.239 27.5821C34.1819 28.0286 34.0533 28.4321 33.8569 28.7857C33.7248 29.0179 33.4819 29.15 33.2319 29.15L33.2283 29.1464Z" fill="white"/>
</g>
<defs>
<clipPath id="clip0_5808_4077">
<rect width="40" height="40" fill="white"/>
</clipPath>
</defs>
</svg>
