<svg width="40" height="40" viewBox="0 0 40 40" fill="none" xmlns="http://www.w3.org/2000/svg">
<g clip-path="url(#clip0_5808_3959)">
<path d="M15.143 9.95001C15.143 9.95001 9.9787 4.0643 4.26441 3.96072L3.11084 8.03572C3.11084 8.03572 7.19298 7.62858 13.5823 14.25L14.643 15.35L17.7537 11.8072L15.143 9.95001Z" fill="#8BF8E7"/>
<path d="M14.6431 16.0643C14.4502 16.0643 14.2645 15.9857 14.1288 15.8464L13.0681 14.7464C7.06452 8.525 3.21095 8.74286 3.17166 8.74643C2.93952 8.76429 2.70738 8.66786 2.56095 8.48572C2.41452 8.30357 2.35738 8.06429 2.42166 7.83929L3.57523 3.76429C3.66095 3.45714 3.94309 3.24286 4.26095 3.24286H4.27523C9.97523 3.34643 15.0002 8.72143 15.6217 9.41072L18.1681 11.2214C18.3324 11.3393 18.4395 11.5214 18.4645 11.7214C18.4895 11.9214 18.4252 12.125 18.2931 12.275L15.1824 15.8179C15.0502 15.9679 14.8609 16.0571 14.6609 16.0607C14.6538 16.0607 14.6502 16.0607 14.6431 16.0607V16.0643ZM4.03595 7.38214C5.69309 7.63214 9.29309 8.77857 14.0931 13.7536L14.6145 14.2964L16.6895 11.9321L14.7217 10.5321C14.6752 10.5 14.6359 10.4643 14.6002 10.4214C14.5538 10.3679 9.90738 5.14643 4.78952 4.70357L4.02881 7.38214H4.03595Z" fill="#37635F"/>
<path d="M13.8789 12.85C13.8789 12.85 9.42178 6.41784 10.7075 0.846407L14.9396 0.714264C14.9396 0.714264 13.5539 4.57855 18.4325 12.3786L19.2432 13.675L15.0539 15.8357L13.8861 12.85H13.8789Z" fill="#6ED5C5"/>
<path d="M15.0504 16.55C14.9647 16.55 14.879 16.5357 14.7969 16.5036C14.6076 16.4321 14.4576 16.2857 14.3826 16.0964L13.2433 13.1893C12.7255 12.4214 8.72545 6.24285 10.0112 0.689277C10.0826 0.374991 10.3612 0.146419 10.6862 0.135705L14.9183 -9.14151e-06C15.154 -0.0107234 15.379 0.103562 15.5183 0.292848C15.6576 0.485705 15.6933 0.732134 15.6147 0.953562C15.604 0.982134 14.4612 4.67142 19.0397 12L19.8505 13.2964C19.9576 13.4643 19.9862 13.6714 19.9326 13.8643C19.879 14.0571 19.7469 14.2178 19.5719 14.3107L15.3826 16.4678C15.279 16.5214 15.1683 16.5464 15.054 16.5464L15.0504 16.55ZM11.2969 1.54285C10.4862 6.61428 14.4254 12.3857 14.4647 12.4464C14.4969 12.4928 14.5219 12.5393 14.5433 12.5928L15.4254 14.8393L18.2219 13.3964L17.8219 12.7571C14.1576 6.89285 13.9183 3.12142 14.079 1.45356L11.2969 1.54285Z" fill="#37635F"/>
<path d="M34.3219 35.9464L33.1505 36.8607C31.9719 37.7786 30.2719 37.5714 29.3541 36.3928L28.9291 35.6607C26.5648 31.6036 23.8541 27.7571 20.8255 24.1678L19.5684 22.6786L23.8541 19.3286L24.9898 20.9036C27.7398 24.7107 30.8112 28.2714 34.1755 31.55L34.7862 32.1464C35.7041 33.325 35.4969 35.025 34.3184 35.9428L34.3219 35.9464Z" fill="#DFFDF7"/>
<path d="M31.486 38.1464C30.4681 38.1464 29.461 37.6964 28.786 36.8321C28.7646 36.8071 28.7467 36.7786 28.7324 36.7536L28.3074 36.0214C25.9717 32.0107 23.2681 28.1786 20.2753 24.6286L19.0181 23.1393C18.8931 22.9893 18.8324 22.7964 18.8538 22.6036C18.8753 22.4107 18.9717 22.2321 19.1253 22.1143L23.411 18.7643C23.5646 18.6464 23.7574 18.5928 23.9503 18.6214C24.1431 18.65 24.3146 18.7536 24.4288 18.9107L25.5646 20.4857C28.2824 24.25 31.3431 27.8 34.6681 31.0393L35.2788 31.6357C35.3003 31.6571 35.3217 31.6821 35.3431 31.7071C35.9038 32.4286 36.1538 33.3214 36.0431 34.2286C35.9324 35.1357 35.4753 35.9428 34.7538 36.5071L33.5824 37.4214C32.9574 37.9071 32.2181 38.1428 31.4824 38.1428L31.486 38.1464ZM29.9431 35.9893C30.6253 36.8214 31.8574 36.9643 32.711 36.2964L33.8824 35.3821C34.3003 35.0536 34.5681 34.5857 34.6324 34.0571C34.6967 33.5428 34.561 33.0357 34.2538 32.625L33.6788 32.0643C30.2967 28.7678 27.1788 25.1536 24.4146 21.325L23.711 20.35L20.5931 22.7857L21.3717 23.7107C24.4181 27.3214 27.1681 31.2214 29.5467 35.3036L29.9467 35.9893H29.9431Z" fill="#37635F"/>
<path d="M19.5685 22.6785C19.5685 22.6785 12.2935 15.7285 5.82921 18.05L4.49707 13.525C4.49707 13.525 15.7721 9.38211 23.8542 19.3285L19.5685 22.6785Z" fill="#6ED5C5"/>
<path d="M19.5683 23.3928C19.3897 23.3928 19.2111 23.325 19.0754 23.1964C19.004 23.1286 12.0361 16.5786 6.07184 18.7214C5.88613 18.7893 5.68256 18.775 5.50756 18.6857C5.33256 18.5964 5.20042 18.4393 5.14684 18.25L3.8147 13.725C3.70756 13.3643 3.90042 12.9821 4.25399 12.8536C4.37184 12.8107 16.104 8.64998 24.4111 18.8786C24.5326 19.0286 24.5897 19.2178 24.5683 19.4107C24.5468 19.6 24.4504 19.775 24.2968 19.8928L20.0111 23.2428C19.8826 23.3428 19.7254 23.3928 19.5718 23.3928H19.5683ZM8.6147 16.8678C10.7326 16.8678 13.054 17.5393 15.4647 18.8678C17.3897 19.9286 18.8826 21.1286 19.5968 21.7464L22.829 19.2214C16.2218 11.6464 7.7647 13.3214 5.37899 13.9964L6.30756 17.1536C7.04327 16.9607 7.8147 16.8678 8.61113 16.8678H8.6147Z" fill="#37635F"/>
<path d="M23.8786 19.3143C23.8786 19.3143 18.8393 11.725 22.9429 5.14999L19.1643 2.53928C19.1643 2.53928 11.9 12.4107 19.5929 22.6607L23.8786 19.3107V19.3143Z" fill="#8BF8E7"/>
<path d="M19.5895 23.375C19.5574 23.375 19.5252 23.375 19.4966 23.3678C19.3074 23.3428 19.1359 23.2428 19.0181 23.0893C11.0966 12.5357 18.5074 2.21784 18.5859 2.11427C18.8145 1.80356 19.2502 1.73213 19.5681 1.94999L23.3466 4.5607C23.6609 4.77856 23.7502 5.20356 23.5466 5.52498C21.9609 8.06427 21.6252 11.0714 22.5502 14.4643C23.2538 17.05 24.4645 18.8964 24.4752 18.9143C24.6824 19.225 24.6145 19.6428 24.3181 19.8714L20.0324 23.2214C19.9074 23.3214 19.7502 23.3714 19.5931 23.3714L19.5895 23.375ZM19.3502 3.53927C18.0109 5.69284 14.0216 13.425 19.7324 21.6428L22.9359 19.1393C22.4895 18.3571 21.7109 16.8286 21.1788 14.8857C20.2181 11.3857 20.4966 8.10713 21.9895 5.3607L19.3502 3.53927Z" fill="#37635F"/>
<path d="M33.15 36.8607C33.15 36.8607 31.9964 38.2357 32.575 39.2857L33.15 36.8607Z" fill="#8BF8E7"/>
<path d="M32.5752 40C32.3216 40 32.0788 39.8679 31.9502 39.6286C31.1609 38.1929 32.4538 36.5786 32.6038 36.4C32.8573 36.0964 33.3073 36.0571 33.6109 36.3107C33.9109 36.5643 33.9538 37.0143 33.7002 37.3143C33.4288 37.6429 32.9466 38.475 33.2002 38.9393C33.3895 39.2857 33.2645 39.7179 32.918 39.9107C32.8073 39.9714 32.6895 40 32.5752 40Z" fill="#37635F"/>
<path d="M33.9184 36.6357C33.9184 36.6357 33.6827 37.6321 34.497 38.5857L33.9184 36.6357Z" fill="#8BF8E7"/>
<path d="M34.4969 39.3C34.2969 39.3 34.0969 39.2143 33.954 39.05C33.1254 38.0821 33.104 36.9714 33.2219 36.4714C33.3112 36.0893 33.6969 35.8464 34.0826 35.9393C34.4647 36.0286 34.7004 36.4071 34.6147 36.7893C34.6076 36.8321 34.4933 37.4821 35.0397 38.1179C35.2969 38.4179 35.2612 38.8679 34.9612 39.125C34.8254 39.2393 34.6612 39.2964 34.4969 39.2964V39.3Z" fill="#37635F"/>
<path d="M34.3218 35.9464C34.3218 35.9464 35.8861 35.7 36.8932 36.3143L34.3218 35.9464Z" fill="#8BF8E7"/>
<path d="M36.8895 37.0286C36.7609 37.0286 36.6323 36.9964 36.5181 36.925C35.8859 36.5357 34.7966 36.5964 34.4323 36.6536C34.0466 36.7143 33.6788 36.4464 33.6181 36.0571C33.5573 35.6678 33.8216 35.3036 34.2109 35.2428C34.3966 35.2143 36.0716 34.975 37.2681 35.7071C37.6038 35.9143 37.7109 36.3536 37.5038 36.6893C37.3681 36.9107 37.1359 37.0321 36.8931 37.0321L36.8895 37.0286Z" fill="#37635F"/>
</g>
<defs>
<clipPath id="clip0_5808_3959">
<rect width="40" height="40" fill="white"/>
</clipPath>
</defs>
</svg>
